<svg width="434" height="439" viewBox="0 0 434 439" fill="none" xmlns="http://www.w3.org/2000/svg">
<path d="M417.627 196.841C419.291 380.727 157.107 480.566 44.7868 318.281C-30.0997 218.421 7.34682 81.0765 107.213 31.176C182.125 -6.27703 281.998 18.683 360.232 66.393C396.183 97.9635 418.205 143.158 417.653 196.848" fill="#F8BBD0"/>
<path d="M395.297 302.876C390.476 312.132 377.868 327.848 370.026 335.547C369.885 335.692 369.744 335.836 369.603 335.98C367.774 337.838 366.034 339.586 363.957 341.594C358.948 346.296 352.308 352.957 336.346 363.923C331.761 367.191 327.061 370.285 322.249 373.205C270.449 404.644 205.733 416.254 146.931 399.465C146.191 399.265 145.438 399.058 144.679 398.844C129.896 394.843 112.521 387.123 102.368 380.794C89.4671 372.909 81.6094 366.278 75.3089 360.659C62.0016 349.083 50.4773 335.836 40.555 321.21L40.6695 321.369C22.6706 296.957 10.0632 268.579 4.42012 238.822C1.60998 224.116 0.457771 209.103 0.961766 194.152C1.42391 180.385 3.29444 166.665 6.52893 153.272C8.2952 145.442 10.4163 138.094 12.7227 131.385C15.9588 121.96 19.5624 113.799 22.9297 107.271C30.9382 91.4494 43.2075 75.2857 53.6772 64.6685C55.3739 62.918 57.0075 61.3013 58.5431 59.8268C66.9254 51.4649 76.1194 43.8848 85.9766 37.2642C86.6701 36.8721 87.3655 36.4877 88.079 36.0997C92.9271 33.4711 98.3138 30.4836 105.189 27.1263C110.963 24.3185 117.772 21.3061 126.214 18.4367C134.267 15.7095 143.811 13.1209 155.239 11.3069C162.609 10.1641 166.464 10.1235 169.574 10.062C170.492 10.0487 171.353 10.0417 172.224 10.0265C175.219 9.97523 178.313 9.59603 182.025 9.24498C186.817 8.79753 192.616 8.38041 200.234 9.0433C224.412 11.4204 234.842 13.3203 242.905 14.2679C245.252 14.5904 247.382 14.9092 249.55 15.3215C256.56 16.6286 266.344 19.4942 273.552 22.0957C279.286 24.1033 290.873 27.7472 299.566 30.8304C302.856 31.9795 307.234 33.7425 312.327 35.9446C317.6 38.224 323.644 40.9804 330.087 43.9892C346.346 51.6481 354.63 56.4511 361.311 60.2562C361.982 60.6437 362.636 61.0236 363.277 61.3988L364.092 61.9976C365.149 62.893 366.164 63.7728 367.169 64.662C372.093 69.006 377.907 74.7636 383.301 81.0443C389.786 88.5369 395.604 96.7922 399.663 103.306C409.737 120.468 416.677 139.404 420.267 158.862C422.138 168.871 422.44 178.66 421.728 185.803C421.013 192.951 419.527 196.865 418.145 196.853C416.729 196.831 415.507 192.919 414.164 186.161C412.82 179.388 411.318 170.342 409.354 161.007C405.447 142.21 398.228 124.17 388.066 107.994C379.384 94.1428 368.588 81.6574 356.261 70.9151L357.098 71.5311C351.061 67.8774 344.914 64.3609 338.701 61.0052C324.082 53.1109 309.004 46.0848 293.538 40.0693C291.945 39.45 290.349 38.8416 288.751 38.2452C275.561 33.72 262.144 30.1244 252.649 27.9204C244.819 26.0885 239.101 24.7659 234.187 23.711C230.819 22.9928 227.793 22.4069 224.741 21.9775C223.107 21.7482 220.839 21.4544 218.128 21.1546C207.049 19.8525 188.125 18.845 170.989 20.1239C163.387 20.6304 154.591 21.6083 146.287 23.2055C134.405 25.4193 123.652 29.0331 118.475 31.3755C115.537 32.6835 112.503 34.0994 109.44 35.6316C102.945 38.8718 96.4212 42.5628 90.6432 46.3122C82.4984 51.5708 75.8832 56.9222 72.4184 60.2942C68.2987 64.3214 64.6568 67.6124 59.5513 72.8448C56.0308 76.4905 51.8013 81.0855 46.6995 87.855C40.8396 95.6909 37.0893 101.538 34.0223 106.578C29.7613 113.704 26.799 119.265 23.5191 128C19.8965 137.707 16.9413 148.097 14.8779 156.346C13.9272 160.095 13.0287 164.444 12.2761 168.988C11.2718 175.008 10.5364 181.381 9.99412 187.226C9.54628 192.025 9.15898 196.033 8.89296 199.564C8.81053 200.668 8.74126 201.73 8.68856 202.759C8.73083 206.632 8.89121 210.481 9.17249 214.34C9.26038 214.962 9.35828 215.614 9.46378 216.296C9.99422 219.702 10.7251 223.875 11.6496 229.012C13.1257 237.134 14.5292 244.253 16.4143 251.656C17.8995 257.435 19.6882 263.376 22.3256 269.988C24.1189 274.484 26.4297 279.513 28.9419 284.37C32.6578 291.599 36.8574 298.429 39.7736 303.166C40.8661 304.948 41.729 306.56 42.5748 308.109C42.5784 308.116 42.5819 308.123 42.5854 308.13C42.6434 308.236 42.7019 308.342 42.7601 308.447C44.4779 310.915 46.2635 313.361 48.1176 315.783L48.2102 315.912C54.4257 324.701 61.1161 332.748 68.4944 340.26C69.3338 341.07 70.1724 341.865 71.0344 342.669C75.29 346.65 79.5586 350.194 82.4726 352.287C85.6815 354.63 93.368 360.663 102.278 366.075C108.035 369.61 114.254 372.883 119.448 375.222C122.473 376.589 125.278 378.057 128.22 379.496C130.961 380.835 133.809 382.143 137.032 383.256C138.648 383.813 140.432 384.35 142.334 384.885C144.01 385.357 145.785 385.83 147.642 386.323C149.366 386.78 153.158 387.964 158.119 389.215C161.181 389.988 164.68 390.783 168.388 391.478C178.241 393.026 188.207 393.793 198.184 393.826C200.265 393.699 202.068 393.491 203.49 393.215C204.51 393.017 205.375 392.778 206.261 392.53C207.466 392.19 208.708 391.832 210.419 391.499C211.758 391.239 213.334 391.067 214.403 391.076C214.9 391.081 215.286 391.126 215.636 391.166C216.037 391.211 216.395 391.251 216.827 391.215C217.138 391.189 217.457 391.11 217.85 391.013C218.477 390.858 219.29 390.656 220.545 390.53C225.217 390.063 230.512 389.417 235.677 388.576C241.426 387.649 246.996 386.483 251.39 385.352C256.319 384.097 263.339 382.334 270.282 380.147C275.123 378.634 279.919 376.934 283.969 375.304C287.939 373.71 291.957 371.78 295.785 369.8C300.383 367.425 304.708 364.977 308.465 363.04C309.226 362.648 310.251 362.306 311.537 361.86C312.447 361.544 313.494 361.173 314.659 360.698C319.282 357.893 323.802 354.933 328.215 351.814C328.353 351.68 328.496 351.542 328.639 351.403C328.641 351.401 328.643 351.398 328.645 351.396C331.863 348.25 336.134 343.954 342.931 338.87C344.658 337.573 345.843 336.865 346.912 336.222C347.96 335.589 348.896 335.016 350.08 333.974C351.427 332.788 352.864 331.227 354.395 329.5C356.547 327.074 358.875 324.325 361.48 321.806C361.657 321.634 361.849 321.449 362.047 321.256C363.93 319.422 366.665 316.658 369.482 313.953C376.857 305.128 383.479 295.676 389.19 285.684C398.715 269.042 405.654 250.878 409.484 232.037C411.364 222.923 412.861 213.907 414.186 207.373C415.52 200.761 416.731 196.847 418.119 196.837C419.476 196.817 420.927 200.739 421.646 207.724C422.372 214.609 422.109 224.336 420.416 234.084C417.68 250.053 412.834 265.751 406.106 280.53C405.767 281.315 405.421 282.1 405.07 282.879C402.456 288.671 399.963 293.998 397.225 299.266C396.597 300.473 395.955 301.677 395.297 302.876Z" fill="#1B1A21"/>
<path d="M117.64 291.618C108.982 255.881 75.7738 234.288 68.2013 197.855C61.5323 165.817 62.3643 139.531 71.7308 107.934C81.9163 73.673 104.361 44.5855 132.116 21.3675C123.458 24 115.001 27.211 106.876 31.254C6.99084 81.1935 -30.4687 218.532 44.4438 318.359C92.3618 387.551 167.489 408.969 237.806 396.684C183.069 379.973 132.369 352.393 117.64 291.644" fill="#9B89B3"/>
<path d="M14.4618 250.275C20.0787 272.59 29.8561 288.336 45.1546 311.26C46.1955 312.78 47.1981 314.211 48.1649 315.567L48.2685 315.71C61.5523 334.614 63.9656 340.519 87.1306 359.332C112.391 379.177 143.265 390.189 157.303 392.553C171.346 394.89 172.609 397.082 192.99 397.965C211.05 398.246 222.802 397.243 237.544 395.187L237.362 398.137C235.538 397.528 233.672 396.889 231.744 396.21C214.279 391.518 163.851 367.113 150.467 351.122C135.343 337.431 124.659 316.283 120.693 303.121C119.361 299.055 118.515 295.764 117.926 293.24C117.676 292.165 117.604 291.653 117.649 291.642C117.649 291.642 117.649 291.642 117.649 291.642C117.706 291.628 117.944 292.391 118.307 293.755C120.065 300.35 123.235 310.13 129.157 320.644C141.142 339.378 141.787 342.68 165.384 361.522C189.458 378.209 206.671 384.511 238.354 394.887L238.129 398.534C237.023 398.719 235.899 398.897 234.755 399.068C199.252 402.456 189.566 407.613 140.196 393.467C93.3659 373.834 86.3651 372.004 50.9873 334.789C47.3854 330.493 43.8854 325.924 40.5112 321.082L40.6177 321.23C10.024 283.128 -0.244521 226.891 1.09337 199.613C1.10075 195.884 1.21324 191.966 1.45575 187.943C3.02394 158.746 12.704 121.802 34.8523 89.9801C50.9734 66.3245 75.4424 42.5848 105.222 27.9446C113.587 23.7964 122.317 20.5326 131.076 17.9488L134.409 24.1082C128.35 29.0901 122.577 34.2889 117.167 39.6445C99.4881 56.8421 81.6048 82.0728 73.6012 108.491C65.9687 131.986 64.3145 154.696 65.2182 169.194C65.8673 181.519 67.3559 190.061 68.8409 197.722C71.2558 209.1 75.1389 218.398 85.0585 233.222C94.4496 247.398 110.112 265.938 116.009 285.328C118.646 295.045 118.095 292.786 114.79 283.273C109.444 269.505 102.21 259.581 97.6687 253.515C88.4755 241.42 83.4853 236.914 74.4844 219.606C70.2835 210.972 68.0246 204.175 66.537 198.201C65.0469 192.136 63.8855 187.075 63.1661 181.365C63.5588 170.252 56.5957 169.715 67.9294 113.131C68.4303 111.146 68.9516 109.195 69.4908 107.27C85.966 55.2011 112.45 34.9295 127.174 20.647C127.966 19.9495 128.806 19.2224 129.692 18.4696L133.215 24.9823C126.381 27.1227 117.696 30.132 108.555 34.6281C89.1752 43.9466 67.9737 60.1925 53.8565 77.4049C32.3919 99.6884 9.27307 155.475 9.56144 188.474C9.33287 192.601 9.27436 196.339 9.31153 199.511C10.5893 227.606 9.99204 227.82 14.4618 250.275Z" fill="#1B1A21"/>
<path d="M65.77 112.536C62.767 121.012 81.8185 141.448 87.7725 143.587C93.746 145.699 92.888 126.758 93.759 116.319C94.6105 105.568 96.086 94.72 90.1125 92.5815C84.1585 90.4755 68.812 104.06 65.77 112.536Z" fill="#4E5180"/>
<path d="M138.346 377.086C141.921 379.238 152.86 372.374 154.336 369.832C155.831 367.298 147.192 365.945 142.538 364.613C137.754 363.222 132.97 361.564 131.482 364.106C129.993 366.634 134.79 374.915 138.346 377.086Z" fill="#1B1A21"/>
<path d="M280.585 252.156C284.141 254.295 295.08 247.437 296.575 244.896C298.064 242.348 289.432 240.996 284.765 239.663C279.994 238.272 275.19 236.628 273.702 239.176C272.213 241.691 277.017 249.985 280.585 252.156Z" fill="#1B1A21"/>
<path d="M136.278 168.456C139.834 170.614 150.78 163.743 152.268 161.195C153.757 158.667 145.125 157.308 140.458 155.976C135.674 154.591 130.89 152.927 129.401 155.469C127.906 158.004 132.71 166.285 136.278 168.456Z" fill="#1B1A21"/>
<path d="M242.065 318.154C240.641 327.013 263.105 343.627 269.378 344.635C275.631 345.616 271.354 327.169 270.255 316.737C269.157 305.992 268.604 295.079 262.332 294.065C256.098 293.077 243.495 309.242 242.065 318.154Z" fill="#2A344D"/>
<path d="M47.4976 404.722C46.1656 409.842 21.9442 406.803 16.2312 404.149C10.5427 401.492 19.5748 394.474 23.5416 389.84C27.5986 385.052 31.2326 379.905 36.9473 382.556C42.6209 385.2 48.8391 399.574 47.4976 404.722Z" fill="#2A344D"/>
<path d="M60.1735 218.675C58.7565 227.554 81.2335 244.155 87.4995 245.163C93.746 246.144 89.4625 227.697 88.364 217.278C87.2525 206.533 86.7195 195.607 80.4535 194.593C74.2135 193.605 61.6035 209.783 60.1735 218.675Z" fill="#2A344D"/>
<path d="M190.554 87.9015C187.967 77.7485 181.578 71.1315 173.232 66.965C157.924 62.4085 140.302 62.597 127.985 70.332C128.011 70.306 128.024 70.4685 128.056 70.436C126.568 71.3655 125.118 72.49 123.792 73.66C107.484 88.0445 107.257 115.799 126.334 130.866C128.161 132.426 130.065 133.726 132.008 134.857C132.06 134.883 132.119 134.929 132.178 134.974C133.939 135.982 135.746 136.827 137.585 137.516C137.917 137.633 138.261 137.75 138.599 137.867C140.172 138.387 141.745 138.822 143.312 139.108C143.773 139.193 144.222 139.284 144.664 139.342C146.172 139.576 147.667 139.687 149.175 139.719C149.65 139.732 150.098 139.771 150.573 139.758C152.152 139.732 153.712 139.602 155.259 139.368C155.623 139.31 155.993 139.31 156.344 139.238C158.223 138.907 160.089 138.471 161.909 137.88C162.318 137.75 162.689 136.014 163.079 135.871C164.281 135.442 165.483 132.92 166.634 132.92H166.504C183.593 124.054 195.988 107.778 190.554 87.9015Z" fill="#2F3A56"/>
<path d="M165.763 290.782C163.274 281.559 157.134 275.523 149.112 271.747C134.38 267.599 117.421 267.79 105.582 274.804C105.582 274.787 105.618 274.934 105.644 274.917C104.219 275.748 102.829 276.77 101.536 277.853C85.8712 290.929 85.6513 316.173 104.008 329.899C105.75 331.327 107.588 332.497 109.444 333.544C109.497 333.562 109.558 333.596 109.62 333.614C111.335 334.558 113.041 335.328 114.818 335.952C115.135 336.073 115.469 336.16 115.794 336.281C117.281 336.749 118.829 337.13 120.289 337.398C120.764 337.476 121.195 337.563 121.617 337.623C123.068 337.814 124.52 337.926 125.962 337.978C126.411 337.978 126.842 338.013 127.29 337.996C128.812 337.978 130.298 337.831 131.811 337.623C132.163 337.589 132.515 337.589 132.849 337.502C134.67 337.216 136.447 336.809 138.206 336.272C138.602 336.151 138.945 334.584 139.323 334.436C140.493 334.055 141.627 331.76 142.744 331.76H142.63C159.025 323.707 170.979 308.89 165.763 290.808" fill="#2F3A56"/>
<path d="M193.857 201.338C195.865 204.907 199.044 206.759 202.749 207.455C209.242 207.598 216.178 205.693 220.24 201.494C220.24 201.507 220.208 201.436 220.195 201.468C220.689 200.961 221.15 200.383 221.566 199.804C226.558 192.68 223.867 182.15 214.858 178.426C213.974 178.016 213.103 177.73 212.239 177.496C212.213 177.496 212.18 177.483 212.18 177.483C211.342 177.262 210.562 177.152 209.749 177.08C209.619 177.067 209.476 177.054 209.327 177.054C208.651 177.009 207.981 177.009 207.344 177.067C207.156 177.08 206.967 177.093 206.785 177.126C206.174 177.197 205.583 177.295 204.978 177.444C204.777 177.483 204.608 177.529 204.432 177.587C203.795 177.743 203.204 177.964 202.612 178.211C202.495 178.27 202.339 178.315 202.203 178.367C201.494 178.686 200.818 179.043 200.123 179.466C200.006 179.55 200.019 180.246 199.889 180.33C199.44 180.623 199.239 181.702 198.79 181.819C198.79 181.819 198.816 181.806 198.836 181.806C192.992 186.921 189.716 194.383 193.857 201.371" fill="#2A344D"/>
<path d="M119.333 436.184C120.774 437.825 123.055 438.677 125.714 438.997C130.374 439.063 135.352 438.187 138.267 436.256C138.267 436.262 138.244 436.229 138.235 436.244C138.589 436.011 138.92 435.744 139.219 435.478C142.802 432.202 140.87 427.359 134.405 425.646C133.77 425.458 133.145 425.326 132.525 425.219C132.506 425.219 132.483 425.213 132.483 425.213C131.881 425.111 131.321 425.06 130.738 425.027C130.645 425.021 130.542 425.015 130.435 425.015C129.95 424.995 129.469 424.995 129.012 425.021C128.877 425.027 128.742 425.033 128.611 425.048C128.173 425.081 127.748 425.126 127.314 425.195C127.17 425.213 127.048 425.234 126.922 425.261C126.465 425.332 126.041 425.434 125.616 425.548C125.532 425.574 125.42 425.595 125.322 425.619C124.814 425.766 124.329 425.93 123.83 426.125C123.746 426.163 123.755 426.483 123.662 426.522C123.34 426.657 123.195 427.153 122.873 427.207C122.873 427.207 122.892 427.201 122.906 427.201C118.712 429.553 116.361 432.985 119.333 436.199" fill="#2A344D"/>
<path d="M341.064 108.513C339.231 101.603 334.694 97.0664 328.759 94.2259C317.865 91.1189 305.34 91.2489 296.591 96.5269C296.604 96.5139 296.617 96.6309 296.63 96.5984C295.583 97.2354 294.563 97.9959 293.601 98.7954C282.024 108.623 281.855 127.564 295.421 137.86C296.708 138.933 298.06 139.81 299.438 140.571C299.483 140.603 299.522 140.629 299.574 140.642C300.829 141.351 302.103 141.929 303.396 142.397C303.65 142.482 303.897 142.54 304.124 142.631C305.249 142.976 306.38 143.281 307.478 143.483C307.803 143.541 308.135 143.6 308.447 143.639C309.513 143.782 310.585 143.873 311.658 143.905C311.989 143.905 312.308 143.931 312.646 143.931C313.751 143.905 314.882 143.808 315.974 143.652C316.234 143.613 316.494 143.613 316.728 143.567C318.086 143.346 319.399 143.028 320.699 142.625C320.992 142.553 321.245 141.351 321.525 141.266C322.389 140.98 323.228 139.258 324.06 139.258H323.969C336.098 133.206 344.918 122.104 341.064 108.513Z" fill="#2F3A56"/>
<path d="M399.085 220.06C395.932 208.165 388.139 200.365 377.953 195.522C359.272 190.173 337.731 190.4 322.723 199.468C322.742 199.422 322.775 199.624 322.729 199.598C320.916 200.67 319.141 201.996 317.516 203.355C297.626 220.242 297.347 252.781 320.643 270.435C322.853 272.268 325.18 273.802 327.552 275.121C327.624 275.147 327.689 275.206 327.767 275.232C329.918 276.454 332.115 277.435 334.377 278.241C334.78 278.384 335.183 278.508 335.619 278.651C337.517 279.255 339.46 279.756 341.339 280.113C341.924 280.211 342.463 280.308 343.022 280.38C344.855 280.646 346.688 280.789 348.528 280.828C349.087 280.828 349.646 280.874 350.25 280.874C352.155 280.828 354.066 280.672 355.951 280.412C356.412 280.354 356.841 280.328 357.277 280.276C359.558 279.879 361.84 279.359 364.069 278.657C364.563 278.521 365.025 276.486 365.493 276.311C366.968 275.81 368.411 272.879 369.828 272.879H369.685C390.511 262.446 405.663 243.369 399.026 220.06" fill="#2F3A56"/>
<path fill-rule="evenodd" clip-rule="evenodd" d="M432.626 85.2891C433.518 88.2621 434.858 94.4238 430.601 95.6083C425.148 97.0432 422.894 86.0515 421.21 82.8033C413.869 68.565 402.431 56.9721 389.416 47.791C382.93 43.2449 375.86 39.5314 369.644 34.6351C368.418 33.6914 365.041 31.483 365.728 29.5022C366.553 27.1253 370.829 28.0187 372.545 28.6149C379.146 30.9078 385.891 35.9876 391.813 39.5983C399.754 44.4279 407.334 49.8718 414.105 56.3666C422.186 64.204 429.489 74.2863 432.626 85.2891Z" fill="#1B1A21"/>
<path fill-rule="evenodd" clip-rule="evenodd" d="M419.582 34.5969C421.234 36.8722 426.866 42.6012 423.078 45.2063C418.799 48.1589 411.858 37.4622 409.147 35.0411C407.659 33.7847 400.74 28.5701 401.874 26.1528C404.234 21.0542 417.701 32.9819 419.582 34.5969Z" fill="#1B1A21"/>
</svg>
