<svg width="302" height="224" viewBox="0 0 302 224" fill="none" xmlns="http://www.w3.org/2000/svg">
<g clip-path="url(#clip0_2593_830)">
<path fill-rule="evenodd" clip-rule="evenodd" d="M274.118 211.869C275.809 212.73 277.4 212.73 279.09 213.427C280.747 214.089 281.178 216.907 282.603 217.238C276.041 217.934 269.544 219.393 262.882 218.664C263.445 216.31 262.418 213.924 263.81 211.703C267.522 208.189 269.942 209.714 274.118 211.869ZM246.375 50.448C246.474 52.1053 246.574 52.7682 247.767 53.8289C248.695 54.6576 249.192 53.4312 249.292 55.0553C249.358 55.9834 248.364 56.4806 247.999 57.2429C246.11 61.0216 247.403 65.9272 248.331 69.7058C250.22 77.3625 254.794 85.6821 251.579 93.4383C251.247 94.2338 250.982 95.9242 250.352 96.5209C249.524 96.09 248.927 96.2888 248.529 97.0843C248.297 97.3495 248.065 97.6147 247.833 97.8467C246.375 99.2057 244.85 99.7029 242.895 98.9737C239.017 97.5484 238.354 93.0074 238.354 89.4608C238.321 85.5496 239.149 81.4395 240.044 77.6277C240.475 75.8047 241.138 73.6502 239.912 71.9266C238.751 70.3024 237.326 71.1974 236.166 70.4682C234.94 69.7058 236.696 63.9716 235.503 62.4469C233.415 59.7952 232.686 66.2918 232.653 67.5845C232.619 69.0429 232.686 70.7333 233.382 72.026C233.912 73.0536 235.669 73.9485 235.967 75.0092C236.232 75.9704 235.006 78.5226 234.84 79.5501C234.542 81.1743 234.442 82.7984 234.376 84.4226C234.078 89.9248 234.973 95.7254 238.751 100.001C240.409 101.891 243.226 104.012 245.878 103.68C248.198 103.382 250.551 102.123 252.706 101.261C254.164 106.862 256.352 112.298 258.705 117.602C260.727 122.209 262.65 126.916 264.771 131.49C269.279 141.069 276.571 149.256 282.272 158.106C287.774 166.658 290.857 176.502 291.619 186.611C291.785 188.998 291.089 192.279 291.652 194.5C292.183 196.588 292.647 197.516 292.282 199.804C291.917 202.356 291.155 204.676 291.487 207.261C291.752 209.548 292.846 212.962 291.652 215.084C290.227 213.559 288.802 212.83 287.907 210.808C287.012 208.753 287.376 207.029 285.355 206.134C283.631 205.372 282.405 205.538 280.913 204.245C279.09 202.687 277.83 200.798 276.936 198.61C275.378 194.832 275.179 190.755 276.471 186.877C277.532 183.761 280.582 177.96 284.857 180.049C284.228 178.756 283.797 177.331 282.57 176.469C281.51 175.74 279.919 175.474 278.759 174.646C277.433 173.718 275.941 172.69 274.483 172.027C273.919 171.762 273.356 171.63 272.792 171.431C272.096 171.199 270.737 171.364 270.638 171.364C268.119 170.967 265.301 169.773 263.743 167.917C262.583 166.525 261.556 165.232 260.661 163.674C259.501 161.619 259.07 161.752 256.849 161.255C253.634 160.559 251.612 160.062 249.027 157.675C246.176 155.023 244.088 151.742 242 148.494C240.773 146.604 239.713 146.472 237.724 145.709C236.564 145.279 234.973 143.29 233.912 143.157C233.614 143.124 232.155 143.787 231.658 143.853C230.763 143.986 230.001 143.986 229.139 143.886C227.117 143.688 225.327 143.124 223.968 141.566C219.792 136.694 218.499 125.192 224.234 121.049C225.327 120.253 226.852 119.889 227.482 118.596C228.211 117.104 227.88 114.254 227.813 112.663C227.747 110.84 227.648 108.884 227.382 107.094C227.25 106.266 227.15 105.934 226.819 105.106C226.156 103.482 225.957 103.714 224.598 103.316C222.642 102.752 221.748 102.984 220.554 101.128C219.593 99.6366 219.162 97.7804 219.063 96.0237C218.996 94.3995 219.726 92.8748 219.096 91.4164C218.201 89.2619 216.544 87.6046 215.781 85.2513C215.152 83.2625 213.561 78.8209 215.152 76.9648C215.848 76.1361 217.107 76.0367 217.803 74.9097C219.03 72.9873 219.494 71.9266 221.317 70.435C222.643 69.3081 223.935 67.6508 225.526 66.9878C227.117 66.3249 228.576 67.3856 229.868 67.0873C231.26 66.7558 230.896 63.5407 231.294 62.0823C231.824 60.1266 232.951 58.0716 234.277 56.5469C234.741 56.0497 235.304 55.9503 235.636 55.2542C236.1 54.3261 235.934 53.0334 236.299 52.0059C236.73 50.8126 237.823 48.7244 239.017 48.0615C242.629 46.1391 243.69 51.1109 246.375 50.448ZM238.122 193.075C238.619 194.401 238.354 196.555 238.917 197.715C239.381 198.643 241.204 199.207 242.099 200.301C244.022 202.654 244.751 206.4 244.055 209.316C241.701 208.72 240.144 208.355 237.757 208.687C237.492 203.45 237.724 198.345 238.122 193.075ZM209.053 197.052C210.644 198.842 211.439 200.931 211.207 203.317C211.141 204.179 210.876 205.372 210.611 206.168C210.345 207.062 208.986 208.753 209.517 209.217C208.025 209.118 206.268 209.316 205.208 208.322C204.247 207.46 203.584 205.239 203.186 204.046C203.948 202.555 204.677 201.03 205.44 199.538C205.937 200.301 207.362 202.356 208.555 201.693C209.45 201.229 208.721 198.047 209.053 197.052ZM265.202 183.131C267.025 184.822 267.655 187.904 267.555 190.291C267.588 193.572 266.461 200.135 262.186 200.367C258.772 200.533 255.092 195.627 254.728 192.611C254.297 189.296 255.391 181.341 259.766 180.645C261.357 180.38 264.042 182.07 265.202 183.131ZM234.542 187.374C234.608 189.528 234.641 191.583 234.476 193.738C234.343 195.528 234.807 197.649 234.409 199.373C231.857 196.522 228.542 193.44 228.642 189.263C228.741 185.319 232.023 185.65 234.542 187.374ZM208.986 139.975L211.108 142.295C211.174 145.577 211.108 148.792 212.102 151.941C213.163 155.255 214.919 158.471 216.643 161.454C220.024 167.287 220.819 172.79 221.217 179.452C214.853 176.601 211.406 166.89 209.318 160.791C208.224 157.576 207.064 154.36 206.003 151.112C204.976 147.93 203.153 143.754 204.346 140.373C206.666 142.096 207.661 142.958 208.986 139.975ZM248.596 162.912C251.711 165.365 251.944 169.144 253.037 172.591C252.408 173.088 251.678 173.552 251.115 174.149C250.75 174.513 249.922 176.005 249.623 176.137C248.529 176.734 247.568 175.972 246.474 174.977C244.353 173.055 243.027 168.945 243.127 166.127C243.292 162.846 245.613 160.559 248.596 162.912ZM291.984 148.427C296.028 150.748 294.967 157.112 294.47 160.725C294.138 162.978 294.867 165.299 294.801 167.42C294.735 169.84 293.475 169.342 292.68 170.834C291.984 169.011 290.691 166.823 290.393 164.901L289.929 163.674C290.326 163.509 290.525 163.244 290.558 162.846C290.724 161.918 290.724 160.957 290.757 160.028C290.989 156.184 291.288 152.272 291.984 148.427ZM230.564 152.736C230.133 154.427 229.802 157.642 227.283 156.648C225.294 155.885 224.83 152.736 224.83 150.98C224.83 149.554 225.062 146.903 227.084 146.803C229.537 146.704 230.399 151.079 230.564 152.736ZM211.472 105.371C209.815 108.056 208.655 112 209.45 115.149C210.279 118.463 212.864 119.259 215.152 116.839C217.041 119.822 213.163 125.093 209.716 122.275C208.953 121.679 208.456 120.485 207.528 120.121C206.766 119.822 206.103 120.22 205.307 120.054C202.921 119.524 202.026 117.171 201.098 115.215C201.363 113.624 201.628 112.033 201.959 110.442C202.158 109.614 202.324 108.752 202.523 107.923C202.854 106.498 202.755 106.664 203.782 105.967C206.5 104.078 208.39 103.979 211.472 105.371ZM212.898 106.829L214.886 111.271C213.793 111.006 212.599 114.287 211.903 114.917C211.572 112.199 212.367 109.481 212.898 106.829ZM211.771 91.6153C213.594 92.3776 213.925 95.6922 213.991 97.2832C213.494 98.9737 213.03 101.128 210.942 99.9349C209.55 99.1394 208.953 96.554 208.887 95.1287C208.821 93.3389 209.517 90.654 211.771 91.6153Z" fill="#9B89B3"/>
<path fill-rule="evenodd" clip-rule="evenodd" d="M198.213 52.967C197.484 53.2985 198.876 55.8176 199.108 56.2816C199.672 57.4748 200.401 59.9608 201.76 59.2647C200.6 57.1765 199.406 55.0552 198.213 52.967ZM23.2027 198.246C22.2083 197.815 20.8825 201.593 20.6836 202.389C20.1864 204.543 20.6173 206.002 22.3409 207.394C21.6117 204.311 22.4735 201.262 23.2027 198.246ZM253.335 35.3997C252.108 33.7755 250.319 30.7924 247.799 32.3834C246.805 33.0132 246.043 35.0019 245.446 35.9963C244.485 37.521 243.557 39.0126 242.828 40.6699C244.054 40.1727 244.783 39.0457 245.91 38.4491C246.673 38.0513 247.369 37.985 248.098 37.6867C249.689 37.0238 251.91 36.3609 253.335 35.3997ZM51.1779 193.97C51.8408 196.588 52.4706 199.207 53.0009 201.858C53.3655 203.648 54.5256 206.201 53.929 207.957C55.52 207.758 57.111 207.526 58.702 207.328C57.5087 204.643 56.9121 201.759 56.5475 198.842C56.3486 197.052 56.6138 196.555 55.2548 195.561C54.2273 194.832 52.4043 194.467 51.1779 193.97ZM42.3611 93.4713C45.4436 96.5539 48.0953 100.034 51.3768 102.885C53.0672 104.376 54.7908 105.802 56.5475 107.26C58.0059 108.486 60.3593 111.138 62.2818 111.536C62.5138 110.541 63.0773 108.95 62.9447 107.956C63.5082 107.393 63.3424 106.962 62.4143 106.697C61.8509 106.266 61.3205 105.835 60.757 105.404C58.6357 103.614 56.6138 101.691 54.5919 99.8022C52.57 97.9129 50.7138 95.9241 48.9902 93.8028C48.0622 92.6758 47.5318 91.5488 46.0403 91.2174C44.2172 90.7533 43.6206 92.1786 42.3611 93.4713ZM103.648 207.427C103.548 209.084 107.659 210.112 108.918 210.211C112.299 210.476 114.487 209.018 115.647 206.101C118.066 200.035 121.911 194.699 123.535 188.335C123.999 186.446 124.43 185.584 122.707 184.623C122.011 184.225 120.188 183.33 119.425 183.86C118.696 184.324 118.099 186.479 117.635 187.274C116.906 188.534 116.044 189.694 115.249 190.92C111.47 196.489 107.692 201.991 103.648 207.427ZM54.9565 123.932L70.7008 132.948C71.3637 130.694 71.662 128.308 72.2587 126.021C72.6896 124.396 73.8165 122.109 73.7502 120.684C73.6508 118.563 71.9935 115.745 71.2643 113.69C70.3694 111.171 69.4744 108.619 68.5795 106.1C67.3531 107.26 65.961 108.056 65.961 109.58C65.961 110.442 66.5244 110.972 66.193 111.967C65.961 112.663 64.9666 113.558 64.4694 114.088C63.0773 115.58 63.1104 115.646 61.6188 114.254C59.4312 117.469 57.2104 120.684 54.9565 123.932ZM72.2918 166.127C72.5238 163.973 72.8222 161.884 73.2862 159.763C73.5845 158.47 74.8441 155.786 74.4463 154.526C74.148 153.631 72.325 152.836 71.5958 152.338C69.5407 150.913 67.552 149.422 65.4969 147.963C63.707 146.704 61.9172 145.444 60.1604 144.118C58.5363 142.892 57.3099 141.367 55.3543 140.837C53.6307 140.373 51.4762 140.671 49.6863 140.605C47.2998 140.539 44.8801 140.505 42.4936 140.605C34.5055 141.003 25.5561 140.439 17.8994 142.66C14.2533 143.721 11.9331 144.317 9.91121 147.764C7.55785 151.742 5.56909 155.885 3.8455 160.161C3.58034 160.791 3.01686 161.686 3.05 162.382C3.08315 163.674 3.54719 163.376 4.80674 164.138C6.16572 164.934 7.49156 165.895 8.78425 166.823C11.005 168.381 13.7561 170.005 16.0763 171.232C18.8606 172.69 21.6449 174.016 24.4623 175.474C26.2521 176.402 28.1083 177.165 29.865 178.192C31.7544 179.319 33.9089 179.618 35.9639 180.479C42.3279 183.164 48.4599 185.65 54.6913 188.733C60.7902 191.716 66.9222 194.268 73.1536 196.887C81.2081 200.301 89.1631 203.449 97.549 205.836C98.1788 206.002 99.4715 206.631 100.068 206.598C101.361 206.532 101.659 205.604 102.455 204.51C103.979 202.422 105.471 200.267 106.929 198.113C110.111 193.473 113.227 188.733 116.641 184.258C106.929 181.54 97.9468 176.568 89.4283 171.431C89.0637 172.458 88.7653 174.712 87.6052 175.043C86.18 175.474 85.1193 173.486 84.4895 172.557C83.8929 174.082 82.8322 179.187 80.8766 179.087C78.1918 178.921 78.6558 174.679 78.3244 172.988C76.8328 174.977 75.1092 177.231 73.0873 174.215C71.7283 172.193 71.8609 168.481 72.2918 166.127ZM184.656 141.931C183.397 141.533 182.171 141.201 180.944 140.771C180.613 140.074 180.082 139.876 179.353 140.141C178.757 140.207 178.16 140.108 177.563 139.909C175.011 139.478 172.194 138.914 169.741 138.185C167.553 137.522 165.531 136.959 163.311 136.462C161.985 136.163 156.151 134.506 155.289 135.5C155.024 135.799 155.488 139.412 155.422 140.074C155.322 141.235 155.256 143.124 154.527 144.085C154.262 144.45 153.168 144.847 152.803 145.146C151.544 146.074 150.384 147.234 149.157 148.195C146.439 150.283 143.788 152.471 141.036 154.526C139.081 155.951 136.827 156.681 134.672 157.708C136.23 157.973 139.247 156.482 140.804 156.051C142.826 155.454 144.815 154.791 146.87 154.228C151.113 153.101 155.455 151.841 159.764 150.648C162.416 149.919 165.2 149.156 167.785 148.162C168.912 147.731 169.807 146.737 170.569 147.764C171.166 148.593 170.437 149.654 169.973 150.25C167.288 153.764 159.963 154.626 156.085 156.084C151.676 157.741 147.334 159.465 142.76 160.625C137.457 161.984 131.689 163.011 126.751 165.398C122.64 167.354 118 168.116 113.625 169.276C109.515 170.37 104.675 170.569 100.797 172.425C102.455 173.751 104.941 174.447 106.896 175.309C109.283 176.402 111.702 177.397 114.056 178.524C115.05 179.021 116.111 179.75 117.138 180.148C118.431 180.678 118.265 180.38 119.591 180.28C121.679 180.115 124.464 179.75 126.154 181.242C128.176 183.065 126.883 185.053 127.181 187.274C127.38 188.799 127.48 188.567 129.203 188.799C130.761 188.998 132.319 189.263 133.877 189.594C135.766 189.992 137.722 190.688 139.578 191.285C142.462 192.213 142.76 193.307 145.743 192.114C154.262 188.7 163.078 185.915 171.663 182.7C175.608 181.209 179.585 178.358 183.298 176.204C188.071 173.452 192.379 170.469 195.628 165.895C197.086 163.807 198.644 160.26 198.313 157.675C198.047 155.355 196.324 152.769 195.197 150.781C193.772 148.228 192.545 147.234 190.391 145.544C188.866 144.383 186.546 141.897 184.656 141.931ZM89.6934 161.619C89.826 162.912 89.0637 168.182 89.826 168.978C91.0856 170.37 94.2013 168.746 95.3945 168.348C99.3057 166.989 103.847 167.287 107.824 166.227C111.669 165.199 115.448 163.873 119.359 162.813C121.447 162.249 123.403 161.354 125.458 160.691C127.745 159.929 130.297 159.531 132.385 158.404C132.12 157.741 122.972 159.332 121.944 159.399C118.331 159.697 114.917 159.133 111.371 158.47C103.515 157.012 96.1237 153.598 88.3676 151.377C88.7322 154.957 98.8086 155.653 97.5822 159.829C97.2507 160.99 92.7429 162.879 91.2513 162.15C88.235 160.691 91.9142 158.603 93.4389 158.073C91.1518 156.747 88.9642 155.322 86.8429 153.697C84.589 151.974 83.6277 149.521 82.4345 147.002C79.9154 141.765 73.9823 138.682 69.375 135.434C64.3699 131.887 59.0666 128.904 54.0616 125.358C53.1666 124.728 52.7689 125.026 52.4374 123.866C52.106 122.64 53.3324 121.082 53.929 120.121C55.4868 117.635 57.3099 115.314 59.3981 113.259C56.7132 111.436 53.8295 109.945 51.3436 107.89C48.7914 105.802 46.7032 103.249 44.4493 100.863C40.8695 108.652 35.8645 115.878 31.9201 123.535C30.3622 126.551 29.5336 131.125 31.9201 134.042C34.406 137.124 39.0465 135.931 42.5599 136.097C46.2723 136.263 49.6532 136.694 53.3324 137.754C54.9897 138.218 56.4812 138.086 58.0722 138.848C59.9284 139.743 61.7846 140.903 63.5413 141.964C67.0216 144.052 70.3031 146.671 73.5845 149.057C74.9435 150.051 82.2687 155.852 76.4682 154.957C76.4682 160.393 75.507 165.928 75.0098 171.331C76.4019 169.674 77.3632 168.016 78.1918 166.028C78.689 164.868 78.689 161.851 80.3463 162.581C82.8322 163.641 80.9098 171.497 80.9098 173.618C81.5395 172.425 81.9704 171.165 82.4013 169.906C82.7328 168.945 83.1637 166.26 83.8597 165.597C86.2131 163.442 86.5446 169.309 86.5446 170.502C87.3069 168.348 87.4395 166.061 87.5058 163.774C87.5389 162.879 87.3069 161.487 87.5389 160.625C87.9036 159.167 87.8704 159.266 89.3951 158.669C89.5277 159.664 89.594 160.658 89.6934 161.619ZM162.084 207.46C162.283 209.283 162.979 210.642 161.786 212.266C164.106 212.101 166.426 211.902 168.746 211.968C170.636 212.001 173.42 212.432 175.177 211.636C175.906 211.305 176.138 211.869 176.503 211.239C176.867 210.642 176.039 208.687 175.939 208.189C175.475 205.836 175.243 203.416 174.812 201.063C174.514 199.439 173.652 196.257 174.746 194.699C176.337 192.445 177.066 195.627 177.464 197.019C178.823 201.66 178.757 206.101 178.757 210.874C180.812 210.874 183.53 209.979 185.518 209.416C188.269 208.653 191.219 207.891 193.871 206.897C196.39 205.969 198.611 204.61 200.202 202.455C201.395 200.831 204.014 196.82 203.384 195.03C202.588 192.843 198.743 191.318 196.722 191.053C194.07 190.755 191.352 191.285 188.634 191.484C185.717 191.716 182.9 192.379 180.049 192.677C177.265 192.975 173.519 193.903 170.801 193.207C170.735 194.334 171.663 195.826 171.995 196.953C172.426 198.444 172.79 199.936 173.155 201.461C173.519 203.085 175.807 208.885 173.718 210.046C171.266 211.404 170.105 205.571 169.807 204.146C169.078 200.765 168.448 197.351 169.21 193.97C166.095 193.406 162.316 194.235 159.101 194.467C160.261 198.743 161.023 203.151 162.084 207.46ZM27.578 209.283C28.6718 209.78 30.1634 209.515 31.3235 209.615C33.1796 209.747 35.0358 210.079 36.892 210.046C39.7094 209.946 42.6925 209.581 45.5431 209.283C43.9189 206.366 42.9577 203.615 42.7257 200.267C42.6594 199.074 42.0296 191.616 44.2172 191.948C45.2779 192.114 45.0459 198.478 45.2779 199.638C45.5762 201.328 45.974 203.085 46.438 204.742C46.7695 205.935 47.9627 207.758 47.6644 209.051C49.0897 208.819 50.515 208.587 51.9402 208.355C50.8133 206.134 50.0178 204.146 49.5869 201.693C49.388 200.499 49.5206 199.008 49.1228 197.881C48.8908 197.152 48.3273 196.489 48.2279 195.892C48.1285 195.196 48.8908 193.506 48.6256 192.876C48.3605 192.279 46.438 191.716 45.7751 191.384C43.9189 190.456 42.8251 190.224 40.7701 190.755C36.7925 191.716 30.4948 192.445 27.5117 195.196C24.5617 197.914 23.501 207.062 27.578 209.283ZM202.224 76.8984C203.318 76.7658 204.411 76.6995 205.538 76.6332C203.914 74.3461 202.423 71.9596 201.097 69.5068C200.434 68.3136 199.804 67.0872 199.208 65.8276C198.511 64.4023 198.545 63.4743 197.053 63.2091C194.998 62.8113 192.247 63.6068 190.126 63.5074C188.501 63.4411 184.789 61.8833 183.496 62.4467C184.69 64.8995 183.728 68.7445 183.795 71.3961C183.828 74.0478 183.53 76.6 183.032 79.1854C185.85 79.1854 189.363 78.2242 192.214 77.7933C195.495 77.2961 198.876 77.263 202.224 76.8984ZM157.576 212.531C158.67 212.399 159.698 212.366 160.791 212.366C158.339 208.355 156.482 203.913 156.449 199.14C156.449 198.511 157.212 194.931 156.947 194.633C156.449 194.069 154.461 194.5 153.897 194.566C151.643 194.798 149.157 194.765 147.036 195.594C145.577 196.157 145.577 195.826 144.981 197.516C144.649 198.544 144.384 199.704 144.384 200.765C144.384 202.919 145.047 205.438 145.942 207.394C146.804 209.25 148.13 211.239 149.953 212.233C152.107 213.327 155.09 212.664 157.576 212.531ZM179.983 64.104C179.552 62.513 179.751 62.8776 178.326 62.6788C178.027 62.6456 174.779 62.7119 174.58 62.9108C174.381 63.1428 174.448 66.3579 174.414 66.7557C174.315 68.0152 174.182 69.3079 174.05 70.5675C173.486 75.7051 172.426 80.677 171.63 85.7815C173.619 84.5551 176.469 86.2123 178.16 84.8865C179.486 83.8258 179.287 80.4781 179.386 78.9865C179.718 74.0478 179.817 69.0759 179.983 64.104ZM251.313 58.1046C251.147 58.4029 250.948 58.6681 250.783 58.9664C251.479 59.3973 255.522 54.9226 256.417 54.094C257.611 53.0333 259.5 51.5749 260.03 50.017C260.66 48.194 260.03 45.3103 259.898 43.4541C259.798 42.0951 260.03 40.239 258.936 39.3109C257.909 38.4491 255.423 38.4822 254.23 38.648C250.65 39.2114 248.462 42.1614 246.673 44.9788C248.529 44.7468 254.992 41.7968 255.754 43.3878C256.848 45.708 250.02 47.7962 249.357 49.8513C250.749 50.3485 253.832 48.426 252.97 51.608C252.838 52.0389 252.572 52.4367 252.208 52.7018C251.578 52.9339 251.412 53.3647 251.744 53.9945C251.445 55.2209 251.512 56.8119 251.313 58.1046ZM292.679 170.867C292.712 171.629 292.778 172.359 293.375 172.889C294.734 168.547 295.165 164.205 295.728 159.697C296.292 155.189 296.889 150.582 296.988 146.074C297.087 141.036 296.623 135.533 295.795 130.528C295.165 126.617 294.668 121.844 292.348 118.496C293.673 127.114 293.242 135.268 292.381 143.886C291.917 148.46 291.254 153.001 290.922 157.609C290.856 158.835 290.823 160.061 290.723 161.255C290.657 161.984 289.961 163.31 289.961 163.674C289.895 165.663 291.983 169.077 292.679 170.867ZM222.41 164.172C223.503 166.691 224.763 169.177 225.426 171.861C226.122 174.712 225.824 177.33 225.923 180.214C226.122 184.987 225.724 189.727 225.791 194.5C225.857 198.577 225.691 202.555 225.724 206.565C225.757 209.117 225.625 211.637 225.625 214.189C225.625 214.189 225.724 216.476 225.559 216.575C224.763 217.106 223.901 216.343 223.669 215.647L221.349 218.299C222.575 218.001 224.067 217.338 225.327 217.304C225.824 217.139 226.288 217.139 226.752 217.304C227.216 217.603 227.58 218.001 227.812 218.498C231.094 219.194 233.083 216.277 233.679 213.658C234.972 207.99 234.508 202.356 234.409 196.621C234.21 184.159 236.198 171.762 236 159.299C235.966 156.879 235.867 154.493 236.232 152.106C236.894 147.632 237.889 151.742 238.055 153.83C238.519 160.161 239.38 166.724 238.916 173.088C238.519 178.855 238.552 184.656 238.253 190.423C237.955 196.555 237.458 202.555 237.756 208.687C239.414 208.488 244.684 208.156 245.247 210.476C245.744 212.498 243.789 211.736 242.794 211.67C241.17 211.537 239.579 211.902 237.789 211.603C237.922 214.321 238.287 217.967 235.867 219.79C234.674 220.685 232.685 221.514 231.293 222.044C229.934 222.575 227.614 223.735 226.188 223.668C225.194 223.635 224.796 223.072 223.702 223.171C222.078 223.304 220.653 224.398 218.896 223.503C215.615 221.779 217.206 216.807 219.294 214.785C219.824 214.255 220.421 213.692 221.15 213.46C221.482 213.327 222.94 213.493 223.073 213.294C223.669 212.631 222.907 208.753 222.841 208.024C222.41 204.179 221.946 200.234 221.78 196.356C221.614 192.71 221.448 189.064 221.316 185.451C221.283 184.656 221.647 183.032 221.316 182.336C220.752 181.175 218.333 180.446 217.305 179.916C218.233 189.097 219.625 198.942 216.245 207.659C215.582 209.383 214.819 211.869 213.096 212.83C211.472 213.725 207.693 213.625 205.77 213.725C203.715 213.857 201.66 213.36 200.533 211.404C199.638 209.88 200.169 208.024 202.025 207.361C203.119 206.963 203.351 207.228 204.312 207.692C204.511 208.024 204.677 208.388 204.743 208.786H205.472C206.467 209.25 210.51 209.747 211.604 209.018C212.897 208.189 213.162 205.935 213.725 204.61C214.753 202.124 215.018 200.135 215.383 197.483C215.946 193.34 215.383 188.534 215.383 184.192C215.383 182.965 215.383 181.772 215.383 180.546C215.383 178.723 215.548 178.723 214.488 177.397C212.897 175.408 211.107 173.353 209.416 171.464C210.345 177.032 209.947 182.932 209.582 188.501C209.383 191.616 208.952 194.798 208.754 197.881C208.687 198.809 209.35 201.361 208.29 201.759C207.196 202.19 205.837 200.234 205.406 199.538C202.986 204.344 200.136 208.985 195.164 211.471C192.611 212.763 189.96 213.327 187.176 213.824C184.59 214.288 182.204 215.15 179.651 215.548C174.381 216.376 169.542 216.476 164.239 216.31C159.234 216.144 154.461 217.072 149.456 215.912C147.5 215.448 145.544 214.62 144.218 213.128C143.489 212.299 143.158 211.04 142.429 210.278C142.263 209.316 141.699 209.018 140.705 209.383C140.075 209.416 139.479 209.383 138.882 209.316C133.877 209.051 128.308 209.349 123.469 207.924C121.646 207.394 119.591 206.499 120.486 204.179C121.281 202.157 123.502 202.787 125.325 202.952C130.595 203.449 135.799 204.411 141.136 204.875C140.97 202.09 141.103 199.24 142.197 196.621C138.484 196.157 134.639 195.461 131.126 194.268C130.032 193.903 128.938 193.506 127.878 193.141C126.088 192.511 126.452 192.346 125.425 193.439C124.132 194.865 123.337 197.815 122.408 199.505C121.348 201.428 120.32 203.317 119.458 205.339C118.63 207.228 118 209.78 116.707 211.404C113.89 215.017 107.36 215.316 103.515 213.89C101.626 213.194 100.963 213.095 99.8029 211.404C98.5434 209.548 98.2451 209.449 95.9249 209.184C91.7816 208.72 87.8373 207.692 83.9592 206.234C79.8491 204.709 75.6064 203.516 71.5295 201.892C67.6845 200.367 63.9722 198.809 59.9947 197.616C59.5306 200.599 61.4863 203.98 61.4863 207.096C63.8065 206.863 65.961 206.665 68.248 206.3C69.0767 206.167 74.2143 205.007 74.7115 205.703C76.7997 208.554 67.2868 209.88 65.7952 210.244C61.0222 211.438 56.1498 212.565 51.3436 213.493C46.438 214.454 41.665 215.382 36.6931 215.548C28.274 215.846 16.6398 215.349 17.0707 204.278C17.2365 199.936 19.0263 195.229 22.4404 192.412C24.5617 190.655 27.2134 189.694 29.8319 188.898C30.7931 188.6 35.8645 187.904 35.997 187.539C34.5718 186.512 32.119 186.247 30.4285 185.451C28.8044 184.689 27.1139 184.424 25.4566 183.661C22.1421 182.137 18.96 180.314 15.9106 178.424C13.491 176.933 11.0382 175.309 8.78425 173.519C6.99437 172.127 5.30393 170.768 3.87865 169.143C3.14944 168.315 1.8236 167.552 1.22698 166.823C-0.861215 164.271 1.32642 159.233 2.22136 156.283C3.51405 151.974 5.23763 147.367 7.82301 143.621C10.1764 140.174 12.7949 137.854 17.0044 137.058C20.8825 136.329 24.8269 136.064 28.8044 135.865C28.1415 133.313 27.1802 131.523 27.4454 128.739C27.6774 126.12 29.0033 123.502 30.0308 121.082C31.9864 116.64 33.8094 112.265 36.4611 108.155C37.9195 105.901 39.5437 103.747 41.1347 101.592C41.3998 101.227 42.9908 99.6365 42.9245 99.2056C42.8582 98.7747 41.2672 97.4157 41.0021 97.0842C39.3448 94.996 38.2178 92.7421 40.1403 90.4882C41.1347 89.3281 44.1178 86.9747 45.5431 88.4331C47.1009 85.3174 49.7857 83.1961 51.8739 80.5444C54.4925 77.2298 56.9784 73.8821 59.4312 70.4017C61.884 66.9546 63.8728 63.2422 67.0879 60.458C70.7008 57.3754 74.0817 57.6406 78.5233 58.9664C78.7884 57.2428 79.1199 57.4748 80.7772 56.9114C82.0367 56.4805 83.23 55.9833 84.4895 55.4861C85.7822 54.9558 87.108 54.6574 88.467 54.2597C90.2569 53.7294 90.5221 53.8951 90.8204 51.5749C91.185 48.7906 89.9586 45.8406 89.1962 43.189C88.8316 41.8963 88.5665 40.2721 87.7047 39.4103C86.9423 38.6148 85.5502 38.2502 84.7215 37.3884C77.4294 29.8643 77.2969 13.7885 85.0861 6.79474C86.6109 5.43576 87.8372 3.61273 89.7266 2.68464C91.7816 1.69027 94.5327 0.861619 96.7867 0.397576C101.46 -0.596801 106.73 -0.265343 110.443 3.0161C112.266 4.64025 113.393 7.22563 114.023 9.54585C114.619 11.7666 114.487 15.479 112.233 12.0649C110.807 9.91045 109.581 7.72282 107.161 6.66215C105.007 5.70092 102.388 5.20373 100.035 5.40261C94.4664 5.96609 89.9917 7.59024 86.18 11.6672C81.9373 16.2082 81.7384 23.434 82.6334 29.1682C83.4289 27.4778 83.9923 24.7598 86.2462 24.4615C88.1356 24.1963 91.0856 26.5829 90.0912 28.6379C85.517 27.4778 84.1912 34.3721 88.1356 34.803C89.3288 34.9356 90.8535 32.8143 91.9473 33.2783C94.0024 34.2064 91.2513 37.3884 90.6878 38.4491C90.3895 38.6148 90.1243 38.8137 89.826 38.9794C90.1243 39.6423 90.3895 40.3053 90.6878 40.9682C91.0524 41.7968 91.3839 42.6586 91.6822 43.5204C92.4445 45.6086 93.2069 47.7631 93.6709 49.9507C94.135 52.1715 94.367 54.7569 93.2732 56.8119C92.0799 59.099 90.953 58.8007 90.0249 56.6462C87.6052 58.1709 85.1856 59.7951 82.3682 60.3917C85.3513 65.3636 89.1962 69.6725 94.9636 71.2304C99.8692 72.5562 106.034 72.5231 110.708 70.3023C115.547 68.0153 118.232 62.6787 117.669 57.3754C117.47 55.6518 116.475 49.6856 118.862 53.9945C120.155 56.3479 120.254 60.1928 119.956 62.8113C118.53 75.2411 105.935 79.8815 95.0962 76.8984C89.5277 75.3736 85.517 71.2635 82.5339 66.4242C81.8378 65.2973 81.2081 64.1372 80.5783 62.9771C80.3131 62.513 80.1143 61.8501 79.7828 61.4524C78.4901 59.8613 79.7497 60.7563 78.3907 60.5243C76.2362 60.226 72.8885 61.8501 71.2974 63.1428C66.9885 66.6563 64.602 72.2911 61.2874 76.7326C57.7739 81.4393 53.2992 85.6489 48.8245 89.4275C53.8958 94.6314 58.9672 99.8353 64.0385 105.006C65.0992 103.846 67.0879 101.194 67.3531 99.6364C67.5188 98.7415 66.7896 95.7252 69.0435 97.0511C70.5682 97.946 71.1317 101.791 71.6289 103.382C72.3581 105.802 73.5845 108.089 74.4132 110.508C75.9047 114.983 77.7278 119.391 79.2525 123.899C79.8822 125.722 81.639 128.009 79.9485 129.534C77.3632 131.887 76.6008 127.247 75.9379 125.49C74.9766 126.816 75.1092 128.937 74.612 130.495C74.3137 131.423 73.4188 132.882 73.4188 133.81C73.4851 135.401 74.9103 135.865 76.203 136.76C78.6227 138.417 81.0755 140.008 83.2963 141.931C84.2244 142.726 85.053 143.522 85.7491 144.549C86.3457 145.444 86.5114 147.466 87.1743 148.096C88.0361 148.924 91.1518 148.328 92.8091 148.527C95.5603 148.825 98.3777 149.819 101.062 150.515C105.802 151.775 110.675 153.565 115.647 154.228C120.519 154.891 125.093 154.559 129.966 153.697C132.617 153.233 135.468 152.637 137.888 151.377C140.672 149.919 143.158 147.565 145.776 145.776C146.936 144.98 148.13 144.218 149.323 143.488C150.914 142.494 150.516 142.693 150.616 141.102C150.748 139.246 151.511 135.699 150.284 134.075C149.754 133.379 148.196 132.882 147.434 132.385C146.34 131.655 145.379 130.794 144.218 130.23C142.959 129.6 142.926 130.098 142.329 128.54C141.799 127.114 141.434 125.623 140.937 124.164C138.683 117.568 138.12 110.873 137.158 104.012C136.727 100.83 135.667 96.4544 136.86 93.3387C138.517 88.9966 139.943 95.0623 140.274 96.6202C141.865 93.8691 142.793 90.8528 144.45 88.1348C145.412 86.5438 145.909 85.7483 146.439 84.0247C146.671 83.3287 146.738 82.732 147.202 82.1685C148.196 80.9422 148.329 81.6382 149.356 81.6051C152.604 81.5056 155.753 81.6051 159.002 81.7377C160.791 81.8039 162.581 81.8702 164.371 81.8702C165.233 81.8702 166.128 81.8371 167.023 81.8702C167.487 81.8702 167.951 81.9034 168.448 81.9697C169.409 82.4337 169.774 82.036 169.542 80.8096C170.371 79.0528 170.337 76.2354 170.636 74.313C170.934 72.3905 171.199 70.4349 171.464 68.5124C171.597 67.4849 172.724 63.5737 172.127 62.7119C171.531 61.8833 168.448 62.049 167.553 61.9164C161.487 60.922 155.853 58.4029 150.185 56.381C147.4 55.3867 144.749 54.0277 142.064 52.7681C140.672 52.1384 139.346 50.8125 137.888 50.3816C136.031 49.8513 133.579 50.6799 131.722 51.0114C128.209 51.608 124.795 52.1384 121.248 52.3372C119.989 52.4035 117.602 52.7681 116.442 51.9063C114.155 50.1496 116.774 49.1552 118.265 48.9232C124.861 47.962 131.457 47.3985 138.12 47.0007C138.418 46.9676 139.578 46.7356 139.943 46.8681C140.804 47.1333 140.473 47.4648 140.97 47.7299C141.931 48.2603 143.025 48.6249 144.252 48.9563C147.732 49.8844 151.245 51.4423 154.759 52.6687C161.057 54.8563 168.581 58.3698 174.878 57.74C176.436 57.5743 177.696 57.4086 179.32 57.5411C181.209 57.74 182.336 58.7012 183.795 58.9996C185.75 59.3642 188.568 59.099 190.623 59.1653C192.578 59.2316 194.567 59.331 196.523 59.331C194.799 55.8507 193.738 52.6024 192.777 48.8569C192.247 46.835 191.451 44.9788 191.783 42.8243C191.949 41.7968 192.346 40.8687 192.777 39.9407C193.44 38.5485 193.639 38.8468 193.871 37.3221C194.203 35.2339 193.738 33.0132 193.97 30.8918C194.236 28.7373 195.86 26.8149 196.059 24.7267C196.158 23.6329 195.528 22.7379 195.727 21.5447C195.893 20.484 196.523 19.357 197.086 18.4621C198.412 16.3739 200.003 15.2138 202.224 14.352C204.014 13.6559 206.301 13.0593 208.091 14.1531C209.947 15.2801 209.814 17.534 210.676 19.1913C212.565 22.7379 216.941 25.9199 220.421 27.743C223.636 29.4003 227.083 30.4609 230.497 31.5547C232.585 32.2177 234.74 32.6817 236.795 33.4441C238.287 33.9744 240.673 35.3002 242.198 34.5047C243.524 33.8087 245.048 31.6542 246.341 30.6929C247.866 29.5328 249.888 28.4059 251.81 29.4003C253.733 30.3946 253.567 34.1401 255.058 34.8362C255.589 35.0682 257.113 34.3721 257.81 34.4716C258.936 34.6373 259.732 35.3665 260.428 36.2283C262.98 39.4766 263.776 44.6474 263.875 48.658C263.941 50.6468 263.875 53.1659 262.649 54.8563C261.224 56.8451 258.506 56.8782 256.683 58.2703C255.224 59.3973 254.197 61.2203 252.705 62.4136C251.777 63.1428 251.446 62.5793 251.048 63.7394C250.816 64.4686 251.313 65.9271 251.445 66.6563C252.34 71.0978 254.064 75.1748 255.688 79.4174C256.451 81.4062 257.113 83.3949 257.445 85.5163C257.677 86.9084 257.412 88.1017 257.511 89.4275C257.578 90.3887 258.008 91.1842 257.909 92.1786C257.71 94.2337 256.616 96.0567 255.887 97.8797C255.092 99.9348 256.185 103.515 257.014 105.669C258.97 110.773 261.721 115.944 264.174 120.883C266.56 125.722 268.35 130.86 271.167 135.5C273.885 140.008 277.067 144.417 280.183 148.692C281.907 151.079 283.73 153.333 285.287 155.819C285.619 156.349 287.939 160.857 288.569 160.724C287.84 152.869 288.569 144.682 288.9 136.826C289.298 126.982 288.072 118.066 285.287 108.685C284.625 106.498 284.061 104.244 283.597 101.99C283.266 100.432 282.371 99.1393 284.591 99.8022C288.237 100.929 291.486 107.857 293.342 110.84C297.518 117.568 300.999 126.551 301.463 134.44C301.927 142.196 301.529 149.62 300.568 157.244C300.104 161.023 299.308 165.199 298.148 168.812C297.551 170.668 296.822 172.591 295.994 174.347C295.662 175.11 294.9 175.938 294.767 176.767C294.568 178.06 295.53 179.85 295.762 181.142C296.557 185.352 296.723 189.727 296.458 194.036C296.325 196.323 295.994 198.378 295.231 200.566C294.27 203.317 294.734 205.438 295.132 208.256C295.563 211.305 295.96 218.199 292.812 219.923C292.58 219.89 292.381 219.89 292.149 219.857C291.585 219.194 291.088 219.26 290.657 219.956C289.828 220.221 289.033 220.917 288.171 221.216C286.182 221.912 284.028 221.945 281.94 222.243C277.863 222.84 273.786 223.867 269.808 224C265.068 224.166 260.13 223.967 255.489 223.138C254.528 222.972 253.401 222.508 252.44 222.409C251.147 222.276 250.219 223.171 248.893 222.939C246.805 222.608 245.512 220.42 245.347 218.63C244.916 212.863 248.098 210.244 253.335 209.217C249.954 204.378 246.076 200.433 245.181 194.235C244.286 188.136 246.208 181.076 249.689 176.204C253.036 171.53 258.704 168.381 264.604 169.574C267.322 170.138 280.183 173.916 277.697 178.225C277.134 176.27 273.753 176.634 272.129 176.336C269.411 175.872 266.693 175.143 263.941 175.309C258.506 175.607 253.269 178.789 250.65 183.661C247.634 189.263 248.993 194.832 252.639 199.638C255.986 204.013 259.401 208.587 263.875 211.769C263.013 213.161 263.312 213.592 261.588 213.327C260.395 213.161 259.301 212.233 258.108 212.001C255.622 211.537 251.744 213.559 250.219 215.581C249.324 216.774 249.357 217.371 251.015 218.1C252.241 218.63 254.197 218.365 255.489 218.465C258.771 218.763 262.118 218.862 265.433 218.829C271.134 218.796 276.438 217.901 282.105 217.304C284.625 217.039 287.21 217.338 289.663 216.41C292.977 215.15 292.182 211.504 291.751 208.521C291.32 205.571 291.751 203.317 292.215 200.4C292.414 199.14 292.778 197.682 292.513 196.389C292.215 194.865 291.651 194.202 291.718 192.511C291.983 186.512 291.221 180.181 289.63 174.38C286.182 161.785 277.73 151.874 270.703 141.168C268.715 138.152 266.626 135.301 265.035 132.02C263.544 128.937 262.516 125.656 261.025 122.54C257.743 115.679 254.628 108.652 252.705 101.261C250.517 102.122 248.197 103.382 245.877 103.68C243.225 104.012 240.408 101.89 238.751 100.001C234.972 95.7252 234.077 89.9247 234.375 84.4225C234.475 82.7983 234.574 81.141 234.839 79.55C235.038 78.4894 236.265 75.9703 235.966 75.009C235.668 73.9815 233.911 73.0534 233.381 72.0259C232.685 70.7001 232.619 69.0096 232.652 67.5844C232.685 66.2585 233.414 59.7951 235.502 62.4467C236.696 63.9714 234.939 69.6725 236.165 70.468C237.259 71.1641 238.784 70.3023 239.911 71.9265C241.137 73.6501 240.474 75.8045 240.043 77.6276C239.148 81.4393 238.32 85.5494 238.353 89.4606C238.386 93.0404 239.016 97.5151 242.894 98.9735C244.849 99.7027 246.341 99.2056 247.833 97.8466C248.164 97.4488 248.496 97.0842 248.86 96.7196C249.192 96.1561 249.689 96.0898 250.352 96.5207C250.849 96.123 251.578 93.4382 251.81 92.8415C254.826 85.45 250.087 76.9646 248.33 69.7057C247.269 65.2641 246.341 60.8226 248.496 56.5468C248.86 55.8507 249.821 55.2541 249.225 54.2597C249.059 53.9945 247.634 53.8619 247.269 53.5636C246.142 52.5692 246.374 50.7131 246.374 49.4204C243.789 50.2159 243.026 48.194 243.358 45.7412C241.435 46.0395 240.076 46.6361 239.38 44.4154C238.751 42.4266 239.712 40.4047 240.342 38.5485C231.392 37.5873 221.747 36.3609 214.587 30.1958C212.831 28.671 211.372 26.7486 210.146 24.7598C209.914 24.3952 208.886 21.8761 208.555 21.7435C207.527 21.3458 206.665 23.3346 205.77 23.8317C204.975 24.2626 203.815 24.5278 202.92 24.793C202.091 25.0581 199.108 25.0913 198.578 25.5222C197.252 26.616 197.351 32.9469 197.351 34.4053C197.318 39.4766 198.445 44.5148 200.533 49.1221C202.489 53.4642 205.505 59.4305 209.45 62.281C210.444 63.0102 211.339 63.3748 212.598 63.3085C213.493 63.2754 214.388 62.6456 215.316 62.9771C217.703 63.8057 216.841 65.463 215.018 66.2254C209.814 68.4461 205.406 63.5405 202.39 60.1265C201.495 64.2035 205.605 69.0096 207.759 72.3242C209.151 74.4456 210.51 76.5669 211.803 78.7214C212.764 80.2792 214.62 83.1629 211.306 81.9697C209.715 90.3887 205.306 97.7803 203.052 105.967C200.732 114.386 198.743 123.966 198.743 132.716C200.5 131.49 201.395 125.921 203.749 130.197C204.014 130.661 203.914 131.423 204.246 131.821C204.71 132.385 205.273 132.219 206.002 132.617C207.129 133.246 207.859 134.506 206.864 135.6C208.157 135.301 209.549 135.467 209.814 136.992C209.98 137.854 208.687 141.864 207.759 142.196C204.875 143.19 201.66 137.423 200.898 135.6C199.108 137.423 197.02 138.815 195.363 135.865C194.136 133.677 194.832 130.396 195.031 128.009C195.396 123.236 195.827 118.563 196.523 113.823C197.815 104.94 201.097 97.0511 205.141 89.0298C206.268 86.8421 207.494 84.5882 208.488 82.3343C209.98 78.9534 207.66 79.7489 205.34 80.2461C200.865 81.2073 196.158 81.9697 191.617 82.3011C189.264 82.4669 186.214 82.5994 183.96 83.2624C182.369 83.7264 182.635 83.395 182.005 85.1185C181.706 85.8809 181.408 86.7095 180.878 87.3393C178.292 90.687 171.597 90.1236 167.918 89.8915C168.15 88.4663 168.349 87.0741 168.581 85.6489C165.73 86.3118 162.349 86.7758 159.432 86.7427C157.841 86.7095 156.184 86.4775 154.593 86.3449C153.433 86.2455 151.245 85.4169 150.152 85.7483C148.892 86.1129 146.97 90.687 146.24 92.1786C144.881 94.9629 142.462 98.0123 141.6 100.929C140.838 103.515 142.395 107.989 142.893 110.541C143.589 114.254 144.252 117.999 145.412 121.579C146.274 124.198 147.268 127.81 149.886 129.103C152.505 130.396 154.394 131.125 157.212 130.86C162.184 130.396 167.487 131.158 172.426 132.119C177.497 133.114 182.137 133.578 186.944 135.335C197.849 139.378 204.809 151.808 200.699 163.177C198.346 169.74 194.435 174.579 188.7 178.656C185.783 180.711 182.336 182.402 179.154 183.993C177.696 184.722 176.237 185.617 174.746 186.247C173.652 186.711 171.763 187.805 170.603 187.937C171.928 188.567 173.089 187.97 174.448 187.771C176.403 187.506 178.359 187.44 180.314 187.208C183.331 186.843 186.347 186.545 189.363 186.18C191.949 185.849 194.865 185.75 197.451 186.114C198.677 186.28 200.567 186.644 201.66 187.241C202.522 187.705 203.318 188.799 204.279 189.329C205.306 185.087 204.842 179.883 204.875 175.541C204.909 171.994 205.074 168.514 205.406 165C205.77 161.056 203.351 156.581 202.489 152.703C201.66 149.09 199.44 144.516 200.235 140.737C201.263 135.964 203.981 144.516 204.345 145.742C205.505 149.554 206.864 153.3 208.157 157.078C209.682 161.586 211.24 165.928 213.46 170.138C215.316 173.651 217.438 177.761 221.283 179.452C220.951 174.281 220.62 169.508 218.465 164.768C216.443 160.26 213.328 156.25 211.969 151.41C211.306 149.024 211.206 146.571 211.173 144.085C211.14 142.428 211.24 140.174 213.029 141.964C214.455 143.389 214.72 147.93 215.35 149.853C215.648 150.781 216.079 151.609 216.41 152.537C216.543 152.935 217.57 154.924 217.57 155.189C218.532 158.305 220.819 161.288 222.41 164.172Z" fill="#2A344D"/>
<path fill-rule="evenodd" clip-rule="evenodd" d="M112.862 50.5141C112.962 51.7073 113.658 54.8562 112.763 55.8174C111.57 57.077 111.006 55.4528 110.509 54.1601C109.448 51.4753 108.885 46.2714 111.039 44.0175C113.26 41.6641 117.635 41.631 119.989 39.2776C120.95 38.3495 120.85 38.5484 120.751 37.09C120.718 36.2613 120.154 35.1675 119.922 34.4383C119.259 32.5159 118.53 30.5934 117.801 28.6709C116.575 29.2344 114.818 30.958 113.591 29.4996C112.465 28.1737 114.321 25.9861 115.613 25.5884C114.95 24.0968 111.768 24.3951 111.139 22.2075C110.608 20.3182 112.133 21.0805 112.465 20.3182C112.862 19.4564 112.067 18.2631 112.465 17.4676C113.89 14.6833 115.481 19.821 116.177 20.7159C117.503 22.4063 119.79 22.8041 119.989 25.3895C120.121 26.9805 119.989 27.7097 120.652 29.2676C121.248 30.6928 121.977 32.085 122.475 33.5765C123.237 35.7973 124.397 39.8742 122.939 42.0287C121.679 43.8518 118.63 45.2439 116.641 46.0062C115.647 46.404 114.288 46.636 113.459 47.3984C112.431 48.3927 112.763 49.0225 112.862 50.5141Z" fill="#2A344D"/>
<path fill-rule="evenodd" clip-rule="evenodd" d="M215.813 117.9C215.581 117.535 215.349 117.204 215.151 116.839C213.593 118.529 211.836 119.192 210.245 117.071C208.621 114.883 209.217 111.602 209.847 109.215C210.179 107.989 211.836 103.117 212.897 106.829C213.129 107.658 212.333 109.447 212.201 110.276C211.935 111.834 211.703 113.359 211.902 114.95C213.725 113.292 214.653 109.149 216.51 113.458C217.172 115.016 217.272 117.601 219.062 115.215C220.023 113.955 220.089 111.602 220.52 110.077C223.603 110.806 223.039 115.347 222.012 117.568C220.388 121.082 218.167 119.955 215.813 117.9Z" fill="#2A344D"/>
<path fill-rule="evenodd" clip-rule="evenodd" d="M226.554 38.8802C227.648 40.7032 225.593 44.0178 225.195 45.9071C227.018 45.7082 231.559 41.2667 232.819 41.9959C235.47 43.5206 229.869 48.7908 228.775 49.5531C220.19 55.7846 221.748 37.8858 226.554 38.8802Z" fill="#2A344D"/>
<path fill-rule="evenodd" clip-rule="evenodd" d="M215.748 59.1653C218.963 58.2704 223.305 64.0378 221.217 66.8883C219.726 68.9434 217.869 67.7501 217.405 65.9602C217.173 65.0321 217.372 63.9383 217.074 62.9108C216.676 61.6513 216.179 60.4249 215.748 59.1653Z" fill="#2A344D"/>
<path fill-rule="evenodd" clip-rule="evenodd" d="M116.873 34.3059C119.326 36.361 114.321 41.366 111.835 37.4548C111.139 36.361 111.007 35.3997 112.034 35.002C112.564 34.8031 113.758 35.466 114.487 35.3334C115.282 35.2008 116.177 34.6374 116.873 34.3059Z" fill="#2A344D"/>
<path fill-rule="evenodd" clip-rule="evenodd" d="M108.489 26.0855C107.528 24.8922 104.876 17.6333 108.191 19.2574C109.848 20.0529 111.207 26.2844 108.489 26.0855Z" fill="#2A344D"/>
<path fill-rule="evenodd" clip-rule="evenodd" d="M217.571 182.634C217.471 181.706 217.372 180.811 217.306 179.883C218.532 180.513 220.985 181.109 221.383 182.501C222.178 185.12 218.466 183.032 217.571 182.634Z" fill="#2A344D"/>
<path fill-rule="evenodd" clip-rule="evenodd" d="M252.972 71.8604C252.243 70.866 249.989 62.679 251.944 62.8778C252.309 65.8278 252.375 68.9104 252.972 71.8604Z" fill="#2A344D"/>
<path fill-rule="evenodd" clip-rule="evenodd" d="M222.41 164.172C220.819 161.288 218.532 158.305 217.472 155.189C219.924 157.145 221.814 161.155 222.41 164.172Z" fill="#2A344D"/>
<path fill-rule="evenodd" clip-rule="evenodd" d="M288.238 157.509C288.338 158.537 288.437 159.597 288.536 160.625C287.078 161.023 288.172 157.874 288.238 157.509Z" fill="#2A344D"/>
<path fill-rule="evenodd" clip-rule="evenodd" d="M217.505 155.189C216.809 154.427 216.51 153.532 216.345 152.537C216.742 153.432 217.107 154.327 217.505 155.189Z" fill="#2A344D"/>
<path fill-rule="evenodd" clip-rule="evenodd" d="M225.825 202.256C225.858 201.328 225.891 200.4 225.891 199.472C225.858 200.433 225.858 201.328 225.825 202.256Z" fill="#2A344D"/>
<path fill-rule="evenodd" clip-rule="evenodd" d="M117.072 52.1714C117.702 52.2377 118.299 52.3371 118.928 52.4034C118.431 52.6354 117.271 52.9337 117.072 52.1714Z" fill="#2A344D"/>
<path fill-rule="evenodd" clip-rule="evenodd" d="M239.912 211.968C240.542 211.869 241.205 211.637 241.835 212.001C241.172 212.001 240.542 212.001 239.912 211.968Z" fill="#2A344D"/>
<path fill-rule="evenodd" clip-rule="evenodd" d="M221.582 191.086C221.582 191.782 221.615 192.445 221.615 193.141C221.615 192.445 221.615 191.749 221.582 191.086Z" fill="#2A344D"/>
<path fill-rule="evenodd" clip-rule="evenodd" d="M234.84 180.413C234.806 181.142 234.773 181.871 234.707 182.6C234.74 181.871 234.806 181.142 234.84 180.413Z" fill="#2A344D"/>
<path fill-rule="evenodd" clip-rule="evenodd" d="M130.099 203.184C129.47 203.483 128.84 203.516 128.243 203.184C128.84 203.184 129.47 203.184 130.099 203.184Z" fill="#2A344D"/>
<path fill-rule="evenodd" clip-rule="evenodd" d="M193.905 32.0852C193.905 32.6487 193.938 33.2122 193.938 33.7756C193.905 33.2122 193.905 32.6487 193.905 32.0852Z" fill="#2A344D"/>
<path fill-rule="evenodd" clip-rule="evenodd" d="M263.875 49.5198C263.875 48.9564 263.875 48.426 263.875 47.8625C264.173 48.426 264.173 48.9564 263.875 49.5198Z" fill="#2A344D"/>
<path fill-rule="evenodd" clip-rule="evenodd" d="M112.863 50.5141C112.83 49.9174 112.797 49.354 112.764 48.7573C112.797 49.354 112.83 49.9506 112.863 50.5141Z" fill="#2A344D"/>
<path fill-rule="evenodd" clip-rule="evenodd" d="M212.599 63.2421C212.035 63.1759 211.505 63.1427 210.941 63.0764C211.472 63.1427 212.035 63.1759 212.599 63.2421Z" fill="#2A344D"/>
<path fill-rule="evenodd" clip-rule="evenodd" d="M177.763 57.3753C177.232 57.3753 176.669 57.3753 176.139 57.3753C176.669 57.0438 177.232 57.1433 177.763 57.3753Z" fill="#2A344D"/>
<path fill-rule="evenodd" clip-rule="evenodd" d="M104.908 0.264851C104.345 0.231705 103.781 0.530018 103.284 0.0991211C103.815 0.132267 104.378 0.198559 104.908 0.264851Z" fill="#2A344D"/>
<path fill-rule="evenodd" clip-rule="evenodd" d="M90.0598 54.1936C89.5294 54.2267 88.9991 54.293 88.4688 54.3262C88.9991 54.293 89.5294 54.2599 90.0598 54.1936Z" fill="#2A344D"/>
<path fill-rule="evenodd" clip-rule="evenodd" d="M123.271 202.72C122.707 202.786 122.144 202.819 121.613 202.886C122.177 202.819 122.74 202.786 123.271 202.72Z" fill="#2A344D"/>
<path fill-rule="evenodd" clip-rule="evenodd" d="M137.126 47.0339C136.596 47.0339 136.032 47.067 135.502 47.067C136.032 46.835 136.563 46.6361 137.126 47.0339Z" fill="#2A344D"/>
<path fill-rule="evenodd" clip-rule="evenodd" d="M288.437 155.388C288.371 155.951 288.305 156.515 288.271 157.078C288.338 156.515 288.404 155.951 288.437 155.388Z" fill="#2A344D"/>
<path fill-rule="evenodd" clip-rule="evenodd" d="M218.167 191.981C218.134 191.483 218.1 191.019 218.034 190.522C218.067 191.019 218.1 191.517 218.167 191.981Z" fill="#2A344D"/>
<path fill-rule="evenodd" clip-rule="evenodd" d="M35.9308 187.54C35.8313 188.037 35.4667 188.103 34.8701 187.838L35.9308 187.54Z" fill="#2A344D"/>
<path fill-rule="evenodd" clip-rule="evenodd" d="M238.387 187.772C238.353 187.341 238.32 186.943 238.287 186.512C238.32 186.91 238.353 187.341 238.387 187.772Z" fill="#2A344D"/>
<path fill-rule="evenodd" clip-rule="evenodd" d="M124.862 48.0283C124.398 48.0946 123.934 48.1609 123.503 48.2272C123.967 48.1609 124.398 48.0946 124.862 48.0283Z" fill="#2A344D"/>
<path fill-rule="evenodd" clip-rule="evenodd" d="M27.5447 127.545C27.5115 127.943 27.4453 128.374 27.4121 128.772C27.4453 128.341 27.4784 127.943 27.5447 127.545Z" fill="#2A344D"/>
<path fill-rule="evenodd" clip-rule="evenodd" d="M65.1655 206.896C64.7015 206.896 64.2374 206.896 63.7402 206.863C64.2374 206.532 64.7015 206.598 65.1655 206.896Z" fill="#2A344D"/>
<path fill-rule="evenodd" clip-rule="evenodd" d="M120.022 25.9863C120.022 25.5885 120.022 25.2239 119.989 24.8262C120.254 25.2239 120.321 25.6217 120.022 25.9863Z" fill="#2A344D"/>
<path fill-rule="evenodd" clip-rule="evenodd" d="M215.383 180.546C212.5 178.325 210.014 175.01 209.417 171.464C210.643 172.856 211.704 174.414 212.93 175.806C213.428 176.369 214.024 176.834 214.488 177.397C215.582 178.69 215.383 178.756 215.383 180.546Z" fill="#2A344D"/>
<path fill-rule="evenodd" clip-rule="evenodd" d="M205.307 165.53C203.914 162.348 202.721 158.503 202.986 154.99C203.914 158.205 206.102 162.182 205.307 165.53Z" fill="#2A344D"/>
<path fill-rule="evenodd" clip-rule="evenodd" d="M209.914 184.225C209.881 185.153 209.881 186.081 209.848 186.976C209.881 186.048 209.914 185.153 209.914 184.225Z" fill="#2A344D"/>
<path fill-rule="evenodd" clip-rule="evenodd" d="M27.5791 209.283C28.5072 209.349 29.4684 209.382 30.3965 209.449C29.4684 209.449 28.5072 209.681 27.5791 209.283Z" fill="#2A344D"/>
<path fill-rule="evenodd" clip-rule="evenodd" d="M171.2 89.9911C170.67 89.9579 170.14 89.9248 169.609 89.9248C170.14 89.958 170.67 89.9911 171.2 89.9911Z" fill="#2A344D"/>
<path fill-rule="evenodd" clip-rule="evenodd" d="M168.449 86.4444C168.416 85.9803 168.184 85.7815 167.72 85.7815C168.615 85.2843 168.88 85.5163 168.449 86.4444Z" fill="#2A344D"/>
<path fill-rule="evenodd" clip-rule="evenodd" d="M284.26 217.039C284.823 217.039 285.354 217.039 285.917 217.039C285.354 217.371 284.79 217.371 284.26 217.039Z" fill="#2A344D"/>
<path fill-rule="evenodd" clip-rule="evenodd" d="M52.7031 140.704C52.3385 140.704 51.9408 140.737 51.5762 140.737C51.9739 140.737 52.3385 140.704 52.7031 140.704Z" fill="#2A344D"/>
<path fill-rule="evenodd" clip-rule="evenodd" d="M251.314 58.1045C251.678 58.436 251.214 59.2315 250.783 58.9663C250.949 58.668 251.148 58.3697 251.314 58.1045Z" fill="#2A344D"/>
<path fill-rule="evenodd" clip-rule="evenodd" d="M204.876 175.54C204.909 175.043 204.942 174.546 204.942 174.016C204.909 174.513 204.876 175.043 204.876 175.54Z" fill="#2A344D"/>
<path fill-rule="evenodd" clip-rule="evenodd" d="M122.74 180.148C123.304 180.181 123.867 180.247 124.431 180.28C123.867 180.247 123.304 180.214 122.74 180.148Z" fill="#2A344D"/>
<path fill-rule="evenodd" clip-rule="evenodd" d="M102.058 151.012C102.621 151.079 103.185 151.112 103.748 151.178C103.185 151.112 102.621 151.046 102.058 151.012Z" fill="#2A344D"/>
<path fill-rule="evenodd" clip-rule="evenodd" d="M191.85 185.949C192.413 185.551 192.943 185.816 193.507 185.982C192.943 185.949 192.413 185.949 191.85 185.949Z" fill="#2A344D"/>
<path fill-rule="evenodd" clip-rule="evenodd" d="M126.718 51.9396C126.353 51.9396 125.989 51.9065 125.624 51.9065C125.989 51.9065 126.353 51.9065 126.718 51.9396Z" fill="#2A344D"/>
<path fill-rule="evenodd" clip-rule="evenodd" d="M185.553 141.897C185.255 141.897 184.957 141.897 184.658 141.897C184.957 141.93 185.255 141.897 185.553 141.897Z" fill="#2A344D"/>
<path fill-rule="evenodd" clip-rule="evenodd" d="M159.399 130.793C159.897 130.793 160.394 130.793 160.858 130.793C160.394 131.059 159.897 131.025 159.399 130.793Z" fill="#2A344D"/>
<path fill-rule="evenodd" clip-rule="evenodd" d="M184.79 83.1956C184.491 83.1956 184.226 83.1956 183.928 83.1956C184.226 83.1625 184.491 83.1956 184.79 83.1956Z" fill="#2A344D"/>
<path fill-rule="evenodd" clip-rule="evenodd" d="M44.7148 136.196C45.212 136.196 45.6761 136.196 46.1733 136.196C45.7092 136.461 45.212 136.495 44.7148 136.196Z" fill="#2A344D"/>
<path fill-rule="evenodd" clip-rule="evenodd" d="M293.144 136.992C293.111 137.356 293.078 137.754 293.045 138.119C293.078 137.721 293.111 137.356 293.144 136.992Z" fill="#2A344D"/>
<path fill-rule="evenodd" clip-rule="evenodd" d="M168.647 196.953C168.681 196.555 168.747 196.124 168.78 195.727C168.747 196.124 168.714 196.522 168.647 196.953Z" fill="#2A344D"/>
<path fill-rule="evenodd" clip-rule="evenodd" d="M89.5947 148.394C90.0919 148.394 90.5891 148.394 91.0863 148.427C90.5891 148.759 90.0919 148.56 89.5947 148.394Z" fill="#2A344D"/>
<path fill-rule="evenodd" clip-rule="evenodd" d="M202.225 76.8984C202.689 76.8321 203.186 76.799 203.65 76.7327C203.186 76.799 202.722 76.8321 202.225 76.8984Z" fill="#2A344D"/>
<path fill-rule="evenodd" clip-rule="evenodd" d="M162.085 207.46C162.118 207.891 162.184 208.322 162.218 208.753C162.184 208.289 162.118 207.858 162.085 207.46Z" fill="#2A344D"/>
<path fill-rule="evenodd" clip-rule="evenodd" d="M30.6602 209.515C31.1242 209.581 31.5882 209.648 32.0523 209.714C31.5882 209.615 31.1242 209.581 30.6602 209.515Z" fill="#2A344D"/>
<path fill-rule="evenodd" clip-rule="evenodd" d="M39.3799 209.681C39.8439 209.317 40.308 209.416 40.772 209.648C40.308 209.681 39.8439 209.681 39.3799 209.681Z" fill="#2A344D"/>
<path fill-rule="evenodd" clip-rule="evenodd" d="M123.271 154.692C123.736 154.626 124.166 154.592 124.63 154.526C124.166 154.592 123.702 154.659 123.271 154.692Z" fill="#2A344D"/>
<path fill-rule="evenodd" clip-rule="evenodd" d="M183.597 75.175C183.563 75.5728 183.563 75.9374 183.53 76.302C183.563 75.9374 183.563 75.5397 183.597 75.175Z" fill="#2A344D"/>
<path fill-rule="evenodd" clip-rule="evenodd" d="M89.6943 161.619C89.7275 162.017 89.7938 162.415 89.8269 162.846C89.7606 162.448 89.7275 162.05 89.6943 161.619Z" fill="#2A344D"/>
<path fill-rule="evenodd" clip-rule="evenodd" d="M91.252 148.427C91.716 148.494 92.2132 148.527 92.6772 148.593C92.2132 148.527 91.7491 148.461 91.252 148.427Z" fill="#2A344D"/>
<path fill-rule="evenodd" clip-rule="evenodd" d="M167.553 207.559C167.819 208.355 167.719 210.211 166.957 210.774C165.333 211.935 165.2 209.813 164.869 208.653C163.974 205.438 162.548 201.858 162.184 198.577C162.084 197.549 162.018 195.66 163.344 195.328C164.637 194.997 165.3 197.052 165.73 198.08C166.99 200.996 167.686 204.377 167.553 207.559Z" fill="#2A344D"/>
<path fill-rule="evenodd" clip-rule="evenodd" d="M167.554 207.56C167.587 207.162 167.587 206.731 167.62 206.333C167.587 206.731 167.587 207.129 167.554 207.56Z" fill="#2A344D"/>
</g>
<defs>
<clipPath id="clip0_2593_830">
<rect width="301.296" height="224" fill="white" transform="translate(0.333008)"/>
</clipPath>
</defs>
</svg>
