<svg width="606" height="648" viewBox="0 0 606 648" fill="none" xmlns="http://www.w3.org/2000/svg">
<g clip-path="url(#clip0_2648_2262)">
<path fill-rule="evenodd" clip-rule="evenodd" d="M262.731 100.852C258.779 100.457 258.285 105.795 257.692 108.168C256.21 107.179 254.827 108.168 254.53 105.894C249.788 110.936 245.935 116.669 241.686 122.106C237.635 127.345 231.312 131.497 227.755 136.934C224.791 141.58 229.731 148.698 230.324 153.64C231.015 159.275 229.533 165.602 225.779 169.852C224 171.83 221.826 173.213 219.159 173.807C216.491 174.301 214.021 172.818 211.748 173.115C209.871 173.411 209.772 174.696 209.081 176.575C208.191 179.145 207.006 181.616 204.832 183.395C202.461 185.471 199.793 185.966 198.015 188.734C196.434 191.106 195.446 193.38 192.976 195.06C189.616 197.235 184.281 197.927 184.676 203.067C184.083 202.573 183.491 202.178 182.997 201.683C181.712 205.934 179.835 210.086 177.859 214.139C176.97 216.017 176.476 217.006 176.476 219.082C176.476 220.466 177.266 221.553 176.476 222.838C175.191 225.013 171.634 224.716 170.053 226.397C168.374 228.176 170.152 230.549 168.176 232.13C168.966 232.328 171.14 234.206 170.35 235.294C169.164 236.875 169.065 234.701 168.275 234.997C166.398 235.59 166.793 237.963 165.212 238.655C164.915 238.754 164.916 237.37 164.916 236.974L163.73 239.248C153.948 258.129 142.586 276.12 133.397 295.199L132.31 297.473C115.02 334.444 94.4685 370.427 71.7436 404.433C66.4082 412.44 60.4801 420.348 55.5399 428.652C50.5997 436.956 44.3751 444.271 38.842 452.179C33.2102 460.285 27.9736 468.787 22.243 476.893C17.6981 483.318 12.0662 490.238 12.165 498.542C12.165 502.199 12.7579 506.351 16.3148 508.328C16.4136 506.845 18.6861 508.526 19.2789 508.822C21.6502 510.404 20.3658 510.305 22.9346 509.712C27.0844 508.822 30.6413 510.009 34.4946 507.636C42.6954 502.595 50.6984 497.454 59.0967 492.61C77.079 482.231 94.8637 471.653 111.562 459.198C140.709 437.549 172.425 418.173 199.299 393.46C226.075 368.845 254.234 344.428 286.049 326.437C288.223 325.251 294.25 323.373 293.756 320.506C293.262 317.936 287.728 314.476 285.851 312.696C279.133 306.666 272.216 300.933 265.794 294.606C253.839 282.941 242.081 270.09 232.497 256.35C227.853 249.726 225.482 242.312 222.814 234.701C220.443 227.979 218.171 219.774 222.123 213.15C223.901 210.086 226.371 208.801 229.928 209.097C232.794 209.295 232.695 209.888 233.782 206.824C234.967 203.562 236.054 199.706 239.315 197.828C242.773 195.851 245.045 197.927 247.812 199.904C250.974 195.357 254.926 187.35 261.249 186.954C267.968 186.46 271.722 194.764 273.995 199.706C280.812 214.436 289.705 228.176 299.289 241.225C309.663 255.46 320.235 269.893 331.597 283.238C333.969 286.105 336.735 290.158 340.193 291.937C343.651 293.716 346.615 292.036 349.58 290.059C356.496 285.314 363.313 280.371 370.526 276.022C378.529 271.178 386.829 266.729 394.93 262.182C398.586 260.205 401.946 257.734 405.7 255.954C409.158 254.274 412.913 253.483 416.47 252C403.428 248.145 389.694 253.186 377.442 257.239C371.02 259.315 364.4 261.49 357.484 260.996C351.556 260.501 346.22 257.338 341.577 253.878C333.079 247.65 332.487 238.259 335.253 228.769C338.415 217.895 343.256 207.318 346.912 196.543C348.592 191.6 349.678 186.46 345.924 182.209C342.565 178.453 338.118 177.958 333.475 179.441C322.211 183.099 312.232 186.46 300.277 186.064C290.89 185.768 278.935 183.099 272.513 175.487C269.055 171.335 268.857 165.503 268.857 160.362C268.857 154.234 269.252 148.006 270.043 141.877C271.624 131.003 275.576 120.03 270.537 109.453C269.252 106.981 265.992 101.248 262.731 100.852ZM554.498 185.768C551.534 181.715 543.531 172.225 537.307 174.301C536.22 174.696 535.429 175.784 534.738 176.575C534.244 177.267 533.75 177.86 533.256 178.552C532.959 179.441 532.366 179.639 531.576 179.342C529.402 182.308 526.339 184.582 525.154 188.239C523.968 191.897 520.609 195.357 518.732 198.718C517.249 201.288 513.791 208.208 514.088 211.371V219.576C514.384 222.739 520.411 228.473 522.486 230.648C527.723 235.986 533.354 236.678 541.16 235.986C547.681 235.393 556.178 233.218 560.624 227.979C564.873 222.937 564.774 215.226 564.181 209.097C563.292 200.596 559.537 192.688 554.498 185.768ZM534.343 187.152C535.528 184.878 538.196 184.384 540.468 184.681C542.741 184.977 545.409 185.175 547.582 186.163C549.558 187.152 550.546 188.734 552.918 188.239C551.93 189.92 553.708 190.908 553.906 192.391C554.202 194.269 553.609 196.049 552.325 197.532C549.657 200.596 545.804 200.497 542.148 200.794C539.085 201.09 535.232 201.585 533.453 204.451C532.268 206.33 533.354 207.713 532.762 209.493C532.366 210.877 530.687 211.668 529.896 212.854C527.426 209.196 527.525 201.387 529.007 197.532C529.699 195.653 531.082 193.281 532.169 191.699C532.564 191.205 533.354 190.513 533.552 190.118C533.947 189.228 533.947 187.943 534.343 187.152Z" fill="#9B89B3"/>
<path fill-rule="evenodd" clip-rule="evenodd" d="M246.033 672.896C241.587 671.117 236.054 672.006 231.311 672.006C225.383 672.105 219.554 672.599 213.626 672.995C202.362 673.885 191.098 673.489 179.835 674.577C174.203 675.071 168.67 675.565 163.038 676.059C158.098 676.455 152.466 677.74 147.526 676.85C145.55 676.455 140.017 674.577 141.005 671.611C141.795 669.337 147.921 667.953 149.897 667.261C154.64 665.68 159.481 664.592 164.224 663.307C166.694 662.615 169.065 661.824 171.634 662.121C173.808 662.319 176.08 663.999 178.353 663.801C181.613 663.505 183.293 659.452 185.763 657.574C189.616 654.707 192.383 656.19 195.347 659.452C197.521 661.824 199.595 665.383 203.152 665.581C207.697 665.877 208.587 661.923 206.61 658.661C204.733 655.597 199.793 652.532 199.497 648.776C199.299 646.403 203.152 639.978 205.326 639.088C208.982 637.605 214.218 641.559 217.578 642.844C223.407 645.019 229.335 646.897 235.264 648.875C239.314 650.259 245.341 650.357 246.033 655.102C247.12 660.935 246.033 666.965 246.033 672.896ZM477.431 581.654C476.246 579.084 475.06 577.601 477.333 575.13C478.617 573.746 480.494 573.152 481.779 571.67C483.755 569.594 486.719 563.761 482.569 562.377C478.617 560.993 475.258 566.529 471.997 567.716C467.946 569.297 465.377 566.628 464.785 562.773C463.994 557.731 464.883 552.591 464.291 547.549C463.698 542.607 462.018 538.455 460.635 533.71C459.746 530.448 458.659 527.284 462.71 526.493C466.464 525.802 470.812 527.383 474.566 527.581C480.494 527.877 486.521 528.174 492.351 529.064C498.872 530.052 498.773 536.774 500.453 542.211C504.405 555.557 509.839 568.605 512.309 582.247C513.396 588.178 510.531 592.231 507.171 596.877C503.022 602.71 498.674 608.542 494.03 613.88C490.869 617.439 487.312 620.8 482.767 622.481C477.629 624.359 475.653 622.283 476.839 617.142C478.419 610.42 480.791 603.896 480.494 596.877C480.396 594.307 479.605 591.539 481.482 589.463C482.767 587.981 484.94 587.486 486.62 586.597C489.387 585.114 493.635 580.27 488.3 579.281C484.842 578.787 480.89 581.259 477.431 581.654ZM353.63 317.516C350.37 321.174 346.813 324.634 343.75 328.489C341.972 330.664 340.687 333.234 338.81 335.31C334.66 339.857 330.51 334.816 326.756 331.85C312.232 320.383 298.498 307.829 284.665 295.571C278.046 289.738 271.03 284.302 264.509 278.271C257.89 272.241 252.455 265.124 246.231 258.698C243.267 255.634 239.71 252.569 237.931 248.516C236.35 245.155 236.054 241.498 234.275 238.137C231.213 232.403 225.581 225.681 226.865 218.663C230.719 222.617 237.042 236.951 243.662 230.228C248.404 225.385 243.563 218.366 243.761 212.731C248.306 214.61 247.12 222.419 251.863 223.803C254.431 224.594 256.704 222.221 257.89 220.145C259.964 216.587 259.174 212.83 258.285 209.074C257.593 206.504 253.542 198.002 257.593 196.915C261.15 196.025 264.114 202.549 265.3 204.823C267.474 209.074 269.153 213.423 271.525 217.575C275.575 224.693 280.318 231.612 284.764 238.433C293.953 252.668 304.525 266.014 315.393 279.062C326.855 293.1 339.403 306.247 353.63 317.516ZM251.171 362.792C251.665 375.346 262.435 384.836 271.722 391.756C283.579 400.652 294.645 410.834 308.773 415.876C314.208 417.853 321.025 417.26 323.298 423.389C324.187 425.761 323.396 426.651 322.408 429.122C320.926 432.879 320.037 437.031 319.444 440.985C317.073 454.528 319.345 468.367 327.546 479.637C331.894 485.667 337.427 490.708 343.157 495.355C348.888 500.001 354.223 505.438 360.547 509.293C373.984 517.498 388.903 522.144 404.415 524.418C412.419 525.604 420.52 526.691 428.721 527.087C432.97 527.284 437.119 527.383 441.368 527.185C443.245 527.087 450.26 525.505 451.644 526.592C452.73 527.383 453.126 532.425 453.323 533.809C453.817 536.774 454.114 539.641 454.707 542.607C455.892 548.439 457.572 555.062 455.793 560.993C455.299 562.674 454.805 564.058 453.323 564.651C452.335 565.046 450.557 564.355 449.569 564.256C447.296 564.058 445.123 563.959 442.85 564.157C435.341 564.948 427.832 566.925 420.224 566.332C403.921 565.244 387.619 564.058 371.514 561.488C363.708 560.203 356.1 557.929 348.394 556.051C341.082 554.37 333.672 552.591 326.855 549.329C313.417 543.002 300.968 534.6 289.902 524.714C278.046 514.236 270.24 501.78 262.83 487.842C256.309 475.584 250.776 463.227 251.072 449.19C251.27 440.293 252.554 429.221 247.416 421.412C245.045 417.853 240.303 414.492 235.856 416.37C227.853 419.83 235.461 426.651 238.425 430.408C242.871 435.746 242.279 443.951 242.674 450.574C243.168 458.383 244.946 465.204 246.626 472.717C248.306 480.032 244.946 488.83 244.551 496.343C244.156 504.449 244.452 512.654 244.551 520.76C244.749 536.972 243.958 553.085 244.057 569.297C244.057 577.7 243.859 586.102 244.452 594.505C244.946 602.117 246.527 609.432 247.91 616.945C249.294 624.359 251.171 633.157 250.776 640.67C232.398 633.651 214.515 625.347 195.841 619.12C201.67 614.078 201.967 606.862 202.362 599.645C202.955 590.155 204.536 580.863 205.227 571.373C206.61 552.69 206.215 533.117 204.634 514.433C202.955 494.465 199.892 474.496 199.299 454.33C199.003 444.642 199.793 434.955 201.275 425.366C202.56 417.359 203.745 407.177 207.994 400.059C212.045 393.238 219.356 388.889 225.482 384.243C234.177 377.62 242.575 370.008 251.171 362.792ZM249.985 100.928C247.713 104.091 245.045 106.958 242.377 109.627C239.512 112.395 238.326 111.802 234.967 110.319C228.248 107.452 228.347 104.091 232.102 98.2586C240.895 84.7156 244.156 68.7013 253.443 55.4548C262.533 42.4061 275.872 31.8288 289.803 24.3159C304.624 16.3087 320.828 13.7385 337.723 13.9362C346.319 14.0351 355.014 14.6282 363.511 15.6167C371.81 16.5064 379.221 19.2743 387.322 21.3503C391.373 22.4376 395.523 23.2285 399.475 24.7113C402.933 25.9964 406.095 27.8746 409.553 29.0609C417.161 31.6311 424.868 34.4978 431.784 38.6497C438.503 42.7027 444.629 47.1511 450.754 52.0938C457.078 57.3331 462.611 63.3631 469.527 67.9104C475.752 72.0623 480.791 77.697 486.423 82.5408C492.351 87.6812 497.785 93.909 502.231 100.334C506.578 106.661 508.258 114.767 510.827 121.885C513.89 130.188 516.953 138.986 518.04 147.686C520.213 163.996 515.372 183.075 509.246 198.2C503.219 213.127 493.339 225.582 481.68 236.555C475.949 241.893 469.725 246.737 462.808 250.296C456.88 253.36 449.075 258.797 442.554 255.041C439.886 253.459 437.811 251.68 434.748 250.988C431.389 250.197 428.128 250.493 425.461 248.121C423.188 246.045 422.101 243.574 419.137 242.289C415.58 240.806 411.431 240.509 407.577 240.509C399.08 240.509 390.484 242.684 382.382 245.057C374.873 247.231 368.649 250.493 360.744 248.516C354.816 247.034 345.43 243.079 344.145 236.357C343.058 230.327 347.406 222.518 349.579 217.081C352.642 209.568 355.409 202.253 357.286 194.443C358.768 188.216 361.238 178.231 356.891 172.597C352.642 166.962 342.96 167.061 336.933 168.445C332.98 169.334 329.325 171.213 325.373 172.201C321.322 173.19 317.172 173.585 313.022 174.079C298.696 175.661 278.441 172.004 279.132 153.814C279.824 137.504 288.815 121.193 283.48 104.882C281.306 98.2586 276.959 90.548 269.647 88.7686C263.917 87.3846 256.111 88.8674 250.973 91.8331C247.021 94.3044 242.97 99.3459 249.985 100.928ZM536.911 173.684C551.337 176.452 560.822 191.675 563.489 205.12C564.675 211.249 565.07 218.465 562.798 224.396C560.13 231.217 552.621 234.084 545.902 235.468C538.294 237.148 531.576 236.456 525.549 231.217C522.881 228.943 520.609 226.175 518.731 223.21C516.755 220.145 514.088 217.971 516.064 214.61C520.905 206.207 525.055 198.002 528.217 188.809C529.6 184.657 530.884 180.703 531.872 176.452C532.663 173.19 532.959 171.114 536.911 173.684ZM410.739 264.827C413.505 267.496 416.766 269.671 420.323 271.055C424.275 272.637 425.461 271.846 425.263 276.492C425.065 281.534 424.967 285.587 427.338 290.233C428.425 292.408 432.377 295.373 431.586 297.845C430.5 301.403 419.434 304.962 416.272 306.247C408.565 309.213 399.574 309.312 392.361 305.061C383.963 300.217 383.173 291.32 386.334 282.819C386.631 281.929 387.915 280.347 387.619 279.359C387.026 277.579 384.754 277.777 383.469 278.469C380.604 279.952 379.418 284.598 378.825 287.465C377.146 295.175 380.209 303.479 385.939 308.718C388.903 311.387 392.46 313.167 396.215 314.452C398.29 315.144 400.562 315.737 402.736 316.034C404.514 316.231 406.787 315.638 408.565 316.132C411.628 317.022 411.727 320.779 412.517 323.547C413.901 328.39 414.395 333.728 414.592 338.77C414.889 346.975 413.901 357.355 409.158 364.274C398.191 380.486 376.948 386.022 360.448 394.425C351.654 398.873 343.454 404.409 335.648 410.34C334.858 410.933 333.672 412.12 332.783 412.515C329.621 414.097 332.388 413.504 330.411 412.515C328.831 411.724 327.546 410.044 325.965 409.154C322.31 407.078 318.16 405.991 314.405 404.014C305.711 399.466 298.004 393.93 290.198 387.9C282.294 381.771 274.192 376.236 266.98 369.217C263.917 366.251 260.458 363.879 257.396 361.012C254.234 358.145 258.285 356.959 260.952 354.883C269.944 347.766 278.836 340.451 288.42 334.223C291.582 332.147 294.447 329.28 297.806 327.501C301.264 325.524 303.339 327.303 306.106 329.774C309.07 332.443 311.935 335.112 315.295 337.386C319.741 340.451 324.878 341.834 329.226 344.8C326.361 347.766 319.444 348.754 318.456 353.302C317.468 357.849 324.286 361.408 327.447 363.187C333.079 366.35 339.304 368.228 345.528 369.514C350.765 370.601 358.472 368.92 362.622 372.875C363.807 370.403 364.894 369.019 363.017 366.647C361.041 364.274 357.583 363.78 354.816 362.89C347.307 360.419 339.995 357.058 332.783 353.895C333.771 351.621 336.142 350.138 337.921 348.655C340.489 346.579 342.762 344.207 344.837 341.637C348.888 336.694 352.544 331.455 356.397 326.314C358.077 324.14 359.559 321.866 362.622 323.151C365.289 324.238 367.957 327.006 370.526 328.489C376.355 331.751 381.493 334.915 387.915 336.991C390.484 337.88 401.155 340.253 398.29 333.728C397.499 331.751 394.634 330.961 392.954 330.17C389.793 328.588 386.631 327.006 383.469 325.227C377.146 321.569 371.613 316.824 365.684 312.574C359.163 307.928 352.544 303.281 346.418 298.141C352.544 294.088 359.262 291.122 365.586 287.465C371.909 283.708 378.331 280.347 384.951 277.085C390.188 274.416 395.523 271.648 400.266 268.188C402.143 267.002 408.664 261.269 410.739 264.827ZM219.257 133.549C220.048 133.747 220.838 133.945 221.629 134.241C216.293 142.446 222.221 152.529 220.542 161.327C215.602 158.362 215.009 147.092 207.5 149.168C199.398 151.442 203.449 161.327 200.979 167.061C197.125 163.7 192.679 166.863 191.197 170.817C189.517 175.068 191.889 179.022 191.098 183.273C190.308 187.622 187.838 184.756 186.454 182.185C184.676 178.923 183.194 174.475 183.886 170.62C184.676 166.072 187.739 161.723 189.616 157.571C191.493 153.419 193.272 149.168 196.038 145.511C201.176 138.69 210.167 132.462 219.257 133.549ZM167.682 231.514C171.14 222.814 176.278 214.807 179.637 206.108C180.625 203.538 181.119 199.485 183.688 197.903C185.368 196.816 187.64 197.508 189.419 196.915C191.296 196.322 193.173 195.036 194.556 193.653C196.928 191.181 197.718 187.721 200.583 185.547C204.239 182.779 207.104 181.691 208.883 176.946C210.266 173.289 210.266 172.696 214.416 173.486C218.961 174.376 222.617 173.289 225.68 169.73C230.916 163.799 231.509 155.396 228.94 148.18C227.754 144.819 225.581 140.865 227.359 137.405C228.94 134.143 232.892 131.77 235.461 129.2C241.785 122.577 246.725 114.866 252.653 107.946C254.036 106.266 255.518 104.684 256.605 102.707C257.297 101.521 257.692 99.4448 259.273 99.0494C262.039 98.4563 265.893 103.201 267.276 104.981C277.453 117.733 270.141 135.131 268.956 149.465C268.363 156.78 266.881 165.578 270.141 172.498C273.204 179.022 280.911 182.284 287.432 184.064C296.225 186.535 305.711 186.436 314.603 184.953C319.247 184.163 323.792 182.877 328.238 181.197C332.783 179.516 337.525 176.551 342.169 179.615C348.097 183.668 346.319 191.675 345.034 197.607C342.861 207.196 339.106 216.191 335.846 225.385C333.079 233.095 330.807 242.882 336.636 249.802C342.466 256.721 352.148 261.071 361.139 260.675C379.813 259.885 396.906 245.946 415.976 251.68C412.419 253.163 408.565 254.052 405.107 255.733C400.859 257.809 397.005 260.478 392.855 262.751C384.951 267.101 377.047 271.451 369.34 276.097C362.424 280.347 355.804 284.993 349.184 289.64C340.885 295.472 336.537 289.047 331.202 282.72C319.642 268.88 308.576 254.349 298.004 239.718C288.815 226.966 280.318 213.72 273.698 199.584C271.327 194.542 267.375 185.843 260.36 186.93C254.234 187.82 250.578 195.234 247.416 199.781C245.243 198.2 243.267 196.025 240.303 196.915C237.832 197.607 236.054 200.177 234.967 202.352C234.177 203.834 233.683 208.876 232.398 209.667C231.509 210.161 228.051 209.074 226.569 209.37C221.332 210.557 219.653 217.377 219.653 222.024C219.751 228.449 222.419 234.973 224.593 240.905C229.533 254.349 238.03 264.827 247.416 275.405C256.902 286.18 266.881 295.867 277.552 305.456C280.219 307.829 282.788 310.201 285.357 312.574C287.432 314.551 290.791 316.627 292.471 318.999C295.534 323.349 287.333 325.326 284.27 326.908C271.129 333.728 259.075 342.724 247.515 351.819C235.56 361.21 223.605 370.7 212.143 380.684C200.979 390.471 190.407 400.85 178.55 409.945C166.397 419.336 153.75 427.936 141.301 436.833C128.852 445.73 116.699 455.121 104.25 464.018C92.097 472.717 79.0549 480.23 66.2104 487.94C59.4918 491.993 52.7731 495.948 46.0544 500.001C40.6202 503.263 34.692 508.206 28.2698 508.7C22.4403 509.095 16.9073 511.171 13.4492 504.845C10.7815 500.001 11.8684 493.476 14.2397 488.83C17.0062 483.097 21.4523 477.956 25.0092 472.618C29.0602 466.588 32.8148 460.36 36.8657 454.231C40.7191 448.399 44.9677 443.061 49.315 437.525C53.6624 431.989 57.0216 425.663 60.8749 419.731C69.1745 407.078 77.6716 394.721 85.5759 381.87C103.657 352.313 119.762 321.767 135.175 290.826C136.756 288.256 168.571 232.008 167.682 231.514ZM193.074 413.306C183.392 446.817 188.925 480.922 190.999 515.026C191.988 532.227 192.185 549.625 192.58 566.925C192.778 575.327 192.778 583.73 192.482 592.132C192.284 596.383 191.987 600.535 191.691 604.786C191.395 608.542 192.383 612.595 191.988 616.253C191.395 620.899 182.206 621.789 185.071 627.72C186.949 631.674 193.568 632.267 197.125 633.948C195.544 635.727 193.074 638.495 190.505 638.693C188.134 638.89 186.356 636.814 184.182 636.024C182.305 635.332 179.736 634.64 178.55 636.814C177.266 639.088 179.933 641.658 180.922 643.438C177.463 644.13 174.993 642.054 171.832 642.251C168.472 642.449 168.373 645.711 166.2 647.589C163.73 649.764 159.382 650.259 156.319 651.148C152.762 652.236 149.107 653.521 145.846 655.399C140.017 658.661 134.978 664.889 132.903 671.216C130.63 677.839 134.187 683.473 139.325 687.526C141.301 689.009 144.068 690.789 146.637 689.998C149.601 689.108 149.996 686.637 153.553 686.834C156.715 687.032 159.777 688.317 163.038 688.416C167.781 688.614 172.523 687.823 177.266 688.021C196.434 688.713 215.503 688.91 234.671 687.032C239.611 686.538 244.452 686.142 249.294 686.044C253.048 685.945 253.443 683.078 254.036 679.519C255.617 670.919 252.159 662.516 253.839 654.213C253.74 654.806 256.408 653.323 256.704 653.026C258.68 651.346 259.372 648.973 259.964 646.601C261.545 640.077 261.545 633.453 261.051 626.83C259.964 611.705 257.099 596.779 257.396 581.555C257.494 573.943 257.297 566.233 257.297 558.621C257.297 551.602 256.704 544.683 256.605 537.664C256.506 522.342 254.827 507.217 254.431 491.993C257.593 495.058 259.273 499.408 261.348 503.263C263.818 508.008 266.584 512.753 269.647 517.102C275.872 526.197 284.369 533.71 293.064 540.432C309.663 553.283 327.744 563.267 348.097 568.704C370.131 574.635 392.46 578.589 415.185 580.863C420.422 581.357 425.757 581.654 430.994 581.16C434.452 580.863 440.084 577.996 443.344 579.479C447.099 581.061 447.79 584.916 452.73 583.829C454.608 583.433 455.991 582.148 457.572 581.357C459.943 580.072 460.042 580.962 462.314 581.16C464.883 581.357 466.365 580.072 468.638 582.148C470.515 583.928 470.318 585.114 468.638 586.794C466.168 589.068 462.314 589.463 459.844 591.836C457.473 594.208 457.868 597.075 461.524 597.075C465.18 597.075 468.44 594.505 472.096 594.11C471.306 604.786 468.144 616.648 471.701 627.028C473.38 631.872 476.839 635.035 482.174 634.936C490.967 634.837 498.674 626.731 504.01 620.405C506.974 616.945 509.345 612.991 512.111 609.432C514.977 605.774 518.139 602.117 519.818 597.668C521.597 592.923 521.103 588.277 520.115 583.433C518.929 577.502 517.743 571.373 516.261 565.442C513.396 553.975 507.665 543.496 504.701 532.029C503.614 527.68 503.614 522.638 500.848 518.882C497.884 514.928 493.339 514.73 488.794 514.928C483.162 515.224 477.629 515.817 471.997 516.509C468.44 516.905 460.734 519.475 457.868 517.3C456.88 516.509 456.88 514.631 455.695 513.939C454.608 513.247 452.829 513.741 451.545 513.84C445.518 514.334 439.491 514.829 433.365 515.026C410.937 515.718 387.224 512.16 367.265 501.78C357.978 496.936 350.864 489.324 343.454 482.108C336.142 474.991 329.72 467.379 327.744 457.197C325.965 447.806 326.657 436.635 329.621 427.541C332.585 418.743 342.861 413.306 350.469 408.956C360.942 402.926 372.008 397.885 383.271 393.535C385.05 392.843 387.224 391.953 389.2 392.349C391.571 392.744 393.251 394.919 395.424 395.809C397.993 396.896 401.254 396.896 404.02 397.588C406.688 398.181 409.257 399.071 412.023 399.466C420.619 400.751 432.575 399.763 439.688 394.227C451.248 385.33 444.233 372.677 440.578 361.803C444.53 361.704 447.79 362.594 451.545 360.913C455.299 359.233 458.165 356.267 459.943 352.511C463.006 345.789 461.228 337.979 460.338 330.961C459.943 327.797 459.449 324.634 458.263 321.569C457.275 319.296 455.793 317.022 455.201 314.551C454.608 311.882 455.398 311.684 457.671 310.399C461.129 308.422 463.599 306.148 465.773 302.59C469.922 295.769 470.021 288.256 466.662 281.039C465.279 278.173 462.018 274.12 462.413 270.759C462.71 267.793 466.069 265.519 468.045 263.641C474.072 257.71 480.494 252.273 487.114 247.132C490.276 244.76 493.635 242.486 496.501 239.817C498.575 237.84 500.65 233.392 503.516 232.403C506.381 231.316 508.258 234.479 510.234 236.259C513.297 238.928 516.261 241.992 519.621 244.266C525.648 248.418 533.157 247.627 539.974 246.342C547.088 244.958 553.708 242.585 559.735 238.532C562.106 236.951 564.971 233.688 567.936 233.491C571.097 233.194 574.555 236.357 576.828 238.236C582.756 243.178 584.535 250.889 587.993 257.512C591.846 264.926 593.526 272.637 592.439 280.941C591.451 288.453 588.586 294.088 584.337 300.217C583.448 301.502 581.373 303.875 582.855 305.259C584.732 306.939 588.487 303.578 589.771 302.491C602.22 291.518 609.236 275.108 605.185 258.6C603.011 249.703 598.762 241.597 593.921 233.985C591.846 230.723 589.771 227.461 586.115 225.879C581.966 224.001 577.322 224.198 572.876 223.803C575.939 208.876 576.927 192.565 567.54 179.516C560.328 169.532 545.606 160.734 533.848 168.84C534.342 157.769 535.923 147.29 532.959 136.416C531.675 131.572 529.797 126.827 527.624 122.28C525.45 117.832 522.486 114.075 520.707 109.429C513.791 91.2399 500.551 74.929 486.324 61.7815C471.997 48.5351 457.967 32.4219 439.886 24.1182C421.014 15.5179 401.847 7.70842 381.493 3.75427C359.954 -0.49645 338.217 -1.38613 316.777 2.46917C298.103 5.8302 280.713 17.1984 266.584 29.4563C250.38 43.3947 240.006 60.2987 231.707 79.8717C229.928 84.1225 228.15 88.472 225.877 92.6239C223.407 97.1712 220.245 101.422 218.467 106.266C216.886 110.615 216.59 115.36 219.455 119.216C221.431 121.983 225.68 122.577 227.359 125.048C228.248 126.333 228.15 127.519 226.174 127.915C224.099 128.31 223.21 126.036 221.727 125.147C218.072 122.873 212.934 124.85 209.278 126.135C200.583 129.2 193.766 134.637 188.529 142.249C183.589 149.465 180.23 157.769 176.969 165.875C174.894 171.015 172.918 176.057 171.733 181.494C171.338 183.569 170.745 189.105 173.906 186.634C175.191 185.645 177.068 193.059 176.772 194.345C175.586 198.496 171.14 202.352 168.571 205.713C162.544 213.621 158.493 222.419 154.245 231.316C144.957 250.592 134.681 269.276 124.801 288.157C104.645 326.71 82.7106 363.78 59.5905 400.554C48.1293 418.842 36.3717 436.734 24.1201 454.429C18.6859 462.238 13.3504 470.048 8.01501 477.956C3.56885 484.678 -0.877319 492.191 0.308289 500.495C1.39514 508.206 5.94019 514.334 13.2516 516.806C17.2038 518.19 21.8475 519.673 26.0961 519.277C30.7399 518.783 34.7908 515.718 38.6442 513.445C56.33 502.769 74.0159 492.092 91.8006 481.416C111.561 469.455 129.741 455.319 148.613 442.072C158.197 435.35 168.176 429.221 178.155 423.191C180.625 421.807 190.901 411.922 193.074 413.306Z" fill="#1B1A21"/>
<path fill-rule="evenodd" clip-rule="evenodd" d="M364.599 447.213C369.441 454.33 374.48 461.052 381.297 466.489C388.51 472.223 396.019 476.77 404.022 481.218C418.151 489.028 437.121 495.948 453.523 492.389C458.166 491.4 465.675 487.347 461.624 481.515C459.55 478.549 455.202 479.34 452.139 479.538C447.199 479.835 442.753 480.131 438.01 478.451C429.217 475.386 420.423 472.42 411.827 468.862C403.528 465.303 396.216 460.558 388.609 455.813C381.495 451.365 375.962 446.026 369.737 440.688C368.057 439.206 365.093 436.635 363.414 439.502C362.129 441.282 363.908 445.236 364.599 447.213Z" fill="#1B1A21"/>
<path fill-rule="evenodd" clip-rule="evenodd" d="M169.064 104.882C169.558 107.946 171.04 114.075 175.387 113.284C180.92 112.197 178.154 101.323 178.252 97.6654C178.648 81.6511 183.884 66.2299 191.591 52.2915C195.444 45.3717 200.187 38.9462 203.645 31.8287C204.336 30.4448 206.411 26.9849 204.929 25.5021C203.151 23.7227 199.693 26.3918 198.408 27.6769C193.468 32.6196 189.615 40.1325 185.86 45.9648C180.821 53.7743 176.375 61.9792 173.115 70.7772C169.261 81.3545 167.087 93.6124 169.064 104.882Z" fill="#1B1A21"/>
<path fill-rule="evenodd" clip-rule="evenodd" d="M158.69 53.5766C158.196 56.3445 155.627 63.9563 160.172 64.6482C165.31 65.4391 166.891 52.7858 168.274 49.4248C169.064 47.6454 173.017 39.9348 170.942 38.2543C166.594 34.6955 159.678 51.303 158.69 53.5766Z" fill="#1B1A21"/>
<path fill-rule="evenodd" clip-rule="evenodd" d="M399.575 429.024C404.416 433.472 410.048 433.175 416.174 432.78C419.336 432.582 426.449 430.704 421.509 426.849C418.842 424.872 398.29 423.488 399.575 429.024Z" fill="#1B1A21"/>
<path fill-rule="evenodd" clip-rule="evenodd" d="M21.0566 510.084C20.7602 509.392 17.7961 506.129 17.2033 507.415C16.6105 508.7 20.2662 510.084 21.0566 510.084Z" fill="#1B1A21"/>
<path fill-rule="evenodd" clip-rule="evenodd" d="M407.38 265.322C407.973 266.508 410.443 265.519 411.332 265.618C410.146 263.147 408.763 263.74 407.38 265.322Z" fill="#1B1A21"/>
<path fill-rule="evenodd" clip-rule="evenodd" d="M219.653 134.439C219.949 135.428 220.147 136.416 220.443 137.405C220.838 136.713 221.234 135.922 221.629 135.23C220.937 134.933 220.344 134.736 219.653 134.439Z" fill="#1B1A21"/>
<path fill-rule="evenodd" clip-rule="evenodd" d="M214.91 321.273C208.685 321.866 202.46 322.262 196.137 322.459C190.9 322.657 188.727 321.668 188.035 316.133C187.245 309.608 186.948 303.084 186.158 296.56C185.763 293.594 182.897 287.663 186.355 286.081C189.221 284.796 193.766 286.674 196.829 286.872C200.188 287.168 205.326 286.081 208.29 288.058C211.452 290.233 210.76 297.746 211.353 301.206C212.341 307.928 213.625 314.551 214.91 321.273ZM217.874 289.64C223.506 290.035 229.236 290.431 234.868 291.024C237.338 291.32 242.476 292.507 244.551 290.727C249.491 286.476 231.015 284.895 228.841 284.598C225.284 284.005 219.257 284.796 216.985 281.435C214.712 278.173 215.305 272.538 214.712 268.683C213.823 262.85 212.835 257.117 212.242 251.284C212.044 249.307 212.341 242.882 210.266 241.893C205.523 239.719 207.005 262.455 207.104 264.135C207.203 267.101 207.401 270.067 207.796 272.933C207.993 274.614 208.883 276.789 208.29 278.469C206.907 283.214 198.706 280.446 195.05 280.051C190.9 279.656 184.478 281.237 183.095 276.097C181.415 269.671 181.613 262.356 181.02 255.733C180.822 253.855 180.427 240.213 176.969 241.3C173.215 242.486 174.697 253.954 174.697 256.82C174.697 260.181 174.697 263.443 174.993 266.805C175.191 269.77 176.08 273.428 175.388 276.393C174.301 281.534 168.176 278.865 166.397 282.918C164.717 286.872 173.906 283.807 175.685 285.092C178.254 287.07 177.661 295.472 177.957 298.438C178.748 304.863 180.328 311.585 180.822 318.011C181.218 323.052 177.167 322.459 173.017 322.064C169.46 321.767 165.508 320.878 161.951 321.372C159.086 321.767 155.035 324.436 159.283 326.117C165.804 328.885 179.143 323.25 182.403 331.554C182.996 333.135 185.861 351.423 189.517 342.428C190.999 338.671 187.344 332.74 191.296 329.873C192.679 328.885 194.655 329.082 196.335 328.984C200.287 328.687 204.14 328.588 208.092 328.489C212.044 328.39 215.503 327.6 216.985 331.949C218.17 335.31 218.071 338.968 218.961 342.428C219.652 344.998 222.024 349.446 224.395 345.294C225.976 342.527 224.79 337.782 224.494 334.717C224.296 333.234 223.407 330.17 224.593 328.885C225.778 327.501 229.039 328.292 230.62 328.39C235.066 328.786 243.365 330.862 246.725 326.809C249.59 323.448 243.662 323.349 241.29 323.151C238.919 322.954 236.449 322.657 234.078 322.459C231.41 322.163 227.952 322.558 225.482 321.767C221.332 320.383 221.628 314.749 221.332 310.992C220.64 303.776 219.059 296.658 217.874 289.64Z" fill="#1B1A21"/>
<path fill-rule="evenodd" clip-rule="evenodd" d="M144.562 304.962C144.858 309.114 145.352 313.76 146.735 317.714C147.723 320.68 149.798 321.569 150.49 317.813C150.885 315.44 147.921 301.799 144.562 304.962Z" fill="#1B1A21"/>
<path fill-rule="evenodd" clip-rule="evenodd" d="M407.973 277.579C409.652 276.393 417.557 270.067 411.826 269.869C408.961 269.77 402.637 274.515 402.44 277.184C402.44 277.876 403.823 278.173 403.724 278.865C403.526 280.051 401.748 280.644 401.155 281.632C399.871 283.807 400.365 288.058 402.044 290.134C405.898 294.78 410.146 286.872 407.182 285.29C407.874 285.686 416.667 281.138 417.062 280.15C418.841 274.614 408.368 279.853 407.973 277.579Z" fill="#1B1A21"/>
<path fill-rule="evenodd" clip-rule="evenodd" d="M394.042 299.525C396.018 299.624 400.167 299.426 401.649 298.042C404.416 295.373 398.982 294.978 397.401 293.791C395.128 292.012 394.733 286.377 391.176 289.837C387.619 293.297 390.682 297.35 394.042 299.525Z" fill="#1B1A21"/>
<path fill-rule="evenodd" clip-rule="evenodd" d="M423.188 284.796C419.532 284.302 411.43 292.111 415.382 292.704C417.951 293.001 422.595 286.872 423.188 284.796Z" fill="#1B1A21"/>
</g>
<defs>
<clipPath id="clip0_2648_2262">
<rect width="605.974" height="690" fill="white" transform="matrix(-1 0 0 1 605.975 0.0214844)"/>
</clipPath>
</defs>
</svg>
