<svg width="40" height="40" viewBox="0 0 40 40" fill="none" xmlns="http://www.w3.org/2000/svg">
<path d="M37.0234 -3.05176e-05C38.6512 -3.05176e-05 39.5373 1.90162 38.4902 3.14802L24.3118 20.0262C24.2734 20.0719 24.3059 20.1416 24.3655 20.1416C24.3858 20.1416 24.4051 20.1504 24.4184 20.1657L38.936 36.8256C40.0161 38.0651 39.1357 40 37.4916 40H15.098C14.5202 40 13.9733 39.7392 13.6095 39.2903L7.09179 31.2463C5.95547 29.8439 3.6875 30.6474 3.6875 32.4524V35.0351C3.6875 36.0534 2.86203 36.8789 1.84375 36.8789C0.825475 36.8789 0 36.0534 0 35.0351V13.263C0 12.7626 0.195834 12.282 0.545615 11.9241L11.6346 0.576778C11.995 0.207916 12.489 -3.05176e-05 13.0047 -3.05176e-05H37.0234ZM3.6875 22.1272C3.6875 22.1276 3.6878 22.1279 3.68817 22.1279C3.68837 22.1279 3.68855 22.128 3.68868 22.1281L15.0301 35.0899C15.3939 35.5056 15.9194 35.7441 16.4719 35.7441H28.6926C30.3374 35.7441 31.2175 33.8079 30.136 32.5686L20.8538 21.9325C20.49 21.5156 19.9637 21.2763 19.4104 21.2763H4.11328C3.87813 21.2763 3.6875 21.467 3.6875 21.7021V22.1272ZM14.7082 3.97165C14.1917 3.97165 13.697 4.1802 13.3365 4.55002L4.23159 13.8882C3.88275 14.246 3.6875 14.7259 3.6875 15.2256V15.3889C3.6875 16.4469 4.54523 17.3047 5.60329 17.3047H20.9585C21.5202 17.3047 22.0535 17.0582 22.4175 16.6306L30.5041 7.12912C31.5629 5.88508 30.6788 3.97165 29.0452 3.97165H14.7082Z" fill="#2F3A56"/>
</svg>
