<svg width="341" height="346" viewBox="0 0 341 346" fill="none" xmlns="http://www.w3.org/2000/svg">
<path fill-rule="evenodd" clip-rule="evenodd" d="M146.786 199.088C143.219 201.976 143.768 207.666 144.865 211.781C146.433 217.865 149.609 223.467 153.176 228.325C159.565 236.948 170.385 246.577 180.341 239.049C189.24 232.308 194.845 218.74 196.766 207.316C197.354 203.771 198.177 198.519 195.355 195.849C191.2 191.909 183.869 192.653 178.852 193.135C175.559 193.485 172.384 194.579 169.091 194.054C161.525 192.829 153.097 193.967 146.786 199.088Z" fill="#9B89B3"/>
<path fill-rule="evenodd" clip-rule="evenodd" d="M298.665 240.668C291.505 250.661 279.286 252.241 268.469 252.155C261.97 252.113 255.433 251.558 249.051 250.106C245.627 249.337 242.203 248.269 238.895 247.031C236.716 246.22 233.447 245.793 232.513 243.23C230.062 236.441 231.852 227.9 232.864 220.982C233.37 217.48 233.759 213.936 234.265 210.434C234.576 208.171 234.731 205.694 235.588 203.602C236.599 201.125 237.883 201.637 239.985 202.321C242.903 203.26 245.938 203.644 248.935 204.157C256.289 205.395 262.709 207.872 269.402 211.416C276.018 214.918 282.438 218.334 288.314 223.203C291.31 225.637 293.878 228.327 296.291 231.444C298.159 233.75 300.921 237.551 298.665 240.668ZM267.301 285.037C267.262 286.105 256.017 282.859 254.538 282.518C244.849 280.126 234.926 277.393 225.782 273.08C217.221 269.066 209.672 264.454 202.94 257.28C199.788 253.949 196.986 250.447 194.263 246.689C192.901 244.81 191.072 245.024 189.554 243.444C188.192 242.035 187.142 240.882 187.57 238.747C190.955 239.729 197.22 245.878 200.761 242.761C202.784 240.967 199.983 239.131 198.699 238.106C196.286 236.184 194.224 233.793 192.317 231.273C195.624 231.957 198.66 233.323 201.539 235.202C202.823 236.056 207.181 239.088 208.193 236.184C208.816 234.391 205.858 232.17 204.925 231.188C202.668 228.754 200.216 225.936 199.01 222.69C201.967 221.921 204.769 224.441 206.831 226.491C209.088 228.754 211.851 231.145 213.719 233.793C214.692 235.159 214.886 236.74 215.664 238.191C216.52 239.857 217.882 241.266 219.205 242.462C221.735 244.81 224.653 246.519 227.688 247.971C234.615 251.216 242.008 253.565 249.363 255.145C252.981 255.956 256.483 256.298 260.18 256.426C263.021 256.511 264.305 257.451 265.394 260.355C268.274 268.255 267.768 276.838 267.301 285.037ZM182.783 225.637C181.149 227.345 179.009 228.37 177.258 230.035C175.74 231.487 173.989 232.982 172.316 234.135C170.526 235.373 169.164 234.519 167.53 233.366C165.623 232.042 163.444 231.53 161.459 230.334C154.65 226.277 146.361 216.327 147.607 207.189C148.151 203.303 149.98 199.502 153.288 197.751C156.284 196.171 160.681 195.274 163.872 196.598C165.701 197.367 166.985 198.99 168.152 200.655C169.514 202.577 170.02 202.278 171.421 200.442C173.872 197.153 177.958 194.292 182.005 194.335C183.99 194.378 186.013 194.847 187.803 195.744C188.037 195.872 188.192 196.257 188.426 196.385C188.737 196.556 189.204 196.214 189.437 196.342C189.982 196.726 190.488 197.837 190.799 198.435C192.006 200.783 194.224 205.352 192.006 207.317C192.006 207.317 192.122 209.964 192.083 210.263C191.928 211.843 191.422 213.167 190.799 214.619C188.815 219.018 185.974 222.348 182.783 225.637ZM186.052 262.49C184.496 263.002 182.822 257.664 184.301 256.81C185.741 255.999 187.453 262.02 186.052 262.49ZM161.537 256.084C160.992 258.091 160.759 260.397 159.436 262.063C158.23 260.483 158.113 257.579 159.28 255.956C159.981 255.017 162.121 253.864 161.537 256.084ZM211.462 220.555C211.462 220.598 213.33 221.58 212.435 222.69C211.189 224.142 211.345 221.281 211.462 220.555ZM219.283 204.029C219.244 206.078 215.314 205.566 215.353 203.516C215.353 200.997 219.283 201.851 219.283 204.029ZM214.575 186.905C214.964 185.026 221.851 182.421 221.657 185.709C221.54 187.332 213.719 190.876 214.575 186.905ZM144.027 250.533C143.248 251.558 142.159 251.942 141.225 252.711C140.252 253.522 139.552 254.59 138.735 255.572C136.4 258.219 133.598 260.397 131.108 262.789C126.516 267.23 122.08 272.013 116.983 275.813C107.838 282.56 97.2539 286.233 86.7476 289.478C85.8915 289.734 83.3622 290.845 82.5061 290.033C81.5722 289.179 82.0392 286.105 82.0781 284.952C82.2337 280.212 82.7396 275.429 82.7007 270.689C82.6618 268.767 82.1559 265.991 83.0898 264.198C84.1015 262.233 86.981 261.636 88.771 260.867C94.1798 258.604 99.3941 254.76 104.18 251.216C110.056 246.86 116.01 242.419 122.041 238.362C127.956 234.391 134.493 231.701 141.108 229.437C141.42 230.163 138.268 232.426 137.917 232.725C136.205 234.263 134.299 235.843 133.014 237.85C132.119 239.259 131.186 242.504 133.676 242.59C134.882 242.633 136.672 241.351 137.801 240.924C139.63 240.241 141.497 239.771 143.404 239.43C141.77 241.394 136.205 244.981 137.217 248.269C138.19 251.472 143.871 247.757 145.817 247.757C145.505 248.867 144.688 249.679 144.027 250.533ZM77.0584 259.458C73.4395 260.867 69.7039 261.636 65.9683 262.575C62.3884 263.429 59.0808 264.07 55.4231 263.6C50.3645 262.917 44.7611 260.611 44.1385 254.291C43.3602 246.818 48.1854 239.985 52.3101 234.604C57.3298 228.071 62.9721 222.263 69.0813 216.968C75.1906 211.715 81.7668 207.061 88.6543 203.132C93.9074 200.143 99.8221 198.349 105.387 196.086C106.437 195.659 109.356 194.164 110.367 195.403C111.185 196.385 110.095 198.093 109.706 198.99C109.005 200.826 108.889 202.619 108.733 204.584C107.916 213.295 106.943 222.007 106.476 230.718C106.359 233.152 106.126 235.715 106.243 238.149C106.321 239.515 106.943 241.223 106.515 242.547C105.698 245.067 101.923 246.775 99.9389 247.885C96.3589 249.892 92.6233 251.429 89.0045 253.351C85.0743 255.529 81.222 257.835 77.0584 259.458ZM127.411 202.876C128.423 202.705 129.901 202.449 130.796 203.132C131.964 204.071 131.652 205.352 130.563 205.993C129.707 206.505 127.722 206.676 126.905 206.207C125.504 205.395 125.738 203.132 127.411 202.876ZM132.937 223.032C132.119 224.484 129.201 225.466 129.434 222.733C129.668 220.384 134.415 220.341 132.937 223.032ZM131.847 181.567C133.131 182.122 135.505 182.592 135.894 184.428C136.244 186.136 134.765 186.008 133.715 185.538C132.82 185.154 128.929 181.524 131.847 181.567ZM334.736 246.476C333.997 243.23 334.542 239.686 334.153 236.355C333.764 233.152 333.024 230.206 331.974 227.174C329.678 220.47 326.993 214.448 323.257 208.598C316.175 197.538 308.004 187.801 298.081 179.73C288.314 171.745 277.496 165.297 266.017 160.727C253.876 155.902 241.619 154.236 228.817 153.297C225.003 153.041 221.151 152.699 217.338 152.144C214.536 151.76 211.073 151.29 208.31 152.229C206.598 152.827 205.625 154.493 207.493 155.56C208.816 156.329 210.567 156.414 212.046 156.628C210.256 162.82 207.376 169.055 202.784 173.325C198.309 177.51 192.317 178.919 186.636 179.987C183.562 180.542 180.137 181.012 177.024 180.755C175.04 180.585 173.522 179.602 172.705 181.823C172.16 183.36 171.888 185.068 171.149 182.72C170.292 179.944 169.864 179.987 167.18 179.175C161.693 177.553 155.428 176.101 150.681 172.642C145.739 169.055 143.988 163.204 141.225 157.781C140.525 156.457 138.462 153.724 139.552 152.187C140.525 150.778 143.637 150.906 145.077 150.778C146.595 150.607 148.112 150.607 149.63 150.564C150.525 150.521 152.276 150.906 151.926 149.496C151.381 147.319 145.661 147.617 144.26 147.575C141.614 147.489 138.929 147.575 136.322 147.916C123.286 149.496 110.134 152.443 97.4874 156.329C73.0115 163.93 49.3138 177.894 31.4141 197.965C14.2537 217.267 8.84492 249.38 19.3902 274.02C24.8768 286.831 36.7451 292.083 48.3021 296.311C54.3724 298.531 60.8319 300.325 67.2914 299.898C70.4044 299.684 73.3228 298.788 76.3579 298.104C77.681 297.805 79.1596 297.336 80.5216 297.464C81.5333 297.549 82.545 298.574 83.4789 298.019C84.1793 297.635 84.4517 296.524 85.3078 296.055C86.3195 295.499 87.5258 295.286 88.6154 294.987C91.6116 294.176 94.53 292.895 97.4874 291.827C100.523 290.717 103.402 289.307 106.321 287.856C107.799 287.13 111.185 284.183 112.157 286.318C112.585 287.3 112.391 289.179 112.508 290.247C112.702 292.04 112.897 293.834 113.169 295.67C113.714 299.642 114.336 303.57 114.998 307.499C116.165 314.588 117.683 321.378 120.212 328.082C122.236 333.42 123.987 339.441 127.722 343.712C129.357 345.548 131.575 346.402 133.909 345.804C136.555 345.121 137.878 342.473 139.513 340.338C143.054 335.598 148.93 332.011 154.377 330.687C161.031 329.107 167.491 331.413 173.834 333.42C180.526 335.513 187.375 337.52 193.951 340.039C200.099 342.388 206.715 345.847 213.369 345.548C219.167 345.292 224.575 340.125 228.778 336.153C232.98 332.182 238.234 326.374 244.265 326.844C247.261 327.057 249.985 328.68 252.904 329.321C256.094 330.047 259.519 330.132 262.787 330.388C266.834 330.73 275.901 329.577 277.379 324.196C277.613 323.385 277.613 321.762 276.64 321.463C275.745 321.164 275.317 322.317 274.5 322.232C272.827 322.146 271.504 318.901 270.57 317.62C266.834 312.581 261.659 308.78 257.456 304.211C252.631 299.044 248.545 292.809 244.965 286.66C246.6 286.19 248.312 286.959 249.907 287.343C251.814 287.77 253.682 288.325 255.55 288.88C257.612 289.521 259.713 289.948 261.814 290.418C263.371 290.759 265.472 290.887 266.873 291.742C268.118 292.51 268.78 293.322 270.336 293.535C271.893 293.749 273.488 293.578 275.045 293.578C279.286 293.535 283.489 293.45 287.691 292.98C302.556 291.229 318.354 284.354 327.304 270.646C329.756 266.931 331.701 262.789 332.946 258.39C333.919 254.888 335.554 250.063 334.736 246.476Z" fill="#2A344D"/>
<path fill-rule="evenodd" clip-rule="evenodd" d="M195.159 88.5153C199.089 88.558 202.747 89.8391 206.366 91.291C209.556 92.5721 212.981 93.7251 215.588 96.2873C220.257 100.857 221.464 108.415 222.242 114.906C223.176 122.977 220.024 129.767 217.378 137.069C214.887 143.902 210.296 149.453 204.887 153.638C202.046 155.859 198.894 157.182 195.587 158.335C192.24 159.531 189.011 161.111 185.431 161.111C179.983 161.111 173.018 158.25 170.722 152.4C169.671 149.709 170.683 149.24 172.823 150.691C175.897 152.784 178.816 155.09 182.396 156.029C189.322 157.866 197.649 155.047 203.72 151.332C209.79 147.617 213.876 142.065 216.6 135.105C219.362 128.101 220.413 121.183 219.362 113.668C218.467 107.262 216.677 101.412 211.424 97.9528C200.101 90.437 184.808 91.0775 174.73 100.814C173.329 102.138 171.967 103.462 170.566 104.743C169.671 105.554 168.582 106.536 168.737 107.945C168.854 109.141 171.189 113.753 168.387 112.344C166.091 111.191 164.885 108.928 162.122 108.671C159.204 108.372 155.702 110.849 154.807 113.967C153.951 116.956 155.468 121.013 157.803 122.721C159.243 123.788 160.838 123.618 162.472 123.575C163.29 123.575 165.547 123.276 166.091 124.215C167.064 125.881 163.679 127.632 162.589 128.016C159.943 128.913 156.83 127.845 155.274 125.283C153.717 122.635 152.667 119.603 152.472 116.443C152.277 113.454 152.9 110.379 154.495 107.903C156.208 105.255 159.71 102.309 162.862 103.248C164.224 103.632 165.313 105.212 166.675 105.469C167.531 105.639 167.181 105.767 167.881 105.084C168.309 104.657 168.737 103.846 169.165 103.333C171.539 100.344 173.874 97.1841 176.753 94.7927C181.851 90.437 188.738 88.4299 195.159 88.5153ZM180.839 147.489C181.462 145.909 182.59 148.727 182.901 149.197C183.563 150.136 185.12 150.862 185.042 152.229C184.925 154.492 182.123 154.065 181.189 152.912C180.1 151.546 180.217 149.069 180.839 147.489ZM200.801 136.77C202.319 139.375 200.451 142.151 199.284 144.457C198.155 146.635 197.066 149.154 195.743 151.204C193.525 154.62 188.699 150.905 188.544 147.403C188.427 144.713 190.178 145.866 191.307 146.891C192.474 147.916 193.019 148.172 194.225 147.062C196.638 144.798 197.727 140.955 199.4 138.094C199.712 137.496 200.334 137.155 200.801 136.77ZM205.12 137.624C205.51 138.863 204.692 142.194 206.988 141.852C208.233 141.681 208.506 139.674 209.167 138.82C211.385 135.916 210.724 141.425 210.14 142.791C208.856 145.823 205.276 147.916 203.486 144.072C202.825 142.621 202.825 140.827 203.175 139.29C203.331 138.436 204.42 135.276 205.12 137.624ZM184.769 131.646C184.575 133.098 183.33 136.044 184.847 137.069C186.209 138.009 188.544 136.002 189.594 135.147C190.684 134.293 193.135 131.774 193.213 134.891C193.252 136.471 191.812 138.35 190.801 139.29C188.622 141.211 184.03 142.962 182.435 139.332C181.54 137.325 182.045 134.507 182.629 132.5C183.057 130.877 185.275 128.144 184.769 131.646ZM213.603 123.66C214.498 124.813 216.6 127.333 215.471 128.955C214.109 130.834 211.93 127.375 211.074 126.393C210.296 125.539 208.662 123.02 209.362 121.739C210.49 119.561 212.786 122.635 213.603 123.66ZM199.556 118.749C202.474 120.842 198.622 122.336 196.988 122.507C194.964 122.721 192.396 122.892 190.567 121.781C187.96 120.244 188.816 117.938 191.345 117.383C193.914 116.828 197.26 117.127 199.556 118.749ZM161.577 112.088C163.718 112.557 166.169 113.155 166.908 115.717C167.648 118.365 166.597 119.262 164.379 118.664C162.356 118.109 159.321 117.554 158.153 115.376C156.791 112.771 159.593 111.661 161.577 112.088Z" fill="#2A344D"/>
<path fill-rule="evenodd" clip-rule="evenodd" d="M78.7935 152.592C78.2154 154.204 75.3854 155.278 73.9552 156.245C68.9648 159.657 64.1264 163.23 59.6229 167.125C57.2798 169.14 55.5149 171.611 53.5065 173.841C53.0196 174.378 52.1372 175.614 51.1634 175.506C50.0984 175.372 49.8854 173.76 49.9158 173.062C50.0375 170.644 52.5328 168.334 54.2977 166.668C56.306 164.815 58.4361 162.988 60.627 161.296C63.031 159.415 65.6479 157.83 68.2953 156.245C70.9122 154.714 73.4075 152.914 76.1157 151.517C77.3938 150.846 79.4934 150.604 78.7935 152.592ZM252.76 137.307C254.829 137.361 256.868 137.978 258.815 138.516C263.136 139.751 267.214 141.444 271.261 143.217C278.351 146.333 285.198 150.121 291.436 154.419C292.744 155.305 294.083 156.03 295.513 156.783C296.426 157.266 297.735 157.83 298.069 158.797C298.952 161.242 294.448 158.797 293.809 158.448L292.896 157.965C279.568 150.685 266.27 143.593 251.208 139.429C250.417 139.214 250.143 138.569 250.569 137.952C251.117 137.253 251.999 137.307 252.76 137.307ZM78.2154 142.411C78.1241 143.163 77.1808 143.324 76.5113 143.566C74.1074 144.452 71.673 145.205 69.269 146.118C64.8263 147.783 60.7792 150.228 56.1234 151.491C55.0584 151.786 54.9063 150.846 55.1801 150.201C55.4844 149.476 56.4277 148.992 57.1276 148.562C59.1056 147.381 61.3573 146.521 63.5483 145.688C65.7088 144.855 67.9606 144.238 70.1819 143.539C72.2512 142.894 74.6551 141.712 76.8765 141.605H76.9677C77.7285 141.578 78.3066 141.551 78.2154 142.411ZM256.533 131.155C254.403 130.618 256.411 129.436 257.689 129.517C259.089 129.597 260.458 130.188 261.767 130.537C265.844 131.612 269.618 132.794 273.421 134.459C274 134.701 276.495 135.883 274.821 136.42C273.665 136.796 270.987 135.212 270.013 134.862C265.723 133.224 261.067 132.284 256.533 131.155Z" fill="#2A344D"/>
<path fill-rule="evenodd" clip-rule="evenodd" d="M162.705 141.168C163.055 140.058 167.219 128.144 165.584 127.802C163.833 127.418 161.537 134.336 161.032 135.574C159.164 140.186 158.074 145.14 157.218 150.093C156.635 153.552 156.09 157.054 156.284 160.598C156.44 163.289 157.452 163.716 159.125 165.381C159.164 157.139 160.292 148.983 162.705 141.168Z" fill="#2A344D"/>
<path fill-rule="evenodd" clip-rule="evenodd" d="M153.723 65.2657C153.478 65.6658 153.297 66.0343 153.052 66.4344C153.1 66.4509 159.258 60.6027 160.133 59.935C163.213 57.7112 166.737 56.2321 170.164 54.7198C177.423 51.4578 185.314 49.4897 192.51 46.0983C194.887 44.9783 198.958 43.4723 199.247 40.2878C199.566 37.168 193.448 35.7084 191.144 35.8311C187.52 36.0375 184.009 37.9514 180.839 39.4983C177.393 41.2196 173.9 42.9244 170.707 45.1632C167.256 47.5284 163.849 50.232 161.13 53.4413C158.1 57.0823 156.001 61.1507 153.723 65.2657ZM150.538 78.4348C147.77 78.3437 150.716 79.9497 149.29 80.9661C147.734 82.0457 147.445 76.9401 147.503 75.9909C147.653 70.3905 150.479 64.5261 153.101 59.7222C154.428 57.2722 155.612 54.7724 157.067 52.4201C158.506 50.116 160.569 48.1882 162.502 46.3235C166.37 42.594 170.908 39.4184 175.68 36.9694C180.469 34.4723 185.643 32.1077 191.042 31.4355C195.49 30.8668 201.108 34.2532 201.529 38.9738C201.917 43.7907 197.889 47.5185 193.926 49.4924C188.799 52.0345 183.286 54.4442 177.86 56.2912C175.049 57.2621 172.525 58.6543 169.746 59.6899C166.838 60.7886 164.202 62.0348 161.672 63.9099C159.224 65.7052 156.712 67.5321 154.725 69.8632C152.56 72.4017 151.614 75.3062 150.538 78.4348Z" fill="#2F3A56"/>
<path fill-rule="evenodd" clip-rule="evenodd" d="M99.8804 84.9648C93.0316 84.0615 86.2139 84.9454 82.7353 91.7693C79.5683 98.0006 81.9262 105.541 86.3532 110.509C91.1307 115.868 98.3608 118.948 105.492 117.31C113.026 115.596 117.088 108.327 115.421 100.971C113.52 92.7267 107.124 88.3186 99.8804 84.9648ZM105.096 83.2606C112.32 86.9845 117.524 94.8581 117.558 103.052C117.621 111.471 112.318 118.906 103.914 120.643C86.898 124.101 72.7521 103.73 81.6682 88.9258C83.9258 85.1809 87.4571 82.897 91.6545 81.6497C96.2716 80.2778 100.716 81.7534 105.096 83.2606Z" fill="#2F3A56"/>
<path fill-rule="evenodd" clip-rule="evenodd" d="M29.8684 104.498C33.6108 105.355 37.4029 106.067 41.1288 106.973C44.6621 107.812 47.8269 108.47 51.4855 108.006C47.6489 105.233 43.8273 102.572 39.8929 99.9262C37.9739 98.6198 36.0232 97.2488 34.0876 95.9906C32.6002 94.9943 31.239 94.2568 31.178 92.244C31.1848 89.8777 33.0904 90.9103 34.2078 91.8869C35.7402 93.2217 37.4999 94.3655 39.1136 95.6206C42.7411 98.3761 46.4332 101.1 50.1585 103.728C51.3256 104.56 58.2892 108.571 54.7491 110.098C53.2296 110.76 50.4798 110.46 48.819 110.749C46.7069 111.099 44.5844 110.853 42.4303 110.543C37.9613 109.92 33.53 108.718 29.046 107.983C26.7641 107.574 24.4656 107.214 22.1838 106.806C20.8661 106.568 20.3847 106.402 20.5281 104.89C20.6353 103.797 21.3366 102.854 21.8604 101.957C23.2992 99.6532 24.8508 97.334 26.3378 95.0465C26.9097 94.1666 28.7838 90.1282 29.8158 89.945C32.1055 89.5486 28.6093 94.8592 28.2165 95.5314C26.7596 98.0447 25.1748 100.46 23.9419 103.104C25.9335 103.574 27.8603 104.076 29.8684 104.498Z" fill="#2F3A56"/>
<path fill-rule="evenodd" clip-rule="evenodd" d="M135.399 52.6617C137.046 47.0919 139.656 41.8532 141.095 36.2653C131.3 40.3237 131.462 51.8993 133.31 60.6098L135.399 52.6617ZM138.739 53.4345C137.86 56.1465 137.093 58.8434 135.942 61.4079C134.692 64.1001 135.543 66.0079 136.516 68.6572C134.558 69.6524 132.43 65.0441 131.863 63.7187C130.698 61.0031 130.215 57.7145 129.825 54.781C129.016 48.5274 129.093 42.2019 133.279 37.0751C134.795 35.1742 136.816 32.5859 139.333 31.9985C142.123 31.3977 143.177 33.9673 143.444 36.3201C144.097 42.0893 140.063 48.0225 138.739 53.4345Z" fill="#2F3A56"/>
<path fill-rule="evenodd" clip-rule="evenodd" d="M318.657 138.198C318.167 135.965 316.358 134.108 315.009 132.294C313.245 129.978 311.381 127.815 309.516 125.551C306.045 121.325 302.274 117.51 298.2 113.903C290.105 106.739 279.746 101.441 269.225 99.0973C263.914 97.9008 257.632 96.4637 252.145 97.255C250.266 97.5365 249.914 97.8979 249.687 99.7847C249.598 100.651 249.374 102.793 249.741 103.551C250.635 105.524 254.315 106.54 256.155 107.074C261.626 108.726 267.239 109.664 272.758 111.163C278.175 112.612 283.656 114.977 288.679 117.349C300.004 122.532 309.477 129.93 318.657 138.198ZM256.333 94.6496C271.57 95.7547 286.136 99.7712 298.539 109.113C304.405 113.509 309.572 118.78 314.285 124.414C319.103 130.25 323.669 136.243 327.329 142.961C328.321 144.728 329.263 146.497 330.205 148.316C330.729 149.326 332.598 151.845 332.308 152.969C332.067 153.889 331.358 154.154 330.444 154.319C328.362 154.655 327.274 153.347 325.931 151.991C320.456 146.521 314.931 141.051 309.105 135.942C297.608 125.875 283.858 118.385 269.138 114.32C264.59 113.061 259.992 111.957 255.493 110.596C252.732 109.77 247.879 108.618 246.463 105.736C245.729 104.22 246.415 102.377 245.934 100.806C245.505 99.2847 244.626 98.2792 246.032 96.9863C248.392 94.6617 253.225 94.4906 256.333 94.6496Z" fill="#2A344D"/>
<path fill-rule="evenodd" clip-rule="evenodd" d="M230.032 71.0001C229.992 75.3278 230.087 81.9444 235.987 81.6053C238.938 81.4612 241.052 79.8018 243.528 78.4937C246.155 77.0815 248.838 76.0249 251.784 75.5754C263.721 73.7752 275.439 77.9852 286.54 81.7459C279.598 73.3439 269.993 67.3727 259.513 64.3159C254.452 62.8103 247.928 62.293 242.642 62.8778C239.999 63.1703 237.672 64.1709 235.347 65.3751C234.185 66.0026 232.819 66.5822 231.917 67.5624C230.913 68.544 230.626 69.8208 230.032 71.0001ZM293.411 85.2109C288.871 88.0759 281.987 83.7456 277.488 82.3847C272.119 80.7309 266.498 79.2333 260.888 78.5502C255.024 77.8706 250.457 78.9033 245.356 81.7255C240.759 84.2349 234.621 85.7484 229.697 83.1209C227.696 82.0805 227.469 80.4548 226.628 78.5832C225.627 76.2559 223.989 75.6176 224.203 72.7637C224.587 67.6165 229.44 65.2052 233.535 63.2121C243.141 58.6454 255.628 59.6372 265.404 63.3151C271.034 65.4234 276.872 67.8341 281.659 71.4817C284.026 73.2804 286.093 75.3889 288.058 77.5497C290.179 79.9119 292.755 82.0131 293.411 85.2109Z" fill="#2A344D"/>
<path fill-rule="evenodd" clip-rule="evenodd" d="M298.674 327.667C302.339 327.972 305.953 328.227 309.618 328.481C309.007 323.442 308.345 318.453 307.735 313.414C305.597 313.923 303.51 314.381 301.372 314.89C300.354 315.145 298.827 315.196 297.961 315.705C297.605 315.756 297.3 315.857 296.943 315.959C296.943 316.621 296.943 317.283 296.943 317.893C296.943 319.828 296.842 321.762 296.791 323.696C296.74 324.511 296.485 325.682 296.689 326.496C296.333 327.31 296.587 327.667 297.351 327.514C297.758 327.514 298.216 327.616 298.674 327.667ZM296.18 331.281C293.329 329.855 294.093 325.478 294.093 322.729C294.093 320.948 294.246 319.217 294.246 317.435C294.297 316.214 293.991 314.738 294.398 313.567C295.162 311.48 298.776 311.531 300.659 311.683C302.034 311.785 303.204 311.734 304.63 311.633C305.342 311.582 306.106 311.734 306.818 311.531C306.971 311.48 308.345 310.513 308.295 310.513C310.789 310.614 310.84 316.621 310.992 318.148C311.4 321.915 311.756 325.681 312.112 329.448C312.214 330.466 312.57 331.586 311.603 332.146C310.738 332.655 308.498 332.146 307.531 332.146C303.713 331.993 299.947 331.383 296.18 331.281Z" fill="#2A344D"/>
</svg>
