<svg width="864" height="663" viewBox="0 0 864 663" fill="none" xmlns="http://www.w3.org/2000/svg">
<g clip-path="url(#clip0_2778_3467)">
<path fill-rule="evenodd" clip-rule="evenodd" d="M269.551 301.1C272.651 332.8 275.851 364.5 278.951 396.2C296.051 386.4 313.151 376.7 330.251 366.9V439.1V458.1C330.251 459.8 329.251 465.5 330.251 467C331.051 468.2 337.351 468.3 338.851 468.5C348.551 469.9 358.251 471.1 367.951 472.1C393.551 474.9 420.851 479 446.551 475.7C468.851 472.9 490.451 464.9 510.851 455.7C518.051 452.5 525.051 449 531.951 445.3C533.451 444.5 538.751 442.7 539.551 441.1C540.251 439.8 538.651 435.2 538.451 433.8C537.551 428 536.751 422.2 535.851 416.4L523.851 335.5L546.551 358.2C548.351 360 551.751 365 554.151 365.8C555.951 366.4 560.451 364.6 562.251 364.2C575.151 361.7 587.951 359.2 600.851 356.8C603.851 356.2 610.651 356.2 613.151 354.4C614.551 353.4 614.551 351.4 615.051 349.6C618.151 337.3 621.351 325 624.451 312.7C625.051 310.5 628.151 303.5 627.351 301.3C627.051 300.5 625.651 300 624.851 299.4C605.451 287.5 586.051 275.7 566.551 263.8C555.951 257.3 545.251 250.8 534.651 244.3C530.151 241.6 524.751 236.7 519.651 235.1C516.551 234.2 511.951 234.9 508.751 234.8C502.151 234.6 495.551 234.4 488.951 234.2C487.951 234.2 484.351 233.4 483.451 234C482.751 234.5 483.051 235.2 482.751 236.4C482.151 239.3 482.151 242.5 481.851 245.5C481.651 247.9 482.051 252.3 480.951 254.5C480.251 255.9 481.151 255.3 480.251 256C479.151 256.8 475.551 256.5 474.251 256.7C467.751 257.5 461.351 258.2 454.851 259C447.151 259.9 439.451 261.6 431.651 260.8C419.951 259.6 407.351 259.7 395.851 257.2C392.851 256.6 391.751 254.9 389.451 252.6C384.951 248.1 380.551 243.6 375.951 239.1C373.751 236.9 374.651 237.3 372.351 238.1C369.451 239.1 366.551 241.6 363.951 243.2C353.951 249.3 343.951 255.4 334.051 261.4L273.151 298.5C272.051 299.6 270.851 300.4 269.551 301.1Z" fill="#F8BBD0"/>
<path fill-rule="evenodd" clip-rule="evenodd" d="M852.151 305.073C839.552 352.773 814.352 404.773 763.452 419.873C751.052 423.573 739.052 426.373 726.151 424.973C724.951 424.873 723.952 424.973 722.752 425.073C720.652 425.073 722.451 425.873 720.151 425.173C718.352 424.573 716.652 423.173 714.752 422.573C709.752 420.873 704.352 420.573 699.151 419.273C686.552 415.973 673.552 411.973 661.352 407.373C655.552 405.273 650.352 402.273 644.952 399.473C639.452 396.573 633.651 394.773 628.052 392.073C623.651 389.973 616.151 387.273 613.052 383.273C609.752 379.073 614.352 370.073 615.651 365.673C620.052 350.473 625.352 335.473 628.651 319.973C640.151 333.273 656.151 341.573 672.651 346.873C681.651 349.773 690.852 351.873 700.151 353.173C708.651 354.373 717.752 355.773 726.252 354.073C732.652 352.773 740.652 349.873 745.252 344.973C746.852 343.273 748.852 340.073 747.952 337.473C746.752 334.273 743.452 335.773 741.552 333.373C739.952 331.273 740.251 326.373 739.651 323.873C738.751 319.373 737.552 314.973 736.052 310.673C733.151 302.273 729.451 293.773 728.651 284.873C727.852 277.073 729.651 269.773 733.552 262.973C735.352 259.773 739.952 251.073 744.452 251.473C749.352 251.873 742.752 272.673 742.552 276.873C741.651 293.673 743.952 311.673 752.552 326.373C755.852 331.973 760.651 338.573 767.651 339.273C775.151 339.973 781.152 334.173 784.752 328.173C793.452 313.673 789.052 293.773 784.651 278.473C779.251 259.773 765.152 246.973 756.252 230.173C769.552 231.473 776.652 239.973 783.452 250.673C790.952 262.473 796.852 276.673 799.651 290.373C801.151 297.273 800.151 304.273 800.151 311.273C800.151 313.573 800.152 322.173 803.952 321.873C808.052 321.473 809.352 311.873 809.952 308.873C811.352 302.073 812.752 295.373 813.952 288.473C816.052 276.473 816.952 264.073 819.452 252.173C819.852 250.173 820.752 244.573 823.752 246.073C826.052 247.273 825.752 255.873 825.752 257.973C825.952 262.973 826.252 267.873 826.252 272.873C826.352 280.273 824.852 287.873 825.552 295.173C826.052 299.973 828.552 305.273 831.752 298.773C834.952 292.373 835.552 284.373 837.352 277.473C839.252 270.273 841.151 262.873 845.052 256.473C846.151 254.673 847.352 251.873 849.752 252.673C851.552 253.273 852.852 257.473 853.352 258.873C855.852 265.473 855.352 272.873 855.252 279.873C855.252 288.473 854.352 296.773 852.151 305.073ZM607.352 317.473C606.651 317.273 603.852 316.973 603.151 316.973C602.352 316.873 603.252 315.373 601.252 315.773C601.652 316.773 602.352 317.373 603.352 317.673C600.352 318.673 598.151 316.173 596.052 315.873C594.052 315.573 593.952 315.873 592.052 317.973C589.952 315.373 590.352 316.973 588.652 316.973C588.052 316.973 587.952 317.973 586.952 317.773C586.052 317.673 585.952 316.273 585.452 316.173C582.552 315.273 579.651 319.673 576.352 315.873C575.552 319.873 566.452 314.873 563.052 315.573C559.352 316.273 560.952 317.573 558.052 315.373C555.252 313.273 556.052 314.673 552.752 316.373C552.852 316.373 550.952 317.673 551.052 317.673C548.752 317.373 548.952 315.073 546.052 315.173C543.052 315.273 541.752 317.673 538.952 314.773C538.352 316.973 538.252 315.973 536.752 316.573C535.952 316.773 535.252 316.573 534.652 315.973C534.452 316.573 534.052 316.973 533.452 317.073C531.852 317.173 528.952 317.473 527.552 316.673C525.452 315.573 527.152 315.073 525.652 313.873C524.952 317.373 523.552 316.573 520.552 316.973C518.252 317.173 517.752 316.473 515.552 316.173C513.352 315.873 510.552 316.673 508.452 317.073C507.552 317.173 506.352 317.873 505.552 317.573C504.752 317.373 504.352 316.773 503.952 316.573C503.352 316.373 503.452 315.873 502.452 315.573C501.752 315.373 500.552 316.073 499.852 316.173C494.852 316.973 490.152 316.973 485.452 315.073C487.752 319.173 480.052 316.973 478.652 315.273C476.952 317.973 474.852 316.073 471.352 316.273C467.952 316.473 462.952 317.473 461.552 313.273C461.252 314.173 459.352 316.573 458.652 316.973C456.452 318.073 456.152 316.473 454.152 315.773C451.352 314.873 451.952 316.573 450.252 316.873C447.352 317.473 445.752 315.373 443.152 314.273C443.052 315.973 442.952 316.973 441.552 318.073C440.252 313.373 435.652 318.473 436.452 312.173C434.652 313.273 432.152 314.173 431.652 316.573C434.652 315.773 431.952 317.673 431.852 317.773C431.452 317.973 430.152 316.173 429.852 315.873C429.752 316.773 429.652 317.573 429.652 318.473C428.452 317.873 427.352 316.873 426.452 316.273C425.552 315.773 426.852 314.773 425.352 314.773C424.552 314.773 423.752 316.373 422.952 316.573C421.752 316.773 422.352 315.073 421.752 315.073C420.952 315.173 419.652 316.273 419.052 316.273C417.152 316.173 418.452 315.273 416.952 314.873C414.252 314.173 414.452 315.873 412.552 316.473C408.152 317.873 408.652 311.273 404.152 315.673C403.052 316.773 402.452 318.373 400.952 318.273C397.952 318.073 398.952 314.473 399.652 312.773C400.252 313.073 388.652 319.073 388.752 318.873C388.852 317.473 390.652 316.373 389.052 315.073C387.752 317.973 386.352 317.973 383.252 318.573C381.752 318.873 381.452 319.173 379.852 318.573C378.852 318.173 378.152 316.573 377.152 316.473C377.252 316.473 375.452 317.873 375.152 318.073C373.452 318.873 372.452 317.973 370.752 318.273C369.352 318.573 368.852 319.773 367.452 319.373C365.552 318.973 366.652 316.773 364.152 317.373C363.252 317.573 362.752 319.273 361.352 319.573C359.252 320.073 356.552 319.073 354.352 319.673C352.552 320.073 351.252 320.273 349.652 320.373C348.352 320.473 348.952 319.473 346.552 320.573L345.552 318.073C344.352 319.173 343.252 320.173 342.052 321.273C341.852 320.373 341.652 319.373 341.652 318.373C339.952 320.073 337.752 320.373 335.352 320.573C332.852 320.773 330.952 321.273 328.452 321.773C327.652 321.873 325.652 322.173 325.052 321.873C325.152 321.873 323.852 321.373 324.252 321.473C324.052 321.173 323.952 320.773 323.752 320.473C323.552 319.473 322.852 319.473 321.652 320.373C321.052 320.273 319.852 319.473 319.252 319.673C317.652 320.173 317.852 321.473 316.252 321.273C315.252 321.173 314.652 319.673 313.652 319.573C312.052 319.373 310.552 321.273 309.152 321.673C313.652 320.473 303.352 321.373 306.552 321.473C304.452 321.373 302.252 321.273 300.352 322.273C299.252 321.573 300.552 320.073 299.452 319.473C298.452 318.873 298.352 320.373 298.252 320.373C298.852 320.173 298.552 321.473 297.952 321.673C296.052 322.373 294.452 320.573 294.352 318.873C292.752 321.373 292.252 320.373 289.852 320.473C287.452 320.673 285.452 321.873 283.052 321.873C278.352 321.873 275.152 320.173 273.552 315.973C278.552 316.573 283.652 313.373 288.552 314.073C290.152 314.373 291.152 315.573 292.552 315.273C294.252 314.973 295.552 313.073 297.752 312.873C302.652 312.373 307.552 312.873 312.552 312.073C318.452 311.173 324.652 310.673 330.652 311.073C335.252 311.373 339.052 309.673 343.752 309.273C349.852 308.873 355.952 308.773 362.052 308.473C368.252 308.173 375.052 307.173 381.252 307.473C383.152 307.573 384.852 307.773 386.752 307.673C387.552 307.673 388.352 307.073 389.152 307.173C390.252 307.273 390.752 308.373 391.952 308.373C393.952 308.273 396.052 306.673 398.352 306.673C402.152 306.573 406.052 306.573 409.852 306.373C413.252 306.173 416.852 305.373 420.252 305.473C422.652 305.473 423.252 307.573 424.652 307.773C427.152 308.173 439.752 300.973 440.852 307.373C447.452 302.873 456.252 306.673 463.552 305.873C472.952 304.773 482.552 305.773 491.952 305.373C501.552 304.973 511.452 305.373 521.052 306.273C525.052 306.673 528.852 306.973 532.852 306.773C534.651 306.673 536.652 306.173 538.452 306.673C538.852 306.773 542.152 309.073 541.752 309.173C543.552 307.573 542.352 307.273 545.452 307.273C547.852 307.173 550.152 307.773 552.652 307.873C557.052 308.173 561.352 307.573 565.752 307.673C569.352 307.773 572.952 308.273 576.552 308.373C580.452 308.373 585.152 308.473 587.952 311.673C587.652 310.673 587.352 309.673 587.052 308.673C591.452 308.973 595.752 310.573 600.252 309.873C599.152 310.973 597.952 311.873 597.552 313.373C599.952 313.073 601.552 311.373 604.052 311.373C606.151 311.373 606.651 312.373 608.852 311.073C609.151 312.773 609.352 314.473 609.651 316.073C612.751 315.373 610.752 313.073 610.952 310.973C613.452 311.773 615.552 310.873 614.651 314.473C613.451 316.973 609.951 318.273 607.352 317.473ZM602.952 348.473C601.852 351.473 592.552 349.773 590.352 349.473C587.451 349.073 584.252 348.373 581.652 348.073C581.352 347.673 580.952 347.273 580.552 346.973C580.252 347.473 579.852 347.773 579.252 347.973C578.052 348.273 578.052 349.473 576.452 349.173C576.352 350.973 577.652 349.973 578.652 350.673C576.152 352.373 577.352 350.373 575.952 350.473C575.652 349.973 575.151 349.773 574.552 349.873C573.752 350.073 573.052 350.373 572.352 350.873C571.752 351.573 571.252 351.573 570.752 350.973C570.352 350.573 569.852 350.273 569.252 350.173C566.852 350.573 566.151 351.673 563.352 351.473C559.451 351.173 555.252 352.273 551.352 351.673C548.951 351.373 544.951 347.573 543.852 351.273C542.151 348.573 539.552 346.673 537.952 343.973C545.352 343.573 552.651 343.073 560.052 342.773C566.552 342.573 573.552 343.273 579.552 342.973C585.151 342.673 591.152 342.073 596.952 341.573C603.152 341.073 605.152 342.373 602.952 348.473ZM410.952 348.973C413.652 349.673 416.152 348.073 418.752 348.573C419.652 348.773 421.352 350.273 421.752 350.373C422.452 350.473 424.552 348.873 425.452 348.673C431.152 347.373 438.052 347.473 443.752 348.273C446.752 348.673 447.252 347.273 449.852 346.673C452.552 345.973 456.452 346.473 459.352 346.273C466.152 345.773 472.952 346.173 479.652 345.673C486.552 345.173 493.452 344.873 500.352 344.573C505.052 344.373 516.352 341.673 520.252 345.173C523.452 348.073 519.352 353.073 516.152 354.173C513.752 355.073 512.552 353.273 510.852 353.373C508.852 353.573 509.552 355.973 507.752 353.773C506.652 355.973 499.552 355.073 497.552 355.173C493.152 355.473 489.352 356.373 486.352 352.273C486.552 353.473 486.752 354.673 486.952 355.873C482.952 353.773 478.652 354.473 475.252 355.173C473.552 355.573 468.252 358.073 466.452 356.973C465.152 356.173 467.452 354.973 465.252 354.273C464.152 353.973 462.152 355.773 460.752 355.673C456.952 355.373 458.052 352.873 454.252 356.073C452.952 354.973 452.552 353.073 452.752 351.473C450.052 353.773 450.252 357.673 445.352 356.973C443.552 356.673 443.152 354.873 442.252 354.473C440.252 353.773 440.052 355.073 438.252 356.073C437.552 356.473 436.752 357.073 436.052 357.173C434.452 357.373 434.252 356.573 433.952 356.673C432.852 356.773 431.552 357.373 430.252 356.973C429.152 356.673 428.752 354.673 426.752 355.073C424.852 355.473 424.852 356.773 425.152 358.773C423.252 358.573 422.152 357.573 420.752 356.373C419.352 359.673 416.352 356.973 414.652 359.773C412.452 357.173 411.152 357.873 408.452 355.373C408.552 356.373 408.752 357.473 408.852 358.473C406.752 358.073 405.852 356.573 404.052 358.573C402.352 355.373 397.052 359.973 394.352 356.873C393.152 360.773 385.252 359.873 381.852 359.973C378.852 360.073 376.652 359.773 373.752 360.473C371.152 361.073 367.652 361.673 365.252 361.473C363.652 361.273 361.952 360.973 359.952 361.173C357.152 361.473 354.652 362.973 351.752 362.273C347.352 361.273 344.652 355.473 349.552 352.873C352.952 351.173 358.952 351.773 362.652 351.473C368.752 350.973 375.652 349.773 381.852 350.373C386.652 350.773 391.052 349.673 395.852 349.173C399.552 348.773 405.552 348.173 407.952 351.773C409.052 350.673 408.952 348.373 410.952 348.973ZM343.752 398.873C343.052 395.573 371.152 393.773 373.952 393.573C379.752 393.073 385.652 392.773 391.552 392.673C396.352 392.573 400.852 393.473 405.652 392.773C410.152 392.073 415.552 390.673 419.452 393.873C420.052 389.473 436.952 391.673 440.152 391.673C454.152 391.773 467.552 391.773 481.052 390.873C488.752 390.373 496.952 389.673 504.752 390.073C508.252 390.273 511.052 391.173 514.552 390.373C516.852 389.873 519.252 388.773 521.452 390.273C523.952 392.073 525.052 398.273 523.352 400.773C522.052 402.673 520.952 402.473 518.952 402.073C515.852 401.573 513.552 400.873 510.352 402.173C510.852 401.973 508.252 402.573 508.452 402.573C504.852 402.873 499.952 405.373 496.852 402.473C498.052 402.673 499.952 400.473 498.352 400.273C497.152 400.173 496.452 401.373 495.552 401.773C492.452 403.173 490.752 402.773 488.952 399.773C485.152 403.073 484.752 402.173 483.052 398.073C481.752 399.073 481.452 401.373 480.452 402.173C480.352 402.273 480.952 403.673 480.152 403.673C479.452 403.573 479.252 402.473 478.752 402.473C478.452 402.373 478.252 401.473 477.952 401.373C477.652 401.273 477.252 401.973 476.852 401.873C475.852 401.873 472.852 404.073 473.952 400.973C472.352 402.973 471.652 401.673 471.152 399.873C469.352 401.273 467.552 402.673 465.652 403.973C464.852 401.573 463.352 402.273 461.552 403.073C462.152 401.473 461.752 399.873 460.352 401.073C459.552 401.773 459.052 403.773 458.152 404.673C454.852 401.273 453.652 402.273 449.052 402.673C447.252 402.873 445.152 403.173 443.552 402.073C442.152 401.173 441.352 397.773 439.052 400.473C439.552 399.873 438.752 404.573 438.652 405.273C437.652 404.573 436.752 403.673 436.052 402.673C434.652 405.373 431.152 402.973 428.252 403.473C423.652 404.373 418.952 405.773 414.852 402.373C414.552 403.473 411.252 404.873 411.252 404.873C411.452 402.873 412.652 403.573 410.152 403.273C409.652 403.173 409.152 404.073 408.752 404.173C407.252 404.473 405.452 404.173 403.952 404.173C397.652 403.973 391.952 405.373 385.752 405.873C383.652 406.073 381.152 406.373 379.252 405.573C377.252 404.773 377.252 403.873 375.252 404.373C375.852 404.173 373.952 406.273 374.052 406.173C373.752 406.373 372.652 405.373 372.252 405.473C372.152 405.873 372.052 406.373 371.852 406.773C371.352 406.673 370.852 406.673 370.352 406.573C369.052 406.773 367.752 405.373 366.552 405.373C366.752 405.373 363.152 406.773 363.252 406.873C360.652 405.573 361.452 405.973 358.152 406.773C355.052 407.473 352.052 407.373 348.952 407.773C339.452 409.073 344.952 404.473 343.752 398.873ZM335.752 444.573C334.052 442.173 338.652 441.273 340.052 441.073C342.452 440.673 345.652 441.373 347.252 441.073C349.652 440.473 352.052 439.073 354.752 438.773C358.252 438.273 361.652 438.273 365.152 437.973C366.352 437.873 367.752 437.473 368.852 437.573C370.552 437.673 371.252 438.573 372.552 438.573C374.852 438.573 377.752 437.173 380.052 436.873C383.052 436.573 386.152 436.373 389.152 436.173C395.552 435.873 401.852 435.973 408.352 435.973C411.252 435.973 419.052 432.973 420.552 436.373C422.552 433.773 427.752 434.173 430.652 434.073C435.752 433.973 440.752 433.473 445.852 433.173C450.252 432.973 455.052 433.873 459.352 433.273C461.752 432.873 462.452 432.173 465.152 432.473C467.152 432.773 470.152 431.673 471.852 432.173C471.752 432.173 473.952 433.573 473.252 433.573C474.052 433.573 473.952 434.073 474.852 433.773C475.952 433.473 475.452 432.073 477.752 431.573C481.352 430.773 486.052 431.673 489.752 431.473C493.352 431.273 496.952 431.173 500.552 431.173C502.252 431.173 504.252 430.773 505.852 431.073C506.652 431.273 508.352 432.273 508.952 432.173C510.852 431.873 511.852 430.573 514.352 430.673C517.252 430.773 519.852 430.773 522.752 430.473C525.552 430.273 526.052 429.873 527.352 432.173C528.752 434.473 529.151 437.473 526.552 439.073C528.151 438.973 530.252 441.173 528.252 442.373C527.052 443.173 524.652 441.473 523.252 441.573C521.452 441.773 520.052 442.673 518.152 442.673C516.152 442.773 514.052 443.273 512.052 443.273C509.952 443.273 508.452 442.373 506.452 442.773C504.752 443.073 504.552 444.573 502.452 443.273C501.452 442.673 501.252 440.373 499.852 440.373C497.952 440.373 498.752 442.773 497.652 443.973C497.352 440.473 494.652 446.273 493.552 441.973C492.552 443.373 488.852 445.373 487.152 444.273C485.552 443.273 486.052 440.873 485.352 439.173C484.252 442.173 481.252 445.373 481.452 439.873C479.952 441.673 476.052 441.373 477.052 444.573C475.852 444.573 475.552 442.873 474.552 442.673C473.652 442.573 472.952 443.273 472.852 443.173C473.352 443.173 471.452 443.873 471.452 443.873C472.752 443.573 467.752 443.173 468.552 443.173C467.352 443.173 465.952 444.073 464.652 444.073C463.452 444.073 462.152 443.573 460.952 443.473C457.752 443.073 458.452 443.773 456.452 444.773C455.752 445.173 455.552 445.773 454.452 445.673C453.652 445.573 453.352 444.573 453.352 444.573C452.252 444.473 453.052 444.073 451.352 444.273C451.152 444.573 450.952 444.973 450.752 445.273C450.152 446.073 449.352 446.273 448.352 445.873C445.852 446.373 437.652 448.673 438.452 444.473C437.152 445.073 435.952 445.673 434.652 446.273C434.152 442.873 427.252 447.373 425.752 447.673C423.752 447.973 423.652 447.173 421.752 446.773C421.452 446.673 420.752 447.773 419.952 447.673C417.952 447.273 417.552 447.073 417.252 444.873C415.752 447.573 414.552 446.373 411.952 446.773C411.352 446.873 410.952 447.973 410.152 447.773C409.552 447.673 409.552 446.573 409.152 446.373C408.752 446.273 408.852 445.373 408.252 445.273C407.652 445.173 405.452 446.873 404.852 447.173C403.452 447.773 401.152 448.773 399.852 448.473C398.152 448.073 398.952 446.873 396.552 446.973C392.752 447.173 391.252 450.373 388.952 445.373C387.852 447.373 388.052 447.973 386.352 448.573C385.052 449.073 381.952 448.573 380.252 448.473C373.252 448.173 366.352 450.573 359.352 449.973C356.252 449.673 353.752 449.073 350.652 449.573C347.452 450.073 344.252 450.873 340.952 451.173C339.252 451.373 335.752 451.773 334.952 449.673C334.552 447.973 337.252 446.673 335.752 444.573ZM349.552 521.873C340.452 527.973 332.852 536.273 324.552 543.373C316.152 550.473 309.452 558.273 301.952 566.173C294.952 573.373 288.552 580.273 280.152 585.773C274.852 589.273 270.052 593.473 264.552 596.773C260.452 599.173 254.252 602.473 256.252 594.973C258.352 587.273 262.052 579.573 265.352 572.373C270.052 562.173 274.752 552.073 279.852 542.173C281.752 538.473 282.852 534.673 285.852 531.673C289.152 528.373 291.452 524.173 295.052 521.073C310.052 508.073 332.852 518.073 349.552 521.873ZM378.152 526.273C374.052 528.473 369.352 528.973 365.052 530.373C361.352 531.573 357.852 533.773 353.852 533.973C357.552 531.273 360.652 527.473 364.752 525.373C369.252 523.073 373.452 524.773 378.152 526.273ZM559.652 544.373C544.452 539.273 530.252 531.673 515.452 525.573C512.852 524.473 492.852 517.973 493.252 514.773C507.252 512.173 521.752 507.773 535.752 512.573C548.552 516.973 558.951 527.473 568.852 536.173C571.451 538.473 587.352 548.873 585.952 552.173C584.952 554.473 577.252 553.873 575.452 553.373C573.152 552.773 571.752 551.373 569.952 549.773C566.852 547.273 563.452 545.573 559.652 544.373ZM531.552 458.573C533.852 456.473 535.252 453.173 537.452 451.273C540.252 448.773 544.852 449.973 547.952 451.273C557.252 455.173 565.252 461.773 574.452 465.873C584.652 470.373 593.552 476.473 602.852 482.773C611.252 488.473 620.452 493.273 629.052 498.673C637.852 504.273 647.651 507.873 656.552 513.273C665.651 518.773 674.651 524.173 683.352 530.273C698.852 540.973 715.052 552.073 726.552 567.273C732.452 575.073 737.951 583.973 742.352 592.873C746.252 600.873 750.552 611.973 745.452 620.373C740.552 628.373 732.151 634.673 725.151 640.673C722.451 642.973 719.952 645.673 716.452 646.673C712.252 647.873 707.252 647.573 702.952 647.873C679.752 649.773 658.052 647.973 635.252 643.873C613.152 639.873 591.052 637.673 568.752 634.873C556.252 633.273 543.652 631.473 531.252 628.873C525.952 627.773 520.552 626.473 515.452 624.973C510.952 623.673 507.152 620.673 502.452 619.573C482.752 614.673 460.152 612.773 440.652 604.473C457.952 597.273 476.252 592.973 494.052 586.973C512.652 580.673 530.852 575.373 550.552 573.673C560.651 572.773 569.752 570.173 579.452 567.473C588.752 564.873 598.352 564.073 607.952 562.973C612.152 562.473 624.251 563.273 625.651 557.673C627.751 549.473 615.852 548.473 610.852 549.173C603.651 550.173 597.752 551.973 592.252 546.073C586.652 540.073 581.152 533.873 575.452 527.973C564.852 516.973 553.952 504.273 538.952 499.273C520.652 493.273 499.552 498.973 481.252 502.373C462.052 505.973 442.752 509.473 423.852 514.673C416.052 516.873 405.952 521.673 397.852 520.873C389.852 520.073 380.752 518.773 373.052 516.473C369.552 515.473 366.652 513.473 363.552 511.673C359.452 509.373 355.052 507.873 350.752 505.973C342.052 502.273 333.552 498.873 324.052 497.473C316.152 496.273 307.652 495.573 299.952 498.273C292.452 500.973 285.752 506.573 280.452 512.473C274.752 518.873 270.052 526.173 265.352 533.373C263.052 536.873 260.352 539.873 258.052 543.273C256.052 546.073 254.952 549.273 252.852 552.073C248.252 558.273 245.052 566.173 242.252 573.373C239.152 581.373 235.652 590.873 236.452 599.473C236.752 602.773 237.052 607.073 238.252 610.173C239.852 614.073 242.152 613.973 245.452 615.373C251.152 617.873 252.752 624.773 260.152 623.473C267.052 622.173 273.052 616.473 278.052 611.973C284.652 606.073 290.952 599.873 297.152 593.573C303.652 587.173 309.952 580.173 315.052 572.673C317.052 569.673 318.652 566.373 321.052 563.673C324.052 560.273 327.552 559.873 331.652 558.473C367.752 546.573 404.052 535.073 441.252 527.173C450.152 525.273 459.152 522.873 467.952 520.373C477.252 517.673 482.052 520.573 489.752 525.573C505.752 536.173 524.752 543.673 542.552 550.573C548.151 552.773 557.151 552.873 561.552 557.173C535.552 561.173 510.752 568.773 485.652 576.373C473.252 580.073 460.752 583.373 448.352 586.973C435.952 590.573 423.952 595.173 411.752 599.273C399.552 603.273 386.652 604.973 374.352 608.673C361.752 612.473 349.252 615.073 336.352 617.373C323.352 619.673 310.352 622.373 297.252 624.473C291.252 625.473 285.252 626.373 279.352 627.773C273.552 629.073 267.952 632.173 262.152 632.873C236.152 636.073 210.652 643.173 184.752 647.173C165.452 650.173 131.752 654.373 119.252 634.973C106.652 615.473 122.152 592.673 135.952 578.773C144.552 570.073 154.152 562.473 164.252 555.673C175.052 548.373 185.452 540.573 196.352 533.273C220.852 516.873 247.452 503.473 273.752 490.273C286.352 483.973 298.552 477.173 310.852 470.173C316.952 466.773 320.352 472.273 325.152 476.073C328.952 479.073 335.952 486.373 341.252 482.973C341.452 484.173 341.652 485.373 341.852 486.673C343.452 485.973 344.952 485.273 346.552 484.573C347.552 487.273 347.452 488.973 350.352 490.473C352.152 491.373 355.952 492.373 357.652 490.873C357.952 491.973 358.352 493.073 358.652 494.073C360.152 493.973 360.452 489.673 360.752 488.673C363.352 492.373 366.852 495.573 371.352 496.573C371.352 496.373 370.652 493.273 370.652 493.273C372.052 492.373 373.852 496.173 374.652 496.973C377.152 499.573 378.652 499.173 381.452 497.073C381.652 497.273 382.552 499.773 382.752 499.673C383.352 499.473 384.452 497.273 384.652 497.173C384.452 499.973 389.952 500.573 391.952 499.973C391.552 499.173 391.052 498.273 390.652 497.473C397.452 496.573 400.052 503.773 406.552 503.373C411.352 503.073 407.452 502.073 410.252 499.973C412.652 498.173 413.052 502.073 413.252 501.973C413.752 501.473 414.052 500.973 414.352 500.373C415.252 503.773 422.252 506.773 421.452 501.173C424.152 502.273 426.152 504.073 429.152 504.473C432.852 504.973 436.752 504.173 440.452 503.873C448.352 503.173 455.852 501.573 463.052 497.973C467.252 495.773 471.852 493.873 475.852 491.273C479.152 489.073 485.552 482.473 489.952 485.373C488.852 481.973 494.152 485.173 494.352 480.773C495.252 481.373 496.052 482.073 496.952 482.673C497.452 481.573 497.352 479.773 498.052 478.773C498.952 477.373 499.452 478.173 500.252 477.473C501.152 476.573 501.952 474.373 503.052 473.673C504.152 472.973 505.452 473.773 506.652 473.173C508.452 472.273 516.352 463.573 515.052 471.073C518.452 469.873 515.852 468.873 516.252 466.573C517.152 462.073 519.152 465.273 521.252 465.673C524.652 466.273 524.552 463.573 526.452 461.473C528.152 459.573 531.452 458.773 530.252 455.573C531.152 455.973 531.452 457.273 531.552 458.573ZM327.952 361.873C325.252 364.873 323.252 363.573 320.352 363.173C320.052 362.073 319.452 361.973 318.752 362.773C317.852 363.273 316.952 363.573 315.952 363.773C313.552 364.373 311.052 364.073 308.652 364.973C308.752 364.173 309.552 362.773 309.052 361.973C306.552 363.673 305.052 364.773 301.952 364.873C299.452 364.873 295.152 362.973 293.052 365.273C292.952 364.373 292.952 363.473 292.852 362.673C291.852 363.173 290.952 363.873 290.252 364.673C290.152 363.373 290.052 362.373 289.152 361.273C287.552 364.673 285.752 364.773 282.552 363.473C282.952 363.673 279.352 361.473 279.452 362.073C278.352 357.273 296.452 357.673 298.352 357.473C303.152 356.973 307.852 356.673 312.652 356.273C317.152 355.873 320.552 355.173 323.652 358.973C322.152 353.373 335.352 353.573 327.952 361.873ZM119.852 277.373C120.352 285.573 122.152 294.373 118.952 302.273C116.352 308.673 111.252 315.873 105.752 319.973C94.4515 328.473 84.8515 318.073 83.2515 306.573C81.6515 294.673 84.8515 280.073 95.1515 272.673C101.252 268.273 107.252 268.573 114.352 270.073C116.052 270.373 118.752 270.273 119.652 271.973C119.752 272.373 119.652 277.373 119.852 277.373ZM270.252 387.073C268.252 388.073 266.252 388.673 264.552 389.973C263.952 390.473 263.752 391.473 263.152 391.873C261.952 392.573 260.352 392.073 259.152 392.673C257.152 393.673 255.752 395.073 253.352 395.973C249.852 397.273 246.752 399.173 243.452 400.873C237.952 403.773 231.952 406.273 226.152 408.573C223.252 409.773 215.152 412.073 215.452 416.373C214.752 416.573 214.152 415.073 212.752 415.273C210.852 415.473 208.352 417.573 206.452 418.173C202.852 419.173 199.952 419.273 199.952 423.873C198.752 423.073 198.452 421.173 196.952 420.873C195.252 420.573 194.452 422.473 193.052 423.073C191.452 423.773 189.352 423.073 187.752 423.873C187.052 424.573 186.252 425.273 185.352 425.873C184.452 425.973 183.552 425.973 182.752 425.773C179.352 426.473 176.152 427.773 172.652 428.473C169.252 429.173 166.952 429.373 168.352 433.373C164.752 434.073 163.852 430.273 159.852 431.673C154.852 433.373 150.252 434.573 145.052 435.673C142.452 436.173 139.652 437.373 136.952 437.673C135.052 437.873 133.252 437.173 131.352 437.373C129.052 437.673 127.252 438.673 124.952 438.673C122.752 438.673 120.452 438.273 118.252 437.973C118.552 438.873 118.952 439.673 119.452 440.473C117.952 440.173 117.252 438.373 115.952 438.073C114.652 437.773 113.452 439.173 112.252 438.873C111.752 438.773 112.052 437.273 111.252 436.973C110.452 436.673 110.152 436.973 109.352 436.873C109.052 436.873 105.852 436.673 105.352 436.973C104.452 437.473 105.352 438.373 105.152 438.473C102.152 440.673 102.052 439.473 100.752 437.173C98.7515 433.773 96.3515 435.873 92.7515 435.273C88.7515 434.573 85.5515 436.373 81.6515 436.073C77.3515 435.773 72.4515 432.573 68.6515 430.773C60.5515 426.773 52.6515 422.973 45.8515 416.873C32.5515 404.973 21.6515 390.373 15.2515 373.673C8.35154 355.673 7.05154 336.973 7.65154 317.873C7.95154 306.373 8.85154 294.973 10.7515 283.673C11.9515 275.873 12.2515 262.073 21.0515 258.473C22.5515 276.673 17.7515 295.273 20.7515 313.473C21.6515 318.973 23.8515 326.173 28.0515 330.273C34.2515 336.273 35.6515 327.573 36.2515 322.873C37.2515 313.973 39.2515 305.173 40.5515 296.373C41.9515 287.573 42.8515 278.573 44.7515 269.873C45.4515 266.673 51.0515 243.373 55.1515 244.473C54.3515 261.473 52.1515 278.173 52.0515 295.173C52.0515 301.973 51.4515 309.173 52.3515 315.973C52.8515 319.473 56.0515 329.673 61.5515 328.873C66.6515 328.073 61.0515 320.873 60.5515 318.073C59.2515 310.673 60.8515 301.573 62.0515 294.173C64.2515 280.373 69.1515 266.173 77.2515 254.573C84.4515 244.173 95.5515 234.373 108.952 236.173C114.652 236.973 119.152 238.373 122.052 243.573C124.352 247.673 133.152 252.373 128.052 257.473C123.352 262.173 115.752 258.373 110.552 257.273C104.152 255.873 97.3515 257.573 92.0515 261.273C82.9515 267.673 77.6515 279.173 75.9515 289.873C73.6515 304.373 79.7515 342.273 102.352 333.773C117.352 328.173 128.652 307.773 127.352 292.273C126.852 286.073 124.452 274.273 133.052 272.573C144.052 270.373 145.652 282.573 144.552 290.473C142.952 301.973 136.852 312.673 129.852 321.773C123.752 329.673 116.752 334.673 109.452 341.173C107.252 343.073 101.752 347.473 102.752 351.073C103.752 354.973 112.452 356.173 115.852 356.773C132.952 359.973 152.352 357.073 169.452 354.773C204.652 350.173 239.352 338.773 268.152 317.973C269.352 330.873 270.752 343.773 271.352 356.673C271.652 362.973 271.652 369.373 272.352 375.573C273.052 379.473 274.652 384.873 270.252 387.073ZM172.752 432.073C171.352 432.773 172.852 428.473 172.452 429.873C174.552 430.573 174.652 431.373 172.752 432.073ZM318.652 275.873C320.852 273.473 326.852 267.673 328.752 273.173C329.452 270.873 329.552 267.373 332.252 270.573C333.352 266.673 345.352 267.073 348.252 266.873C357.752 266.373 367.352 266.073 376.752 265.073C396.252 263.173 416.052 264.173 435.552 264.073C439.752 264.073 444.052 263.873 448.252 264.473C452.352 265.073 456.552 266.773 460.652 266.073C464.352 265.573 466.752 264.473 470.552 264.973C475.052 265.473 479.452 265.873 484.052 265.873C504.252 265.773 524.452 266.573 544.652 266.673C548.552 266.673 553.352 265.873 556.952 267.573C558.352 268.173 559.852 270.273 560.852 270.473C562.052 270.773 561.352 268.873 562.952 269.673C565.052 270.773 563.452 274.273 562.052 274.873C562.852 274.573 560.552 274.173 560.752 274.173C559.652 274.273 558.652 275.073 557.452 275.073C555.652 274.973 554.052 273.873 552.552 272.873C552.552 273.273 553.352 275.973 552.452 276.073C551.652 276.173 550.852 273.573 550.852 272.873C546.352 276.873 541.552 274.673 535.952 275.173C531.952 275.573 523.652 278.173 520.952 274.073C520.852 274.973 520.451 275.773 519.852 276.373C519.052 277.573 518.352 277.473 517.752 276.073C517.552 276.073 515.651 276.473 515.552 276.473C514.151 276.373 512.452 275.873 511.052 275.773C508.952 275.573 509.352 277.173 507.552 277.173C506.652 277.173 504.252 275.873 502.652 275.773C499.852 275.673 496.952 276.773 494.152 276.473C492.252 276.273 490.552 274.673 488.652 274.573C486.352 274.473 485.552 276.273 483.752 273.773C483.352 273.673 483.152 275.173 482.952 275.173C482.952 275.173 481.152 275.473 480.952 275.473C480.552 275.573 479.152 276.273 478.752 276.273C477.852 276.273 477.252 275.573 476.252 275.573C474.552 275.573 469.352 276.973 469.452 273.973C463.552 276.173 458.452 275.273 452.452 275.873C449.652 276.073 447.952 275.773 445.252 275.273C441.952 274.673 439.752 275.473 436.452 275.573C433.252 275.773 432.252 274.373 429.552 273.173C428.452 272.673 427.752 272.073 426.452 272.373C425.752 272.573 426.252 273.773 426.052 273.873C424.952 274.273 424.152 273.873 422.552 273.973C419.652 274.173 418.552 276.573 415.552 274.273C416.552 274.173 417.552 274.073 418.552 273.873C415.752 272.673 411.952 272.073 412.652 276.473C410.252 276.173 412.352 274.473 411.152 273.873C409.952 273.273 408.652 274.273 407.152 274.773C403.152 276.073 399.852 275.373 395.752 275.173C391.052 274.873 380.052 278.773 376.752 273.773C376.652 274.773 375.552 277.773 374.052 277.573C373.552 277.573 374.952 274.473 375.052 274.073C374.252 275.673 370.752 276.073 369.052 276.873C369.252 275.973 369.452 275.073 369.652 274.273C368.052 275.973 367.252 274.973 365.352 275.473C364.552 275.773 363.352 277.473 362.652 277.573C361.852 276.573 360.752 276.173 359.552 276.373C358.752 276.173 357.852 276.173 357.052 276.273C353.752 276.473 350.752 278.373 347.452 277.073C344.552 275.973 343.452 273.173 341.752 277.673C341.352 276.873 340.852 276.073 340.452 275.273C339.852 276.173 339.352 276.973 338.752 277.873C336.552 276.473 336.452 275.673 333.952 276.173C333.352 276.373 332.752 276.373 332.152 276.073C332.052 276.473 331.852 276.973 331.752 277.373C331.652 278.473 331.352 278.873 330.752 278.473C330.252 278.273 329.852 277.973 329.452 277.673C327.852 277.773 325.752 278.273 323.952 277.973C323.252 277.773 318.952 275.573 318.652 275.873ZM369.052 246.373C369.252 246.673 369.452 246.973 369.652 247.273C366.952 248.673 366.352 247.873 366.052 245.073C367.352 245.073 367.552 247.373 369.052 246.373ZM370.652 244.773C371.952 245.373 373.452 246.473 374.652 244.973C375.452 247.273 369.452 250.573 370.652 244.773ZM378.952 245.773C381.652 247.573 375.152 246.173 375.152 246.173C376.352 245.073 377.652 244.973 378.952 245.773ZM402.252 235.573C403.152 240.273 405.752 240.073 409.852 237.973C415.852 234.773 416.852 229.573 417.352 223.373C417.752 217.473 418.452 215.173 424.652 216.373C428.952 217.273 432.552 216.473 436.852 216.373C441.452 216.273 443.052 216.973 443.452 221.673C443.852 226.373 444.652 229.973 448.152 233.673C451.652 237.373 456.352 239.573 460.852 241.573C463.152 242.673 465.352 243.773 467.952 243.973C468.952 244.073 474.152 243.373 474.252 245.073C474.352 246.273 467.152 249.773 466.352 250.273C462.952 252.073 459.652 253.773 455.952 254.873C447.552 257.373 438.652 257.573 429.852 257.373C415.752 257.173 396.352 251.173 387.952 238.673C392.652 237.673 397.452 236.573 402.252 235.573ZM400.952 195.073C398.752 193.173 397.252 190.373 395.452 188.173C394.552 187.073 393.852 186.673 392.952 186.173C392.052 185.573 391.452 186.373 390.752 185.073C388.752 181.473 394.952 176.473 388.352 175.073C386.152 174.573 380.752 176.373 380.152 173.173C379.252 168.673 387.852 168.373 389.852 166.073C393.852 161.473 391.152 153.773 393.652 148.573C395.952 143.573 401.952 142.673 406.752 141.173C413.352 139.073 420.052 137.873 426.752 136.173C431.452 134.973 439.252 130.273 443.552 134.473C436.852 135.973 440.752 138.273 445.252 139.573C450.352 141.073 455.652 141.673 460.952 142.073C466.352 142.473 471.852 142.573 477.152 141.473C482.052 140.473 487.552 136.173 492.752 137.273C489.852 142.273 481.352 144.973 476.152 146.273C473.552 146.973 471.852 146.773 472.152 150.073C472.452 153.273 475.252 156.473 475.952 159.773C476.752 164.173 476.052 168.273 474.452 172.373C472.952 176.473 472.552 176.973 473.852 180.873C475.952 186.973 471.452 193.673 467.252 198.073C450.252 216.073 417.952 209.373 400.952 195.073ZM443.952 88.4734C443.952 88.5734 443.952 88.6734 443.952 88.4734V88.4734ZM449.152 133.473C448.452 133.973 444.452 135.073 444.552 133.473C444.852 131.473 448.452 132.173 449.152 133.473ZM458.352 90.8734C457.452 90.1734 454.752 90.4734 456.652 87.7734C457.352 88.8734 457.852 89.8734 458.352 90.8734ZM394.752 73.8734C395.952 70.7734 397.252 67.7734 397.852 64.4734C398.152 62.3734 397.552 60.0734 400.352 59.7734C396.652 58.1734 396.652 51.8734 396.452 48.5734C396.152 44.0734 394.752 38.0734 396.752 33.8734C398.752 29.5734 401.552 29.6734 402.352 34.7734C402.652 36.7734 401.452 37.4734 401.252 38.8734C400.752 41.6734 401.752 41.0734 403.452 38.9734C404.152 41.0734 404.452 44.3734 407.452 44.1734C407.252 43.5734 406.152 42.2734 406.452 41.5734C407.052 40.4734 409.952 42.1734 410.252 42.3734C412.852 44.1734 413.452 45.8734 411.552 48.1734C414.152 48.4734 411.952 50.7734 413.652 51.2734C416.252 52.1734 414.452 47.8734 414.252 47.1734C415.852 47.7734 416.352 48.4734 417.352 49.6734C417.952 50.4734 418.452 51.3734 418.952 52.2734C419.452 53.9734 420.552 54.3734 422.252 53.5734C425.552 54.5734 430.152 54.4734 433.152 56.2734C434.552 57.0734 434.952 58.8734 436.152 59.5734C437.452 60.3734 439.152 59.9734 440.552 60.4734C440.052 61.5734 440.452 62.2734 441.752 62.2734C442.752 62.3734 443.752 62.5734 444.752 62.9734C445.452 62.4734 446.252 61.9734 447.052 61.6734C447.652 62.6734 448.452 62.8734 449.452 62.3734C452.552 62.9734 453.952 64.0734 455.952 65.8734C457.652 67.4734 456.252 67.5734 458.152 67.3734C458.952 67.2734 460.252 65.9734 462.052 66.2734C463.052 66.4734 464.052 66.7734 464.952 67.1734C465.952 68.0734 467.052 68.1734 468.152 67.4734C469.952 68.3734 470.152 69.9734 472.452 70.1734C474.952 70.3734 474.152 67.2734 475.852 71.6734C478.152 67.0734 479.052 74.4734 481.352 75.0734C483.852 75.6734 484.052 73.6734 486.152 75.8734C486.752 76.5734 486.752 77.5734 487.452 78.2734C488.652 79.3734 490.152 79.1734 491.252 80.7734C490.652 79.8734 491.352 83.8734 491.352 83.6734C491.552 85.3734 489.952 87.3734 493.152 87.1734C493.152 87.3734 491.552 89.5734 491.352 89.2734C491.252 88.9734 491.252 88.7734 491.152 88.4734C490.852 88.5734 490.652 90.7734 490.752 91.0734C491.052 91.0734 491.152 90.8734 491.052 90.4734C490.552 92.0734 491.352 93.1734 490.352 94.6734C489.752 95.6734 487.952 96.3734 487.052 96.9734C484.852 98.4734 482.652 99.8734 480.452 101.473C475.352 105.073 469.652 109.473 463.252 110.273C466.452 107.073 485.052 95.1734 475.752 91.6734C474.052 91.0734 470.852 90.4734 469.052 90.2734C466.852 90.0734 464.452 91.3734 462.052 90.5734C459.052 89.5734 460.152 86.7734 458.352 85.7734C454.452 83.6734 455.352 88.6734 454.152 89.9734C452.852 88.6734 453.152 87.9734 451.152 87.8734C449.052 87.7734 448.652 89.6734 446.252 88.4734C442.952 86.8734 444.652 83.5734 440.052 83.5734C440.152 82.8734 440.852 80.8734 439.952 80.2734C438.752 81.8734 439.652 83.5734 438.552 85.0734C437.952 85.8734 436.752 86.4734 435.852 86.6734C433.752 87.2734 433.452 88.3734 433.852 85.1734C432.352 87.9734 427.552 86.7734 424.752 86.5734C420.152 86.0734 415.352 85.2734 410.952 83.7734C406.952 82.3734 404.752 80.0734 401.452 77.9734C400.152 77.1734 399.552 77.4734 397.752 76.9734C395.652 77.0734 393.852 76.0734 394.752 73.8734ZM404.352 24.8734C405.052 24.4734 405.552 30.6734 404.652 31.7734C403.152 29.3734 400.452 25.8734 404.352 24.8734ZM406.552 22.3734C408.752 20.3734 407.252 25.5734 406.852 26.3734C406.052 25.8734 405.252 25.2734 404.352 24.7734C405.352 24.1734 405.652 23.1734 406.552 22.3734ZM490.052 14.0734C510.552 18.3734 530.752 26.3734 547.152 39.5734C562.052 51.5734 572.651 68.6734 578.552 86.7734C584.651 105.573 582.651 126.473 568.052 140.973C560.352 148.573 550.252 153.173 540.552 157.573C535.952 159.673 531.152 161.473 526.452 163.573C523.152 165.073 519.052 167.473 515.252 167.073C517.152 165.073 520.052 164.973 522.352 163.773C525.151 162.273 527.552 159.373 529.952 157.273C532.352 155.173 537.752 148.673 541.552 150.273C541.052 146.773 544.952 145.173 546.752 142.973C548.652 140.573 548.752 137.773 552.252 136.973C548.552 134.073 549.652 128.573 550.452 124.673C551.452 119.573 551.951 114.973 552.352 109.773C553.052 100.473 553.651 88.6734 548.552 80.4734C546.852 77.7734 544.752 75.3734 543.252 72.6734C541.452 69.3734 541.852 66.4734 541.852 62.7734C538.552 64.9734 537.852 60.4734 536.552 58.2734C535.552 56.6734 534.151 55.6734 533.852 53.6734C533.651 52.1734 535.252 51.8734 534.352 50.3734C533.252 51.1734 532.852 52.4734 532.252 53.6734C531.252 53.2734 532.451 51.8734 531.852 51.3734C531.852 51.3734 529.852 50.4734 529.952 50.6734C528.652 49.0734 528.252 46.4734 527.652 44.5734C525.352 45.7734 525.752 45.5734 523.252 43.6734C522.752 43.3734 520.552 41.7734 520.352 41.2734C519.352 38.8734 521.052 40.2734 520.652 38.7734C519.252 34.4734 511.452 35.2734 510.752 28.8734C506.952 31.2734 505.452 27.8734 503.252 25.3734C500.952 22.8734 497.052 21.8734 497.252 17.9734C496.052 18.3734 494.852 18.7734 493.652 19.1734C494.252 15.4734 488.852 15.7734 486.852 13.8734C487.852 13.7734 488.952 13.8734 490.052 14.0734ZM493.152 241.173C495.052 239.473 494.452 241.773 495.652 241.473C496.652 241.273 496.852 240.473 497.852 240.173C501.952 239.173 508.152 240.473 512.452 240.173C517.452 239.973 526.052 240.973 528.452 246.873C529.852 250.373 527.652 249.173 525.252 248.973C523.352 248.773 521.752 249.173 519.852 249.173C518.951 249.273 518.052 249.273 517.152 249.173C516.752 248.873 516.451 248.473 516.352 247.973C513.752 247.573 511.052 249.073 508.152 249.173C504.352 249.273 500.952 248.573 498.052 245.973C496.852 247.673 496.152 248.573 494.052 248.773C493.952 248.773 491.952 247.973 491.652 247.873C491.252 247.773 490.152 248.673 489.352 248.373C490.852 245.973 491.052 242.973 493.152 241.173ZM754.252 261.573C754.952 259.273 755.451 256.873 756.151 254.473C765.552 265.173 773.852 279.573 777.552 293.373C779.952 302.373 783.752 318.573 772.252 323.173C762.852 326.973 757.652 313.473 755.252 306.773C749.952 292.173 749.952 276.473 754.252 261.573ZM332.052 93.2734C332.152 93.2734 325.952 96.8734 327.952 93.9734C328.752 92.7734 331.952 91.9734 333.252 91.9734L332.052 93.2734ZM326.152 94.7734C325.452 95.3734 324.752 95.9734 323.952 96.5734C323.252 95.4734 322.552 94.3734 321.852 93.2734C323.152 92.6734 329.152 92.2734 326.152 94.7734ZM321.752 207.473C320.452 206.573 319.452 207.073 319.052 208.573C319.052 207.073 319.852 203.673 320.952 203.273C321.752 202.973 318.452 199.073 319.352 198.073C321.752 199.473 320.252 200.673 320.952 202.473C321.252 203.273 322.152 203.973 322.452 204.573C322.752 205.573 324.152 209.073 321.752 207.473ZM315.352 198.673C314.052 198.973 316.352 201.173 316.352 202.173C316.352 202.873 315.452 203.473 315.052 204.473C314.252 206.673 315.652 208.173 313.352 209.773C313.352 204.973 310.152 192.273 316.352 189.973C313.352 187.573 315.852 184.873 318.152 187.673C320.452 190.473 319.052 197.773 315.352 198.673ZM312.152 179.773C310.952 175.473 307.252 173.973 303.152 174.273C303.352 172.073 304.952 168.873 306.152 172.873C306.652 171.673 306.952 170.173 308.152 169.373C310.052 175.373 319.552 178.673 313.652 185.073C313.052 183.273 312.652 181.573 312.152 179.773ZM301.052 174.573C279.052 176.173 248.252 180.773 230.652 163.873C219.152 152.873 219.852 135.773 229.052 123.573C234.352 116.573 241.552 111.673 248.752 107.073C251.552 105.273 253.952 104.073 256.952 103.073C257.452 102.973 257.952 103.173 258.352 103.373C258.552 102.673 258.952 102.073 259.652 101.773C260.852 101.173 262.552 100.873 263.252 99.5734C262.552 102.073 262.152 104.573 261.852 107.173C261.252 106.473 260.652 105.773 260.052 105.073C259.552 109.773 254.652 106.873 251.752 107.473C253.652 110.073 255.052 111.073 255.152 114.573C253.752 111.973 250.752 110.173 247.952 109.373C249.452 113.773 250.552 116.473 249.052 121.373C247.252 120.373 247.152 117.873 244.852 117.273C244.252 120.173 244.152 123.373 243.452 126.173C237.752 123.573 238.352 130.573 240.652 133.973C241.852 135.773 242.452 137.973 243.552 139.673C246.252 143.973 244.152 137.573 247.152 137.873C246.452 142.473 246.252 142.873 249.552 146.173C252.852 149.473 254.452 153.973 257.952 156.973C258.952 155.673 257.352 154.373 257.252 153.073C260.452 153.573 262.052 156.873 265.152 153.973C266.552 156.573 267.952 159.573 271.252 160.073C269.152 155.973 275.352 158.773 276.952 159.373C278.152 159.773 280.352 160.173 280.852 160.373C283.552 161.373 281.652 159.573 283.252 162.773C285.652 162.073 286.552 160.073 289.352 161.773C291.652 163.073 291.652 165.473 292.152 167.773C292.652 166.273 293.252 164.673 293.852 163.173C294.452 163.473 297.052 166.273 296.752 166.273C303.052 165.973 302.852 169.773 301.052 174.573ZM270.252 97.4734C271.452 96.5734 272.952 97.7734 274.352 97.4734C276.252 97.0734 277.352 95.4734 279.452 95.2734C278.852 97.1734 277.752 96.9734 276.852 98.4734C276.552 98.9734 276.652 100.173 276.452 100.473C274.052 102.873 273.252 100.873 270.852 99.0734C271.052 101.273 271.452 101.973 269.452 102.573C267.552 103.073 264.452 101.173 263.452 99.5734C264.152 97.9734 268.752 98.4734 270.252 97.4734ZM285.352 93.9734C287.452 94.1734 284.952 100.173 281.952 94.3734C283.052 94.1734 284.152 93.9734 285.352 93.9734ZM295.852 92.7734C299.052 92.0734 309.852 89.0734 311.052 94.0734C311.252 93.9734 312.052 91.0734 312.452 91.4734C313.952 92.8734 314.152 94.6734 313.952 96.6734C312.152 92.8734 312.752 96.1734 311.552 95.9734C311.252 95.8734 310.752 96.4734 309.952 96.2734C308.852 95.9734 308.152 93.6734 307.452 92.9734C306.352 94.5734 304.952 96.5734 302.752 96.4734C301.152 96.3734 298.652 92.2734 300.652 96.7734C299.452 96.3734 298.052 95.4734 296.752 95.6734C295.252 95.8734 294.452 97.3734 293.052 97.5734C289.952 98.0734 289.452 95.0734 287.452 93.4734C290.252 93.1734 293.152 93.3734 295.852 92.7734ZM315.452 92.7734C315.652 91.7734 318.552 91.3734 319.252 91.6734C321.052 92.4734 320.352 93.5734 320.052 95.2734C318.752 94.6734 317.452 94.0734 316.152 93.3734C318.052 96.5734 314.552 96.9734 315.452 92.7734ZM863.352 276.573C863.151 269.073 862.952 261.373 860.952 254.073C859.652 248.973 856.352 239.773 850.151 238.873C840.852 237.573 835.651 255.973 833.052 262.373C832.552 254.873 832.951 246.973 830.151 239.873C827.852 234.173 822.152 228.773 817.252 235.173C812.852 240.873 812.052 249.273 810.852 256.073C809.352 264.873 808.451 273.873 807.352 282.773C803.052 274.473 802.352 265.073 798.952 256.473C795.752 248.373 790.752 240.673 785.952 233.473C782.052 227.573 777.252 222.073 771.052 218.473C765.651 215.373 756.251 211.973 751.151 217.173C746.852 221.473 747.552 227.273 747.752 232.773C747.852 235.173 748.252 236.873 746.052 238.073C744.952 238.673 743.352 238.373 742.151 238.673C740.251 239.173 738.852 240.073 737.252 241.273C726.152 249.473 721.052 264.273 719.552 277.473C717.552 294.173 724.052 308.573 729.651 323.873C730.552 326.273 733.352 331.473 732.952 334.173C732.552 337.173 728.752 337.273 726.252 337.273C718.652 337.473 710.651 336.873 703.052 336.173C684.952 334.473 666.952 325.773 650.752 317.973C647.752 316.573 643.652 315.773 641.252 313.473C638.952 311.373 638.352 307.973 636.452 305.573C631.652 299.673 628.552 294.673 621.552 291.073C614.352 287.473 607.052 284.073 599.952 280.073C591.252 275.173 583.252 268.873 574.952 263.373C559.452 253.173 544.152 241.873 527.752 233.173C520.152 229.173 511.652 228.473 503.752 225.173C496.052 221.973 486.552 221.973 478.552 223.973C474.652 224.973 471.952 227.273 468.352 228.873C464.152 230.673 460.652 228.673 456.952 226.573C451.252 223.273 445.652 217.973 453.752 214.373C456.452 213.173 459.952 212.673 462.352 210.873C464.952 208.873 466.952 205.173 469.052 202.573C473.652 196.973 476.452 190.473 483.152 186.973C490.652 183.073 499.452 182.073 507.452 179.573C516.052 176.873 524.552 173.573 532.952 170.373C548.252 164.673 564.052 158.473 575.052 145.773C584.552 134.873 588.652 120.773 588.252 106.473C587.452 77.2734 571.852 47.5734 549.352 29.2734C521.752 6.87338 486.752 -0.626621 451.952 -0.226621C435.652 -0.0266211 416.152 2.07338 402.452 11.9734C390.652 20.5734 388.752 35.5734 390.452 49.0734C391.152 54.5734 393.552 61.7734 389.752 66.6734C387.552 69.3734 383.652 70.0734 380.752 71.7734C377.052 73.8734 373.852 75.9734 369.652 77.0734C351.952 81.8734 333.452 80.1734 315.352 79.8734C285.252 79.4734 254.452 87.5734 232.052 108.773C213.952 125.873 208.552 158.173 230.552 174.773C248.352 188.273 276.352 186.773 297.452 184.373C303.952 183.673 308.452 182.573 308.452 190.573C308.452 199.273 307.052 208.373 309.252 216.973C312.752 230.473 325.752 230.773 337.152 227.873C343.152 226.373 349.052 224.073 354.752 221.673C363.152 218.173 370.852 212.973 379.252 209.373C384.852 206.973 389.152 214.673 394.152 209.373C395.052 208.373 395.252 206.873 396.652 206.373C398.852 205.573 402.452 208.373 404.452 209.273C407.352 210.573 410.252 211.573 411.352 214.773C412.452 217.773 411.952 222.473 410.952 225.373C408.752 231.773 402.752 230.473 397.252 230.073C387.652 229.373 378.152 227.773 368.652 227.073C360.052 226.473 352.052 229.073 344.652 233.273C329.152 242.173 316.352 256.273 302.952 267.873C296.052 273.873 289.352 280.273 281.752 285.573C278.452 287.873 274.952 289.873 272.052 292.773C269.252 295.573 268.952 298.073 267.952 301.773C266.252 308.373 257.652 311.673 252.352 315.073C244.752 319.973 236.752 323.473 228.252 326.473C210.252 332.873 192.152 337.373 173.452 340.673C164.252 342.273 155.152 343.373 145.852 344.273C137.852 345.073 129.352 347.473 121.352 345.473C123.652 341.773 127.752 339.473 130.952 336.573C135.052 332.873 138.552 328.473 141.652 323.873C147.652 314.973 151.952 305.473 152.852 294.673C153.752 284.973 152.752 273.373 146.852 265.173C144.852 262.373 140.852 261.573 139.052 258.973C137.252 256.473 137.952 252.073 136.952 249.073C134.452 241.573 126.952 232.273 120.452 227.873C113.352 223.173 102.952 221.373 94.7515 223.873C79.5515 228.473 70.1515 244.673 63.2515 257.873C59.4515 249.873 65.8515 237.973 58.3515 231.473C52.0515 225.973 47.1515 236.673 45.0515 241.273C35.2515 262.773 32.9515 285.573 28.8515 308.573C27.1515 306.873 28.0515 302.673 28.1515 300.673C28.4515 296.973 28.4515 293.373 28.4515 289.673C28.4515 280.373 30.2515 270.973 29.4515 261.673C28.9515 256.273 27.2515 244.973 19.4515 246.673C12.8515 248.173 8.65154 257.573 6.55154 263.273C3.55154 271.473 2.85154 279.673 3.05154 288.373C3.25154 297.973 1.45154 307.473 0.951541 317.073C0.051541 335.673 0.951536 354.173 6.25154 372.173C15.0515 401.673 35.1515 426.073 62.0515 440.873C76.8515 448.973 93.2515 454.173 110.152 455.273C119.352 455.873 128.152 454.773 137.252 453.873C146.252 452.973 155.252 452.473 164.152 451.373C184.052 448.973 203.452 442.673 221.552 434.173C231.052 429.673 240.052 424.273 249.352 419.473C253.152 417.573 255.652 415.173 258.852 412.473C262.052 409.873 262.952 409.673 266.552 409.673C265.452 406.873 268.552 405.973 269.952 404.173C269.852 405.073 269.752 405.873 269.752 406.773C270.852 404.473 271.752 404.473 272.652 406.873C273.552 404.273 274.252 401.573 275.252 399.073C279.352 401.173 279.052 406.173 284.552 402.473C289.052 399.473 293.252 395.973 297.952 393.073C308.552 386.373 317.652 377.773 328.252 371.173C328.252 377.573 328.752 384.073 327.852 390.473C327.052 396.573 324.752 402.173 322.952 408.073C319.652 418.773 319.352 430.273 315.752 440.873C314.252 445.273 310.252 448.973 309.152 453.273C307.952 457.673 310.652 461.173 306.152 463.973C302.952 465.973 299.052 466.873 295.552 468.073C290.152 469.973 285.152 472.573 279.952 474.773C255.552 485.273 231.652 495.873 209.052 509.973C187.552 523.373 165.752 537.173 146.052 552.973C128.952 566.773 111.652 584.573 107.452 606.973C103.452 628.773 114.152 652.173 135.852 659.273C147.152 662.973 159.852 662.573 171.552 662.673C184.152 662.873 197.552 659.773 209.952 657.573C223.052 655.273 235.952 651.573 249.052 649.573C261.652 647.573 273.252 643.173 285.552 640.373C298.752 637.473 312.252 635.873 325.552 633.273C331.552 632.073 337.352 630.373 343.352 629.273C349.952 628.073 356.552 627.673 363.052 626.073C375.652 622.973 387.752 618.073 400.352 615.173C406.052 613.873 411.652 612.173 417.352 610.973C422.552 609.873 426.652 606.873 431.952 609.373C436.152 611.373 439.552 614.673 443.552 616.973C448.752 619.973 454.252 622.673 459.652 625.273C470.552 630.473 481.852 634.173 493.252 638.073C505.252 642.173 516.952 646.873 529.452 649.673C542.152 652.473 555.152 653.273 567.952 655.473C594.152 659.973 620.252 662.073 646.852 662.173C660.352 662.273 673.752 660.673 687.252 660.873C699.152 661.073 709.451 663.673 720.352 657.373C737.752 647.273 757.852 632.073 757.452 609.973C757.052 589.973 745.052 570.873 733.752 555.073C720.052 535.873 700.552 522.373 681.452 509.173C661.052 495.073 638.252 485.373 616.752 473.073C605.852 466.773 595.752 459.973 583.852 455.573C578.151 453.473 572.651 450.973 567.052 448.673C562.552 446.873 556.052 445.773 552.152 442.773C549.752 440.873 549.552 437.973 548.852 435.073C547.451 428.773 545.252 422.773 543.052 416.773C538.952 405.073 536.151 393.073 534.352 380.773C532.651 369.073 528.852 356.873 530.852 344.973C543.651 357.373 556.852 369.373 570.052 381.373C574.952 385.873 579.852 390.573 584.752 395.073C588.452 398.473 593.152 403.473 598.252 404.473C604.852 405.773 602.452 398.473 606.952 397.273C609.752 396.573 618.052 403.673 620.252 405.073C634.152 413.873 649.552 419.473 664.852 425.473C680.852 431.773 697.352 437.373 714.651 438.973C730.552 440.473 746.852 438.573 762.252 434.173C792.852 425.473 815.452 404.973 831.952 378.373C850.752 348.273 864.451 312.773 863.352 276.573Z" fill="#2A344D"/>
<path fill-rule="evenodd" clip-rule="evenodd" d="M395.051 210.474L394.951 210.574C395.051 210.574 395.051 210.474 395.051 210.474Z" fill="#2A344D"/>
<path fill-rule="evenodd" clip-rule="evenodd" d="M396.552 210.873C396.452 209.873 396.152 208.973 395.852 208.073C394.852 209.673 393.952 210.373 395.252 212.073C395.652 211.673 396.152 211.273 396.552 210.873Z" fill="#2A344D"/>
<path fill-rule="evenodd" clip-rule="evenodd" d="M467.251 440.674C468.351 439.474 466.451 438.974 465.651 438.974C465.751 440.274 465.051 443.374 466.851 443.974C466.351 442.874 466.551 441.774 467.251 440.674Z" fill="#2A344D"/>
<path fill-rule="evenodd" clip-rule="evenodd" d="M437.251 188.073C435.351 191.873 439.651 192.973 442.151 191.173C444.051 189.773 445.151 186.273 445.451 184.073C446.451 176.873 441.351 169.973 438.851 163.473C438.151 161.773 437.351 156.073 435.251 155.973C432.851 155.773 432.651 161.073 432.651 162.373C432.551 166.473 433.651 170.573 434.951 174.473C436.151 178.673 439.551 183.673 437.251 188.073Z" fill="#2A344D"/>
<path fill-rule="evenodd" clip-rule="evenodd" d="M446.551 172.973C454.051 179.673 460.051 168.573 459.551 161.973C459.451 160.373 458.351 154.373 455.251 156.573C453.651 157.673 455.051 161.273 454.251 162.773C450.651 170.373 447.251 158.573 444.751 157.673C441.851 156.573 441.551 160.373 441.551 162.473C441.551 166.473 443.551 170.273 446.551 172.973Z" fill="#2A344D"/>
<path fill-rule="evenodd" clip-rule="evenodd" d="M419.351 173.973C421.151 171.173 423.251 167.473 423.551 164.173C423.951 158.973 420.951 159.473 418.451 163.073C416.651 165.673 415.351 169.973 411.551 168.873C406.751 167.573 408.251 161.073 405.551 158.073C398.651 167.073 411.451 186.373 419.351 173.973Z" fill="#2A344D"/>
<path fill-rule="evenodd" clip-rule="evenodd" d="M429.451 201.773C432.251 202.373 439.551 202.173 437.051 197.873C433.851 192.473 423.251 200.473 429.451 201.773Z" fill="#2A344D"/>
<path fill-rule="evenodd" clip-rule="evenodd" d="M527.351 41.0732C527.851 39.5732 527.151 39.2732 525.951 38.0732C524.851 39.0732 526.251 40.1732 527.351 41.0732Z" fill="#2A344D"/>
<path fill-rule="evenodd" clip-rule="evenodd" d="M579.552 316.973C581.352 317.273 581.952 316.273 581.352 314.073C578.352 313.873 577.752 314.873 579.552 316.973Z" fill="#2A344D"/>
<path fill-rule="evenodd" clip-rule="evenodd" d="M478.851 81.5736C480.851 82.4736 480.151 84.3736 480.051 86.0736C481.051 84.9736 483.251 82.8736 482.351 81.1736C481.051 78.6736 477.551 80.9736 478.851 81.5736Z" fill="#2A344D"/>
<path fill-rule="evenodd" clip-rule="evenodd" d="M409.552 49.8732C409.252 49.2732 408.952 48.6732 408.652 48.0732C407.352 49.0732 405.452 51.7732 407.452 53.0732C408.252 52.0732 408.952 50.9732 409.552 49.8732Z" fill="#2A344D"/>
<path fill-rule="evenodd" clip-rule="evenodd" d="M433.952 67.6732C436.452 69.6732 435.252 63.5732 435.152 63.0732C434.852 63.7732 432.652 66.6732 433.952 67.6732Z" fill="#2A344D"/>
<path fill-rule="evenodd" clip-rule="evenodd" d="M432.551 64.5732C432.351 64.0732 432.151 63.5732 431.951 63.0732C430.951 63.9732 429.651 65.9732 431.351 67.0732C431.851 66.2732 432.251 65.3732 432.551 64.5732Z" fill="#2A344D"/>
<path fill-rule="evenodd" clip-rule="evenodd" d="M448.651 85.4732C448.851 85.6732 449.051 85.8732 449.251 86.0732C450.051 84.3732 449.151 83.1732 447.551 83.0732C447.651 83.9732 448.051 84.7732 448.651 85.4732Z" fill="#2A344D"/>
<path fill-rule="evenodd" clip-rule="evenodd" d="M380.851 274.874C381.851 274.174 382.751 273.374 383.551 272.574C380.551 270.774 382.351 274.674 378.751 272.274C378.051 273.274 379.251 275.674 380.851 274.874Z" fill="#2A344D"/>
<path fill-rule="evenodd" clip-rule="evenodd" d="M505.651 440.073C506.751 438.373 506.951 438.373 505.451 437.073C504.151 439.173 504.251 438.573 505.651 440.073Z" fill="#2A344D"/>
<path fill-rule="evenodd" clip-rule="evenodd" d="M269.551 164.074C270.151 164.674 270.751 165.374 271.351 165.974C271.651 165.174 273.251 162.774 272.151 161.974C271.351 162.674 270.451 163.374 269.551 164.074Z" fill="#2A344D"/>
<path fill-rule="evenodd" clip-rule="evenodd" d="M291.451 170.473C290.451 170.273 288.151 169.573 287.551 170.473C288.951 171.673 292.251 170.573 291.451 170.473Z" fill="#2A344D"/>
</g>
<defs>
<clipPath id="clip0_2778_3467">
<rect width="862.9" height="663" fill="white" transform="translate(0.550781)"/>
</clipPath>
</defs>
</svg>
