<svg width="486" height="302" viewBox="0 0 486 302" fill="none" xmlns="http://www.w3.org/2000/svg">
<g clip-path="url(#clip0_2585_1601)">
<path fill-rule="evenodd" clip-rule="evenodd" d="M358.511 243.342C356.217 245.992 352.802 247.98 350.202 250.427C347.449 252.976 344.493 255.219 341.74 257.768C329.71 243.036 313.194 234.013 298.921 221.83C292.141 216.019 287.145 208.169 283.526 200.114C281.64 195.985 280.264 191.754 279.193 187.32C278.683 185.332 278.225 183.343 277.919 181.355C277.511 178.909 277.409 178.705 275.778 176.819C275.064 176.003 273.688 173.607 272.312 173.862C271.139 174.066 268.998 177.634 268.284 178.501C264.767 182.732 261.301 187.065 257.58 191.092C251.87 197.311 246.671 203.377 241.369 209.953C230.563 223.41 218.838 236.052 207.063 248.694C206.196 249.612 204.157 252.364 202.883 252.772C201.354 253.231 198.856 251.345 197.327 250.325C193.605 247.776 190.7 244.667 187.539 241.557C181.371 235.44 177.14 226.877 174.337 218.72C172.655 213.827 171.533 208.78 169.8 203.887C169.086 201.848 167.404 199.35 168.271 197.617C168.525 197.107 170.106 195.68 170.666 195.578C171.329 195.476 172.451 196.342 172.655 196.291C174.846 195.68 173.623 193.386 174.948 192.162C175.662 191.449 179.434 191.551 180.556 191.194C184.685 189.766 188.355 187.116 192.229 185.484C208.49 178.756 224.904 172.231 238.923 161.271C242.542 158.416 244.989 156.276 249.322 154.44C253.705 152.605 258.089 150.923 262.575 149.292C266.5 147.865 270.476 146.539 274.554 145.52C278.938 144.398 285.208 143.022 289.643 144.449C298.309 147.253 301.113 154.389 304.528 161.883C309.167 172.078 314.825 181.661 320.942 191.041C332.768 208.984 347.042 225.143 358.511 243.342Z" fill="#F8BBD0"/>
<path fill-rule="evenodd" clip-rule="evenodd" d="M97.9752 84.0435C97.5164 83.7887 93.7952 85.3179 93.1835 85.5218C90.6857 86.4394 88.3408 87.9687 85.9959 89.243C87.7801 91.435 89.6152 93.6269 91.3993 95.8189C93.1325 91.486 95.3754 87.9177 97.9752 84.0435ZM99.1986 110.959C98.5869 111.01 103.735 123.448 104.347 124.824C106.539 129.921 108.833 134.917 111.076 139.964C113.217 144.857 115.969 149.394 118.722 153.982C121.067 157.907 123.514 163.973 127.082 166.879C124.839 156.938 125.145 145.469 118.671 137.109C111.993 128.443 105.418 119.981 99.1986 110.959ZM358.511 243.75C348.52 227.947 336.031 213.98 325.632 198.483C319.82 189.818 314.162 180.999 309.217 171.772C305.649 165.044 303.457 155.46 297.952 150.312C295.505 148.069 292.956 145.826 289.694 144.806C285.259 143.43 279.091 144.806 274.605 145.877C266.245 147.916 258.089 151.076 250.188 154.441C242.185 157.805 235.354 163.922 228.115 168.765C220.367 174.015 211.956 177.838 203.239 181.152C195.644 184.057 188.915 188.237 181.371 191.143C179.893 191.704 176.783 191.653 175.56 192.417C174.183 193.233 174.744 195.68 173.113 196.546C172.348 196.954 172.144 195.476 171.533 195.527C170.819 195.578 170.207 196.393 169.545 196.903C166.792 198.993 168.474 200.421 169.545 203.326C173.062 212.808 174.999 222.442 179.944 231.414C184.022 238.754 189.884 245.381 196.766 250.224C197.836 250.988 201.2 253.843 202.475 253.639C203.596 253.486 205.839 250.529 206.604 249.714C210.07 246.095 213.231 242.169 216.697 238.55C222.049 232.943 227.198 227.183 232.397 221.524C238.413 214.949 243.765 207.455 249.168 200.421C251.666 197.158 254.878 194.558 257.63 191.551C261.352 187.524 264.767 183.14 268.335 178.96C269.406 177.685 271.19 174.423 272.872 174.474C274.044 174.525 276.083 177.227 276.695 178.093C278.938 181.305 278.938 187.065 280.06 191.041C282.812 200.777 287.757 210.31 294.588 217.803C301.367 225.297 310.033 230.598 318.036 236.613C326.702 243.138 334.909 249.765 341.791 258.176C344.543 255.627 347.5 253.435 350.253 250.835C352.801 248.388 356.217 246.451 358.511 243.75ZM230.155 288.455C232.092 288.455 235.354 289.679 237.087 288.965C231.939 283.256 227.198 278.362 220.724 274.233C213.944 269.9 207.216 265.618 200.691 260.979C187.488 251.651 177.752 240.64 172.195 225.144C170.768 221.168 169.8 216.988 168.78 212.859C168.219 210.667 167.098 200.319 165.212 199.401C164.09 198.891 155.628 204.804 154.303 205.569C151.194 207.302 148.033 208.628 144.771 210.004C137.838 212.909 130.65 215.152 123.259 216.988C114.389 219.23 108.374 215.509 102.92 208.577C96.7008 200.675 91.5523 191.806 85.843 183.497C83.2433 179.724 81.1023 175.952 79.2162 171.823C77.9418 169.122 72.9972 161.781 74.7304 158.876C79.624 162.597 81.3572 169.988 84.7215 174.984C88.8506 181.203 93.5403 187.065 97.7203 193.233C101.238 198.432 104.806 204.753 110.005 208.526C114.542 211.839 118.875 210.819 123.769 209.341C129.733 207.557 135.85 206.64 141.712 204.448C148.033 202.052 153.997 198.636 160.114 195.833C162.969 194.558 166.435 193.794 169.137 192.162C171.482 190.786 171.125 190.021 171.278 187.065C171.482 183.599 171.686 180.132 171.839 176.666C171.941 174.321 170.666 171.161 171.533 169.427C164.549 170.651 157.718 172.282 150.786 173.709C147.014 174.474 143.343 175.443 139.52 176.105C138.042 176.36 136.054 176.309 134.728 176.972C133.709 176.666 133.148 176.87 133.148 177.533C133.097 177.889 132.995 178.246 132.893 178.603C130.752 179.572 129.529 177.482 127.643 175.494C125.349 172.996 123.616 170.243 121.934 167.337C118.161 160.864 113.829 154.747 110.362 148.069C106.794 141.238 103.939 133.949 100.932 126.914C98.1791 120.44 96.3949 113.405 93.3874 107.084C92.011 104.281 90.3288 101.936 88.2898 99.5401C86.6076 97.552 84.0589 93.3211 81.612 92.4035C80.9494 92.1486 79.2162 92.5564 78.5025 92.5055C77.0243 92.4035 75.6989 91.8428 74.1696 91.9957C70.8562 92.2506 67.2879 94.3406 64.6882 96.1757C66.3704 97.705 70.6523 99.5401 67.5938 102.242C64.6372 104.893 63.006 100.152 61.8845 98.0618C56.5831 102.446 57.3477 108.461 56.736 114.629C56.4302 117.84 55.5636 121.052 55.0029 124.212C54.5951 126.506 54.9009 128.851 54.799 131.196C54.4931 137.109 53.9324 142.818 53.9324 148.629C53.9834 154.899 54.3912 160.915 54.9009 167.134C55.7675 177.584 57.6536 188.033 59.3358 198.381C60.2533 204.193 61.5277 209.851 62.7511 215.611C64.1784 222.136 66.7272 228.253 68.2055 234.778C69.6838 232.892 70.8053 232.892 73.2011 233.147C75.0362 233.351 76.3106 232.892 76.1577 235.441C76.1067 237.123 74.6284 238.346 72.9972 238.652C70.9072 239.009 70.1426 237.989 69.0721 236.358C68.8172 239.366 70.8562 242.577 71.6718 245.534C72.4365 248.337 72.9462 251.09 74.2206 253.792C75.495 256.392 76.5655 258.991 77.7889 261.591C78.3496 262.763 78.9103 263.987 79.522 265.21C79.8279 265.822 80.1847 266.638 80.5925 267.147C81.612 268.32 81.4591 267.759 82.6825 268.422C85.3333 269.9 84.3647 269.543 84.4157 272.602C84.4667 275.609 85.9959 277.801 88.4937 279.534C93.7442 283.103 98.9437 284.122 104.908 285.957C110.464 287.64 116.326 289.118 122.239 289.067C129.478 289.016 136.564 288.098 143.802 287.996C151.754 287.894 159.808 287.945 167.761 288.2C171.023 288.302 174.082 288.455 177.242 289.271C180.912 290.239 184.48 289.882 188.253 289.73C196.307 289.424 204.667 288.812 212.619 288.71C218.328 288.506 224.394 288.098 230.155 288.455ZM439.409 291.565C440.836 292.329 444.048 292.023 445.526 291.819C448.075 291.463 448.329 290.443 449.961 288.2C452.713 284.275 455.007 280.554 456.638 276.017C459.748 267.351 461.022 258.533 462.399 249.459C463.928 239.417 461.124 228.967 460.156 218.976C459.952 216.682 459.595 214.439 459.238 212.145C459.034 210.769 458.983 206.181 458.066 205.008C456.333 202.765 448.329 204.55 445.22 204.753C436.452 205.314 427.633 205.467 418.866 205.569C414.176 205.62 409.486 205.824 404.847 205.875C402.706 205.875 400.667 205.773 398.526 205.569C397.813 205.518 397.099 205.314 396.385 205.314C393.939 205.161 394.092 204.804 393.48 206.996C392.358 210.819 393.225 215.662 392.919 219.638C392.511 224.94 392.307 230.292 392.409 235.594C392.511 240.487 392.307 245.381 392.511 250.325C392.613 252.364 392.817 253.996 393.327 255.984C393.939 258.176 394.601 263.324 396.131 264.853C396.284 265.006 397.609 264.599 397.915 265.057C398.424 265.72 398.323 267.147 398.73 267.555C399.903 268.932 402.299 269.033 404.083 269.696C408.874 271.429 413.309 273.264 417.846 275.558C421.873 277.597 428.398 279.381 430.845 283.46C431.966 285.346 432.119 287.792 433.139 289.73C434.311 291.921 431.966 290.8 434.821 291.667C436.044 291.972 438.083 291.565 439.409 291.565ZM12.8971 266.74C12.5403 271.786 9.68568 276.629 8.66617 281.624C8.20739 283.969 7.39179 286.263 6.88203 288.557C6.37228 290.8 4.48619 293.4 4.63911 295.592C11.6228 293.094 18.7083 292.482 25.9978 291.819C32.9305 291.208 40.22 290.953 47.1017 290.902C54.0853 290.902 61.5787 290.239 68.7662 290.086C76.3106 289.984 83.9569 289.78 91.3484 289.016C87.4742 286.161 82.6316 283.46 79.726 279.432C76.6165 275.1 74.9852 269.645 72.2326 265.057C66.7272 255.831 63.2099 244.412 60.3553 234.064C54.5441 213.164 48.0192 192.672 46.439 171.008C43.4314 172.537 41.0866 178.45 39.6083 181.407C37.7222 185.179 36.7027 189.257 35.4793 193.284C32.9305 201.542 31.1463 210.106 28.0368 218.262C22.1237 234.013 18.3005 250.835 12.8971 266.74ZM392.206 145.061C393.48 154.39 396.233 163.871 396.335 173.302C396.335 175.392 396.029 177.685 396.436 179.724C396.895 181.916 398.424 183.853 399.291 185.943C400.667 189.257 404.185 196.037 400.769 198.789C400.718 196.139 398.272 192.774 397.048 190.429C395.213 186.912 392.766 183.752 390.778 180.336C386.598 173.2 381.908 166.216 376.505 159.895C371.255 153.778 365.189 148.324 359.632 142.461C357.95 140.728 344.543 123.804 343.983 124.059C348.163 140.117 355.248 154.084 364.934 167.541C369.674 174.117 375.384 178.45 381.195 184.057C385.986 188.696 395.111 193.692 393.429 201.287C400.973 200.573 408.416 199.401 416.011 199.401C414.737 189.767 413.819 180.336 411.576 170.855C409.027 160.099 407.345 149.037 405.204 138.23C403.012 127.169 399.291 116.464 396.997 105.402C394.805 94.8503 392.868 84.2984 391.288 73.5936C389.963 79.5067 390.421 86.0316 389.963 92.0467C389.453 98.2147 389.504 104.281 389.708 110.5C389.912 122.173 391.135 133.541 392.206 145.061ZM424.83 90.0587C424.881 85.114 425.849 80.2714 426.104 75.3267C426.206 73.7975 427.684 63.5004 426.308 62.9907C425.136 65.4885 424.881 68.7509 423.81 71.3507C422.74 74.0014 421.363 76.4992 420.344 79.1499C418.152 84.9101 417.438 91.435 417.183 97.552C416.674 111.417 416.368 125.181 417.285 139.046C417.693 144.959 417.999 150.923 417.897 156.887C417.795 163.412 416.776 169.122 417.999 175.595C419.223 182.018 419.936 188.441 420.344 194.915C420.65 199.503 420.752 199.146 425.085 198.84C428.245 198.585 431.406 198.84 434.566 198.687C433.088 180.846 432.833 163.005 430.488 145.214C429.265 136.14 429.265 126.965 427.735 117.942C426.971 113.456 425.747 109.072 425.034 104.587C424.371 99.795 424.779 94.9013 424.83 90.0587ZM105.672 78.8441C114.083 79.5577 123.004 82.1065 131.619 80.4243C130.192 79.8636 126.47 79.048 128.153 76.805C129.835 74.5111 132.74 77.4167 134.423 77.1109C135.493 76.907 137.787 72.5741 138.399 71.6565C139.877 69.6175 140.03 69.2607 142.681 68.6999C145.229 68.1902 145.79 68.7509 146.147 66.2021C146.504 63.2965 145.535 60.0341 145.586 57.0266C145.79 50.6036 147.88 44.9963 149.817 38.9812C141.661 40.7654 133.658 42.8554 125.298 44.0278C121.73 44.5376 116.173 45.659 112.911 43.2122C112.044 42.6005 112.197 41.7339 111.535 40.9693C110.362 39.7459 108.221 38.4715 106.59 38.1147C96.4969 35.9737 95.4774 50.3997 100.575 55.8031C101.849 57.1795 103.633 57.8422 104.908 59.0656C106.641 60.6968 106.794 62.4809 107.049 64.9787C107.508 69.7194 106.896 74.4602 104.857 78.7931L105.672 78.8441ZM228.421 146.947C231.429 147.508 234.538 147.406 237.495 147.865C238.565 148.018 241.726 148.629 242.694 148.018C244.122 147.049 244.632 143.583 245.294 141.952C246.467 139.097 248.149 136.599 249.27 133.694C253.909 121.816 258.191 109.939 263.798 98.4696C261.657 97.9089 260.026 97.9089 257.834 97.603C255.591 97.2972 253.552 95.9718 251.411 95.4111C249.372 94.8503 247.231 95.0033 245.192 94.3916C244.071 94.0347 243.102 93.2701 242.032 93.0152C240.299 92.6074 238.26 92.3525 237.189 93.474C236.119 94.6464 235.762 97.9089 235.15 99.3872C233.621 103.465 231.786 107.339 230.511 111.519C229.339 115.241 228.217 118.962 227.198 122.734C226.127 126.71 223.986 130.023 222.661 133.847C221.693 136.752 220.724 139.709 220.571 142.818C220.418 145.826 220.01 146.03 223.018 146.488C224.649 146.692 226.994 147.61 228.421 146.947ZM424.932 288.2C425.696 288.557 426.461 288.506 427.124 288.047C420.395 285.193 413.819 281.268 406.784 279.28C400.209 277.444 393.786 275.252 387.414 273.01C382.265 271.174 377.626 269.747 372.937 266.536C370.082 264.599 367.584 262.356 365.647 259.501C363.455 256.29 362.997 251.753 360.652 248.898C357.491 252.364 353.77 255.015 349.998 257.768C348.723 258.736 345.563 260.826 345.155 262.305C344.594 264.191 346.073 265.975 346.837 267.861C348.723 272.704 349.692 277.546 350.711 282.593C351.119 284.632 352.037 287.64 353.668 288.506C355.197 289.271 359.53 288.71 361.416 288.557C371.204 287.792 380.838 287.079 390.727 287.741C401.891 288.506 413.819 289.016 424.932 288.2ZM444.506 198.432C446.29 198.432 448.024 198.229 449.808 198.229C448.788 193.437 451.184 187.269 452.051 182.477C453.019 177.125 453.733 171.619 454.345 166.216C455.67 154.899 456.282 143.685 456.282 132.266C456.282 121.205 458.321 111.112 461.124 100.458C464.132 89.0391 469.127 78.7931 473.206 67.7824C468.72 70.1782 466.222 75.7346 463.877 79.9655C460.869 85.3179 458.881 91.2821 457.658 97.3481C455.313 108.971 452.713 120.644 450.012 132.266C447.208 144.348 445.526 156.582 442.263 168.561C440.683 174.423 438.542 181.611 438.44 187.626C438.389 190.123 437.625 195.374 438.746 197.515C439.868 199.605 442.212 198.636 444.506 198.432ZM175.611 183.395C175.509 184.618 175.407 185.842 175.203 187.065C177.65 187.065 180.81 184.465 182.9 183.344C185.5 181.967 188.049 180.387 190.598 179.011C195.491 176.309 200.997 174.525 206.196 172.282C212.16 169.733 217.666 166.624 223.375 163.514C225.363 162.444 239.687 156.225 239.483 154.543C236.323 154.441 233.213 154.339 230.053 154.237C227.351 154.135 223.171 154.747 220.571 153.931C219.144 153.472 217.564 151.79 217.054 150.465C216.544 149.139 217.717 143.175 217.003 142.767C213.486 146.387 211.243 151.127 208.133 155.001C204.667 159.283 200.181 161.781 195.185 164.075C189.731 166.573 184.022 168.561 178.465 170.702C176.121 171.619 176.172 172.129 175.968 174.729C175.662 177.583 175.713 180.489 175.611 183.395ZM460.003 292.176C465.916 292.788 472.033 292.431 477.997 292.941C480.189 293.145 483.197 293.4 481.005 296.305C479.628 298.14 475.194 297.58 473.206 297.682C467.853 298.039 462.144 297.835 456.74 297.784C455.619 297.784 454.345 297.427 453.223 297.529C451.898 297.631 450.318 298.548 449.094 298.548C448.329 298.548 448.075 297.784 447.463 297.682C446.087 297.529 444.659 297.427 443.283 297.427C421.975 297.427 400.973 297.019 379.717 296.968C369.572 296.968 359.224 296.764 349.08 296.305C346.939 296.203 334.807 296.662 335.113 292.788C335.266 290.8 339.242 290.545 340.72 290.341C341.791 290.188 342.912 290.188 343.983 290.137C346.837 289.984 348.061 290.647 347.5 287.538C345.206 275.711 341.128 265.924 332.36 257.411C325.224 250.427 316.609 244.157 308.504 238.295C298.666 231.21 290.713 223.818 284.851 213.011C281.436 206.69 278.581 200.268 276.848 193.284C276.236 190.786 276.185 187.932 275.421 185.485C274.809 183.599 273.484 182.324 272.668 180.387C262.881 196.699 249.933 210.412 238.056 225.144C232.397 232.178 225.873 238.856 219.093 244.973C217.054 246.808 215.219 248.694 213.333 250.631C211.752 252.263 209.255 253.741 207.929 255.525C206.655 257.258 206.961 257.207 208.898 258.583C211.447 260.419 214.301 261.948 216.901 263.732C221.081 266.587 225.618 268.983 229.339 272.398C233.366 276.119 236.883 280.401 240.401 284.581C242.745 287.385 245.804 290.953 246.416 294.47C246.62 295.643 247.333 298.497 246.365 299.364C245.549 300.078 245.6 299.823 244.581 299.364C243.204 298.803 242.796 297.427 241.165 296.815C236.934 295.184 231.786 295.745 227.351 295.745C222.916 295.745 218.481 296.203 214.046 296.203C203.953 296.152 194.064 296.968 183.971 297.427C173.266 297.886 162.408 296.764 151.703 296.917C143.802 297.019 135.646 296.458 127.541 296.866C123.361 297.07 119.232 296.56 115.154 296.509C109.801 296.407 104.347 297.172 98.9437 297.274C90.074 297.427 81.3572 297.427 72.4365 297.682C53.2697 298.14 34.2559 298.599 15.0891 298.905C12.5403 298.956 9.73666 298.854 7.18789 299.16C4.48619 299.466 5.9135 300.027 4.07838 300.995C-1.07014 303.697 0.102297 293.706 0.255224 291.718C0.917904 281.166 3.6196 270.818 6.83106 260.826C9.88958 251.345 12.3874 241.405 14.9362 231.668C17.7908 221.066 21.461 210.87 24.8254 200.319C28.2407 189.563 31.0444 178.348 37.2634 168.816C38.6907 166.624 40.169 164.279 42.4119 162.903C44.9607 161.373 45.0626 162.24 45.0626 159.436C45.0626 156.786 45.2156 153.268 44.6039 150.719C44.0431 148.426 44.1451 149.802 42.8707 148.171C41.8512 146.845 40.7297 145.928 40.0161 144.297C35.4283 148.935 24.9783 146.488 20.5944 143.175C15.191 139.097 11.062 132.215 9.58373 125.64C8.36032 120.389 9.83861 110.347 15.7008 107.798C18.5554 106.575 28.9544 105.606 29.4132 101.63C29.6171 99.5401 25.9469 96.6345 25.1312 94.8503C23.4491 91.486 21.9198 87.1021 21.512 83.4828C20.6454 76.3972 23.8569 68.496 29.0054 63.7043C38.3849 54.9366 54.9009 50.4507 66.9821 56.007C64.4333 46.2707 62.9041 37.8598 64.1784 27.7157C65.2489 18.9479 70.3974 14.0542 77.483 9.72134C89.5642 2.27892 106.029 -0.626681 119.895 1.51429C123.055 2.02404 126.063 3.04355 128.968 3.91013C133.199 5.13354 138.246 4.72574 142.273 6.71378C145.178 8.1411 147.37 10.9957 149.919 12.9328C152.876 15.1757 155.374 18.4891 157.413 21.5476C161.847 28.1235 160.114 40.3066 156.393 46.8824C155.577 48.3098 154.609 49.4822 153.335 50.4507C151.958 51.4702 149.868 51.7761 149.206 53.0505C147.421 56.3639 149.155 63.6024 149.358 67.2216C149.613 71.4016 147.523 74.5621 142.783 74.868C140.03 75.0719 139.928 73.4916 138.654 76.7541C137.787 78.895 137.022 81.1889 135.799 83.126C133.25 87.153 128.611 86.7452 124.38 86.6433C119.487 86.5413 114.644 85.7257 109.75 85.267C111.025 89.396 114.593 92.6074 116.785 96.3286C119.793 101.324 121.577 105.453 122.087 111.264C122.443 115.75 121.679 119.268 118.569 122.581C117.295 123.957 116.173 124.008 116.479 125.64C116.683 126.608 118.365 128.188 118.926 129.004C120.506 131.043 122.341 132.929 123.718 135.121C129.019 143.532 130.599 156.378 130.599 166.165C130.599 166.624 130.854 167.592 130.65 168.051C130.498 168.408 129.376 169.478 129.376 169.58C129.172 170.855 130.396 172.996 132.333 173.2C134.372 173.404 138.042 171.721 139.928 171.161C142.936 170.294 145.994 169.631 149.002 168.714C153.844 167.235 158.687 166.063 163.632 164.891C165.874 164.381 168.117 163.922 170.36 163.463C172.909 162.903 174.082 161.832 175.407 164.432C176.528 166.675 175.815 167.083 178.567 165.961C181.269 164.84 183.92 163.463 186.571 162.189C191.26 159.997 196.817 158.009 200.844 154.746C207.572 149.292 210.07 140.575 216.493 134.815C218.277 133.184 219.348 133.184 220.469 130.941C221.693 128.545 222.304 125.487 222.967 122.887C224.088 118.401 224.904 113.864 225.873 109.378C227.147 103.771 229.849 98.6735 231.837 93.3721C232.601 91.2821 233.009 88.6313 234.284 86.7452C234.64 86.2355 235.252 85.9806 235.507 85.5728C236.374 84.1455 236.374 83.7887 236.628 82.0555C237.699 74.1033 242.44 78.2833 247.588 80.1184C249.78 80.8831 260.128 85.8277 256.152 89.1411C260.842 90.5174 268.386 89.7528 268.335 96.5325C268.284 99.9989 266.245 103.669 265.124 106.932C264.155 109.786 263.187 112.692 262.167 115.546C259.975 121.816 257.324 127.933 255.183 134.254C254.215 137.109 253.399 140.066 252.023 142.767C250.8 145.163 247.945 147.814 247.435 150.414C259.975 145.061 271.598 137.313 285.667 137.823C291.835 138.027 297.391 140.626 300.806 146.03C305.088 152.809 307.892 160.405 312.021 167.235C327.161 192.111 345.206 214.745 361.875 238.601C363.15 240.436 364.781 242.169 365.24 244.412C365.545 245.891 364.985 247.369 365.29 248.796C366.004 251.753 369.623 255.423 372.121 257.105C376.862 260.368 384.508 264.955 390.421 264.548C386.7 255.678 386.751 245.942 386.955 236.409C387.108 227.387 388.076 218.466 389.249 209.545C389.504 207.506 389.759 205.671 390.319 203.683C390.982 201.44 391.9 201.644 389.912 199.656C386.853 196.546 383.183 193.998 380.124 190.837C373.447 184.057 366.565 178.705 361.314 170.6C356.319 162.903 351.017 154.95 347.347 146.488C343.524 137.772 341.995 128.494 340.109 119.268C339.344 115.546 336.54 111.366 337.101 107.441C337.815 102.497 340.109 106.116 341.026 108.767C343.881 116.872 350.508 124.11 356.064 130.635C362.028 137.67 369.318 143.583 375.537 150.414C382.316 157.856 386.955 166.42 392.97 174.372C392.97 164.483 389.606 154.441 388.229 144.704C387.006 136.089 386.649 127.475 385.885 118.86C384.151 99.2342 385.63 79.0989 388.076 59.6263C389.249 50.3997 388.586 41.3771 388.637 32.0996C388.637 29.143 387.414 22.3632 388.994 19.7125C392.002 14.7169 393.735 25.6767 393.888 27.3079C394.805 37.0442 393.174 46.6785 393.99 56.4148C394.856 66.559 396.742 76.3972 398.323 86.3884C400.056 97.2462 402.859 107.849 405.561 118.452C408.365 129.616 410.761 141.034 413.921 152.096C414.788 148.629 413.564 144.348 413.36 140.779C413.004 135.682 412.392 130.635 412.29 125.538C412.188 117.432 412.137 109.174 412.596 101.12C413.054 93.1682 412.902 84.8082 415.348 77.1619C416.521 73.5426 418.203 69.9743 419.885 66.559C421.924 62.328 422.638 58.25 423.81 53.7641C424.779 49.89 426.206 46.1688 426.869 42.2437C427.277 39.7969 428.398 32.6093 431.202 38.0637C432.833 41.2242 432.119 45.9139 432.17 49.3293C432.221 53.7132 431.559 57.9441 431.457 62.277C431.253 70.7899 431.1 79.3028 430.488 87.8157C429.825 96.7364 430.386 104.74 432.119 113.558C433.954 123.193 434.515 132.827 435.484 142.614C435.993 147.661 436.809 152.657 437.217 157.703C437.421 160.354 436.35 168.051 438.236 169.937C438.44 165.298 439.766 160.66 440.734 156.174C441.907 150.821 442.416 145.214 443.283 139.811C444.71 131.043 447.463 122.632 449.298 113.966C453.07 96.0738 456.18 73.0838 471.931 61.4104C473.97 59.8812 476.264 58.7597 478.507 57.4853C479.781 56.7717 481.667 54.9366 483.095 54.5797C484.675 54.2229 485.338 54.4778 485.949 56.3129C486.816 58.8617 485.236 60.0341 483.706 61.9202C478.456 68.3431 476.213 76.5502 472.951 84.0435C465.508 101.222 462.195 119.37 462.195 137.976C462.195 147.712 461.481 157.091 460.462 166.777C459.34 177.176 457.862 188.186 454.701 198.229C457.862 198.942 461.328 197.872 462.195 201.542C462.399 202.46 462.042 203.53 462.246 204.702C462.45 205.824 463.01 206.996 463.367 208.118C464.03 210.463 464.387 212.757 464.693 215.152C465.967 224.379 468.108 233.198 468.363 242.577C468.567 251.243 466.885 260.011 465.304 268.524C463.724 277.088 459.187 284.377 455.67 292.125C456.944 292.125 458.474 292.176 460.003 292.176Z" fill="#2A344D"/>
<path fill-rule="evenodd" clip-rule="evenodd" d="M258.65 272.5C256.967 272.958 248.811 273.876 248.811 276.425C248.811 277.954 256.967 277.903 258.395 278.107C258.497 276.221 258.599 274.335 258.65 272.5ZM276.644 290.137C281.334 291.055 287.706 289.78 290.713 285.651C292.14 283.714 292.803 280.758 293.262 278.464C293.721 276.272 295.046 270.767 294.129 268.727C293.007 266.179 282.2 268.829 279.091 269.135C273.636 269.645 267.927 269.696 262.473 269.339C262.473 274.997 262.167 280.503 265.531 285.396C267.876 288.863 272.362 289.678 276.644 290.137ZM275.726 297.121C270.629 295.235 265.276 296.458 261.963 291.004C261.096 289.627 260.434 288.098 259.924 286.569C259.669 285.906 259.465 285.193 259.363 284.479C259.618 282.95 259.057 282.542 257.681 283.205C254.979 282.695 252.023 284.53 249.168 283.969C242.286 282.644 243.51 272.755 248.149 269.339C249.066 268.677 249.984 268.473 251.003 268.116C253.297 267.402 254.572 268.218 256.662 268.014C258.395 267.861 258.853 266.077 260.689 265.261C261.912 264.751 263.543 264.802 264.818 264.751C271.444 264.497 278.071 264.497 284.698 264.038C287.808 263.834 291.172 264.344 294.179 263.783C295.607 263.528 295.403 262.61 296.728 263.426C298.105 264.293 297.544 267.453 297.442 268.727C297.034 276.068 296.575 283.918 292.65 290.341C289.082 296.203 281.996 296.815 275.726 297.121Z" fill="#2A344D"/>
<path fill-rule="evenodd" clip-rule="evenodd" d="M6.37207 299.109C8.00328 299.109 9.6345 299.058 11.2657 299.058C9.6345 299.109 8.00328 299.109 6.37207 299.109Z" fill="#2A344D"/>
<path fill-rule="evenodd" clip-rule="evenodd" d="M44.6037 149.19C44.6037 150.719 44.6037 152.248 44.6037 153.778C44.5527 152.248 44.6037 150.719 44.6037 149.19Z" fill="#2A344D"/>
<path fill-rule="evenodd" clip-rule="evenodd" d="M387.159 233.299C387.108 234.319 387.057 235.389 387.006 236.409C387.006 235.389 387.057 234.37 387.159 233.299Z" fill="#2A344D"/>
<path fill-rule="evenodd" clip-rule="evenodd" d="M460.003 292.176C458.983 292.176 457.964 292.176 456.995 292.125C458.015 291.718 459.034 291.718 460.003 292.176Z" fill="#2A344D"/>
<path fill-rule="evenodd" clip-rule="evenodd" d="M370.439 296.764C371.153 296.764 371.867 296.764 372.58 296.713C371.918 296.713 371.153 296.764 370.439 296.764Z" fill="#2A344D"/>
<path fill-rule="evenodd" clip-rule="evenodd" d="M461.583 155.511C461.583 154.746 461.634 153.931 461.634 153.166C461.634 153.931 461.634 154.695 461.583 155.511Z" fill="#2A344D"/>
<path fill-rule="evenodd" clip-rule="evenodd" d="M461.94 145.774C461.94 144.959 461.94 144.143 461.991 143.328C461.991 144.143 461.94 144.959 461.94 145.774Z" fill="#2A344D"/>
<path fill-rule="evenodd" clip-rule="evenodd" d="M234.232 295.744C234.895 295.744 235.507 295.744 236.169 295.795C235.558 295.744 234.895 295.744 234.232 295.744Z" fill="#2A344D"/>
<path fill-rule="evenodd" clip-rule="evenodd" d="M400.056 297.07C400.667 297.07 401.33 297.07 401.942 297.121C401.33 297.121 400.718 297.07 400.056 297.07Z" fill="#2A344D"/>
<path fill-rule="evenodd" clip-rule="evenodd" d="M386.955 297.121C387.465 297.121 387.975 297.121 388.484 297.07C387.975 297.07 387.465 297.07 386.955 297.121Z" fill="#2A344D"/>
<path fill-rule="evenodd" clip-rule="evenodd" d="M112.86 296.815C113.421 296.764 113.931 296.764 114.492 296.713C113.931 296.764 113.37 296.764 112.86 296.815Z" fill="#2A344D"/>
<path fill-rule="evenodd" clip-rule="evenodd" d="M262.829 90.568C262.014 90.517 261.198 90.4151 260.434 90.3641C261.198 90.4151 262.065 89.9053 262.829 90.568Z" fill="#2A344D"/>
<path fill-rule="evenodd" clip-rule="evenodd" d="M468.108 292.482C467.292 292.38 466.528 292.329 465.712 292.227C466.528 292.329 467.343 292.38 468.108 292.482Z" fill="#2A344D"/>
<path fill-rule="evenodd" clip-rule="evenodd" d="M412.749 95.4111C412.698 96.1248 412.647 96.7875 412.596 97.5011C412.647 96.8384 412.698 96.1248 412.749 95.4111Z" fill="#2A344D"/>
<path fill-rule="evenodd" clip-rule="evenodd" d="M412.443 106.218C412.392 106.931 412.341 107.594 412.29 108.308C412.29 107.594 412.341 106.931 412.443 106.218Z" fill="#2A344D"/>
<path fill-rule="evenodd" clip-rule="evenodd" d="M461.838 151.076C461.838 150.414 461.838 149.751 461.838 149.088C462.246 149.751 462.195 150.414 461.838 151.076Z" fill="#2A344D"/>
<path fill-rule="evenodd" clip-rule="evenodd" d="M387.159 247.471C387.159 248.133 387.159 248.796 387.159 249.51C386.7 248.847 386.751 248.133 387.159 247.471Z" fill="#2A344D"/>
<path fill-rule="evenodd" clip-rule="evenodd" d="M18.6068 107.135C18.097 107.849 17.3834 107.339 16.7207 107.441C17.3834 107.339 17.9951 107.237 18.6068 107.135Z" fill="#2A344D"/>
<path fill-rule="evenodd" clip-rule="evenodd" d="M56.532 53.7641C55.8693 53.7641 55.2066 53.815 54.5439 53.815C55.1557 53.4582 55.8183 53.3053 56.532 53.7641Z" fill="#2A344D"/>
<path fill-rule="evenodd" clip-rule="evenodd" d="M412.392 116.005C412.341 116.617 412.29 117.177 412.239 117.789C412.341 117.177 412.341 116.617 412.392 116.005Z" fill="#2A344D"/>
<path fill-rule="evenodd" clip-rule="evenodd" d="M394.041 43.161C394.092 42.6003 394.143 42.0905 394.194 41.5298C394.143 42.0905 394.092 42.6512 394.041 43.161Z" fill="#2A344D"/>
<path fill-rule="evenodd" clip-rule="evenodd" d="M98.2812 2.27881C97.6185 2.38076 96.9049 2.43173 96.2422 2.53369C96.9558 2.43173 97.6185 2.38076 98.2812 2.27881Z" fill="#2A344D"/>
<path fill-rule="evenodd" clip-rule="evenodd" d="M49.1408 54.2739C48.4271 54.3249 47.7644 54.4269 47.0508 54.4778C47.7644 54.3759 48.4271 54.3249 49.1408 54.2739Z" fill="#2A344D"/>
<path fill-rule="evenodd" clip-rule="evenodd" d="M431.864 55.9559C431.915 55.3952 431.966 54.8854 431.966 54.3247C431.915 54.8854 431.864 55.4462 431.864 55.9559Z" fill="#2A344D"/>
<path fill-rule="evenodd" clip-rule="evenodd" d="M388.841 213.47C388.79 214.082 388.739 214.694 388.739 215.305C388.739 214.643 388.79 214.082 388.841 213.47Z" fill="#2A344D"/>
<path fill-rule="evenodd" clip-rule="evenodd" d="M429.876 95.8186C429.876 95.2579 429.825 94.6462 429.825 94.0854C429.825 94.6462 429.825 95.2069 429.876 95.8186Z" fill="#2A344D"/>
<path fill-rule="evenodd" clip-rule="evenodd" d="M115.408 0.902532C114.797 0.902532 114.185 0.902532 113.573 0.902532C114.185 0.494729 114.797 0.494729 115.408 0.902532Z" fill="#2A344D"/>
<path fill-rule="evenodd" clip-rule="evenodd" d="M281.079 138.026C280.416 138.026 279.703 138.077 279.04 138.077C279.703 137.619 280.365 137.619 281.079 138.026Z" fill="#2A344D"/>
<path fill-rule="evenodd" clip-rule="evenodd" d="M355.605 296.458C356.013 296.458 356.421 296.407 356.829 296.407C356.421 296.407 356.013 296.407 355.605 296.458Z" fill="#2A344D"/>
<path fill-rule="evenodd" clip-rule="evenodd" d="M467.7 233.402C467.649 232.841 467.598 232.229 467.496 231.668C467.598 232.229 467.649 232.79 467.7 233.402Z" fill="#2A344D"/>
<path fill-rule="evenodd" clip-rule="evenodd" d="M412.901 136.293C412.952 136.854 413.003 137.414 413.054 137.924C413.003 137.363 412.952 136.803 412.901 136.293Z" fill="#2A344D"/>
<path fill-rule="evenodd" clip-rule="evenodd" d="M434.006 126.863C433.955 126.302 433.853 125.691 433.802 125.13C433.853 125.691 433.955 126.251 434.006 126.863Z" fill="#2A344D"/>
<path fill-rule="evenodd" clip-rule="evenodd" d="M275.727 297.121C276.134 297.121 276.542 297.07 276.95 297.07C276.542 297.07 276.134 297.07 275.727 297.121Z" fill="#2A344D"/>
<path fill-rule="evenodd" clip-rule="evenodd" d="M430.539 84.3491C430.539 83.7374 430.488 83.1766 430.488 82.5649C430.539 83.1766 430.539 83.7374 430.539 84.3491Z" fill="#2A344D"/>
<path fill-rule="evenodd" clip-rule="evenodd" d="M443.232 297.375C443.64 297.375 444.048 297.375 444.456 297.426C444.099 297.426 443.691 297.375 443.232 297.375Z" fill="#2A344D"/>
<path fill-rule="evenodd" clip-rule="evenodd" d="M462.246 129.208C462.195 128.647 462.195 128.035 462.144 127.475C462.195 128.035 462.246 128.596 462.246 129.208Z" fill="#2A344D"/>
<path fill-rule="evenodd" clip-rule="evenodd" d="M416.674 126.761C416.725 127.831 416.725 128.851 416.776 129.921C416.776 128.851 416.725 127.78 416.674 126.761Z" fill="#2A344D"/>
<path fill-rule="evenodd" clip-rule="evenodd" d="M439.409 291.564C440.582 291.615 441.703 291.717 442.876 291.768C441.703 291.819 440.531 292.176 439.409 291.564Z" fill="#2A344D"/>
<path fill-rule="evenodd" clip-rule="evenodd" d="M446.495 148.782C446.444 149.547 446.393 150.311 446.393 151.076C446.393 150.261 446.444 149.547 446.495 148.782Z" fill="#2A344D"/>
<path fill-rule="evenodd" clip-rule="evenodd" d="M424.932 288.2C425.645 288.149 426.41 288.098 427.124 288.047C426.614 288.506 426.053 288.506 424.932 288.2Z" fill="#2A344D"/>
<path fill-rule="evenodd" clip-rule="evenodd" d="M420.904 198.891L423.657 198.84C422.739 199.299 421.822 199.299 420.904 198.891Z" fill="#2A344D"/>
<path fill-rule="evenodd" clip-rule="evenodd" d="M209.917 288.506C210.835 288.506 211.701 288.506 212.619 288.557C211.701 289.016 210.784 289.067 209.917 288.506Z" fill="#2A344D"/>
<path fill-rule="evenodd" clip-rule="evenodd" d="M41.6475 291.157C42.565 291.055 43.4826 291.004 44.3492 290.902C43.4826 290.953 42.565 291.055 41.6475 291.157Z" fill="#2A344D"/>
<path fill-rule="evenodd" clip-rule="evenodd" d="M417.03 133.49C417.081 134.305 417.132 135.121 417.183 135.937C417.081 135.121 417.03 134.305 417.03 133.49Z" fill="#2A344D"/>
<path fill-rule="evenodd" clip-rule="evenodd" d="M127.694 80.7809C128.459 80.4241 129.224 80.3221 129.988 80.7299C129.224 80.7299 128.459 80.7809 127.694 80.7809Z" fill="#2A344D"/>
<path fill-rule="evenodd" clip-rule="evenodd" d="M392.002 142.971C392.053 143.685 392.104 144.348 392.206 145.061C392.155 144.398 392.104 143.685 392.002 142.971Z" fill="#2A344D"/>
<path fill-rule="evenodd" clip-rule="evenodd" d="M456.588 126.812C456.18 126.149 456.231 125.436 456.588 124.773C456.588 125.436 456.588 126.098 456.588 126.812Z" fill="#2A344D"/>
<path fill-rule="evenodd" clip-rule="evenodd" d="M444.506 198.432C445.27 198.177 446.086 197.871 446.851 198.432C446.086 198.432 445.321 198.432 444.506 198.432Z" fill="#2A344D"/>
<path fill-rule="evenodd" clip-rule="evenodd" d="M190.343 289.474C191.158 289.423 191.923 289.321 192.739 289.271C191.923 289.321 191.158 289.372 190.343 289.474Z" fill="#2A344D"/>
<path fill-rule="evenodd" clip-rule="evenodd" d="M81.8672 289.475C82.5808 289.169 83.2945 288.965 84.0082 289.475C83.2945 289.475 82.5808 289.475 81.8672 289.475Z" fill="#2A344D"/>
<path fill-rule="evenodd" clip-rule="evenodd" d="M230.154 288.455C230.919 288.098 231.684 287.945 232.448 288.455C231.684 288.455 230.919 288.455 230.154 288.455Z" fill="#2A344D"/>
<path fill-rule="evenodd" clip-rule="evenodd" d="M57.6025 188.186C57.6535 188.9 57.7045 189.562 57.7555 190.276C57.7045 189.562 57.6535 188.849 57.6025 188.186Z" fill="#2A344D"/>
<path fill-rule="evenodd" clip-rule="evenodd" d="M237.546 147.865C238.311 147.61 239.075 147.457 239.84 147.916C239.075 147.865 238.311 147.865 237.546 147.865Z" fill="#2A344D"/>
<path fill-rule="evenodd" clip-rule="evenodd" d="M416.979 168.663C417.03 169.325 417.081 170.039 417.081 170.702C417.081 170.039 417.03 169.376 416.979 168.663Z" fill="#2A344D"/>
<path fill-rule="evenodd" clip-rule="evenodd" d="M57.0926 106.982C57.0416 107.543 56.9906 108.104 56.8887 108.614C56.9396 108.053 57.0416 107.492 57.0926 106.982Z" fill="#2A344D"/>
<path fill-rule="evenodd" clip-rule="evenodd" d="M432.986 172.282C432.935 171.721 432.884 171.16 432.833 170.6C432.884 171.211 432.935 171.772 432.986 172.282Z" fill="#2A344D"/>
<path fill-rule="evenodd" clip-rule="evenodd" d="M175.407 185.841C175.509 186.249 175.662 186.657 175.764 187.065C174.948 187.269 174.846 186.861 175.407 185.841Z" fill="#2A344D"/>
<path fill-rule="evenodd" clip-rule="evenodd" d="M226.383 146.947C227.096 146.947 227.759 146.947 228.473 146.947C227.759 147.253 227.045 147.508 226.383 146.947Z" fill="#2A344D"/>
<path fill-rule="evenodd" clip-rule="evenodd" d="M57.959 191.5C57.959 192.111 58.01 192.723 58.01 193.335C58.01 192.723 58.01 192.111 57.959 191.5Z" fill="#2A344D"/>
<path fill-rule="evenodd" clip-rule="evenodd" d="M393.684 197.923C393.684 198.484 393.735 199.044 393.735 199.605C393.735 199.044 393.735 198.484 393.684 197.923Z" fill="#2A344D"/>
<path fill-rule="evenodd" clip-rule="evenodd" d="M51.1289 290.851C51.7916 290.392 52.4543 290.443 53.1169 290.851C52.4543 290.8 51.7916 290.8 51.1289 290.851Z" fill="#2A344D"/>
<path fill-rule="evenodd" clip-rule="evenodd" d="M68.3584 99.0811C68.4094 99.6418 68.4094 100.253 68.4604 100.814C68.4604 100.253 68.4094 99.6418 68.3584 99.0811Z" fill="#2A344D"/>
<path fill-rule="evenodd" clip-rule="evenodd" d="M47.7129 290.902C48.3756 290.902 49.0892 290.902 49.7519 290.902C49.0892 291.361 48.3756 291.361 47.7129 290.902Z" fill="#2A344D"/>
<path fill-rule="evenodd" clip-rule="evenodd" d="M112.197 79.8633C112.86 79.9652 113.523 80.0162 114.134 80.1182C113.472 80.0162 112.809 79.9143 112.197 79.8633Z" fill="#2A344D"/>
<path fill-rule="evenodd" clip-rule="evenodd" d="M54.6973 130.278C54.6973 130.839 54.6973 131.348 54.7482 131.909C54.6973 131.348 54.6973 130.788 54.6973 130.278Z" fill="#2A344D"/>
<path fill-rule="evenodd" clip-rule="evenodd" d="M274.605 289.933C275.268 289.984 275.931 290.086 276.644 290.137C275.982 290.035 275.319 289.984 274.605 289.933Z" fill="#2A344D"/>
<path fill-rule="evenodd" clip-rule="evenodd" d="M153.283 244.514C154.15 249.459 146.453 254.301 145.841 247.267C145.637 244.667 147.319 242.883 149.256 241.303C152.009 239.06 153.538 241.201 153.283 244.514Z" fill="#2A344D"/>
<path fill-rule="evenodd" clip-rule="evenodd" d="M68.3581 184.057C70.1932 184.822 84.0585 189.308 76.82 191.602C74.9339 192.213 72.0283 192.315 70.3971 191.245C68.4091 189.919 66.421 186.147 68.3581 184.057Z" fill="#2A344D"/>
<path fill-rule="evenodd" clip-rule="evenodd" d="M71.7742 116.923C76.4639 116.362 80.7968 124.11 75.0366 123.855C70.8056 123.651 65.1474 116.923 71.7742 116.923Z" fill="#2A344D"/>
<path fill-rule="evenodd" clip-rule="evenodd" d="M88.6467 135.885C92.5719 139.301 85.2824 146.998 82.3768 144.041C80.8985 142.512 82.2748 139.25 83.4982 137.975C84.7216 136.65 86.9646 136.395 88.6467 135.885Z" fill="#2A344D"/>
<path fill-rule="evenodd" clip-rule="evenodd" d="M100.32 224.736C97.9756 225.093 87.7805 228.457 89.9214 222.391C90.7371 220.097 92.98 220.76 95.07 220.862C98.4343 221.066 100.32 220.913 100.32 224.736Z" fill="#2A344D"/>
<path fill-rule="evenodd" clip-rule="evenodd" d="M93.5913 240.334C97.0577 242.169 92.0111 252.568 89.1055 250.376C85.1294 247.318 90.5838 241.303 93.5913 240.334Z" fill="#2A344D"/>
<path fill-rule="evenodd" clip-rule="evenodd" d="M108.731 231.974C110.413 231.26 118.365 238.957 115.357 241.047C113.828 242.118 110.872 240.283 109.903 239.161C108.17 237.071 108.017 234.472 108.731 231.974Z" fill="#2A344D"/>
<path fill-rule="evenodd" clip-rule="evenodd" d="M62.8025 169.376C64.5357 169.682 67.4923 169.733 67.6452 172.18C67.7471 174.321 65.0454 174.984 63.2103 175.188C61.2733 175.341 58.6735 174.831 58.6225 172.333C58.5716 169.682 62.7515 169.886 62.8025 169.376Z" fill="#2A344D"/>
<path fill-rule="evenodd" clip-rule="evenodd" d="M105.367 274.946C107.202 276.068 115.766 280.095 112.096 283C110.719 284.071 106.539 281.828 105.622 280.707C104.5 279.33 103.43 276.119 105.367 274.946Z" fill="#2A344D"/>
<path fill-rule="evenodd" clip-rule="evenodd" d="M129.223 245.789C128.968 241.354 136.461 239.57 134.881 245.89C134.422 247.675 134.014 250.376 131.823 250.478C129.223 250.58 129.121 247.522 129.223 245.789Z" fill="#2A344D"/>
<path fill-rule="evenodd" clip-rule="evenodd" d="M106.131 168.663C106.182 172.027 99.7592 174.984 99.7082 169.682C99.6062 164.891 106.335 163.514 106.131 168.663Z" fill="#2A344D"/>
<path fill-rule="evenodd" clip-rule="evenodd" d="M101.85 151.127C103.43 151.637 105.571 151.892 105.673 153.931C105.826 156.072 103.838 157.04 102.054 156.887C100.575 156.785 98.4344 155.715 98.1795 154.135C97.7717 151.79 100.066 151.637 101.85 151.127Z" fill="#2A344D"/>
<path fill-rule="evenodd" clip-rule="evenodd" d="M72.3343 212.756C72.2834 210.004 77.8907 206.639 78.9102 209.851C79.216 210.87 76.6163 215.509 75.7497 215.866C73.4048 216.783 73.099 214.642 72.3343 212.756Z" fill="#2A344D"/>
<path fill-rule="evenodd" clip-rule="evenodd" d="M117.907 258.94C116.021 260.622 110.362 265.363 110.821 258.991C111.076 254.964 118.417 255.168 117.907 258.94Z" fill="#2A344D"/>
<path fill-rule="evenodd" clip-rule="evenodd" d="M209.764 277.088C210.376 274.437 219.194 279.025 216.238 282.44C215.269 283.561 212.669 282.542 211.65 281.879C209.764 280.503 209.713 279.28 209.764 277.088Z" fill="#2A344D"/>
<path fill-rule="evenodd" clip-rule="evenodd" d="M160.624 219.944C160.981 218.772 161.338 216.631 162.51 215.917C164.549 214.541 166.333 216.631 166.333 218.823C166.333 222.85 161.695 224.175 160.624 219.944Z" fill="#2A344D"/>
<path fill-rule="evenodd" clip-rule="evenodd" d="M138.755 267.606C141.049 268.116 146.147 273.723 143.19 275.966C140.335 278.158 136.563 269.237 138.755 267.606Z" fill="#2A344D"/>
<path fill-rule="evenodd" clip-rule="evenodd" d="M140.947 225.449C143.904 225.704 147.931 230.445 143.343 231.209C139.775 231.77 135.595 226.622 140.947 225.449Z" fill="#2A344D"/>
<path fill-rule="evenodd" clip-rule="evenodd" d="M167.607 247.369C168.321 244.871 175.661 247.522 175.254 250.274C175.05 251.753 172.042 252.058 170.462 251.702C168.168 251.141 167.556 249.612 167.607 247.369Z" fill="#2A344D"/>
<path fill-rule="evenodd" clip-rule="evenodd" d="M81.5099 108.41C81.5608 105.198 87.7289 103.873 88.1876 107.135C88.5955 110.092 81.4079 113.201 81.5099 108.41Z" fill="#2A344D"/>
<path fill-rule="evenodd" clip-rule="evenodd" d="M165.568 280.553C166.027 278.922 166.231 276.985 168.219 276.781C170.513 276.526 170.462 278.311 170.207 280.146C169.442 285.141 166.639 285.396 165.568 280.553Z" fill="#2A344D"/>
<path fill-rule="evenodd" clip-rule="evenodd" d="M67.9508 146.692C64.7393 147.406 58.8262 141.238 62.4455 139.861C64.9942 138.944 67.9508 144.806 67.9508 146.692Z" fill="#2A344D"/>
<path fill-rule="evenodd" clip-rule="evenodd" d="M109.037 194.915C107.406 195.68 106.998 196.138 105.774 194.864C104.653 193.742 104.704 190.684 105.672 189.563C109.292 185.128 109.19 193.131 109.037 194.915Z" fill="#2A344D"/>
<path fill-rule="evenodd" clip-rule="evenodd" d="M122.443 185.994C124.176 186.198 129.223 191.041 126.572 192.927C123.361 195.272 121.526 187.931 122.443 185.994Z" fill="#2A344D"/>
<path fill-rule="evenodd" clip-rule="evenodd" d="M159.452 187.269C158.229 192.061 155.119 188.849 155.272 185.23C155.527 179.419 158.789 184.465 159.452 187.269Z" fill="#2A344D"/>
<path fill-rule="evenodd" clip-rule="evenodd" d="M178.313 264.14C180.403 265.006 183.257 273.06 180.25 273.468C176.885 273.978 178.007 265.822 178.313 264.14Z" fill="#2A344D"/>
<path fill-rule="evenodd" clip-rule="evenodd" d="M152.06 259.603C154.456 258.787 155.373 263.885 153.946 264.802C150.837 266.892 151.499 260.826 152.06 259.603Z" fill="#2A344D"/>
<path fill-rule="evenodd" clip-rule="evenodd" d="M209.765 277.087C209.765 277.801 209.714 278.464 209.714 279.177C209.714 278.464 209.765 277.75 209.765 277.087Z" fill="#2A344D"/>
<path fill-rule="evenodd" clip-rule="evenodd" d="M167.608 247.369C167.608 247.929 167.557 248.541 167.557 249.102C167.557 248.541 167.608 247.98 167.608 247.369Z" fill="#2A344D"/>
<path fill-rule="evenodd" clip-rule="evenodd" d="M433.802 237.276C438.797 237.123 444.353 235.237 449.247 235.848C450.572 236.001 453.682 236.358 451.541 238.346C450.521 239.315 445.577 238.805 444.048 239.111C434.872 241.048 424.473 242.322 415.094 242.118C410.71 242.067 406.275 241.71 401.891 241.456C397.507 241.201 397.048 239.417 401.993 238.856C407.141 238.244 412.392 238.499 417.54 238.499C422.995 238.55 428.398 237.683 433.802 237.276Z" fill="#2A344D"/>
<path fill-rule="evenodd" clip-rule="evenodd" d="M444.761 225.296C444.302 226.673 443.843 229.782 442.008 229.986C439.409 230.292 439.001 225.857 439.103 224.226C439.205 222.289 439.918 219.026 442.365 219.689C444.404 220.301 444.608 223.716 444.761 225.296Z" fill="#2A344D"/>
<path fill-rule="evenodd" clip-rule="evenodd" d="M429.163 224.277C429.52 222.798 429.724 219.536 431.814 219.383C434.108 219.281 434.77 222.696 434.77 224.328C434.77 225.908 434.159 228.865 432.324 229.221C429.826 229.731 429.571 225.959 429.163 224.277Z" fill="#2A344D"/>
<path fill-rule="evenodd" clip-rule="evenodd" d="M403.165 226.928C402.401 228.712 401.942 231.108 399.597 229.935C397.813 229.018 397.558 225.245 397.915 223.563C398.272 221.779 398.985 219.74 401.025 220.556C403.369 221.422 403.115 224.94 403.165 226.928Z" fill="#2A344D"/>
<path fill-rule="evenodd" clip-rule="evenodd" d="M422.842 225.296C420.65 232.025 416.572 227.488 418.152 222.442C419.732 217.191 422.638 222.289 422.842 225.296Z" fill="#2A344D"/>
<path fill-rule="evenodd" clip-rule="evenodd" d="M412.086 225.602C411.474 226.775 410.811 229.324 409.18 229.069C407.141 228.763 407.09 224.838 407.294 223.359C407.498 222.085 408.059 219.944 409.741 219.995C412.188 220.046 412.035 224.073 412.086 225.602Z" fill="#2A344D"/>
<path fill-rule="evenodd" clip-rule="evenodd" d="M456.179 226.876C454.548 230.547 452.254 227.386 452.968 224.786C454.089 220.912 456.077 224.328 456.179 226.876Z" fill="#2A344D"/>
<path fill-rule="evenodd" clip-rule="evenodd" d="M415.858 238.55C414.074 238.55 412.239 238.55 410.455 238.55C412.29 238.193 414.074 238.04 415.858 238.55Z" fill="#2A344D"/>
<path fill-rule="evenodd" clip-rule="evenodd" d="M451.592 235.848C450.012 235.848 448.483 235.848 446.902 235.899C448.483 235.389 450.012 235.389 451.592 235.848Z" fill="#2A344D"/>
<path fill-rule="evenodd" clip-rule="evenodd" d="M433.801 237.276C432.578 237.378 431.303 237.429 430.08 237.531C431.303 237.48 432.527 237.378 433.801 237.276Z" fill="#2A344D"/>
<path fill-rule="evenodd" clip-rule="evenodd" d="M403.165 226.928C403.165 226.01 403.165 225.144 403.114 224.226C403.573 225.093 403.573 226.01 403.165 226.928Z" fill="#2A344D"/>
<path fill-rule="evenodd" clip-rule="evenodd" d="M406.784 238.652C405.765 238.754 404.745 238.805 403.726 238.907C404.745 238.805 405.765 238.703 406.784 238.652Z" fill="#2A344D"/>
<path fill-rule="evenodd" clip-rule="evenodd" d="M420.599 238.55C419.58 238.55 418.611 238.55 417.592 238.55C418.56 238.142 419.58 238.091 420.599 238.55Z" fill="#2A344D"/>
<path fill-rule="evenodd" clip-rule="evenodd" d="M412.086 225.602C412.086 224.684 412.035 223.716 412.035 222.798C412.035 223.767 412.035 224.684 412.086 225.602Z" fill="#2A344D"/>
<path fill-rule="evenodd" clip-rule="evenodd" d="M397.915 223.512C397.915 224.43 397.915 225.347 397.915 226.265C397.864 225.296 397.864 224.43 397.915 223.512Z" fill="#2A344D"/>
<path fill-rule="evenodd" clip-rule="evenodd" d="M439.511 236.97C438.644 237.072 437.727 237.123 436.86 237.225C437.727 237.123 438.644 237.021 439.511 236.97Z" fill="#2A344D"/>
<path fill-rule="evenodd" clip-rule="evenodd" d="M456.18 226.876C456.129 226.061 456.129 225.296 456.078 224.48C456.129 225.296 456.18 226.112 456.18 226.876Z" fill="#2A344D"/>
<path fill-rule="evenodd" clip-rule="evenodd" d="M418.305 242.169C418.916 242.169 419.528 242.169 420.14 242.118C419.579 242.169 418.916 242.169 418.305 242.169Z" fill="#2A344D"/>
<path fill-rule="evenodd" clip-rule="evenodd" d="M444.761 225.296C444.71 224.735 444.659 224.175 444.608 223.563C444.659 224.124 444.71 224.684 444.761 225.296Z" fill="#2A344D"/>
<path fill-rule="evenodd" clip-rule="evenodd" d="M103.43 52.6934C100.983 52.0307 100.524 48.6154 100.932 46.5254C101.39 45.5059 101.798 44.4864 102.257 43.4669C102.104 43.11 101.9 42.7022 101.747 42.3454C101.951 40.2554 101.39 39.3379 103.786 40.2044C108.221 41.7847 108.935 52.5405 103.43 52.6934Z" fill="#2A344D"/>
<path fill-rule="evenodd" clip-rule="evenodd" d="M139.47 46.0667C141.458 45.9137 145.128 48.2586 143.14 50.5015C141.916 51.8779 137.838 51.2152 136.156 51.521C133.964 51.9288 131.67 52.4386 132.843 49.1252C133.76 46.5764 137.125 46.0157 139.47 46.0667Z" fill="#2A344D"/>
<path fill-rule="evenodd" clip-rule="evenodd" d="M137.379 61.6145C135.34 59.9833 136.258 52.5409 139.367 53.8662C142.528 55.2935 139.062 60.544 137.379 61.6145Z" fill="#2A344D"/>
<path fill-rule="evenodd" clip-rule="evenodd" d="M100.932 46.5254C100.932 47.29 100.932 48.1056 100.932 48.8703C100.473 48.1056 100.473 47.341 100.932 46.5254Z" fill="#2A344D"/>
<path fill-rule="evenodd" clip-rule="evenodd" d="M355.096 267.147C354.892 270.511 351.273 268.014 351.527 265.771C352.037 261.642 354.331 265.72 355.096 267.147Z" fill="#2A344D"/>
</g>
<defs>
<clipPath id="clip0_2585_1601">
<rect width="486" height="300.806" fill="white" transform="translate(0 0.59668)"/>
</clipPath>
</defs>
</svg>
