<svg width="227" height="261" viewBox="0 0 227 261" fill="none" xmlns="http://www.w3.org/2000/svg">
<g clip-path="url(#clip0_2593_801)">
<path fill-rule="evenodd" clip-rule="evenodd" d="M60.5491 58.691C60.2837 63.0511 60.0183 67.4491 59.7529 71.8092C61.4591 71.3163 72.4162 68.0936 71.7338 71.3542C71.2409 73.7049 68.1698 76.2451 66.6154 77.8754C65.1746 79.392 63.696 80.8327 62.1794 82.2735C64.9851 81.2119 67.7907 80.1882 70.6342 79.2403C72.7953 78.52 74.9564 77.8375 77.1555 77.2688C77.9896 77.0792 80.1886 76.2451 80.9469 76.8138C82.9942 78.2925 71.9612 89.0601 70.4447 90.5766C72.5679 89.5909 74.7669 88.6809 77.0038 87.9226C78.5962 87.3539 83.5629 85.2308 85.0037 87.0506C86.5202 88.9842 82.7667 93.496 81.7051 94.8988C80.2265 96.9462 78.5962 98.8798 76.8901 100.738C83.98 107.107 92.2831 112.756 101.117 116.282C107.6 118.86 113.97 119.505 120.832 118.102C127.884 116.661 134.595 113.856 141.041 110.671C144.794 108.813 148.51 106.766 152.074 104.491C150.633 102.709 149.192 100.889 147.827 99.0694C145.856 96.4533 143.429 93.5718 142.33 90.425C141.23 87.3539 145.363 87.9606 147.334 88.1122C150.178 88.3397 153.059 88.8705 155.827 89.4771C153.855 88.1122 151.884 86.6715 149.988 85.1928C147.486 83.2592 144.187 81.0981 142.557 78.3304C141.116 75.9039 144.263 76.5105 145.704 76.8138C149.154 77.5721 152.529 78.8612 155.827 80.1503C158.254 81.0602 160.642 82.046 163.031 83.0697C161.552 81.7806 160.111 80.4536 158.746 79.0508C156.889 77.193 154.424 74.8802 153.59 72.3021C151.922 67.032 163.22 71.013 165.154 71.8092C164.813 66.3496 164.434 60.9279 164.092 55.4683C149.116 59.4492 134.14 63.4302 119.126 67.4491C117.496 67.8661 115.487 68.814 113.78 68.8519C112.264 68.8898 110.406 68.2074 108.927 67.942L81.8189 62.7478C74.729 61.4208 67.639 60.0559 60.5491 58.691Z" fill="#F8BBD0"/>
<path fill-rule="evenodd" clip-rule="evenodd" d="M221.607 245.919C219.977 246.829 218.081 247.549 216.299 248.042C215.238 248.308 213.494 249.18 212.584 248.384C212.129 248.004 212.053 247.132 211.787 246.64C211.37 245.843 210.764 245.161 210.233 244.441C208.906 242.734 207.503 241.066 206.025 239.474C205.342 238.715 204.053 236.934 202.84 237.047C201.323 237.199 201.361 239.284 201.74 240.384C202.953 243.796 206.631 246.791 209.02 249.369C208.413 250.317 205.077 250.203 204.129 249.976C202.726 249.635 202.574 248.611 201.93 247.474C200.413 244.782 197.342 243.265 194.802 241.673C193.892 241.104 191.921 239.474 190.707 239.891C189.57 240.27 189.608 241.711 189.987 242.659C190.518 244.099 192.11 245.085 193.248 245.995C194.802 247.208 196.205 248.535 197.456 250.014C195.598 250.166 193.778 250.431 191.921 250.583C189.684 250.772 187.826 249.559 185.778 248.839C183.883 248.194 181.987 247.663 180.091 246.905C178.006 246.071 175.769 245.768 173.684 245.047C165.381 242.166 157.191 238.564 149.191 234.924C145.362 233.18 141.647 231.474 137.628 230.109C134.708 229.123 130.159 227.152 129.476 223.702C129.097 221.882 130.462 219.91 130.651 218.09C130.879 215.929 130.689 213.579 130.045 211.531C129.476 209.711 128.528 208.043 127.77 206.299C126.898 204.252 127.694 204.29 129.4 204.062C131.448 203.797 133.836 202.621 135.732 201.901C137.931 201.029 140.13 199.854 142.139 198.602C143.959 197.465 145.552 196.024 147.03 194.47C148.509 192.877 149.457 190.982 150.898 189.351C156.168 195.835 161.21 202.432 166.821 208.65C169.475 211.569 172.357 213.996 175.617 216.232C176.982 217.18 178.347 218.242 179.826 218.962C181.684 219.872 183.769 220.441 185.665 221.313C192.982 224.536 199.958 228.062 206.821 232.232C210.119 234.242 212.887 236.554 215.806 239.095C216.716 239.891 224.11 244.478 221.607 245.919ZM135.694 192.65C134.519 193.181 133.381 193.901 132.13 194.242C132.471 192.081 134.519 188.783 137.135 189.124C138.121 189.276 138.879 190.034 138.462 191.095C138.045 192.081 136.566 192.271 135.694 192.65ZM53.3448 133.58C52.0178 134.338 50.7667 134.755 49.9705 133.163C50.5392 133.049 53.1932 132.708 53.3448 133.58ZM51.1079 129.106C50.0842 128.803 50.9183 128.462 51.2596 128.082C51.525 127.779 52.4728 126.755 52.7761 126.566C54.2169 125.808 55.2784 128.613 55.9609 129.523C54.3685 129.371 52.6624 129.561 51.1079 129.106ZM62.1788 138.812C60.2073 139.153 60.4347 136.689 60.4727 135.438C60.9276 135.931 63.7333 138.547 62.1788 138.812ZM68.7 134.566C66.3114 134.983 64.719 130.812 65.1361 129.03C65.5152 127.438 67.373 126.528 68.8517 126.3C70.2924 126.073 72.2639 126.376 72.7189 128.045C73.098 129.485 70.2924 134.3 68.7 134.566ZM125.419 197.048C123.713 197.579 122.007 197.655 120.263 198.148C118.292 198.754 116.472 198.678 114.5 199.095C113.704 199.247 111.543 200.422 110.747 200.157C109.988 199.892 108.851 197.503 108.396 196.858C111.884 195.418 114.841 193.56 117.154 190.489C118.974 188.062 120.945 184.423 119.77 181.314C118.481 177.788 114.007 177.029 111.05 178.508C109.647 179.191 108.244 180.063 107.069 181.124C105.742 182.337 105.211 183.664 104.377 185.143C103.505 186.66 102.898 185.825 102.026 184.536C101.268 183.437 101.382 182.337 100.472 181.238C100.017 180.669 99.2587 180.138 99.0312 179.418C98.8796 178.963 99.2208 178.167 98.9175 177.788C98.5004 177.295 98.0075 177.864 97.6284 177.446C97.363 177.105 97.4388 176.385 97.2113 175.968C96.9838 175.74 96.7185 175.551 96.453 175.361C96.1118 175.21 96.036 174.982 96.2635 174.717C95.9981 174.224 96.2635 174.034 95.6569 173.428C94.7469 172.48 93.9507 171.57 93.3062 170.47C93.0029 169.939 93.0408 169.181 92.6617 168.764C92.1688 168.158 91.3347 168.233 90.9176 167.475C90.5385 166.793 90.8039 165.617 90.1593 165.011C89.8181 164.897 89.4769 164.821 89.1736 164.745C88.9082 164.518 88.7944 164.214 88.7186 163.873C88.3774 163.342 88.3015 162.698 87.8466 162.129C87.0125 161.03 85.875 160.044 85.1168 158.869C84.3206 157.655 84.7376 157.466 86.1025 157.011C87.3537 156.632 88.4532 156.253 89.5906 155.608C94.8607 152.537 99.9032 144.385 91.4863 141.883C88.3774 140.973 85.7992 138.471 82.349 139.457C80.8704 139.874 79.4297 140.784 78.3302 141.845C77.5719 142.603 76.8515 144.575 75.9037 144.954C74.1975 145.637 74.9179 143.93 74.425 143.134C74.1975 142.755 73.2497 142.338 72.9085 141.997C72.4914 141.58 72.1123 141.087 71.8469 140.594C71.3161 139.684 71.0128 139.153 70.2545 138.433C69.9891 138.168 68.5483 136.689 69.8374 136.878C69.3066 135.324 70.0649 135.059 71.1265 133.921C72.3398 132.556 73.6288 130.698 73.6288 128.803C73.6288 125.163 69.3445 123.533 66.6526 125.694C66.1218 126.149 62.8612 130.357 63.5058 127.665C63.847 126.225 67.1834 122.395 68.7379 123.381C66.9939 120.879 63.0508 126.983 62.1409 128.234C61.3447 126.793 61.3068 125.656 59.9798 124.518C58.9182 126.225 59.4869 124.367 59.2594 123.988C58.7665 123.154 59.0319 124.101 58.7665 123.798C58.4253 123.419 57.8945 123.154 57.5154 122.661C56.9087 123.495 57.1362 122.585 56.9467 122.282C56.4917 121.561 56.6813 121.106 55.923 120.462C55.3543 120.007 54.2548 119.286 53.5344 119.211C52.6624 119.135 52.4349 119.476 51.5629 119.211C50.4634 118.907 49.0226 118.414 49.5913 120.31C49.9705 121.675 51.6008 122.433 51.942 123.836C52.2832 125.239 50.9183 126.642 50.2359 127.779C49.3639 129.258 48.6814 129.144 47.1269 129.447C46.1412 129.675 44.8142 130.13 45.6483 131.305C46.2549 132.177 47.6956 131.988 48.4918 132.48C49.6293 133.201 49.5913 134.983 51.0321 135.286C52.6245 135.627 53.5344 133.845 54.8614 133.428C55.8092 133.125 58.7665 133.163 59.5248 133.883C60.5485 134.869 59.6765 136.727 59.904 137.94C60.2831 139.722 61.4963 139.836 63.0508 139.912C64.9465 139.987 65.591 141.807 66.6147 143.248C69.0033 146.622 71.0507 150.224 73.5151 153.561C74.5767 155.039 76.1691 156.328 77.0411 157.959C78.1406 159.93 76.624 161.068 75.297 162.508C73.5909 164.366 72.3018 166.451 70.8232 168.499C69.4962 170.281 67.8659 169.864 65.7806 169.864C66.2356 168.878 66.8043 168.309 67.9796 168.423C66.7664 166.944 65.8185 168.65 65.0223 169.56C63.8849 170.925 62.4063 171.229 60.9655 172.138C60.4347 172.442 57.6291 174.489 58.5011 175.172C58.6149 175.247 63.2404 172.214 63.7712 171.911C63.7712 173.048 63.5058 174.224 63.6954 175.323C63.8091 176.157 64.3778 176.991 64.2641 177.864C64.0366 179.494 61.9513 180.745 61.0414 181.996C60.3589 182.944 60.5485 183.702 60.1693 184.688C59.866 185.598 60.0177 185.333 59.2594 185.636C57.667 186.205 55.013 185.901 53.5723 185.067C52.6624 184.536 51.9799 183.74 51.2596 183.02C50.7288 182.489 49.3259 181.541 49.1743 180.783C48.9089 179.494 51.487 177.067 52.0178 175.74C53.4586 171.949 50.9942 168.992 47.1269 168.802C48.3023 167.892 49.7809 168.575 51.0321 168.916C48.9089 165.959 45.2312 168.385 43.4114 170.394C42.1602 167.248 41.5915 163.949 40.8332 160.688C40.3024 158.452 38.3688 154.508 39.2408 152.196C39.6579 151.096 40.8711 150.452 41.7052 149.693C42.6531 148.821 43.4493 147.76 44.1317 146.698C45.762 144.158 46.672 140.935 44.4729 138.433C45.1554 138.319 45.8379 138.205 46.5203 138.092C45.4208 137.068 43.6768 137.561 42.236 137.258C41.3261 137.068 38.71 137.182 38.1034 136.689C37.383 136.082 37.838 133.239 37.8759 132.405C37.9517 130.433 38.1034 128.537 38.3309 126.604C38.5205 124.746 38.4825 122.774 38.8617 120.955C39.165 119.476 40.1508 119.021 41.2882 118.187C44.018 116.102 46.2549 113.599 45.3071 110.035C45.6483 109.997 45.9516 109.922 46.2928 109.884C45.2312 109.125 43.8284 109.391 42.6531 108.974C43.7526 105.903 46.1412 100.519 50.0842 100.216C50.2359 101.581 50.1221 103.211 51.07 104.348C52.1316 105.637 53.9894 105.789 55.3922 105.069C56.6813 104.462 57.8945 103.135 58.5011 101.846C58.9182 100.974 58.8424 99.4953 59.5248 98.7749C60.4727 97.827 67.0318 98.3958 66.8422 99.9881C66.7285 100.898 64.9844 102.49 64.4916 103.287C63.5816 104.803 62.8612 106.434 62.5579 108.14C62.0651 110.756 62.3304 114.244 65.0223 115.609C68.0555 117.163 71.7331 115.192 74.2355 113.448C75.6003 112.5 76.9273 111.438 78.1785 110.339C78.861 109.77 79.5055 109.163 80.1121 108.481C80.5292 107.988 80.9083 107.192 81.4391 106.851C82.6903 105.979 83.9414 107.457 85.003 108.215C86.7471 109.429 88.4532 110.566 90.311 111.59C94.1024 113.637 97.5526 116.329 100.889 119.021C104.263 121.713 107.714 124.519 110.443 127.893C108.813 128.917 109.078 129.182 108.358 130.964C107.827 132.253 107.107 133.352 107.031 134.755C106.879 137.22 108.472 139.305 110.86 139.874C112.187 140.177 113.476 139.949 114.728 139.381C115.675 138.964 116.661 137.902 117.647 137.637C119.505 137.144 121.021 140.708 122.083 141.959C126.746 147.494 131.675 152.802 136.073 158.603C136.566 159.248 138.007 160.499 138.121 161.333C138.272 162.546 136.376 163.722 135.58 164.404C135.163 164.783 130.765 168.916 132.244 169.56C132.661 169.75 133.912 167.21 134.215 166.982C135.391 166.148 134.481 167.778 134.443 168.575C134.253 170.584 135.656 171.684 137.59 171.418C139.675 171.153 141.495 169.522 142.784 167.968C144.376 169.826 146.879 172.631 147.372 175.134C147.675 176.726 146.31 180.593 148.85 180.935C149.229 180.972 150.67 179.949 150.935 180.517C151.163 181.01 149.608 181.882 149.419 182.034C148.471 182.754 147.902 183.475 147.144 184.347C146.234 185.333 145.021 186.205 144.035 187.152C142.974 188.176 140.888 190.906 139.485 189.579C138.765 188.896 138.955 188.024 137.855 187.645C136.831 187.304 135.542 187.759 134.595 188.138C133.533 188.593 130.007 190.186 129.59 191.55C129.059 193.408 131.978 191.171 132.471 190.868C131.865 192.385 131.561 194.546 130.045 195.418C128.566 196.176 126.784 196.631 125.419 197.048ZM105.401 185.674C106.387 182.451 112.301 176.726 116.055 178.508C111.694 179.418 108.244 182.413 105.401 185.674ZM107.6 194.887C106.159 194.091 106.235 191.702 105.704 190.337C105.401 189.541 104.832 188.972 104.984 188.1C105.173 187.077 106.5 185.939 107.183 185.181C109.382 182.83 113.249 179.645 116.775 180.176C121.287 180.859 118.216 186.925 116.699 188.972C115.448 190.792 110.405 196.479 107.6 194.887ZM97.0976 190.982C92.2067 190.641 87.3537 190.223 82.5765 189.314C80.8704 189.01 79.4297 189.048 80.4154 187.077C80.7187 186.432 82.6903 182.375 83.1073 182.489C83.3727 182.565 83.2969 185.333 83.3727 185.674C83.7139 187.115 84.6997 188.442 86.33 188.366C88.984 188.214 90.728 184.764 92.1309 182.906C93.2683 184.423 94.0645 186.091 95.2019 187.57C95.7327 188.29 97.5905 189.958 97.0976 190.982ZM68.5483 171.835C67.7142 173.693 66.0839 175.513 64.9465 177.181C64.302 175.816 63.847 172.669 65.3636 171.646C65.9323 171.304 69.0412 170.66 68.5483 171.835ZM85.4201 177.409C85.6476 176.688 85.913 175.968 86.1784 175.285C86.6712 176.802 86.8987 176.84 85.4201 177.409ZM89.5906 178.963C90.1972 179.949 91.183 180.935 91.0314 182.224C90.9176 183.171 90.0456 184.157 89.439 184.802C88.4153 185.901 86.1784 188.024 84.6997 186.546C83.4485 185.333 83.9035 181.958 84.4722 180.593C85.2684 178.66 88.1878 176.574 89.5906 178.963ZM86.7092 176.916C87.0504 176.764 86.33 174.603 87.0125 174.375C87.5812 175.664 88.112 176.044 86.7092 176.916ZM77.3823 147.456C77.1548 146.66 76.6619 146.698 76.8515 145.675C76.9653 145.03 77.496 144.31 77.8752 143.817C78.6714 142.793 79.6951 141.921 80.8325 141.276C83.1832 139.912 86.4438 139.343 88.5669 141.466C86.5954 141.769 80.5292 143.741 80.4913 146.433C82.6903 146.016 84.4343 143.817 86.6333 143.096C88.4532 142.528 90.4247 142.566 92.2067 143.172C97.1355 144.84 95.0882 149.087 92.3204 151.854C90.6522 153.485 88.6807 154.736 86.5196 155.57C85.5338 155.949 84.8893 155.987 83.9035 155.798C83.714 155.76 83.4865 155.418 83.2969 155.343C82.7282 155.153 82.9178 155.76 82.4628 155.494C82.0836 155.267 81.2116 153.674 80.9462 153.257C80.5292 152.537 80.3017 151.855 79.8088 151.21C79.278 150.565 79.0126 149.693 78.5576 149.087C78.3302 148.821 77.6856 148.821 77.496 148.556C77.1927 148.177 77.534 147.874 77.3823 147.456ZM69.8374 179.266C70.9748 177.333 72.8705 175.665 74.3492 173.958C74.425 176.764 72.4156 178.66 69.8374 179.266ZM71.354 180.176C73.6667 179.38 74.9558 177.409 75.1833 175.058C75.4866 172.063 77.3444 170.508 78.4818 167.816C78.8989 166.793 79.4297 163.38 81.0979 164.366C81.6666 164.707 82.0078 165.959 82.3111 166.527C83.0315 167.892 83.8656 169.219 84.6239 170.584C85.2684 171.684 86.1784 172.783 85.913 174.11C85.6855 175.247 84.8893 176.499 84.4343 177.56C83.3727 180.1 81.932 182.489 80.7567 184.991C80.2638 186.015 79.733 188.404 78.2543 188.366C77.1169 188.366 77.2307 187.115 76.4724 186.66C75.5245 186.129 74.425 187.152 73.6288 187.57C74.5388 186.053 76.1311 185.181 77.8752 185.446C75.752 183.323 74.3113 186.205 72.4914 186.811C70.7474 187.418 67.6763 184.574 66.2356 183.778C66.8043 182.83 67.2972 181.693 68.245 181.048C69.2308 180.442 70.3303 180.517 71.354 180.176ZM52.5107 199.55C52.7761 198.337 53.4965 197.617 53.9515 196.517C54.4443 197.844 53.2311 198.64 52.5107 199.55ZM89.2873 207.019C89.1736 211.114 88.8323 215.247 88.7186 219.341C88.6807 221.237 88.3395 223.057 88.112 224.915C87.9224 226.507 88.0361 228.062 87.0125 229.427C85.4201 231.55 82.387 232.194 79.9984 232.953C78.2543 233.521 76.4724 234.052 74.7662 234.697C73.2118 235.265 71.9606 236.175 70.482 236.858C69.155 237.464 67.7522 237.843 66.4252 238.488C65.0603 239.17 63.9987 240.005 62.5958 240.611C60.9276 241.332 59.5627 242.621 58.0841 243.644C56.795 244.554 55.3922 245.237 54.2548 246.374C53.1932 247.436 51.8662 247.891 50.6908 248.839C49.4397 249.824 48.1127 250.507 46.7099 251.265C43.8663 252.857 39.9991 255.625 36.5489 254.071C37.5347 252.82 39.5441 251.606 39.6958 249.862C39.8854 247.625 37.9138 248.421 36.8143 249.142C35.1082 250.241 34.1224 251.53 32.8334 253.009C31.3168 254.715 29.3832 253.578 27.4875 253.085C28.7766 251.947 30.0277 250.772 31.3168 249.597C32.3784 248.611 34.0466 247.549 34.6911 246.222C35.1461 245.275 35.1461 243.948 34.0087 243.417C32.7575 242.848 31.3168 244.023 30.3689 244.744C27.8666 246.602 26.2363 248.99 24.606 251.568C23.734 252.933 23.3169 252.857 21.7245 252.554C20.0184 252.251 18.3123 251.947 16.6062 251.758C18.881 249.445 21.4212 246.905 23.2032 244.175C23.7719 243.303 24.5302 240.952 22.7861 240.763C22.0658 240.687 20.5871 242.166 20.0563 242.583C17.5919 244.327 15.2413 246.564 13.611 249.104C13.0802 249.938 12.8906 250.886 11.8669 250.962C10.502 251.038 7.96177 249.748 6.67269 249.369C9.17501 246.222 11.6773 243 14.5967 240.232C17.2886 237.654 19.9805 235.796 23.1274 233.825C26.5017 231.701 29.6486 229.275 32.7575 226.811C35.7148 224.422 38.8238 222.185 41.5536 219.531C47.0132 214.223 51.8662 208.081 55.8851 201.636C56.8329 200.119 57.7049 198.565 58.4632 196.972C59.1836 195.456 59.5248 193.636 60.4727 192.271C60.8139 191.778 61.2689 191.437 61.5722 190.944C61.8376 190.489 61.7617 189.92 62.1788 189.503C63.1646 188.555 64.9844 189.124 65.9323 189.806C67.4109 190.868 68.6242 192.195 70.2924 193.105C71.9606 194.015 73.7426 194.659 75.5624 195.114C79.8467 196.138 84.0931 197.01 88.4532 197.655C87.9982 199.323 89.0977 199.588 89.4769 201.067C89.9318 202.887 89.3631 205.2 89.2873 207.019ZM48.0748 179.304C47.089 177.864 46.2549 176.347 45.2691 174.906C44.7004 174.034 43.9801 173.086 44.4729 171.987C45.3071 170.167 48.2644 169.826 49.8567 170.622C53.5344 172.442 50.1601 177.598 48.0748 179.304ZM38.4446 146.319C38.1034 143.513 39.2029 141.504 41.7431 140.025C43.563 138.964 45.0417 140.404 44.7763 142.338C44.3971 145.257 41.2882 148.518 38.8996 150.035C38.7479 148.783 38.5963 147.57 38.4446 146.319ZM38.0655 138.243C38.8238 137.637 40.8332 138.395 41.7052 138.471C40.492 139.532 39.3166 140.556 38.1034 141.618C38.0276 140.897 37.383 138.812 38.0655 138.243ZM42.1223 111.059C48.1885 110.263 41.2123 116.784 39.4304 117.808C39.7337 116.405 40.4162 111.249 42.1223 111.059ZM58.2737 99.6469C57.4775 102.983 51.1458 106.623 51.07 101.163C51.0321 99.1161 52.2074 99.3057 53.8756 99.1161C54.7856 98.9645 58.7286 97.7512 58.2737 99.6469ZM36.3973 104.803C35.6769 106.661 35.1082 108.595 34.4257 110.452C34.1224 111.287 33.7433 111.855 33.1746 112.5C32.6817 113.031 32.113 113.182 32.1509 114.054C32.7575 113.94 33.2125 113.561 33.7054 113.22C33.5916 114.926 32.985 116.784 32.6817 118.49C32.3405 120.538 32.0372 122.585 31.9234 124.67C31.6959 129.182 31.6959 133.694 31.7718 138.243C31.8097 140.556 31.8476 142.869 31.9613 145.144C32.0372 146.281 32.0751 147.456 32.2267 148.594C32.3026 149.049 32.6059 150.035 32.4163 150.452C31.6201 152.158 28.0183 147.494 26.4638 148.177C26.6913 146.888 26.1605 147.153 25.3264 146.547C24.9093 146.243 24.6439 145.712 24.189 145.447C24.0752 145.295 23.9236 145.182 23.7719 145.068C23.5823 144.84 23.3928 144.84 23.2032 145.144C21.4592 144.082 21.0042 141.845 20.0563 140.367C19.5635 139.608 19.1085 139.457 19.0327 138.395C18.9568 137.447 19.1085 136.499 19.0706 135.589C19.0327 134.528 18.9568 133.352 18.6535 132.367C18.3123 131.191 17.8194 131.267 16.9095 130.661C17.1749 130.547 17.3644 130.319 17.4782 130.054C17.1749 130.092 16.3028 130.471 16.0754 130.206C15.6204 129.675 16.682 129.637 16.9474 129.409C15.81 128.879 16.0374 128.462 16.4545 127.552C16.5682 127.286 16.682 126.869 16.7957 126.68C17.0232 126.187 17.137 126.49 17.2128 125.883C17.2886 125.315 16.7578 124.177 16.6062 123.533C16.3408 122.509 16.227 121.599 16.4545 120.5C16.6441 119.628 17.137 118.831 17.1749 117.921C17.1749 117.656 16.7957 117.58 16.7957 117.353C16.7957 117.012 17.137 116.822 17.2128 116.519C17.4403 115.685 17.3265 114.775 17.7057 113.978C18.0469 113.258 18.7293 112.348 19.2222 111.704C19.5635 111.287 20.3976 110.794 20.4734 110.187C20.5492 109.808 19.9426 109.846 19.9805 109.58C20.0184 109.201 20.3596 109.05 20.4355 108.784C20.663 107.988 20.7388 107.23 21.3833 106.623C22.1795 105.865 22.5207 106.168 22.5587 104.917C22.5587 104.31 22.0658 104.197 22.3312 103.514C22.4828 103.135 22.8999 102.908 23.1653 102.642C23.9615 101.846 24.4923 101.126 25.061 100.102C25.5539 99.2299 26.388 98.6991 26.8809 97.9408C27.5633 96.955 26.5396 96.4621 27.9045 96.1588C27.715 95.5522 27.4875 95.0593 28.0183 94.5285C28.3216 94.1873 29.1557 94.4148 29.459 94.0356C29.8002 93.5807 29.3074 92.557 29.8002 92.2916C30.2173 92.0641 30.786 92.7845 31.4305 92.4053C31.9234 92.1399 32.6438 90.6613 32.4921 90.1305C33.7433 90.813 33.44 90.358 34.0087 89.4481C34.1603 89.2585 34.5395 89.2206 34.6532 88.9931C34.8807 88.576 34.8428 88.159 35.1461 87.8557C35.7148 87.3249 36.5868 87.4386 37.1935 87.0595C37.6863 86.7182 37.6484 86.377 38.0655 86.0737C38.4067 85.8083 38.9754 85.7704 39.3166 85.505C39.9612 84.9742 39.9612 84.4055 40.7953 83.9505C41.7431 83.4197 42.6152 82.9648 43.4872 82.2444C44.0559 81.7894 44.5867 80.9553 45.2691 80.652C46.1791 80.2349 46.8994 80.197 47.8094 79.5904C48.4539 79.1354 49.0606 78.4151 49.7051 78.0738C50.198 77.8084 50.5392 77.8464 51.1458 77.6947C52.2453 77.3914 52.5107 76.3677 53.4207 75.9128C54.0273 75.6094 54.9372 75.8748 55.6197 75.7232C57.7049 75.2682 59.7902 74.2445 61.8755 73.6758C64.4536 72.9934 67.0318 72.3867 69.6099 71.7801C67.2214 75.0028 64.1882 77.9222 61.1172 80.4624C60.0935 81.2965 54.596 85.1258 57.5533 86.7561C58.7665 87.4007 61.3447 85.2775 62.3304 84.7846C64.2641 83.723 66.2735 82.8889 68.3209 82.0548C71.6194 80.6899 75.9037 78.2634 79.5813 78.453C77.3444 81.1828 74.5767 83.3818 72.0364 85.8083C69.6858 88.0452 66.1598 90.0926 67.2593 93.7323C63.9608 92.8982 61.0035 91.9125 57.5912 92.1399C56.0746 92.2537 54.5202 92.0641 53.0036 92.2537C51.3354 92.4812 49.7809 93.0499 48.1885 93.5428C46.9374 93.9219 45.5345 93.9598 44.3592 94.6043C43.7905 94.9077 43.108 95.3626 42.6152 95.7418C41.9327 96.2726 41.7811 96.5759 41.2503 97.2583C39.3166 99.609 37.4968 101.884 36.3973 104.803ZM26.1226 150.376C26.0088 149.959 25.933 149.58 25.8193 149.087C26.8429 149.769 26.8429 149.769 26.1226 150.376ZM18.1985 137.106C18.0848 137.296 17.5161 137.333 17.3644 137.182C17.1749 136.992 17.6678 136.234 17.7815 136.082C17.9711 136.272 18.426 136.765 18.1985 137.106ZM15.9616 132.291C16.1133 131.798 16.227 131.267 16.3787 130.774C16.5303 131.229 17.3265 131.76 17.3265 132.215C17.3265 132.518 16.1133 132.367 15.9616 132.291ZM16.4166 132.973C17.6298 133.77 17.7436 134.679 17.7815 136.044C16.3408 135.589 16.5303 134.224 16.4166 132.973ZM37.2693 79.1354C37.1555 79.4767 36.6248 80.5003 36.2456 79.78C36.1698 79.5146 37.0418 79.2113 37.2693 79.1354ZM36.9281 77.998C37.2314 77.7326 37.838 78.0738 38.1413 77.8464C38.3688 77.6947 38.293 77.543 38.4067 77.4672C38.4446 77.4672 38.7479 76.7848 38.8617 76.671C39.0892 76.4056 39.582 76.254 39.8854 76.0265C40.6815 75.382 41.0986 74.5099 41.6294 73.6379C42.236 72.6142 42.4256 72.4626 43.3734 72.0076C44.018 71.6664 44.5488 71.2872 45.0796 70.7185C45.6862 70.074 45.6483 69.619 46.1412 68.8987C46.4066 68.5574 46.7478 68.5195 47.0511 68.2162C47.3923 67.875 47.5819 67.42 47.8852 67.0788C48.0369 66.9271 48.4539 66.9271 48.5677 66.8134C48.6814 66.6617 48.7572 66.0172 48.871 65.9035C49.0605 66.1688 49.2501 66.4342 49.4397 66.6996C50.198 65.3727 50.7667 64.2731 52.0178 63.3632C53.3448 62.4154 54.5202 61.0505 55.8851 60.2163C56.1884 60.0268 56.8329 59.951 57.0604 59.6856C57.4775 59.2306 57.0983 58.8135 57.4016 58.3965C57.7429 57.9415 58.3874 58.3206 58.8044 58.1311C59.3352 57.9036 59.4869 57.1832 60.1693 57.2591C57.9324 59.913 57.9324 64.0836 57.8187 67.42C57.7808 68.8607 58.6528 69.5811 57.3258 70.6427C56.1884 71.5526 54.596 71.2872 53.2311 71.8559C51.5629 72.6142 49.743 72.9934 48.0369 73.6379C46.2549 74.3204 44.8142 75.4578 43.108 76.254C41.5915 76.9364 40.5678 77.9222 39.2029 78.7563C38.6721 79.0596 37.8759 79.5146 37.2693 79.1354C36.9281 78.8321 36.4352 78.453 36.9281 77.998ZM62.4063 55.6287C62.52 55.2496 64.4157 54.2638 64.9086 53.9226C65.629 53.4297 66.6526 52.2544 67.4488 52.7094C67.7142 51.6099 68.8137 50.3966 69.7616 50.1691C70.8232 49.9037 72.6051 48.9938 73.6667 48.2355C73.97 48.008 74.0838 47.6668 74.425 47.4393C75.0316 47.0602 75.6762 47.2877 76.2449 46.7569C76.3207 46.681 77.1548 45.3161 77.1927 45.3161C77.2307 45.4678 77.2686 45.6195 77.3065 45.7711C77.951 45.4299 78.4818 45.1645 78.8989 44.7095C78.9747 44.5958 78.406 44.3304 78.5956 44.1408C78.823 43.9133 79.3159 44.1787 79.5434 43.9512C78.861 47.4014 79.3538 51.8753 82.8798 53.6193C78.7093 54.0743 74.6146 52.8231 70.4061 53.5814C68.3967 53.9605 66.3114 54.5672 64.4916 55.4771C63.3541 56.0458 61.9134 58.0932 60.8139 57.1074C61.193 56.5008 61.8755 56.1595 62.4063 55.6287ZM82.6524 45.6953C84.2068 43.7996 86.5954 43.0413 88.9461 43.7238C91.7517 44.5199 90.5764 46.4915 90.1214 48.6526C89.3252 47.4772 87.5812 46.3019 86.1025 46.264C83.9793 46.2261 84.7755 47.9701 86.0646 48.6147C87.202 49.1834 89.1736 49.335 90.0077 50.3966C90.8039 51.4203 90.5006 53.0506 90.6143 54.2638C90.0077 54.188 89.3631 54.0743 88.7565 53.9985C89.2873 51.2307 86.9746 51.0791 84.8514 50.2829C82.6903 49.4109 80.8704 47.8564 82.6524 45.6953ZM89.6664 38.8328V41.411C88.7944 40.9181 87.9224 40.4252 87.0504 39.9324C87.9224 39.5532 88.7944 39.212 89.6664 38.8328ZM96.6426 59.4581C99.5241 60.2543 102.406 61.0884 105.211 62.15C106.235 62.5291 107.334 62.6808 108.32 63.1357C109.268 63.5528 109.42 63.5149 109.078 64.349C108.131 66.6617 105.894 66.2826 103.96 65.9035C100.889 65.3347 97.8938 64.5765 94.8986 63.8561C91.9413 63.1357 88.9461 62.6808 86.0267 61.8087C83.0315 60.8988 80.15 60.0268 77.079 59.4202C76.1691 59.2306 69.1171 58.586 69.155 57.8657C73.6288 57.297 78.2164 57.8657 82.6903 57.9036C87.3158 57.9794 92.1309 58.2448 96.6426 59.4581ZM92.6996 50.5104C92.7375 48.918 92.7754 47.3256 92.965 45.7332C94.292 47.3635 95.5052 47.8564 97.1734 46.3398C98.7658 44.8612 99.1449 44.1029 101.154 45.4678C102.898 46.681 104.567 46.6052 106.462 45.5436C107.6 44.8991 109.42 42.283 110.633 42.8138C111.202 43.0792 111.619 44.1029 112.187 44.482C112.908 44.9749 114.007 45.2782 114.879 45.4678C116.889 45.9228 118.064 44.6337 119.315 43.2688C121.135 41.2973 121.059 42.4347 122.765 43.7996C124.623 45.3541 126.216 44.5958 127.922 43.2688C128.945 46.3019 129.324 49.6004 129.628 52.7852C129.742 53.8468 130.083 55.3634 129.135 56.1216C128.452 56.6524 127.012 56.6903 126.216 56.9557C123.296 58.0173 120.491 59.496 118.026 61.4296C117.078 62.1879 116.244 63.0978 114.955 62.9082C113.704 62.7566 112.529 61.695 111.505 61.0125C110.405 60.2543 109.344 59.4202 108.055 59.0031C107.296 58.7756 106.121 58.8514 105.477 58.3965C104.263 57.5624 105.704 55.4013 105.401 53.9605C105.173 52.861 104.529 50.5483 103.012 51.1928C100.737 52.1407 102.064 55.9321 103.315 57.1074C100.775 56.6524 97.9317 56.0079 95.4673 55.1359C93.5337 54.6051 92.6237 52.444 92.6996 50.5104ZM135.467 58.2827C140.699 56.8041 145.59 55.8183 151.049 55.5529C153.476 55.4392 155.788 55.515 158.177 55.515C159.542 55.515 160.604 54.4155 159.504 53.1643C157.987 51.4203 153.362 52.0648 151.315 51.989C145.817 51.7615 140.775 52.4061 135.58 54.2259C136.149 53.2023 137.438 53.0885 138.348 52.5577C139.448 51.9132 140.206 50.8516 140.699 49.6763C141.95 46.6052 140.699 43.7238 139.41 40.9181C141.95 41.6006 144.566 43.0792 147.144 43.4584C147.675 43.5342 148.016 43.4963 148.509 43.6858C148.812 43.7996 148.888 44.2166 149.267 44.2925C149.457 44.3304 149.874 43.9512 150.063 43.9892C150.86 44.2166 150.215 44.2546 150.708 44.5958C151.087 44.8612 151.049 45.1645 151.77 45.0507C152.073 45.0128 152.414 44.5199 152.604 44.482C152.831 44.482 152.755 44.2166 153.097 44.2925C153.703 44.4441 153.627 45.2024 153.817 45.5815C154.044 45.9986 153.741 46.5294 154.386 46.719C154.879 46.8706 154.992 46.3777 155.409 46.4156C155.675 46.4536 156.168 46.7948 156.395 47.0223C157.115 47.7047 158.063 48.5009 159.011 48.9559C158.935 48.8801 159.466 48.6526 159.314 48.5767C159.239 48.5388 159.807 48.6905 159.769 48.6905C160.3 48.8042 160.604 49.6383 160.869 49.9416C161.362 50.5104 162.158 51.0791 162.878 51.3445C164.092 51.7615 164.054 51.2686 164.509 52.7094C165.381 51.3445 165.722 53.6193 166.784 53.8847C167.352 53.9985 167.276 53.771 167.807 54.0743C168.148 54.2638 168.376 54.9084 168.641 55.1738C168.755 54.7567 168.869 54.3018 168.983 53.8847C169.779 55.3634 171.447 57.714 173.305 57.297C173.305 57.714 173.153 58.169 173.456 58.5102C173.684 58.7377 174.025 58.4723 174.215 58.624C174.366 58.7377 174.708 59.2306 174.821 59.3064C175.049 59.4581 175.466 59.5718 175.655 59.7235C175.845 59.8751 175.921 60.5197 176.11 60.7471C176.452 61.2021 177.096 61.2779 177.399 61.8087C177.475 61.2779 177.551 60.7471 177.589 60.2163C178.158 60.6713 178.234 61.0125 178.347 61.6571C178.537 62.6049 178.271 62.3774 178.916 62.7566C179.561 63.1357 179.864 63.0978 180.47 63.7803C181.039 64.4248 181.039 64.8419 181.873 64.1594C182.025 64.6523 182.063 65.3347 182.48 65.7139C182.783 66.0172 184.072 66.0172 184.186 66.6996C181.797 64.6902 183.352 67.7612 184.186 66.6996C184.376 67.8371 185.172 68.1783 186.12 68.9745C186.992 69.7328 187.143 69.6569 187.447 70.9081C187.447 70.8702 187.902 71.1735 187.902 71.2114C187.068 71.3251 188.357 72.273 188.584 72.4626C188.736 72.5763 188.963 72.273 189.229 72.5005C189.532 72.728 189.797 73.2588 190.025 73.6C190.707 74.472 191.2 75.2303 191.921 75.9507C192.679 76.7089 193.058 77.6947 193.816 78.5667C194.65 79.5525 195.105 80.6899 195.788 81.7894C196.432 82.8131 197.304 83.6472 198.063 84.5951C199.276 86.0737 199.693 89.3722 201.93 89.486C201.816 89.6376 201.968 90.6613 202.006 90.813C202.119 91.7229 202.044 92.6328 202.574 93.4669C202.688 92.5191 203.219 92.8603 203.636 93.3911C204.356 94.2252 203.712 94.0356 203.75 94.8698C203.788 95.8934 203.901 95.0972 204.318 96.0072C204.622 96.7275 204.811 97.1825 204.963 97.9408C203.674 98.0545 203.105 96.9929 202.65 96.0072C202.461 95.5901 202.385 94.9077 202.044 94.5664C201.664 94.2252 201.172 94.1873 200.792 93.8082C200.072 93.0499 199.731 91.8745 198.897 91.1542C197.911 90.3201 197.721 89.9409 196.887 88.9552C196.015 87.8557 194.764 87.0974 193.816 86.0358C192.868 84.9742 192.944 85.5429 191.769 85.1638C190.518 84.7467 188.508 80.8416 186.916 82.3202C186.992 81.3344 185.513 80.3866 184.755 80.0454C184.414 79.8937 184.072 80.0454 183.731 79.78C183.39 79.5146 183.352 79.0596 183.011 78.7563C183.011 78.7563 182.48 78.87 182.366 78.8321C182.139 78.7184 182.139 78.3013 181.949 78.1876C181.418 77.8084 180.736 77.4293 180.167 77.126C178.764 76.3677 177.513 75.4199 176.148 74.5099C174.973 73.7137 173.57 72.3109 172.205 71.8939C171.03 71.5147 170.272 71.7043 169.324 70.9839C168.793 70.6048 168.945 70.4531 168.111 70.2256C167.314 69.9982 166.859 70.1119 166.442 69.2399C165.684 67.7612 166.177 64.8419 166.025 63.1357C165.874 61.3538 165.684 59.5339 165.229 57.7899C164.698 55.7425 163.94 54.6809 161.741 55.1738C157.381 56.1216 153.097 57.0316 148.736 57.8657C140.016 59.5339 131.486 62.2637 122.955 64.6902C122.31 64.8798 118.671 65.7139 119.429 63.8182C119.77 62.9462 122.045 62.6428 122.841 62.3774C126.936 60.9746 131.144 59.4581 135.467 58.2827ZM133.988 54.4534C133.343 54.6809 132.699 54.9463 132.092 55.1738V53.3918C132.699 53.771 133.343 54.1122 133.988 54.4534ZM131.334 45.1266C131.903 45.5815 133.002 44.482 133.495 44.2546C134.291 43.8754 135.315 43.5721 136.225 43.6479C137.893 43.7996 139.068 45.4299 138.803 47.0602C138.272 49.8658 134.329 51.1549 132.13 52.2544C132.054 51.2686 131.751 50.0933 132.433 49.2213C133.04 48.463 134.215 48.5388 134.746 47.7426C136.149 45.7711 132.358 45.5815 131.523 47.1739C131.182 46.1502 130.841 45.1645 130.538 44.1408C131.296 43.9892 130.917 44.7853 131.334 45.1266ZM135.277 39.629C134.481 40.1219 133.685 40.6527 132.926 41.1456C132.509 39.4016 133.836 39.1741 135.277 39.629ZM207.162 101.126C206.138 101.618 205.873 100.443 205.115 100.405C206.025 99.8365 206.025 99.8365 207.162 101.126ZM211.37 126.831C211.484 128.537 211.408 130.244 211.636 131.912C211.825 133.201 212.318 134.376 212.394 135.703C212.508 138.547 211.56 141.428 209.626 143.513C207.806 145.485 205.152 147.191 202.688 148.025C201.589 148.404 200.413 149.238 199.314 149.542C198.101 149.883 196.963 149.163 195.977 150.452C195.333 144.802 195.788 138.85 195.75 133.163C195.712 127.438 195.75 121.751 194.802 116.102C193.93 111.059 192.262 105.41 189.115 101.277C187.826 99.609 186.271 98.2441 184.641 96.955C183.769 96.2726 182.935 95.5901 181.987 95.0593C180.508 94.2631 179.257 94.3769 177.665 94.1494C175.39 93.8082 173.267 93.5428 170.954 94.1873C168.831 94.7939 166.48 95.4764 164.547 96.5001C162.651 97.5237 160.414 97.9787 158.442 98.8886C157.115 99.5332 154.31 101.618 152.831 101.239C151.39 100.86 149.267 98.4337 148.319 97.3342C147.144 95.9313 146.158 94.301 145.135 92.7845C144.755 92.2537 144.035 91.4196 143.921 90.7371C143.77 89.5618 144.225 89.9409 145.362 90.0926C148.281 90.4338 151.011 90.9646 153.779 91.8745C155.144 92.3295 157.874 94.1494 159.239 93.0499C161.362 91.3817 158.139 88.4623 156.964 87.5144C154.954 85.8462 152.642 84.633 150.481 83.1543C148.206 81.5998 145.21 79.9316 143.77 77.5051C148.016 78.7563 152.3 80.197 156.433 81.8273C158.329 82.5856 160.186 83.3439 161.968 84.3297C162.954 84.8984 165.002 86.377 166.177 85.6566C168.793 84.1022 162.803 79.5525 161.931 78.6426C160.566 77.2018 159.277 75.7611 157.798 74.472C156.812 73.6 155.22 72.9555 154.765 71.6664C156.433 72.273 157.76 73.4483 159.314 74.2445C160.111 74.6616 160.869 74.8891 161.779 75.0407C162.727 75.1924 162.84 75.344 163.599 75.7232C164.167 76.0265 164.774 76.4056 165.457 76.6331C165.912 76.7848 166.746 76.7848 167.163 77.0502C167.39 77.3535 167.58 77.6568 167.807 77.9222C168.073 77.998 168.3 78.0738 168.565 78.1876C168.945 78.5288 169.134 78.9459 169.513 79.2871C172.091 81.7136 175.542 83.4576 178.423 85.505C181.153 87.4386 184.034 89.1827 186.65 91.2679C189.646 93.6944 192.793 96.2726 195.371 99.1919C196.811 100.822 198.025 102.68 199.238 104.5C200.11 105.827 201.399 106.888 202.157 108.253C203.826 111.211 205.19 114.395 206.972 117.315C208.716 120.31 211.105 123.229 211.37 126.831ZM186.878 143.968C187.371 141.921 190.176 139.532 191.958 138.623C191.086 140.859 188.66 142.376 186.878 143.968ZM191.503 151.134C189.987 154.319 183.276 154.66 184.186 149.959C184.641 147.646 186.537 146.243 188.167 144.765C188.925 144.082 190.745 141.58 191.921 141.997C191.883 143.779 191.769 145.561 191.769 147.381C191.731 148.556 192.034 149.997 191.503 151.134ZM189.57 114.623C190.176 116.026 190.821 117.163 189.646 118.414C189.115 118.983 187.447 120.196 186.688 119.931C184.224 119.059 188.887 115.23 189.57 114.623ZM174.708 102.225C175.314 102.187 175.883 102.263 176.452 102.263C177.02 102.225 177.096 102.111 177.627 102.187C177.703 102.263 177.741 102.339 177.817 102.453C177.892 103.021 178.196 103.059 178.689 102.642C179.409 102.794 179.864 102.908 180.546 103.287C178.726 104.614 176.49 106.13 174.253 106.585C170.689 107.23 171.674 102.377 174.708 102.225ZM120.415 131.874C120.036 132.594 118.974 130.774 118.746 130.433C119.201 130.395 120.794 131.116 120.415 131.874ZM148.888 112.424C151.656 110.832 154.916 109.391 157.874 108.215C158.405 110.718 155.864 113.94 154.31 115.647C153.059 117.049 151.542 118.452 149.798 119.248C147.94 120.12 145.931 119.741 146.007 117.315C146.045 116.443 146.234 115.002 146.613 114.206C147.068 113.182 147.94 112.955 148.888 112.424ZM111.694 66.8513C112.112 66.8134 116.547 66.2447 116.547 66.8134C116.434 68.4816 112.112 67.1925 111.694 66.8513ZM80.2259 99.0024C82.5765 96.1209 86.3679 92.974 86.4438 88.9173C86.5196 82.9648 79.9225 85.922 76.5861 86.1874C78.3302 84.4434 87.202 77.2018 81.9699 74.6237C80.4533 73.8654 78.3302 74.6237 76.8136 75.0028C74.1217 75.6853 71.6573 76.8985 69.0033 77.6947C70.899 75.6853 74.1217 73.4104 74.008 70.3773C73.8942 66.6996 70.8611 67.5717 68.245 68.1404C67.2214 68.3299 62.7475 70.1498 61.9134 68.9366C61.6101 68.4816 62.103 67.9129 62.2167 67.5338C62.4063 66.8513 62.3304 66.5859 62.3684 65.8655C62.3684 64.4248 63.3541 62.567 62.5579 61.24C62.3684 61.5433 62.2167 61.8466 62.103 62.1879C61.8376 61.3917 62.0271 60.5955 61.7617 59.7993C68.2829 61.4675 74.9558 62.3774 81.5149 63.8182C84.8514 64.5385 87.9603 65.7897 91.3347 66.3584C94.7469 66.9271 98.0834 67.7991 101.496 68.3299C104.605 68.8228 107.6 69.619 110.671 70.2636C113.666 70.8702 116.737 69.5432 119.694 68.8607C126.253 67.3442 132.813 65.7897 139.372 64.3111C146.955 62.6049 154.841 61.1642 162.082 58.3206C162.234 62.112 162.537 65.8655 162.992 69.619C159.769 68.1025 155.03 66.1309 151.807 68.8228C150.518 69.9223 150.101 71.7801 150.632 73.3725C151.201 75.1165 152.907 75.9127 154.044 77.2018C150.594 76.3298 141.76 70.1119 140.168 76.4056C139.068 80.8416 144.49 83.6851 147.144 86.1874C144.49 85.6566 140.964 83.5714 139.448 86.9457C138.121 89.8651 139.713 93.0499 141.381 95.4764C142.291 96.8034 143.277 98.0166 144.225 99.2678C144.718 99.9502 145.21 100.633 145.741 101.277C146.272 101.922 147.258 102.604 147.637 103.325C148.395 104.727 146.879 104.841 145.703 105.334C144.225 105.979 142.974 107.04 141.647 107.912C138.576 109.884 135.884 111.704 132.282 112.31C128.566 112.955 124.964 113.637 121.287 114.509C117.609 115.419 114.614 116.253 110.86 115.116C109.154 114.585 107.751 114.13 105.932 114.206C104.036 114.32 102.898 114.206 101.344 113.031C94.4815 107.95 87.1641 103.78 80.2259 99.0024ZM68.0555 93.884C70.6715 92.5949 73.2876 91.2679 75.9795 90.1305C78.2164 89.1827 81.5908 88.1211 84.0173 88.5381C83.3348 90.3201 82.0836 91.7608 80.7187 93.0499C79.5434 94.1873 78.0268 95.9313 76.5861 96.7275C75.2591 97.4479 73.7426 96.3105 72.4535 95.8176C71.0886 95.3247 69.155 95.0593 68.0555 93.884ZM68.7 100.481C69.9891 99.9502 72.7947 101.77 73.97 102.225C76.2828 103.135 78.6335 104.121 80.6808 105.562C78.1785 108.443 75.335 111.097 71.9985 112.955C69.7995 114.168 66.046 115.571 63.9608 113.372C61.3447 110.604 64.4915 104.917 66.3493 102.528C66.4252 102.945 66.4631 103.362 66.5389 103.742C67.1455 102.794 67.6005 100.974 68.7 100.481ZM116.396 125.201C114.766 125.542 114.235 125.239 113.173 123.988C112.453 123.154 111.732 122.282 110.936 121.523C110.102 120.765 108.055 118.907 110.671 119.969C113.059 120.955 115.107 121.447 117.723 121.068C120.718 120.613 123.524 119.362 126.481 118.718C124.851 120.12 123.258 121.561 121.628 123.002C119.884 124.481 118.595 124.746 116.396 125.201ZM116.775 136.613C113.211 139.267 106.083 139.002 108.472 133.125C108.851 132.215 109.344 131.381 109.95 130.623C110.14 130.357 110.481 129.826 110.785 129.675C111.581 129.182 111.353 129.144 112.112 129.94C112.756 130.623 117.837 136.234 116.775 136.613ZM115.713 126.414C116.055 126.3 117.419 125.504 117.723 125.959C118.026 126.376 115.372 127.931 115.713 126.414ZM141.571 167.172C140.775 169.067 134.367 171.835 135.58 168.006C136.111 166.3 136.604 165.011 138.576 164.897C139.751 164.783 142.291 165.504 141.571 167.172ZM153.021 141.276C154.082 139.76 157.533 137.675 159.049 139.949C159.769 141.049 158.025 141.618 156.964 141.314C156.395 141.163 155.94 140.822 155.334 140.784C154.537 140.784 153.779 141.39 153.021 141.276ZM155.826 142.793C155.106 143.513 150.784 147.153 150.101 146.584C151.504 144.575 153.134 142.338 155.826 142.793ZM148.774 179.532C147.258 179.608 148.016 177.371 148.168 176.461C148.547 177.105 150.443 179.456 148.774 179.532ZM152.566 175.475C152.073 174.603 150.784 173.314 151.087 172.214C151.315 171.38 153.362 170.243 154.196 170.698C155.334 171.38 153.703 175.627 152.566 175.475ZM188.129 166.451C187.485 168.65 186.84 168.082 184.831 168.499C182.821 168.916 181.418 170.622 179.636 171.57C180.243 170.281 180.622 168.688 181.684 167.627C181.911 167.399 183.39 166.906 182.556 166.338C181.835 165.845 180.774 167.437 180.47 167.892C178.916 170.053 177.854 172.669 176.982 175.134C176.527 176.347 176.186 177.598 175.997 178.849C175.807 179.987 175.997 181.162 175.807 182.299C175.504 184.081 173.077 184.081 171.637 184.536C170.31 184.953 169.02 185.408 167.618 185.636C166.442 185.825 165.191 185.484 164.054 185.712C162.803 185.977 162.234 186.697 160.831 186.546C159.694 186.394 158.594 185.863 157.419 185.825C156.319 185.788 155.22 186.167 154.158 185.863C153.059 185.56 153.097 185.446 153.362 184.347C153.514 184.65 153.665 184.916 153.817 185.219C154.272 184.878 154.575 183.816 154.841 183.323C155.258 182.565 155.599 182.299 155.447 181.352C155.22 179.949 153.969 178.963 153.665 177.636C153.362 176.233 154.386 175.096 154.992 173.958C155.826 172.366 155.826 171.191 155.106 169.56C155.637 169.712 156.168 169.826 156.698 169.977C155.978 168.423 153.552 169.03 152.3 169.522C151.694 169.75 150.708 170.66 150.063 170.66C149.154 170.622 148.661 169.447 148.281 168.764C147.144 166.868 145.855 164.973 144.528 163.191C144.149 162.698 143.694 162.395 143.808 161.826C143.921 161.371 144.983 160.688 145.324 160.385C146.613 159.286 148.244 158.717 149.457 157.542C151.277 155.798 153.362 154.584 155.258 152.878C157.191 151.096 159.201 149.504 161.21 147.836C163.258 146.129 165.039 144.158 167.049 142.452C167.58 143.4 168.603 146.812 169.779 147.077C171.144 147.381 171.106 145.788 171.03 144.802C170.916 143.438 170.158 142.073 170.082 140.746C170.006 139.343 171.333 138.698 172.357 137.902C173.949 136.651 177.437 133.77 175.542 131.419C173.911 129.371 168.641 133.277 167.201 134.452C165.949 135.438 165.002 136.348 163.637 137.144C162.651 137.713 161.021 139.836 159.845 139.608C158.48 139.381 157.912 137.864 156.243 137.902C154.613 137.94 153.21 139.153 152.187 140.329C149.874 143.021 149.078 146.622 146.992 149.428C145.969 150.831 144.604 151.968 143.466 153.257C142.215 154.698 141.95 156.366 140.737 157.769C137.249 153.106 133.457 148.708 129.779 144.234C127.96 141.997 126.14 139.722 124.358 137.447C123.675 136.613 122.917 135.779 122.31 134.907C121.476 133.694 121.628 132.708 121.287 131.343C121.135 130.736 120.453 130.016 120.642 129.447C120.908 128.651 122.614 128.044 123.258 127.741C125.836 126.452 128.149 124.822 130.538 123.229C134.974 120.272 139.448 117.542 144.149 115.002C144.073 116.102 143.353 117.201 143.846 118.301C144.073 117.694 144.414 114.888 145.248 114.775C145.097 114.813 145.21 118.339 145.362 118.869C145.741 120.386 146.879 121.41 148.471 121.41C151.504 121.372 154.234 118.073 155.94 115.874C157.078 114.395 158.177 112.651 158.594 110.794C158.973 109.125 158.556 107.95 160.3 107.116C163.864 105.372 167.466 103.969 171.257 103.021C171.068 104.652 170.613 106.699 172.091 107.874C173.722 109.163 175.883 108.026 177.437 107.154C178.992 106.282 181.343 103.969 183.162 104.652C184.944 105.334 186.158 107.533 187.181 109.012C188.053 110.301 189.001 111.249 187.977 112.689C186.84 114.32 186.12 115.912 185.172 117.656C184.831 118.339 184.489 118.793 184.717 119.476C184.793 119.703 185.703 121.03 185.968 121.258C187.56 122.471 189.684 120.158 190.821 119.248C191.2 123.078 191.314 126.869 191.466 130.736C191.579 133.542 192.679 136.31 190.366 138.357C188.053 140.404 186.12 142.528 184.717 145.295C183.959 146.774 183.276 148.291 182.48 149.769C181.949 150.755 180.812 152.158 181.494 153.295C182.215 152.613 182.442 151.513 183.087 150.755C183.466 152.385 183.845 154.205 185.551 154.926C187.56 155.722 189.532 154.357 191.314 153.561C190.594 157.921 189.38 162.205 188.129 166.451ZM186.082 171.494C184.717 174.413 183.466 177.939 180.925 180.1C180.357 180.555 178.006 182.413 177.096 182.11C176.338 181.844 176.755 180.29 176.869 179.645C177.551 176.309 178.726 174.186 181.418 172.063C182.556 171.191 183.996 170.053 185.437 169.826C187.068 169.598 186.613 170.357 186.082 171.494ZM224.754 241.028C221.19 236.213 216.185 232.422 211.446 228.82C209.285 227.19 206.934 225.938 204.773 224.308C202.309 222.45 199.807 220.668 197.077 219.266C191.845 216.612 186.158 214.754 181.267 211.607C178.878 210.09 176.224 208.612 173.987 206.868C173.001 206.109 172.129 205.162 171.219 204.29C170.385 203.493 168.603 202.318 168.262 201.143C169.665 200.915 170.423 199.588 171.674 199.437C172.091 199.399 174.632 200.081 174.291 198.83C175.2 198.792 175.314 198.792 176.11 198.602C176.414 198.527 176.831 198.64 177.134 198.527C177.627 198.337 177.968 197.844 178.461 197.655C178.802 197.503 180.129 197.655 180.357 197.503C180.888 197.048 180.319 197.086 179.978 196.479C181.039 196.441 181.76 196.972 182.859 196.403C183.2 196.214 183.466 195.835 183.769 195.607C184.338 195.228 184.527 195.797 184.906 195.039C185.248 196.1 185.248 195.797 186.12 195.494C186.992 195.19 187.598 194.963 188.584 194.887C190.935 194.697 193.285 195.001 195.598 194.811C196.432 194.735 197.191 194.546 198.025 194.659C198.783 194.773 198.555 195.266 199.162 194.584C199.314 194.432 198.859 193.977 199.048 193.749C199.162 193.636 199.465 193.712 199.579 193.674C200.679 193.181 200.679 193.863 200.868 194.735C201.513 194.584 202.157 194.432 202.726 194.091C202.461 193.825 201.968 193.56 202.233 193.105C203.143 193.446 203.75 193.295 203.295 194.318C204.205 194.621 204.394 194.242 205.228 194.129C205.721 194.091 206.404 194.394 206.821 193.977C207.276 193.56 206.555 193.067 207.389 192.726C207.541 192.802 207.693 192.953 207.769 193.105C208.224 193.257 208.148 193.408 207.541 193.636C209.171 194.47 208.792 193.522 209.475 192.536C209.626 192.309 210.347 191.588 210.65 191.93C211.143 192.46 210.157 192.612 210.347 193.143C210.726 194.053 212.015 192.877 212.394 192.422C212.697 192.081 212.811 191.437 213.152 191.171C213.607 190.83 214.252 191.361 214.821 191.285C217.361 190.83 219.787 187.38 217.854 185.105C217.323 184.498 216.906 184.612 216.299 184.233C215.693 183.854 215.351 183.171 214.858 182.641C213.759 181.39 212.356 180.442 210.802 179.835C207.162 178.432 203.257 177.409 199.465 176.65C197.721 176.309 195.826 175.778 194.006 175.778C192.944 175.778 191.352 176.612 190.366 176.195C188.432 175.437 191.276 171.494 191.731 170.205C193.096 166.451 194.157 162.47 194.84 158.565C194.992 157.807 194.916 156.783 195.181 156.063C195.484 155.229 195.56 155.343 196.243 155.267C197.456 155.153 198.821 155.798 200.11 155.57C201.513 155.305 203.067 155.456 204.508 155.001C205.152 154.812 205.759 154.584 206.214 154.016C206.366 153.826 206.214 153.674 206.29 153.561C206.328 153.523 206.821 152.992 206.821 152.954C206.821 152.689 206.821 152.423 206.897 152.158C207.389 152.575 207.162 153.447 207.996 153.447C208.148 152.537 208.148 152.347 208.754 151.817C208.716 151.854 209.209 151.437 209.133 151.475C209.171 151.324 209.209 151.172 209.323 151.02C209.588 150.869 209.892 150.793 210.233 150.793C210.878 150.11 210.612 149.769 210.612 148.859C211.143 149.125 211.674 149.39 212.205 149.693C212.318 147.002 213.949 145.561 215.048 143.362C215.503 142.452 215.996 141.731 216.072 140.594C216.148 139.95 215.958 139.381 216.223 138.774C216.451 138.205 217.02 137.94 217.247 137.333C217.702 136.158 217.361 134.642 217.399 133.428C217.437 131.722 217.588 130.054 217.664 128.348C217.778 125.011 217.437 121.599 216.944 118.301C216.716 116.708 216.299 115.192 215.996 113.637C215.731 112.348 215.124 111.135 214.896 109.96C214.821 109.467 214.934 109.012 214.783 108.481C214.593 107.761 214.252 107.04 214.024 106.358C213.456 104.689 212.887 103.059 212.242 101.429C210.991 98.282 209.551 95.211 208.148 92.1399C206.821 89.1826 205.721 86.1116 203.977 83.306C202.271 80.5762 200.451 77.8843 198.555 75.2682C196.622 72.5384 194.12 70.1877 192.224 67.4579C188.66 62.3016 183.693 58.0173 178.537 54.5292C167.845 47.2877 156.281 40.0461 143.428 37.5438C141.495 37.1646 139.523 36.8992 137.552 36.8613C136.339 36.8234 134.291 37.43 133.154 37.013C131.865 36.558 131.978 35.0794 131.637 33.9419C131.22 32.4633 130.272 31.5154 129.211 30.4538C128.073 29.3543 127.05 28.0653 125.647 27.3449C124.206 26.5866 122.538 26.3212 120.983 26.0937C119.581 25.9042 117.457 26.0937 116.168 25.4492C114.993 24.8805 115.562 24.3118 116.661 24.8047C116.737 24.3118 116.813 24.0085 117.116 23.6293C117.268 23.4398 117.988 23.1744 118.026 22.9848C118.064 22.7952 117.419 22.1886 117.344 21.9232C117.154 21.3545 117.268 20.5583 117.495 20.0275C118.595 21.0133 118.936 21.4303 120.149 20.5204C120.68 20.1412 120.832 19.9517 121.438 19.7621C121.59 19.7242 121.969 19.8758 122.121 19.8C122.652 19.4588 122.159 19.5346 122.424 19.1176C122.348 19.2313 122.803 18.0939 122.803 18.3214C122.841 17.7147 123.031 17.9043 122.69 17.1839C121.969 15.7432 120.149 15.6674 121.097 14.0371C121.476 13.3925 121.78 13.4684 121.893 12.5205C121.931 12.0276 121.893 11.421 121.893 10.9281C121.893 9.86654 122.083 9.14618 121.097 8.61538C120.149 8.08459 119.277 8.6533 118.898 7.40213C118.481 6.07514 118.898 4.3311 117.457 3.42116C116.396 2.73871 114.879 3.30742 113.704 3.00411C112.529 2.66288 111.429 1.48755 110.254 2.39748C109.42 3.04202 108.965 4.67232 107.372 3.8003C106.652 3.42116 106.273 2.09417 105.818 1.33589C105.097 0.160559 104.529 -0.256496 103.391 0.880924C102.709 1.60129 101.268 3.30742 101.154 4.29319C101.041 5.39269 101.988 5.84766 100.813 6.45428C99.6378 7.09882 98.9554 6.60594 98.0075 7.93293C97.0597 9.22201 97.78 9.94237 96.6805 11.1556C95.3156 12.7101 94.5574 13.3546 94.5953 15.4399C94.5953 16.8427 93.3441 18.0939 94.1024 19.4209C94.9365 20.9374 97.3251 21.5441 98.7658 22.1886C98.2729 23.0985 97.6284 23.6672 98.1971 24.5772C98.7279 25.4113 100.169 25.6009 101.041 25.4492C101.647 25.3355 101.647 25.4492 102.14 25.0321C102.443 24.7668 102.026 24.4255 102.671 24.236C103.353 24.0843 104.453 25.4113 104.87 25.7525C103.884 27.0416 101.154 27.2691 99.7137 27.9136C98.8416 28.2928 98.0454 28.8994 97.1355 29.2406C96.3393 29.5818 95.3535 29.506 94.5953 29.9989C93.3441 30.8709 92.8133 32.9941 92.0171 34.2453C91.1451 35.6481 90.2731 36.3305 88.6049 36.6338C86.4817 37.013 84.8135 37.1646 82.8419 38.0746C80.4533 39.212 78.0648 40.3873 75.7141 41.6006C71.9227 43.5342 68.3967 45.5436 64.8328 47.8943C61.1551 50.3587 57.5533 52.9369 53.9894 55.515C50.4634 58.0552 47.5061 61.2021 44.435 64.2731C41.9706 66.7755 39.7716 69.4674 37.3072 71.9318C34.3878 74.8891 32.2646 78.5667 29.5727 81.7136C28.0941 83.4197 26.6913 85.0879 25.7434 87.0974C24.9852 88.7277 23.6961 90.3201 22.8241 92.0262C21.7246 94.2252 20.663 96.3484 19.4118 98.4716C18.881 99.3436 18.2744 100.102 17.7436 100.898C17.0611 101.96 17.099 102.983 16.9095 104.197C16.7199 103.893 16.5303 103.59 16.3408 103.287C15.9995 104.045 15.5446 104.803 15.2413 105.599C15.0517 106.092 15.0896 106.813 14.8621 107.268C14.6346 107.836 14.3313 107.761 14.028 108.215C13.6868 108.708 13.611 109.353 13.2318 109.884C11.7532 112.159 11.1465 115.078 10.3883 117.694C9.36458 121.182 9.51624 125.201 9.59207 128.803C9.6679 132.594 9.85746 136.423 10.4262 140.177C10.957 143.589 12.0565 146.85 13.8005 149.845C15.3171 152.461 17.4024 153.978 20.0563 155.305C21.2696 155.911 22.407 155.722 23.6961 155.835C25.0989 155.949 26.0847 156.328 27.5633 155.987C28.2837 155.835 28.6249 155.305 29.1936 155.115C29.5348 155.001 29.7244 155.191 30.0656 155.153C30.5585 155.077 31.5443 154.85 32.0751 154.926C33.7054 155.115 33.44 157.58 33.5916 158.831C33.857 160.764 34.0087 162.736 34.3499 164.669C35.0324 168.726 36.5489 172.518 37.4589 176.499C33.3262 176.991 29.7623 177.788 25.8572 179.342C21.952 180.935 18.009 181.465 13.9143 182.224C10.085 182.944 6.36938 184.309 3.29835 186.811C1.85761 187.987 0.378967 189.314 1.40265 191.247C2.0851 192.46 3.29834 192.764 4.35993 193.484C4.58742 193.219 3.94288 192.65 3.82914 192.498C4.70116 192.688 4.70116 193.105 5.3457 193.446C5.91441 193.749 6.36938 193.749 6.976 193.977C8.49256 194.508 9.21293 195.873 10.7295 196.252C11.1845 196.366 11.829 196.669 12.284 196.745C12.8527 196.858 13.3076 196.593 13.8764 196.707C14.1797 196.896 14.5209 197.048 14.9 197.162C15.1275 197.048 15.3929 196.934 15.6204 196.821C16.4545 196.896 16.9853 197.427 17.6678 197.882C17.7057 197.351 17.6298 196.783 18.1606 196.403C18.3502 196.934 18.0469 197.275 18.5777 197.655C19.2601 198.11 20.208 197.541 20.8146 197.238C21.0042 199.02 25.0989 198.906 26.388 198.868C28.1699 198.83 29.9898 198.11 31.7718 198.527C32.6817 198.716 33.6675 198.944 34.6153 199.209C35.7148 199.512 37.0797 199.816 38.1413 200.195C38.5584 200.347 39.0892 200.877 39.582 200.839C39.9612 200.801 40.037 200.271 40.492 200.271C40.9849 200.271 41.1365 200.839 41.5536 200.991C42.1981 201.219 42.7668 200.764 43.3355 200.991C43.563 201.067 43.8284 201.446 44.1317 201.56C44.5488 201.749 45.3829 201.749 45.8379 201.825C46.4824 201.939 47.089 201.863 47.6577 201.901C48.1127 201.939 48.1127 202.242 48.3023 202.242C48.5677 202.28 48.9847 201.408 49.3259 201.294C49.8188 201.105 50.6908 201.56 51.1837 201.636C47.5819 206.527 43.2597 210.811 38.5584 214.602C33.4779 218.659 28.2837 222.754 22.862 226.318C17.9331 229.578 13.156 232.346 9.32667 236.934C6.10398 240.801 0.947675 244.933 1.74387 250.507C2.54006 256.08 8.6063 258.355 13.4593 259.454C19.5634 260.781 25.8572 260.251 31.9992 261.009C34.6153 261.312 37.5347 261.161 40.1508 260.895C43.2597 260.554 45.9137 258.545 48.6056 257.066C53.4207 254.412 57.5154 250.886 62.2546 248.156C68.1692 244.744 74.0459 241.142 80.5671 238.867C83.6002 237.806 86.7092 236.592 89.1357 234.393C89.5148 234.052 89.7802 233.559 90.1972 233.294C90.8797 232.839 91.0693 233.294 91.4863 233.18C91.7896 233.066 92.0929 232.725 92.3583 232.649C93.0408 232.384 93.3441 232.498 94.1024 232.498C93.4578 232.118 92.8512 231.133 93.5337 230.337C94.709 228.972 94.8986 231.133 95.3535 231.664C95.7327 231.171 95.581 230.754 95.5052 230.223C95.8085 230.412 96.1497 230.64 96.453 230.829C96.2256 229.768 96.4531 228.82 96.9838 227.91C97.5146 227.076 97.6284 227.19 97.78 226.014C99.3724 227.455 99.6757 223.929 99.8274 222.64C99.979 221.389 99.8274 220.517 100.662 219.417C101.534 218.242 102.898 217.522 103.998 216.612C105.78 215.171 107.714 213.351 110.14 214.754C112.074 215.853 113.097 218.507 114.917 219.872C116.017 220.706 117.154 220.782 117.874 222.071C118.443 223.095 118.633 224.346 119.164 225.446C120.453 228.024 122.31 231.019 124.434 232.99C126.405 234.848 128.945 234.848 131.258 235.986C133.533 237.123 135.922 238.336 138.348 239.17C141.002 240.08 143.846 240.46 146.424 241.559C147.751 242.128 148.926 242.962 150.253 243.493C151.694 244.061 153.21 244.478 154.689 245.009C160.49 247.094 166.139 249.673 172.205 250.848C174.897 251.379 177.399 252.782 180.129 253.047C181.305 253.161 182.252 253.35 183.39 253.616C185.172 254.071 184.793 254.298 185.475 255.815C186.575 258.279 189.191 256.801 191.238 256.876C194.499 256.99 197.721 256.459 200.982 256.421C206.669 256.383 212.167 255.739 217.702 253.881C223.048 251.796 229.342 247.284 224.754 241.028Z" fill="#2A344D"/>
<path fill-rule="evenodd" clip-rule="evenodd" d="M158.821 49.2212C158.897 49.2973 159.088 49.3354 158.821 49.2212V49.2212Z" fill="#2A344D"/>
<path fill-rule="evenodd" clip-rule="evenodd" d="M58.3882 153.75C59.6393 152.499 64.9094 152.764 65.2885 155.001C65.7435 157.504 61.0422 161.295 59.2981 162.357C57.0991 163.722 54.3693 163.987 54.7484 160.537C55.0517 157.959 56.6062 155.57 58.3882 153.75ZM62.7104 151.172C62.862 151.855 61.6867 151.627 61.3455 151.475C61.2317 151.172 62.5587 150.49 62.7104 151.172ZM53.6489 155.798C54.7105 155.873 55.8859 154.205 56.6821 153.636C57.0233 154.167 54.7105 157.162 54.483 157.845C53.8385 159.551 53.4973 161.674 54.3693 163.38C56.9095 168.347 63.3928 161.257 64.9852 158.793C66.1226 157.049 66.9188 154.926 65.2885 153.219C64.7198 152.613 63.772 152.461 63.2412 151.892C62.5587 151.134 63.0895 150.148 61.6867 150.338C60.7388 150.452 59.5635 151.324 58.6157 151.627C57.4782 152.006 56.4546 152.385 55.4688 153.106C55.2792 153.257 52.3219 155.646 53.6489 155.798Z" fill="#2A344D"/>
<path fill-rule="evenodd" clip-rule="evenodd" d="M127.922 157.428C127.278 160.84 123.903 164.328 120.339 164.442C116.813 164.594 115.676 160.878 116.282 157.921C116.813 155.418 118.974 151.02 122.083 151.513C124.548 151.93 128.491 154.546 127.922 157.428ZM125.685 151.741C123.448 149.997 120.339 149.201 117.761 150.565C116.927 151.02 113.515 152.992 114.538 154.357C115.941 153.295 117.117 151.779 118.936 151.437C118.633 152.84 116.889 154.091 116.282 155.456C115.562 157.049 115.183 158.869 115.297 160.651C115.524 163.76 117.609 166.186 120.832 165.769C123.789 165.39 126.405 163.115 127.808 160.537C129.704 157.163 128.642 154.054 125.685 151.741Z" fill="#2A344D"/>
<path fill-rule="evenodd" clip-rule="evenodd" d="M104.908 165.162C103.316 167.513 100.89 169.75 98.0839 170.47C94.4442 171.418 95.4679 168.423 96.5674 166.262C97.5152 164.366 99.1834 161.068 101.686 161.105C102.52 161.105 104.112 161.523 104.871 161.978C106.311 162.85 105.743 163.911 104.908 165.162ZM101.496 159.968C102.065 159.324 104.605 156.594 104.946 158.717C105.667 157.883 105.098 157.162 104.15 157.087C103.013 156.973 101.8 158.224 101.003 158.869C99.3351 160.158 98.046 161.447 96.9465 163.267C95.7333 165.238 92.6243 169.712 95.3541 171.683C98.3114 173.807 102.558 169.902 104.416 167.854C105.591 166.565 107.145 164.669 106.69 162.774C106.122 160.423 103.43 160.196 101.496 159.968Z" fill="#2A344D"/>
<path fill-rule="evenodd" clip-rule="evenodd" d="M88.9465 121.94C87.3162 123.836 83.9419 126.566 81.2121 126.224C78.7098 125.921 79.6955 123.116 80.5676 121.751C81.8945 119.703 83.6765 117.77 86.2926 117.656C87.3921 117.618 88.8707 117.618 89.7048 118.49C90.8802 119.665 89.8186 120.954 88.9465 121.94ZM88.7949 116.746C86.8613 116.064 86.103 115.836 84.2452 116.898C82.7287 117.732 81.4017 118.945 80.378 120.31C78.8235 122.357 77.269 126.945 81.25 127.514C85.5722 128.12 95.9227 119.21 88.7949 116.746Z" fill="#2A344D"/>
<path fill-rule="evenodd" clip-rule="evenodd" d="M94.7098 128.461C93.4586 129.75 91.9041 130.774 90.1222 131.153C90.8804 129.485 92.5487 125.807 94.5581 125.277C95.468 125.049 96.5296 125.352 96.4538 126.414C96.378 127.134 95.2026 127.969 94.7098 128.461ZM96.3021 124.025C95.2785 123.495 95.5818 123.153 94.3685 123.57C93.4207 123.874 92.2074 124.442 91.4112 125.087C90.9942 125.428 89.6293 126.679 89.8189 127.324C90.1222 128.461 91.1079 126.717 91.3733 126.376C91.8283 126.755 89.5155 130.054 89.3639 130.585C88.8331 132.594 90.4255 132.821 92.0179 132.177C94.179 131.229 100.397 126.035 96.3021 124.025Z" fill="#2A344D"/>
<path fill-rule="evenodd" clip-rule="evenodd" d="M127.126 178.508C127.277 177.181 127.505 175.74 128.718 174.982C129.817 174.3 130.993 174.413 131.144 175.778C131.296 177.067 130.045 179.38 129.021 180.063C127.58 181.086 127.315 179.873 127.126 178.508ZM128.945 181.541C131.865 179.835 133.723 171.949 128.339 174.148C125.268 175.437 126.405 183.058 128.945 181.541Z" fill="#2A344D"/>
<path fill-rule="evenodd" clip-rule="evenodd" d="M103.922 148.935C104.377 147.987 104.908 147.684 105.856 147.267C105.212 147.836 104.567 148.366 103.922 148.935ZM104.605 146.585C103.922 147.267 102.406 148.253 102.633 149.428C102.823 150.49 103.619 150.414 104.34 150.073C105.856 149.39 106.69 146.395 108.283 146.13C106.539 144.992 106.121 145.068 104.605 146.585Z" fill="#2A344D"/>
<path fill-rule="evenodd" clip-rule="evenodd" d="M104.832 87.2489C104.908 90.4337 104.984 93.6185 105.059 96.8032C105.097 97.9027 104.832 99.533 105.135 100.595C105.287 101.05 106.614 103.097 107.107 103.249C108.775 103.704 108.168 99.533 108.206 98.5094C108.244 95.0592 108.206 91.5711 108.168 88.1209C108.168 86.339 108.661 71.3629 106.348 71.4388C105.931 71.4388 104.984 73.1449 104.832 73.524C104.377 74.5856 104.529 76.2159 104.566 77.3533C104.566 80.614 104.718 83.9504 104.832 87.2489Z" fill="#2A344D"/>
<path fill-rule="evenodd" clip-rule="evenodd" d="M118.86 96.538C118.974 97.41 118.936 98.8886 119.922 99.3436C120.794 99.7228 121.097 99.2678 121.438 98.5474C122.197 96.8413 121.893 94.2631 121.893 92.5191C121.856 89.031 121.476 85.5808 121.211 82.1307C121.097 80.6141 121.325 79.0975 121.135 77.5052C121.059 76.8227 120.983 74.0171 119.694 74.1308C118.519 74.2445 118.633 77.2018 118.557 77.9601C117.988 84.2159 117.912 90.2443 118.86 96.538Z" fill="#2A344D"/>
<path fill-rule="evenodd" clip-rule="evenodd" d="M174.026 168.954C173.533 171.494 165.457 180.29 163.41 175.361C162.197 172.442 164.813 169.257 166.86 167.551C168.111 166.489 169.704 165.466 171.41 165.807C172.888 166.072 174.329 167.323 174.026 168.954ZM169.855 164.404C169.287 164.556 164.509 167.892 164.471 167.854C164.054 167.437 167.05 162.963 167.391 162.546C169.931 159.324 171.637 161.75 173.23 164.29C172.888 162.774 171.941 160.575 170.386 159.93C168.415 159.134 166.86 161.106 165.912 162.546C164.585 164.594 163.827 166.793 163.069 169.067C162.727 170.167 162.31 171.153 161.704 172.139C161.097 173.124 160.073 174.186 160.225 175.399C161.059 174.944 161.514 173.996 162.045 173.238C162.652 173.465 162.424 175.361 162.538 175.854C162.841 177.067 163.675 178.015 164.964 178.205C167.353 178.584 169.931 176.385 171.523 174.906C173.192 173.314 175.012 171.153 175.012 168.726C175.012 166.262 172.509 163.797 169.855 164.404Z" fill="#2A344D"/>
<path fill-rule="evenodd" clip-rule="evenodd" d="M176.301 123.722C174.936 125.807 172.585 128.272 170.045 128.765C168.187 129.106 166.974 127.741 167.732 125.921C168.377 124.367 170.5 123.381 171.903 122.699C173.003 122.13 178.197 120.841 176.301 123.722ZM175.315 120.31C172.548 120.196 170.311 122.206 168.225 123.798C168.68 121.978 169.742 119.969 171.221 118.755C173.23 117.125 175.164 118.149 177.287 118.945C176.756 117.277 174.405 116.708 172.889 116.936C170.993 117.239 169.628 118.869 168.68 120.424C167.543 122.281 167.126 124.518 165.799 126.262C165.192 127.059 161.363 130.054 162.235 131.305C163.676 129.788 165.079 128.272 166.519 126.755C166.898 128.537 167.315 130.585 169.59 130.395C171.41 130.243 173.495 128.689 174.822 127.514C176.566 126.035 179.979 120.5 175.315 120.31Z" fill="#2A344D"/>
<path fill-rule="evenodd" clip-rule="evenodd" d="M136.491 138.016C135.316 138.547 132.738 139.305 132.093 137.675C131.183 135.438 134.103 131.457 135.505 129.978C136.378 129.068 136.946 128.575 138.159 129.182C139.107 129.675 140.51 131.002 140.889 132.063C141.648 134.262 138.349 137.144 136.491 138.016ZM139.183 127.172C140.131 127.4 140.245 128.613 139.069 128.12C138.159 127.817 137.97 126.907 139.183 127.172ZM140.396 128.879C140.055 127.779 140.776 126.073 138.994 125.997C138.008 125.959 136.188 126.983 135.316 127.362C134.103 127.931 132.965 128.803 132.359 130.016C131.79 131.153 132.207 131.457 133.079 130.509C133.193 130.585 131.07 136.044 131.032 136.613C130.956 139.115 132.738 140.746 135.202 140.329C137.477 139.912 139.562 138.054 140.813 136.158C141.458 135.21 141.989 134.111 142.027 132.935C142.103 131.191 140.889 130.471 140.396 128.879Z" fill="#2A344D"/>
<path fill-rule="evenodd" clip-rule="evenodd" d="M151.353 127.969C150.405 126.111 152.642 123.002 154.613 123.912C158.784 125.808 152.604 130.395 151.353 127.969ZM155.106 125.542C154.651 125.542 151.845 126.642 152.262 127.4C152.831 128.424 154.879 125.959 155.106 125.542Z" fill="#2A344D"/>
<path fill-rule="evenodd" clip-rule="evenodd" d="M18.3887 122.13C18.2749 121.334 16.493 122.471 16.5309 123.002C16.8342 122.395 18.6541 123.76 18.3887 122.13Z" fill="#2A344D"/>
<path fill-rule="evenodd" clip-rule="evenodd" d="M115.41 62.3016C117.685 62.1499 114.804 50.7378 113.136 51.7615C111.354 52.861 113.325 62.4532 115.41 62.3016Z" fill="#2A344D"/>
<path fill-rule="evenodd" clip-rule="evenodd" d="M119.619 56.9937C121.743 57.297 121.401 52.444 120.264 51.572C118.179 49.9796 117.079 56.6146 119.619 56.9937Z" fill="#2A344D"/>
</g>
<defs>
<clipPath id="clip0_2593_801">
<rect width="225.361" height="261" fill="white" transform="translate(0.986328)"/>
</clipPath>
</defs>
</svg>
