<svg width="724" height="592" viewBox="0 0 724 592" fill="none" xmlns="http://www.w3.org/2000/svg">
<g clip-path="url(#clip0_2648_2448)">
<path fill-rule="evenodd" clip-rule="evenodd" d="M180.913 329.84C184.995 362.268 189.164 394.696 193.246 427.124L196.546 453.267C196.981 456.547 196.546 463.105 198.197 466.02C198.805 467.022 200.281 467.569 201.323 468.206C205.058 470.301 208.879 472.488 212.614 474.583C244.402 492.527 276.277 510.381 308.065 528.326C338.637 545.542 369.122 562.667 399.694 579.883C402.82 581.705 407.945 586.26 411.332 585.076C414.546 583.891 417.846 581.068 420.799 579.246C426.444 575.784 432.09 572.323 437.735 568.861C471.955 547.819 506.088 526.869 540.308 505.827C554.378 497.173 568.535 488.519 582.605 479.775C586.426 477.406 590.334 475.038 594.156 472.67C596.154 471.394 596.414 471.486 597.196 469.39C600.149 461.557 601.538 452.539 603.623 444.341C605.968 435.323 608.226 426.305 610.571 417.378C611.613 413.37 611.092 412.823 609.442 408.997C606.142 401.346 602.754 393.603 599.454 385.951C592.071 368.917 584.689 351.884 577.22 334.85C574.267 327.927 567.058 323.099 561.847 318.089L481.248 239.387C479.164 237.383 477.166 235.379 475.082 233.375C474.734 245.399 472.476 258.333 475.776 269.902C481.248 288.94 486.633 307.978 492.105 327.016C494.71 336.216 497.403 345.416 500.008 354.616C500.529 356.347 503.482 363.088 502.701 364.636C502.266 365.456 498.532 366.276 497.663 366.64C494.189 368.007 490.628 369.464 487.154 370.83C477.427 374.747 467.612 378.573 457.885 382.49C449.113 385.951 440.341 389.504 431.569 392.965C428.616 394.15 425.142 396.336 421.928 396.154C419.149 395.971 415.935 394.514 413.243 393.785C408.466 392.51 403.689 391.235 398.912 389.868C389.532 387.318 380.152 384.767 370.772 382.217C360.176 379.393 351.317 371.013 342.285 364.818C326.738 354.161 311.191 343.503 295.732 332.846C292.171 330.386 292.171 329.02 290.781 324.556C287.568 314.536 284.441 304.516 281.227 294.496C279.49 289.122 277.406 283.748 276.19 278.282C274.106 269.264 272.803 259.882 271.153 250.773C270.631 248.04 270.11 245.216 269.676 242.484C263.162 245.216 256.648 248.04 250.134 250.773C249.179 251.137 244.576 252.413 244.228 253.323C243.968 253.961 245.357 256.785 245.531 257.331C250.916 274.092 256.301 290.853 261.686 307.613C263.423 312.897 265.073 318.18 266.81 323.463C262.728 316.814 258.733 310.073 254.651 303.423C251.437 314.627 248.31 325.923 245.097 337.127C237.541 328.018 230.071 318.909 222.515 309.8C219.91 318.909 217.304 328.018 214.699 337.127C206.621 325.923 198.457 314.627 190.38 303.423C189.425 309.253 188.469 315.174 187.514 321.004C187.253 322.735 187.253 327.836 186.124 329.293C185.256 330.386 182.563 329.84 180.913 329.84Z" fill="#9B89B3"/>
<path fill-rule="evenodd" clip-rule="evenodd" d="M694.122 399.888C693.688 415.191 693.949 434.958 686.045 448.348C684.742 450.534 680.4 457.275 679.879 451.354C679.444 445.524 680.747 439.786 679.444 433.865C678.75 430.677 676.318 423.845 672.149 426.669C670.064 428.126 669.456 431.679 668.675 433.956C667.459 437.326 666.069 440.606 664.766 443.885C660.25 455.453 655.56 469.299 645.572 476.951C646.875 466.931 650.436 456.273 648.091 446.162C647.309 442.701 644.79 436.415 640.535 438.419C636.366 440.423 633.673 449.168 631.676 453.085C625.683 464.927 619.603 476.586 612.916 487.973C609.528 493.711 605.881 498.995 601.451 503.822C598.672 506.92 595.198 512.112 590.855 512.567C590.855 503.822 593.634 495.351 596.066 487.153C598.759 478.317 601.19 469.39 603.883 460.463C606.141 452.721 608.052 445.16 609.615 437.235C610.223 433.956 610.744 430.586 613.437 428.49C615.782 426.578 619.603 425.667 622.209 424.3C629.157 420.657 636.366 416.649 642.88 412.185C645.572 410.363 647.83 407.904 650.609 406.264C653.823 404.351 656.776 402.712 659.729 400.435C672.409 390.415 683.874 378.026 691.517 363.361C692.733 369.282 694.383 375.02 694.643 381.123C694.643 387.409 694.296 393.694 694.122 399.888ZM589.726 470.028C587.728 466.475 584.602 467.933 581.909 469.663C577.654 472.396 573.485 475.038 569.229 477.679C560.544 483.054 552.119 488.792 543.694 494.531C526.498 506.191 508.693 515.755 490.628 525.593C473.083 535.158 456.321 546.544 439.906 558.021C435.998 560.754 432.002 563.578 428.268 566.584C424.881 569.226 422.188 572.96 418.714 575.329C415.066 577.788 412.461 575.784 408.987 573.962C404.557 571.685 399.954 569.772 395.438 567.768C377.285 559.479 359.047 550.916 341.329 541.534C323.785 532.243 307.109 521.494 290.26 510.745C282.269 505.644 274.366 500.27 266.462 494.987C258.037 489.339 249.352 485.149 240.493 480.412C236.585 478.317 233.111 475.402 229.116 473.489C224.86 471.485 220.43 470.028 216.696 467.113C214.959 465.838 213.569 464.289 211.658 463.287C210.095 462.558 208.271 462.376 206.708 461.556C203.494 459.917 202.626 456.637 202.018 453.176C198.023 431.041 195.938 408.268 193.593 385.769C192.29 373.198 190.814 360.628 189.077 348.057C188.295 342.41 189.858 338.038 190.727 332.481C191.682 326.014 192.117 319.546 192.811 313.079C195.938 319.182 198.717 325.649 202.713 331.206C205.666 335.305 210.703 341.135 216.175 341.043C224.599 340.861 224.252 325.649 224.599 319.637C228.421 323.281 229.637 329.111 232.85 333.301C235.803 337.127 239.712 341.863 244.228 343.594C253.695 347.238 252.739 328.837 252.218 323.645C251.958 321.004 250.568 316.904 253.869 318.089C256.908 319.182 259.948 323.736 262.554 325.831C266.983 329.475 271.934 332.39 276.45 335.851C282.095 340.133 288.262 343.23 294.081 347.147C297.729 349.606 301.637 350.153 305.632 352.065C311.452 354.707 316.489 358.715 322.047 361.994C332.991 368.371 345.063 374.018 356.962 377.935C360.784 379.21 365.995 382.672 368.861 379.119C370.685 376.933 371.814 373.563 373.377 371.012C375.288 367.915 377.372 364.818 379.544 361.812C387.1 351.155 395.524 341.135 404.905 332.117C415.761 321.641 427.66 312.259 440.427 304.425C445.899 301.055 468.741 286.025 473.778 296.591C469.696 296.318 466.048 297.867 462.574 299.871C461.706 300.326 457.276 303.696 458.319 300.781C457.016 301.055 455.887 302.785 454.931 303.605C453.281 304.972 450.676 306.52 448.765 307.613C446.854 308.706 444.422 308.98 442.685 310.346C442.077 310.801 441.643 311.621 441.035 312.168H439.298C439.037 313.17 438.777 314.172 438.516 315.265C437.561 311.895 436.084 316.267 434.434 317.724C433.479 318.544 431.829 319.455 430.7 320.002C429.831 320.366 429.657 319.455 428.876 320.184C428.094 320.821 427.66 322.279 426.791 323.008C425.749 324.01 424.533 324.738 423.404 325.558C421.233 327.198 418.975 328.473 416.89 329.93C413.937 332.026 412.461 335.487 409.595 337.673C408.292 338.675 406.207 338.766 405.426 339.495C403.602 341.135 404.21 343.594 400.822 343.685C401.17 344.232 401.344 344.778 401.344 345.325C400.562 345.143 399.78 344.869 399.172 344.232C399.346 347.784 395.959 349.059 393.961 351.246C392.832 352.521 391.356 354.252 390.574 355.8C390.4 356.073 390.14 358.077 390.14 358.077C389.792 358.26 387.968 356.529 388.142 356.62C387.621 359.899 384.581 362.996 383.278 366.002C382.583 367.642 381.889 370.193 380.499 371.286C380.152 371.559 378.936 371.286 378.067 372.288C377.372 373.107 376.591 374.474 376.243 375.567C376.07 376.296 376.243 378.026 375.983 378.482C375.462 379.21 374.68 378.482 373.898 379.028C372.422 380.03 372.422 381.67 370.337 381.852C371.814 385.587 380.586 386.68 383.713 387.773C392.745 390.779 402.125 393.694 410.55 398.248C412.721 399.433 414.806 400.435 415.153 403.076C415.674 406.811 413.85 411.821 413.503 415.647C412.548 425.94 412.374 436.506 412.548 446.891C412.721 456.638 413.069 466.566 413.503 476.313C413.937 485.422 415.674 494.258 416.63 503.276C416.89 505.735 416.716 516.848 420.798 516.302C424.186 515.846 422.014 508.195 422.014 506.009C421.841 501.181 422.883 496.262 422.796 491.343C422.796 488.975 423.751 486.971 423.838 484.785C423.925 482.598 422.883 480.777 423.23 478.499C423.491 476.313 429.744 463.651 423.751 465.109C424.099 463.287 424.446 461.465 424.881 459.643C425.488 460.281 426.01 460.919 426.444 461.739C426.965 457.822 426.791 453.996 427.139 450.079C427.312 448.348 428.007 446.344 427.747 444.614C427.833 443.885 427.66 443.156 427.486 442.427C427.139 442.063 426.704 441.79 426.096 441.79C425.836 440.788 425.749 440.514 426.27 439.604C426.444 438.966 426.878 438.51 427.573 438.419C428.789 438.237 428.963 437.508 428.007 436.233C428.528 433.592 428.528 431.952 428.181 429.401C427.92 427.215 428.963 423.025 427.833 421.021C426.531 418.744 425.836 420.93 425.662 417.833C425.575 417.195 425.575 415.738 425.836 415.1C426.096 414.371 426.965 414.645 427.052 414.371C427.747 412.641 427.833 409.179 425.228 409.453C425.315 408.177 425.402 406.902 425.575 405.718C427.486 407.995 426.791 406.082 427.833 404.807C429.223 403.076 430.7 402.803 432.697 402.165C438.169 400.343 443.38 397.702 448.678 395.516C459.969 390.87 471.433 386.771 482.377 381.397C505.393 369.919 527.974 357.531 551.077 346.327C549.427 343.139 550.469 342.956 551.685 339.95C553.335 341.135 552.988 340.315 554.117 340.224C554.03 339.222 554.29 338.948 554.985 339.313C555.506 339.495 556.114 339.586 556.722 339.495C558.199 339.768 559.328 340.588 560.631 340.861C561.065 341.226 561.499 341.408 562.02 341.59C562.454 341.499 562.889 341.226 563.236 340.861C565.321 341.317 566.015 342.956 566.189 345.325C566.189 345.78 564.973 346.145 565.321 346.782C565.929 347.784 567.579 347.511 568.534 347.693C568.36 348.695 568.1 349.697 567.926 350.79C572.095 348.786 570.966 355.071 572.269 357.075C572.616 357.622 573.398 357.167 573.832 357.895C574.353 358.806 574.179 359.99 574.614 360.901C575.656 362.814 576.611 362.632 577.654 364.818C582.952 376.478 589.987 387.409 595.111 399.341C597.543 404.989 599.714 410.819 602.233 416.467C604.578 421.659 605.881 426.031 604.23 431.77C600.409 444.887 596.24 458.277 591.203 471.03C590.247 470.848 589.987 470.483 589.726 470.028ZM321.092 568.224C320.745 568.861 320.397 569.499 320.05 570.136C319.181 565.309 321.353 567.586 321.092 568.224ZM304.069 559.114C302.94 558.75 303.374 556.746 303.461 555.926C304.156 556.928 304.938 557.839 305.546 558.932C305.024 559.023 304.59 559.114 304.069 559.114ZM257.516 540.532C258.732 539.803 259.601 539.348 260.99 538.528C259.601 541.352 259.601 541.352 257.516 540.532ZM184.3 288.302C182.476 293.039 188.121 322.643 182.823 323.554C182.042 321.004 181.955 313.807 178.828 312.988C174.92 311.895 175.354 319.273 174.833 321.55C166.843 315.72 163.282 304.516 159.547 295.589C154.596 284.203 150.775 272.361 147.127 260.61C144 250.499 141.395 240.206 138.268 230.095C136.271 223.719 134.186 217.434 132.797 210.875C132.536 209.418 131.407 205.865 132.362 204.499C133.752 202.495 138.789 204.772 140.44 205.318C151.036 208.689 161.979 210.055 172.835 212.059C184.908 214.245 196.98 216.432 209.14 218.071C212.179 218.527 215.219 218.891 218.259 219.255C220.257 219.529 223.21 219.255 225.12 220.166C228.942 222.079 229.724 229.184 231.113 232.919C236.324 246.856 242.578 260.246 248.049 274.001C253 286.389 256.821 299.597 263.943 310.892C258.645 308.433 251.871 295.316 245.878 302.877C243.273 306.156 243.967 310.437 244.141 314.354C244.402 320.002 244.488 325.649 244.488 331.297C238.669 329.748 234.761 322.734 231.634 317.815C227.465 311.075 224.773 304.789 222.949 297.047C222.167 293.676 219.996 293.585 218.085 291.581C216.869 290.306 216.262 288.575 214.524 290.397C212.353 292.765 213.83 299.233 214.177 302.057C215.046 308.615 217.999 318.817 215.132 325.012C211.224 333.392 200.889 312.35 199.673 309.253C199.325 307.704 188.295 278.1 184.3 288.302ZM177.091 144.834C177.786 144.925 178.394 145.016 179.089 145.108C178.568 145.563 177.439 147.294 176.57 146.838C176.657 146.292 176.831 145.563 177.091 144.834ZM211.658 137.092C211.485 137.365 211.224 137.547 211.05 137.82C210.095 136.636 210.442 134.814 210.442 133.357C211.658 134.177 212.006 135.725 211.658 137.092ZM214.438 150.755V154.763C211.832 153.579 211.832 152.941 214.438 150.755ZM217.564 155.856C215.74 155.31 215.567 154.945 215.827 151.939C216.609 153.579 217.043 154.672 217.564 155.856ZM228.073 185.552C227.292 187.647 222.862 182.728 223.036 181.271C223.21 179.904 223.904 179.449 224.86 180.36C225.207 180.633 224.686 181.726 224.947 182.09C225.555 183.457 227.031 184.55 228.073 185.552ZM228.073 197.94C226.944 200.855 224.947 196.301 227.9 196.118C228.073 196.665 228.16 197.303 228.073 197.94ZM225.902 193.295C225.468 192.657 225.034 192.11 224.686 191.473C226.163 191.746 227.379 194.114 228.942 192.566C228.768 194.934 227.205 194.934 225.902 193.295ZM128.888 155.401C126.456 152.668 142.177 150.664 144.087 150.209C157.897 146.747 170.838 141.737 183.779 135.634C189.945 132.719 196.025 129.804 202.018 126.525C204.623 125.159 208.184 123.975 210.356 121.879C211.919 120.422 211.832 119.238 213.83 118.327C215.567 117.598 215.654 118.327 216.435 116.961C216.869 116.141 217.477 113.135 217.13 112.224C216.348 109.764 215.306 111.768 213.743 110.129C212.614 108.945 212.874 105.483 213.222 104.117C213.656 104.754 213.83 105.483 213.917 106.303C215.567 105.392 214.959 102.477 216.783 101.931C218.693 101.384 218.52 103.024 219.041 104.663C220.517 102.386 219.301 100.473 218.52 98.287C222.515 97.4672 226.857 96.7385 230.853 98.1048C233.719 99.1068 236.238 101.657 239.277 102.113C242.23 102.568 242.838 101.111 245.01 99.5623C246.833 98.3781 248.31 99.7444 249.265 98.8335C248.657 101.931 243.794 101.566 244.402 105.392C244.662 107.123 246.747 108.762 247.702 110.129C248.918 111.859 249.786 113.772 250.568 115.685C253.695 123.246 254.998 131.899 256.3 140.007C259.514 159.864 259.948 180.086 262.988 200.035C264.465 209.509 265.854 218.982 266.636 228.638C266.809 231.006 268.199 236.471 267.07 238.749C266.115 240.662 263.943 240.662 262.033 241.208C258.385 242.119 254.911 243.394 251.35 244.761C248.136 246.036 247.268 246.765 245.183 243.668C243.186 240.662 242.23 237.018 240.841 233.739C239.017 229.549 236.845 225.449 234.761 221.35C238.843 221.35 241.188 219.073 241.101 214.701C241.014 209.873 237.193 208.689 235.63 204.772C234.153 206.867 233.979 206.867 232.937 204.954C231.721 202.677 230.853 198.578 230.071 196.027C230.592 196.665 231.113 197.211 231.721 197.849C233.111 195.845 230.94 192.748 230.245 190.926C229.116 188.102 228.942 185.005 227.9 182.09C227.292 180.542 225.989 179.267 225.642 177.718C225.468 176.625 226.25 175.623 226.076 174.53C225.728 172.617 223.644 170.522 223.036 168.609C222.081 165.603 220.952 162.961 219.736 160.046C218.085 156.038 218.433 151.939 218.172 147.658C217.825 143.286 216.522 139.096 216.088 134.723C215.74 131.717 216.783 127.891 214.611 125.523C214.351 129.531 215.48 129.44 211.832 130.169C207.75 130.989 204.797 134.177 200.889 135.179C200.107 135.361 199.499 131.717 199.846 136.727C198.023 135.27 194.027 137.092 195.504 137.911C194.375 139.187 192.203 138.276 191.769 140.189C187.948 136.272 181.868 149.48 177.352 142.648C176.57 147.294 173.357 150.118 169.014 150.664C166.843 150.937 165.54 151.757 163.542 152.395C163.108 152.577 163.021 153.124 162.5 153.306C161.805 153.579 160.763 152.85 160.242 152.941C159.2 153.215 158.071 154.672 156.594 154.945C154.944 155.31 153.12 155.128 151.47 154.945C149.385 154.672 148.43 154.399 146.432 155.128C144.608 155.765 142.611 157.587 140.961 155.583C138.442 160.138 132.015 158.953 128.888 155.401ZM252.479 96.8295C250.481 96.5563 251.871 94.7345 252.826 94.1879C255.345 92.7305 254.737 97.1028 252.479 96.8295ZM140.44 114.228C152.338 96.283 172.662 83.8947 190.466 73.5104C200.194 67.8627 210.182 62.3062 220.43 57.6606C225.555 55.3833 230.679 53.106 235.89 51.1021C238.669 50.009 241.449 49.007 244.315 48.0961C245.096 47.8228 246.486 47.003 247.355 47.0941C247.181 47.0941 249.352 47.7317 248.918 47.9139C250.308 47.2762 251.002 45.6366 252.653 44.9079C254.476 44.1792 256.822 43.8148 258.819 43.8148C260.556 43.7237 262.119 44.5435 263.77 44.5435C264.899 44.5435 265.767 43.997 266.896 43.997C267.417 43.997 267.417 44.8168 267.765 44.9079C267.939 44.9079 269.328 44.3614 269.415 44.3614C269.936 44.7257 270.457 46.0921 270.892 46.6386C272.281 48.1872 274.279 49.2802 276.103 50.1001C278.361 51.1021 283.833 52.1041 281.227 55.8388C283.051 55.5655 283.833 57.2962 281.574 57.6606C280.358 57.9339 279.837 56.7497 278.969 55.9299C276.884 54.108 271.847 51.4664 268.807 51.5575C267.157 51.6486 265.767 53.015 264.204 53.4704C262.641 53.9259 261.946 53.1971 260.556 53.2882C258.993 53.4704 257.951 54.8368 256.474 55.11C255.084 55.3833 254.303 54.3813 253 54.3813C251.524 54.4724 250.047 55.8388 248.657 56.2942C246.399 57.0229 244.749 57.4784 242.491 58.7537C238.235 61.122 233.371 61.9418 228.942 63.9458C225.381 65.5855 221.386 66.4053 218.085 68.136C214.438 70.14 210.79 72.0529 207.229 74.2391C204.623 75.7876 199.412 76.3342 196.546 75.9698C196.546 81.4352 193.941 77.6094 191.335 79.9778C191.943 80.5243 192.638 80.9798 193.419 81.2531C190.64 82.4372 188.035 83.8947 185.255 85.261C182.476 86.6274 179.436 86.9918 177.612 89.6334C175.875 92.0928 176.483 90.8176 173.964 91.7285C172.835 92.1839 171.793 93.5503 170.925 94.4612C169.448 96.0097 169.188 98.3781 168.319 95.1899C168.059 95.5543 167.103 98.0137 166.929 98.1048C165.887 96.9206 165.714 98.287 165.192 98.8335C165.54 99.9266 165.106 100.564 163.89 100.929C163.282 101.384 162.674 101.84 162.066 102.295C159.894 103.935 157.028 105.301 155.552 107.669C154.423 106.941 153.988 105.756 154.683 104.481C152.512 106.576 149.906 108.762 149.298 112.042C149.038 111.768 148.691 111.586 148.343 111.404C147.475 112.042 148.604 113.863 149.212 114.319C151.643 113.317 148.604 113.681 150.254 113.863C150.688 113.955 151.209 114.319 151.73 114.319C153.294 114.319 154.683 114.228 156.16 114.046C159.46 113.499 162.761 112.497 165.974 111.495C169.448 110.402 173.009 109.309 176.396 107.943C179.176 106.85 181.955 105.574 184.734 104.39C185.863 103.935 186.992 103.388 188.035 102.933C190.119 102.022 191.248 100.473 190.988 103.115C192.638 102.842 194.114 100.291 195.417 99.289C197.241 97.8315 199.238 96.8295 201.41 96.1008C202.278 95.8275 202.886 95.4632 203.842 95.4632C204.276 95.4632 204.536 96.7385 204.797 96.7385C206.708 96.283 205.839 95.0988 206.708 93.5503C208.619 89.9977 213.743 88.0848 216.869 86.0808C218.867 84.8056 220.257 83.0749 222.081 81.7085C222.949 81.0709 223.557 80.7976 224.426 80.5243C225.12 80.3421 225.989 81.9818 226.423 80.3421C224.86 79.6134 223.47 78.7936 221.994 78.3382C220.865 77.9738 222.254 76.7896 220.517 77.5183C219.822 77.7916 219.562 79.2491 219.301 79.7956C217.391 77.9738 211.919 79.8867 209.661 80.6154C209.487 80.7065 208.792 80.2511 208.445 80.3421C207.142 80.4332 206.187 82.3461 205.318 83.0749C202.973 85.17 200.454 86.0809 197.675 87.3561C198.457 82.9838 204.015 81.2531 207.229 79.5223C212.006 77.0629 216.435 73.9658 221.646 72.6905C225.12 71.7796 229.724 71.142 231.2 75.3322C232.069 77.8827 232.242 84.168 229.202 85.3521C228.855 84.168 229.897 83.166 230.245 82.164C227.205 83.3481 226.684 87.1739 224.426 89.1779C223.123 90.271 222.689 90.6354 222.081 91.7285C221.473 92.8216 221.125 93.8236 219.736 94.9166C217.391 89.6334 217.738 96.8295 216.522 97.7405C217.043 97.3761 214.524 98.4692 214.872 98.287C214.785 98.287 213.656 96.5563 212.961 96.5563C211.745 96.6474 211.919 98.1048 211.311 98.8335C209.226 101.293 206.621 102.933 203.321 102.568C203.234 104.299 203.755 106.394 201.497 106.576L201.236 102.659C200.02 104.026 198.37 105.21 197.328 106.758C196.199 108.489 196.286 109.582 194.375 110.766C192.377 111.951 188.121 114.41 185.776 114.592C186.384 113.681 186.298 112.953 185.429 112.224C184.213 113.499 182.476 113.681 181.173 114.774C185.603 116.687 177.786 116.596 176.744 116.869C176.049 117.052 175.528 117.689 174.833 117.78C173.964 117.963 173.791 116.961 173.096 117.325C171.967 117.78 172.401 119.056 171.272 119.693C170.404 120.149 169.014 120.149 168.059 120.604C165.8 121.697 160.937 123.975 159.373 121.151C158.592 125.979 150.601 123.064 147.735 122.699C143.74 121.879 136.705 119.875 140.44 114.228ZM157.376 64.4013C157.984 63.8547 158.505 63.9458 159.113 64.4924C158.331 60.12 164.498 57.9339 167.19 56.112C170.751 53.6526 174.92 48.8248 179.61 49.1892C178.828 49.8268 178.047 50.4644 177.265 51.011C178.394 51.1931 179.523 51.2842 180.652 51.4664C180.044 52.4684 179.349 53.4704 178.741 54.3813C177.699 48.3693 172.227 55.9299 170.664 57.114C169.101 58.2071 167.451 59.0269 166.061 60.3933C164.671 61.7597 163.369 64.2191 161.11 62.9438C160.763 66.4964 158.157 65.5855 156.333 67.4984C156.247 66.2231 156.941 65.4033 157.376 64.4013ZM181.607 47.1852C187.253 44.999 192.117 40.8999 197.415 37.985C202.452 35.1612 207.663 32.7018 212.787 30.0601C215.393 28.6938 220.17 25.3234 223.21 27.0541C227.205 29.4225 221.733 30.1512 220.257 30.971C219.736 27.3274 217.825 30.6067 218.954 32.6107C215.914 31.2443 209.14 36.7097 206.187 38.1672C205.492 38.5316 205.839 38.7137 205.058 39.0781C204.884 39.1692 202.973 39.6246 202.365 39.8068C199.586 40.8088 197.762 39.989 196.633 43.5415C196.372 42.7217 196.112 41.9019 195.851 41.0821C194.114 45.1812 188.903 46.9119 185.516 49.3713C184.647 50.009 182.215 52.3773 181.086 51.9219C179.61 51.2842 180.218 47.7317 181.607 47.1852ZM283.138 59.4824C285.483 59.6646 283.225 60.8488 283.919 61.5775C283.833 61.4864 285.309 62.8527 285.135 62.4884C285.396 62.9438 286.004 62.9438 286.351 63.9458C287.48 67.4073 282.53 71.0509 280.88 72.9638C277.666 76.7896 275.755 81.6174 272.455 85.3521C270.978 86.9918 269.415 88.1759 267.331 88.8136C265.854 89.269 264.291 88.8136 262.988 90.271C261.859 91.4552 262.119 92.1839 260.904 92.8216C258.819 93.9146 257.864 93.0037 255.779 95.3721C254.042 90.271 259.08 90.3621 261.772 87.5383C265.42 83.6214 269.502 79.7045 272.889 75.5143C275.929 71.7796 277.145 68.5915 278.621 64.0369C279.056 62.5795 279.577 59.5735 280.88 58.6626C282.877 57.2962 281.748 59.3913 283.138 59.4824ZM294.863 190.926C301.116 183.639 308.846 177.08 317.184 172.617C320.224 171.068 324.479 168.973 327.519 171.433C330.559 173.801 329.951 178.538 328.648 181.817C327.432 181.362 328.561 176.807 327.953 175.714C326.651 173.255 323.785 174.53 321.787 175.35C319.529 176.352 317.444 177.354 315.62 179.084C314.926 179.813 313.449 180.451 313.015 180.906C312.32 180.633 311.886 180.815 311.799 181.544C311.973 181.999 311.886 182.455 311.712 182.91C311.625 183.092 310.67 182.455 310.583 182.546C309.975 183.092 309.454 183.73 308.846 184.185C307.63 185.187 306.675 185.643 305.546 187.1C303.461 189.833 300.682 191.382 298.597 193.932C298.163 194.479 297.555 196.027 297.468 196.118C296.426 197.394 294.863 198.487 293.647 199.853C291.562 202.221 289.391 203.861 286.959 205.865C285.917 206.776 284.701 207.687 284.006 208.962C283.659 209.509 283.485 212.606 283.485 212.606C281.14 215.338 281.574 209.873 281.748 209.235C283.746 201.857 290.26 196.301 294.863 190.926ZM282.009 240.479C282.269 241.664 282.53 242.575 282.877 243.759C280.966 242.119 280.966 242.119 282.009 240.479ZM280.011 244.214C279.316 244.943 278.621 245.672 277.927 246.4C276.45 244.67 280.272 243.941 280.011 244.214ZM279.056 215.156C278.361 218.253 275.668 221.988 273.845 224.447C274.018 224.174 272.281 224.721 272.107 224.812C271.413 225.176 273.063 227.818 270.718 226.634C269.936 227.089 271.5 229.093 270.37 229.913C267.244 222.352 275.842 215.794 279.143 210.237C280.793 211.786 279.49 213.426 279.056 215.156ZM258.559 255.965C260.904 256.602 262.033 256.238 263.596 253.779C264.551 252.321 264.899 249.862 266.983 251.957L267.331 249.224C270.37 250.499 270.11 255.236 271.5 257.878C272.107 254.872 273.671 246.583 278.361 247.949C283.659 249.406 274.887 258.971 274.018 261.339C272.194 258.424 272.889 261.157 271.586 261.521C270.37 261.886 268.547 260.975 267.157 261.066C262.814 261.339 258.993 263.343 254.998 265.074C253.955 262.25 253 259.426 251.958 256.511C254.303 256.694 259.167 250.135 259.774 254.963C258.037 254.69 257.516 254.69 256.735 256.42C257.343 256.147 257.951 255.965 258.559 255.965ZM268.286 293.039C268.286 293.039 272.802 293.312 273.15 293.13C276.19 291.946 275.06 288.302 275.755 285.66C277.058 286.845 276.363 289.122 276.711 290.67C277.145 292.492 278.535 294.132 278.621 296.136C278.882 300.599 275.408 299.597 272.715 301.055C270.457 302.33 270.197 303.879 268.286 300.508C267.765 299.597 266.636 297.229 266.723 296.045C266.896 295.043 268.633 294.041 268.286 293.039ZM271.934 312.441L270.718 310.984C274.452 312.168 272.281 310.346 273.063 307.978C275.929 309.982 278.274 311.986 280.445 308.069L284.354 324.556C281.748 325.194 278.361 321.004 276.537 319.546C275.495 318.726 269.762 315.447 273.237 314.536C272.802 313.807 272.368 313.17 271.934 312.441ZM297.295 260.793C295.123 262.979 292.952 264.163 290.607 265.803C288.523 267.26 289.217 268.991 287.48 270.63C286.264 271.724 283.485 272.817 282.009 273.728C279.403 275.185 277.058 275.549 274.366 273.819C275.06 280.013 271.065 280.468 266.028 281.744C263.596 282.29 262.206 283.201 260.469 280.924C259.253 279.375 258.819 276.46 260.296 275.094C262.641 272.817 268.894 273.636 271.847 272.179C274.105 271.086 276.45 264.983 279.229 267.169C277.753 264.71 279.49 264.072 280.706 262.341C282.095 260.428 282.964 258.242 284.354 256.329C287.046 252.777 291.215 249.224 295.036 247.038C298.424 245.125 300.161 246.491 300.682 250.499C300.942 252.503 300.942 255.509 299.9 257.24C299.553 257.787 298.424 257.787 298.076 258.333C297.642 259.244 298.163 259.882 297.295 260.793ZM337.073 212.879C339.765 215.065 339.505 219.711 339.939 222.808C340.547 227.271 340.113 231.553 340.026 236.016C339.939 240.753 337.768 243.85 336.726 248.222C335.596 253.141 334.12 255.783 331.514 259.882C334.294 260.337 330.125 269.173 329.43 270.266C328.648 271.541 322.655 277.189 325.261 277.189C323.871 279.193 322.308 281.197 320.832 283.11C320.31 283.839 319.268 284.203 318.834 284.658C317.965 285.751 317.879 286.753 317.271 287.938C316.315 289.851 315.968 289.304 314.665 290.761C313.797 291.763 313.189 293.039 312.32 293.95C309.541 296.956 309.193 294.496 307.543 292.219C307.283 292.857 306.848 293.221 306.24 293.403C305.719 290.853 309.107 288.211 310.583 286.662C312.928 284.112 315.012 281.197 317.097 278.464C321.526 272.452 325.435 265.985 328.561 259.153C331.862 251.866 334.554 243.941 335.944 235.925C336.986 229.822 338.028 219.438 330.212 217.889C324.566 216.796 318.313 220.348 313.71 223.263C310.844 224.994 308.064 226.816 305.285 228.82C302.332 231.006 299.813 234.012 296.6 235.743C298.337 234.832 292.605 237.656 293.473 236.836C293.039 237.2 293.386 238.384 293.126 238.84C292.778 239.477 291.562 240.206 290.954 240.571C289.478 241.755 287.133 242.939 286.525 244.761C277.232 237.838 295.644 225.541 300.421 222.444C309.975 216.249 326.216 204.134 337.073 212.879ZM362 145.563C361.913 140.553 365.821 133.812 368.427 129.713C369.729 127.709 371.727 127.8 372.509 125.432C372.943 124.066 372.335 122.699 372.509 121.333C372.682 119.511 373.464 118.054 374.333 116.414C382.236 102.113 391.877 89.5423 402.125 77.0629C407.163 70.9598 411.94 64.5835 417.411 58.7537C419.669 56.3853 425.836 47.7317 429.31 48.5515C431.134 49.007 432.263 52.013 433.045 53.4704C434.434 55.9299 435.911 58.2982 437.648 60.5755C442.077 66.6786 447.202 71.9618 453.281 76.2431C457.016 78.9758 460.837 81.5263 464.572 84.3501C467.612 86.6274 472.215 89.3601 474.386 92.5483C476.558 95.8275 473.344 98.5603 471.607 101.293C468.915 105.483 466.396 109.855 463.703 114.046C462.661 113.226 462.922 111.586 462.14 110.493C461.445 109.582 460.577 109.218 459.621 108.58C457.884 107.487 456.147 106.121 454.584 107.943C451.805 111.131 455.626 118.691 459.708 117.871C460.229 121.06 452.065 126.252 449.981 127.983C443.727 133.357 437.3 138.003 429.049 138.458C425.749 138.64 422.188 138.367 419.061 137.183C417.498 136.636 415.848 135.816 414.719 134.632C413.329 133.175 412.982 130.989 411.592 129.531C410.376 128.256 408.813 128.074 407.597 126.798C406.381 125.523 405.86 123.519 405.339 121.879C404.383 118.691 404.21 115.321 403.341 112.133C402.82 110.22 402.386 107.578 400.562 109.491C398.043 112.224 399.259 120.695 399.954 123.883C400.909 128.529 403.081 132.173 405.339 136.181C407.857 140.462 408.726 144.47 409.16 149.48C410.029 158.771 412.548 167.698 416.543 176.078C418.193 179.631 420.19 182.91 422.014 186.372C422.883 188.011 424.707 193.477 427.052 193.477C430.7 193.386 425.488 182.273 424.794 180.36C420.798 169.975 416.977 159.044 416.108 147.749C421.841 149.298 428.094 150.755 434.087 149.753C430.265 158.771 434.261 167.698 433.739 176.989C433.479 181.635 433.305 185.916 433.392 190.562C433.479 194.661 431.742 198.669 430.178 202.404C427.139 209.691 423.404 218.709 417.845 224.265C413.155 228.911 406.902 229.275 400.822 228.182C386.926 225.723 377.893 214.519 372.074 201.857C368.34 193.75 365.474 185.005 363.737 176.169C361.652 166.241 362.173 155.947 362 145.563ZM379.978 76.5163C367.037 66.6786 385.797 55.5655 395.438 57.114C397.696 57.4784 401.778 58.4804 401.604 61.4864C401.43 64.0369 397.435 66.7696 395.872 68.3182C391.529 72.6905 387.1 81.8907 379.978 76.5163ZM474.126 294.587C473.691 294.132 470.044 295.225 471.52 292.948C472.736 291.126 476.036 293.403 477.252 293.859C476.21 294.587 475.342 295.68 474.126 294.587ZM420.277 413.278C419.148 413.461 418.019 410.272 422.014 412.641C421.406 412.823 420.798 413.096 420.277 413.278ZM420.104 464.562C420.277 465.929 420.625 466.931 419.669 467.933C418.888 466.84 418.801 465.382 420.104 464.562ZM421.754 485.695C421.667 486.424 421.493 487.244 421.406 487.973C420.451 487.517 419.583 486.971 418.627 486.515C419.669 486.242 420.712 485.969 421.754 485.695ZM422.883 467.842C424.273 468.388 423.578 466.657 424.62 466.384C424.967 468.206 424.533 469.755 423.578 471.212C423.491 470.939 422.97 467.842 422.883 467.842ZM458.145 340.041C456.234 339.768 455.887 341.954 454.497 342.774C453.542 343.321 450.762 342.865 450.241 343.958C450.936 344.141 451.631 344.414 452.326 344.596C450.762 345.507 449.112 346.418 447.549 347.329C451.37 347.329 455.366 345.416 459.187 345.962C460.837 346.236 461.966 346.782 463.009 348.149C463.617 348.968 464.138 350.335 464.225 351.337C464.311 352.43 463.53 353.25 463.617 353.705C465.354 353.796 465.093 356.711 464.746 357.895C463.877 360.537 460.577 364.636 457.624 362.905C458.84 364.727 458.579 365.82 456.668 366.913C456.842 366.276 456.929 365.183 455.974 365.365C455.713 366.367 455.8 368.006 455.018 368.826C454.15 369.737 453.281 368.644 452.5 369.282C451.457 369.919 451.805 371.012 451.023 371.741C449.981 372.743 449.807 372.014 448.591 372.197C446.68 372.47 447.896 371.194 446.333 372.834C445.812 373.381 445.899 374.838 445.03 375.658C443.38 377.206 438.951 378.846 437.387 376.842C433.566 383.127 422.188 384.676 416.89 379.666C408.465 371.741 424.186 355.527 429.397 350.335C434.608 345.143 440.427 340.77 446.333 336.398C449.633 333.938 453.108 331.752 456.582 329.566C458.753 328.2 461.445 325.74 464.138 326.014C466.483 326.196 468.567 328.2 471.086 328.564C472.91 328.837 476.384 329.293 474.126 331.843C473.083 333.027 468.828 335.032 467.438 335.305C466.57 335.487 465.701 335.123 464.919 335.305C463.53 335.578 462.574 336.853 461.011 336.671C461.445 339.222 460.49 340.406 458.145 340.041ZM483.245 251.501C483.245 253.323 480.032 252.868 479.337 252.23C478.208 251.228 478.208 248.04 477.774 246.674C479.597 247.22 483.158 249.042 483.245 251.501ZM457.016 189.924C463.877 184.003 470.999 178.629 478.555 173.892C481.248 172.161 485.069 168.791 488.456 169.155C489.846 169.338 492.799 171.068 491.757 172.89C491.583 173.255 490.02 173.346 489.499 173.619C488.977 173.892 488.543 174.712 488.022 175.076C484.461 177.809 480.205 179.449 476.644 182.273C473.691 184.55 470.999 187.1 467.872 189.104C464.833 191.017 461.706 192.201 458.84 194.297C458.927 194.297 455.105 195.663 455.887 195.936C452.586 194.843 456.06 190.744 457.016 189.924ZM502.526 187.738C506.608 186.007 510.517 184.003 514.773 182.819C516.857 182.273 519.028 181.817 521.286 182.09C521.634 181.362 522.155 181.271 522.763 181.635C523.284 182.455 523.892 183.001 524.674 183.457C525.89 184.459 530.319 185.734 529.451 187.829C528.843 189.287 524.413 189.378 523.197 189.651C519.463 190.653 516.075 192.748 512.254 193.295C511.906 193.386 510.691 192.93 510.691 192.93C509.214 193.295 507.998 194.843 506.695 195.663C503.916 197.303 500.008 197.576 498.01 200.491C504.35 205.045 509.909 200.491 515.554 197.12C518.941 195.025 522.502 193.568 526.237 192.293C528.148 191.564 530.059 190.926 532.056 190.289C532.838 190.015 533.706 189.742 534.575 189.651C535.357 189.469 535.965 189.742 536.312 190.562C538.657 190.471 538.831 188.922 540.307 191.837C542.305 195.936 539.265 195.663 536.399 196.209C532.404 196.938 528.408 198.487 524.413 199.489C523.545 199.762 515.554 201.675 515.554 201.766C515.207 204.408 537.962 201.948 539.873 201.584C543.347 200.855 546.995 198.942 550.556 199.398C553.335 199.762 559.501 203.952 555.159 206.776C554.29 202.495 551.337 206.047 549.774 207.505C547.69 209.418 544.737 209.235 541.957 210.055C538.136 211.057 528.235 214.974 525.455 210.055C526.324 214.428 510.604 212.241 508.432 212.059C506.348 211.877 503.569 212.424 501.571 211.786C500.268 211.33 499.487 210.511 498.271 210.237C497.923 210.602 497.576 210.784 497.142 210.966C496.534 210.602 495.926 210.237 495.405 209.691C491.236 207.687 484.635 206.503 486.98 200.035C489.325 193.75 497.142 190.015 502.526 187.738ZM542.044 191.473C542.131 191.108 542.218 190.744 542.392 190.289C542.392 191.473 545.084 191.928 544.737 193.477C544.042 196.847 541.002 191.837 540.741 191.291C541.089 191.382 541.523 191.473 542.044 191.473ZM558.199 197.029C558.546 198.396 562.02 201.31 561.152 201.948C559.762 200.035 555.941 200.946 558.199 197.029ZM498.792 322.006C500.095 319.364 504.003 323.918 503.569 319.273C505.653 319.455 504.35 321.186 506.869 320.457C507.824 320.184 508.432 319.091 509.648 318.817C509.996 318.726 511.298 318.817 511.733 318.817C513.296 318.726 519.289 318.635 515.12 316.449C517.465 314.809 517.726 315.629 519.81 317.087C519.289 314.081 522.329 315.811 523.805 316.176C522.763 314.445 525.282 312.623 526.15 311.439C525.89 313.261 525.977 315.265 528.495 314.081C529.103 313.807 529.016 312.532 529.451 312.35C530.319 311.986 530.84 312.623 531.188 312.623C531.535 312.623 532.143 312.805 532.838 312.532C533.706 312.168 533.272 310.984 534.401 310.801C535.096 310.71 535.617 311.803 536.486 311.803C536.92 311.803 537.702 311.348 538.049 311.348C538.136 311.348 538.57 310.255 539.091 310.255C539.873 310.255 540.133 312.35 540.481 312.805C541.784 314.809 543.607 316.085 545.692 317.178C541.957 320.73 534.488 320.366 529.798 321.55C527.279 322.188 525.108 323.19 522.763 324.374C522.242 324.738 521.721 325.194 521.286 325.74C520.939 325.467 520.592 325.285 520.331 325.012C519.028 325.103 517.899 324.465 516.423 324.647C511.993 325.467 508.519 328.928 504.09 329.657C502.092 330.022 500.442 330.477 499.139 328.655C497.75 327.198 497.923 323.736 498.792 322.006ZM492.712 300.599C493.754 301.51 492.538 304.334 494.449 304.061C495.839 303.879 495.578 301.601 496.62 301.146C498.01 300.508 498.879 301.966 500.268 301.875C502.787 301.601 502.613 299.324 500.529 298.322C502.7 297.684 503.395 300.417 505.306 300.417C507.824 300.417 507.216 297.229 509.388 296.682C510.343 296.5 509.996 297.867 510.604 298.049C511.82 298.413 512.688 297.775 513.73 297.229C514.686 296.773 515.381 295.771 516.423 295.498C516.944 295.316 518.16 295.589 518.507 295.316C519.202 294.769 519.81 292.674 520.505 292.401C520.331 292.492 522.676 293.676 522.937 293.767C522.763 294.678 522.242 294.769 521.547 294.041C521.547 296.045 526.845 296.682 525.803 294.223C528.669 295.498 526.498 296.136 526.237 297.867C526.15 298.595 525.716 298.504 525.89 299.324C525.977 299.688 527.453 299.415 527.453 299.871C527.366 302.877 518.247 303.787 516.51 304.061C512.949 304.607 509.561 305.518 506.087 306.702C503.482 307.522 499.139 309.982 496.36 309.799C492.452 309.617 491.93 304.243 492.712 300.599ZM483.94 269.993C482.985 266.622 486.025 259.791 490.02 260.61C490.975 260.793 491.236 261.704 492.017 262.068C493.06 262.614 494.797 262.341 495.752 262.888C497.836 264.072 496.794 267.26 498.879 268.353C495.578 269.173 485.417 275.276 483.94 269.993ZM487.762 282.928C489.151 282.108 491.496 282.017 492.452 280.468C492.973 280.833 493.841 282.928 494.71 282.563C495.144 282.381 495.491 281.288 495.491 281.288C496.273 281.288 496.447 280.195 497.576 280.286C498.618 280.377 499.834 281.743 500.789 282.29C500.616 278.92 501.484 278.646 504.003 276.825C504.611 276.46 505.045 274.912 505.566 274.365C505.045 277.918 506.348 277.918 509.04 278.464C512.428 279.102 514.512 281.015 515.815 284.385C512.949 283.839 509.214 284.476 508.085 287.755C505.827 283.383 497.489 289.395 494.797 290.67C492.799 291.581 490.454 292.857 488.804 290.67C487.588 289.122 488.283 287.391 488.37 286.025C488.37 285.569 488.804 285.569 488.717 284.932C488.717 284.203 487.675 283.839 487.762 282.928ZM518.333 351.883C517.552 352.157 513.643 352.339 513.643 350.972C513.643 349.788 520.505 350.972 518.333 351.883ZM511.993 347.511C509.04 349.424 505.74 342.683 504.698 340.77C507.824 341.226 509.301 338.493 511.125 336.398C512.862 340.406 515.467 338.311 518.247 336.944C521.547 335.396 525.108 335.396 528.408 334.121C529.451 333.756 530.406 333.119 531.448 332.663C532.23 332.299 533.098 332.026 533.88 331.661C534.488 331.115 534.662 330.477 534.488 329.657C534.227 329.02 534.401 328.564 535.009 328.382C535.791 328.655 536.573 328.746 537.354 328.837C538.657 328.564 540.481 327.289 538.917 325.922C540.568 324.374 542.218 325.922 543.868 326.651C543.521 325.467 543.086 324.374 542.739 323.19C543.521 323.554 545.866 327.016 546.126 327.016C547.69 326.924 547.516 324.738 548.384 323.918C548.906 324.556 549.079 329.475 550.99 327.835C551.859 327.107 550.035 324.738 549.513 324.192C551.772 324.738 553.769 327.562 554.377 329.839C553.335 330.022 552.293 329.748 551.337 329.111C550.729 332.208 556.201 330.932 557.07 332.572C558.807 335.76 547.603 337.946 546.126 338.22C543.173 338.766 539.786 339.04 537.094 340.406C534.488 341.681 533.88 342.045 530.927 342.319C527.54 342.592 524.153 343.776 520.852 344.687C518.073 345.325 514.512 345.871 511.993 347.511ZM574.614 234.65C577.306 233.648 586.426 228.364 588.771 230.642C588.51 230.368 590.421 234.559 590.421 234.285C590.595 236.471 590.508 237.291 587.989 238.384C586.165 239.113 584.602 237.565 582.952 238.202C581.128 238.931 582.43 240.115 581.475 240.935C580.433 241.846 578.522 242.301 577.219 242.666C574.093 243.668 571.053 244.487 567.926 245.581C561.673 247.767 555.072 249.771 548.645 251.319C543.868 252.503 535.704 255.327 531.275 251.957C530.84 253.87 529.798 253.597 528.322 253.87C527.192 254.052 525.108 254.69 524.066 254.69C522.329 254.781 517.639 254.234 518.333 251.775C518.16 252.503 521.981 250.135 521.373 249.953C523.024 250.317 522.502 249.406 523.805 248.951C525.542 248.313 527.366 248.313 529.19 247.676C533.706 246.036 537.441 243.85 542.218 242.757C553.074 240.479 564.105 238.567 574.614 234.65ZM138.876 492.983C138.008 492.983 137.313 490.341 140.005 492.254C139.571 492.436 139.224 492.709 138.876 492.983ZM117.684 489.521C116.468 489.886 116.034 489.157 116.295 487.426C117.945 486.788 118.379 487.426 117.684 489.521ZM101.356 486.06C101.009 484.511 102.138 484.147 103.093 483.509C103.006 485.513 103.006 485.513 101.356 486.06ZM60.2749 473.398C58.6248 473.034 56.4535 471.303 56.0192 474.127C55.7586 473.489 54.369 470.392 54.977 469.663C55.3244 469.299 56.4534 471.03 56.3666 470.848C57.8431 467.751 60.2749 471.485 61.7514 472.578C61.1435 472.852 60.7092 473.125 60.2749 473.398ZM490.888 133.539C491.496 132.264 492.104 131.899 492.886 132.355C491.67 135.27 487.588 136.909 490.888 133.539ZM519.549 105.665C520.592 107.669 519.028 108.489 517.899 110.22C518.594 108.398 519.028 107.214 519.549 105.665ZM644.009 301.783C647.656 301.783 655.56 299.779 657.731 304.152C659.208 301.146 660.858 306.793 662.161 307.704C662.335 307.795 663.203 307.067 663.637 307.34C664.245 307.704 664.853 308.888 665.201 309.526C666.33 311.53 666.764 313.898 667.372 316.085C660.945 316.085 654.344 314.536 647.917 313.898C643.661 313.534 639.579 313.534 635.323 313.716C634.455 313.807 632.805 313.443 632.11 313.625C631.415 313.807 630.025 315.356 629.244 315.083C630.46 317.542 646.527 323.463 647.743 320.73C646.267 319.819 643.053 319.091 643.053 316.904C643.053 314.445 646.093 314.445 647.656 314.536C651.131 314.718 657.036 315.902 658.426 319.728C659.034 321.368 659.208 325.467 658.513 327.016C658.079 328.018 657.384 329.293 656.168 329.475C655.647 329.566 655.039 328.928 654.952 328.928C652.52 329.475 648.091 331.479 645.485 328.655C643.574 331.206 634.542 328.382 631.763 327.471C626.899 325.74 620.211 323.463 617.258 318.726C613.697 312.896 620.993 308.069 625.162 305.7C631.068 302.512 637.668 301.783 644.009 301.783ZM668.588 315.174C669.717 315.538 670.846 315.811 671.975 316.176C671.628 318.271 667.198 316.631 668.588 315.174ZM702.721 390.688C703.068 382.399 700.81 375.02 699.42 367.004C699.073 365 699.42 361.539 697.944 359.899C696.554 358.351 693.514 359.626 693.341 356.802C691.951 358.442 692.125 358.806 690.475 356.893C690.822 357.713 690.822 358.533 690.648 359.444C689.606 358.806 685.871 356.711 686.132 359.626C683.005 358.897 683.961 356.893 682.137 355.345C681.876 355.163 680.834 355.891 680.487 355.618C679.792 354.98 679.444 354.434 678.836 353.705C678.055 354.707 677.013 355.345 676.144 356.165C675.623 354.889 674.581 353.978 673.278 353.705C674.494 356.347 677.36 359.626 673.365 361.175C670.933 362.085 667.024 360.992 664.506 361.175C655.126 361.903 644.79 359.808 635.671 357.44C626.291 354.98 616.911 351.61 608.486 346.6C606.662 345.507 605.533 344.323 604.057 342.956C602.58 341.681 601.451 341.499 599.627 340.679C596.414 339.222 593.374 336.853 590.942 334.212C585.644 328.564 580.693 321.095 582.17 312.805C583.646 304.516 589.031 298.049 594.85 292.674C601.712 286.207 609.441 280.833 617.606 276.551C621.253 274.638 630.633 267.351 634.281 271.632C636.626 274.365 635.323 277.827 632.11 278.464C631.328 278.646 630.547 278.1 629.765 278.464C628.636 279.011 629.07 279.648 628.549 280.104C627.767 280.924 626.899 282.108 625.683 282.837C621.427 285.205 617.345 287.118 613.263 290.033C611.352 291.399 609.615 291.946 607.965 293.13C606.315 294.314 605.967 296.227 603.709 295.043C604.491 298.413 599.801 302.057 597.89 304.061C595.024 307.249 591.55 311.348 592.94 316.085C595.545 325.376 607.357 332.39 615 336.489C624.467 341.59 634.889 345.598 645.398 347.329C650.609 348.149 656.081 348.695 661.292 349.242C665.374 349.697 671.715 348.149 674.667 352.065C674.754 347.511 688.216 347.966 691.083 347.329C685.35 326.742 674.06 308.433 661.987 291.308C656.081 282.928 650.262 274.274 643.488 266.531C636.105 258.06 627.68 250.591 619.603 242.848C603.883 227.636 586.078 214.063 568.013 202.13C549.948 190.197 531.274 178.447 511.472 169.975C488.891 160.229 465.093 153.852 441.296 148.387C444.509 144.106 449.807 141.919 453.889 138.822C455.366 137.729 457.276 135.088 459.187 134.723C461.185 134.359 462.835 136.636 464.311 137.82C468.48 141.1 471.346 139.733 476.123 139.551C478.989 139.46 485.764 141.1 486.893 137.092C488.456 139.369 486.198 141.1 484.982 142.739C485.851 144.014 486.546 142.648 487.414 142.466C487.675 142.193 487.935 142.01 488.196 141.737C488.63 141.1 488.977 141.1 489.325 141.737C489.846 142.557 490.367 142.375 490.888 141.191C491.062 141.1 491.149 141.008 491.323 140.917C491.93 140.553 492.538 140.007 493.146 139.642C497.489 136.363 501.31 133.63 506.087 131.262C510.083 129.258 507.911 125.432 510.604 122.699C511.212 122.062 512.254 122.426 512.862 121.879C513.47 121.333 513.557 120.786 514.078 120.24C515.207 118.965 513.904 117.416 516.683 118.965L515.641 112.953C521.113 118.509 521.113 102.477 521.894 100.018C521.808 100.291 522.416 97.9226 522.416 97.9226C522.589 93.0948 523.197 89.5423 517.812 89.269C519.897 87.9027 520.505 90.5443 521.46 87.8116C521.894 86.4452 520.418 84.0769 522.85 84.9878C523.371 82.0729 522.85 79.7045 522.242 76.8807C521.634 73.9658 521.981 72.0529 521.981 69.138C521.981 65.8587 520.592 62.5795 520.071 59.3002C519.723 56.7497 520.071 52.8328 516.944 53.7437C516.51 53.015 518.073 50.8288 517.986 49.7357C517.899 48.005 516.162 46.2743 515.641 44.7257C514.946 45.5455 513.904 45.8188 512.862 45.4544C513.817 43.2683 512.949 42.5395 511.993 40.6266C511.472 39.5335 511.82 38.3494 510.691 37.5296C510.083 37.0741 508.953 37.8028 508.519 37.3474C507.477 36.2543 507.824 34.7057 507.13 33.2483C506.174 31.4265 504.09 29.969 502.7 28.5116C494.536 20.0402 485.764 13.9371 475.081 10.9311C464.225 7.83401 451.631 6.74092 440.774 10.2935C436.432 11.7509 432.61 11.5687 428.702 14.2104C427.399 15.1213 427.312 14.848 426.704 16.3054C426.531 16.6698 427.92 17.5807 427.052 18.1273C426.183 18.7649 425.141 17.4896 424.707 16.4876C419.061 20.7689 413.85 26.4165 410.637 32.975C407.423 39.4425 407.163 47.0941 405.947 54.108C400.388 47.3673 392.745 44.1792 384.494 47.3673C377.286 50.1912 371.727 56.3853 370.337 64.4013C369.469 69.3202 370.424 74.2391 372.509 78.6114C373.464 80.5243 374.506 82.6194 376.243 83.8947C377.546 84.8967 379.891 84.8056 380.499 86.6274C381.454 89.4512 375.896 95.4632 374.506 97.9226C371.901 102.386 369.469 106.941 367.645 111.768C361.044 102.022 354.704 91.273 347.235 82.2551C340.113 73.7836 331.688 66.132 323.437 58.9359C306.24 43.997 288.349 29.969 269.155 18.0362C251.263 6.92311 229.637 0.820034 208.792 3.00621C188.382 5.10129 172.749 18.6738 159.634 34.2503C134.273 64.3102 118.813 107.032 117.337 146.929C116.903 158.953 117.771 170.795 120.55 182.364C121.853 187.92 121.679 193.386 122.461 198.942C123.33 205.227 124.893 211.604 126.369 217.798C132.015 241.39 139.137 264.983 147.214 287.847C151.383 299.688 156.42 311.348 163.282 321.823C166.408 326.651 170.49 330.477 173.964 335.031C177.265 339.495 178.133 344.96 178.828 350.426C180.565 363.543 181.694 376.66 182.737 389.868C183.171 395.425 183.692 400.981 184.387 406.538C184.995 411.365 183.431 411.092 179.61 412.823C180.392 408.451 161.892 411.457 160.068 411.73C158.157 412.094 156.16 412.094 154.683 412.276C153.033 412.55 151.383 413.005 149.472 412.914C146.606 412.823 141.308 412.094 140.266 415.829C139.484 411.457 134.62 416.284 138.268 415.465C134.534 415.92 130.712 415.191 126.891 415.556C122.548 416.011 118.205 416.375 113.863 417.104C110.823 417.56 107.957 418.835 105.004 419.108C101.182 419.564 97.1003 419.473 93.2788 419.837C78.9482 421.203 64.0964 424.483 50.2001 428.217C47.0734 429.037 43.4256 429.675 40.3858 431.041C39.6041 431.405 38.8224 432.225 38.0408 432.498C36.738 433.045 36.9117 432.681 35.7826 432.863C28.9213 434.32 21.7994 436.689 14.8512 438.51C11.0297 439.512 4.77639 440.423 1.64971 443.247C0.26007 444.522 -0.955862 446.709 1.3023 448.166C3.12619 449.259 5.6449 447.528 7.12139 446.526C5.81861 450.079 3.38675 451.81 4.68953 455.818C5.73176 459.006 8.07677 462.923 11.6377 460.828C12.1588 462.012 12.3325 464.38 13.7222 464.745C15.0249 465.109 15.8935 463.469 17.1963 463.834C17.6305 464.016 17.4568 464.836 17.8911 465.109C18.5859 465.473 19.2807 465.655 20.0624 465.929C20.7572 466.202 21.7994 466.657 22.5811 466.749C23.0153 466.749 24.0576 465.929 24.0576 465.929C25.0998 466.111 25.6209 468.206 26.4026 468.753C27.358 469.572 28.1396 469.755 29.3556 470.028C31.8743 470.574 35.0878 471.576 36.8249 468.935C36.4774 470.848 38.9093 470.665 40.0384 470.939C39.9515 469.937 39.3436 469.026 38.5619 468.388C40.9938 468.57 40.0384 471.121 41.8623 471.85C43.1651 472.305 42.9914 471.121 44.0336 470.939C45.3364 470.757 46.3786 471.759 48.3762 470.848C48.8105 472.943 48.9842 475.038 51.416 475.311C52.8057 475.493 56.1929 472.761 55.9323 475.038C59.1459 474.036 60.2749 474.765 62.012 477.679C62.2725 475.858 63.6622 476.404 64.8781 476.313C66.8757 476.131 66.8757 476.313 68.4391 475.129C68.6128 475.038 69.7418 472.123 70.3498 473.945C70.6104 474.765 68.9602 476.677 68.4391 477.133C69.1339 477.497 71.5657 478.864 72.5211 478.59C73.3028 478.408 73.3028 476.951 74.2582 476.86C73.9976 477.679 73.8239 478.499 73.5633 479.319C75.3872 479.592 76.9506 478.317 78.4271 477.315C79.8167 481.05 83.8119 478.955 85.9832 481.779C87.1123 483.236 87.1991 484.42 89.3704 484.785C91.6286 485.149 93.6262 484.147 95.5369 486.06C94.929 484.876 93.4525 483.874 94.929 482.507C95.9712 484.056 96.4923 485.878 97.6214 487.244C97.7951 486.515 97.9688 485.787 98.1425 485.058C101.182 488.519 105.091 488.519 108.999 490.432V488.246C111.778 492.709 111.952 489.886 115.339 488.064C115.079 489.43 114.905 490.705 114.644 492.072C117.076 491.89 119.334 494.896 121.332 492.345C122.548 494.44 124.024 493.438 125.935 494.076C127.064 494.44 127.846 495.624 128.975 495.989C130.625 496.626 131.059 496.626 132.623 497.173C134.012 497.628 134.794 498.63 136.444 498.904C137.573 499.086 138.529 499.086 139.658 498.995C140.092 498.995 139.918 497.993 140.874 498.266C142.263 498.63 143.306 500.452 144.348 501.454C145.911 497.446 150.167 502.82 152.251 503.549C152.425 502.547 152.425 501.272 153.12 500.452C153.988 502.365 154.249 504.005 155.986 505.189C157.028 505.918 158.505 506.373 159.634 506.646C160.329 506.828 161.718 506.646 162.153 506.828C162.934 507.193 163.195 508.286 163.976 508.377C164.411 508.468 165.106 507.193 165.453 507.284C167.016 507.739 167.972 509.743 169.535 510.836C174.312 514.116 180.392 514.389 185.69 515.118C186.992 515.3 187.253 514.936 188.295 515.755C188.903 516.211 188.643 517.577 189.337 517.941C192.03 519.399 192.03 516.302 192.638 514.48C193.506 515.755 193.68 517.304 194.896 518.306C195.591 518.306 196.199 518.306 196.893 518.397C197.241 518.852 197.501 519.399 197.588 519.945C199.238 521.13 201.062 520.674 202.713 521.585C203.234 521.858 204.189 523.589 204.884 524.045C206.1 524.955 207.924 525.411 209.313 525.775C212.179 526.595 216.348 525.502 218.085 528.69C220.344 526.14 219.475 529.146 221.038 529.874C221.994 530.239 223.297 528.781 224.339 528.872C226.163 529.146 226.857 531.241 227.379 532.698C228.508 532.425 227.726 529.146 227.726 528.417C229.116 528.235 229.376 532.061 229.637 532.88C231.808 531.787 228.247 528.326 230.592 527.233C230.418 530.148 232.59 532.607 228.595 532.971C229.116 534.702 241.97 536.706 242.838 535.158C243.012 538.073 244.836 535.34 245.531 534.338C245.618 535.977 245.096 538.437 246.833 539.166C248.049 539.712 250.829 538.346 251.263 537.071C251.784 538.983 252.739 538.892 253.869 540.168C254.65 540.987 255.171 542.445 255.953 543.174C257.429 544.449 260.296 544.267 262.033 543.993C265.507 543.447 265.072 542.718 266.288 546.453C266.549 544.995 267.417 542.081 268.981 544.267C269.936 545.633 267.852 548.73 267.331 550.005C268.633 549.277 269.936 548.366 271.5 548.001C271.586 548.457 271.673 549.55 271.413 550.005C271.5 549.914 273.063 551.007 273.671 551.372C273.497 551.281 274.105 548.457 274.105 548.548C276.19 549.914 274.713 552.556 276.624 553.922C277.145 554.287 278.274 553.831 278.795 554.104C279.837 554.469 280.706 555.471 281.574 556.108C280.88 555.106 280.966 553.376 280.966 552.192C281.401 552.465 281.748 553.467 282.182 553.558C282.356 553.558 284.18 553.831 284.18 553.831C286.091 555.198 285.656 555.38 284.093 557.11C284.701 558.112 287.133 556.382 287.741 556.108C287.915 556.473 287.915 557.839 288.175 558.112C288.349 558.477 288.523 558.932 288.609 559.297C289.131 558.932 289.652 558.75 290.173 558.932C290.52 559.023 293.299 560.208 293.473 559.843C292.865 559.661 292.344 559.297 291.823 558.932C293.386 557.475 294.428 556.655 295.905 558.841C296.079 559.114 295.471 560.116 295.644 560.481C296.339 561.847 297.816 562.849 298.771 563.942C299.205 562.485 298.25 558.75 300.508 558.841C302.332 558.932 303.635 563.487 303.027 564.944C303.722 564.124 307.977 563.305 308.759 563.578C311.017 564.307 310.409 566.493 313.189 563.305C315.099 564.671 313.449 565.217 313.797 566.857C314.318 566.948 314.752 566.857 315.186 566.493C314.839 573.598 319.876 568.132 323.09 569.226C324.393 569.681 324.74 571.138 326.043 571.594C326.738 571.867 327.606 571.23 328.301 571.412C328.909 571.321 329.43 571.23 329.951 571.138C330.646 570.774 330.993 571.138 330.906 572.414C332.035 573.051 331.601 573.233 332.991 573.416C333.859 573.507 334.641 572.596 335.596 572.687C337.247 572.96 337.073 574.327 338.115 575.055C339.071 575.693 340.2 575.693 341.329 575.511C341.937 575.42 343.674 574.6 343.847 574.6C345.15 574.6 344.455 574.327 345.932 575.42C347.148 576.331 347.582 576.877 349.059 577.333C350.709 577.788 353.749 578.79 354.791 577.606C356.354 579.974 357.483 578.243 359.481 578.426C360.523 578.517 360.697 578.972 361.565 579.063C363.042 579.337 364.866 579.063 366.516 579.61C369.035 580.43 369.295 580.885 371.814 580.976C372.248 580.794 372.769 580.612 373.203 580.43C373.377 581.249 373.725 581.887 374.246 582.434C375.635 582.707 376.591 581.978 377.807 581.158C378.675 583.982 381.541 584.255 383.973 584.62C387.881 585.257 391.616 585.531 395.438 586.897C398.651 587.99 401.778 589.357 404.905 590.814C407.597 592.089 410.116 594.002 413.242 593.091C420.19 591.087 426.878 583.618 432.61 579.337C439.472 574.236 446.854 570.136 453.976 565.582C482.464 547.455 512.601 532.152 540.741 513.296C556.114 503.003 570.358 490.888 586.773 482.507C584.428 492.709 580.433 503.003 581.128 513.66C581.388 517.941 582.604 523.043 585.818 526.049C589.726 529.783 594.069 527.415 597.89 524.773C605.967 519.126 611.265 510.836 617.258 503.094C624.38 493.894 629.852 484.056 635.15 473.58C636.366 475.402 635.41 478.499 635.497 480.594C635.497 483.236 636.192 485.695 637.321 488.064C640.274 494.076 645.919 495.533 651.044 491.434C660.858 483.509 666.59 469.39 671.888 458.095C674.928 463.925 679.184 471.394 686.393 467.204C692.385 463.743 695.859 456 697.683 449.441C703.589 429.766 701.852 410.272 702.721 390.688Z" fill="#2A344D"/>
<path fill-rule="evenodd" clip-rule="evenodd" d="M693.689 275.823C692.994 274.092 692.733 274.365 693.949 272.726C694.904 273.728 694.123 274.547 693.689 275.823ZM723.826 380.668C721.916 374.929 723.131 368.735 721.916 362.905C721.394 360.264 720.526 357.622 720.265 354.889C720.092 353.705 719.136 348.24 719.831 347.329C717.66 345.962 717.66 344.96 717.139 342.228C717.92 341.408 717.833 340.679 716.878 340.042C716.27 339.222 715.662 338.402 714.967 337.673C717.747 339.04 716.096 335.487 715.836 333.392C715.575 331.752 715.488 330.022 714.967 328.473C714.359 326.56 712.883 325.558 715.836 325.558C714.881 324.374 713.404 323.19 712.883 321.732C712.188 319.637 713.317 316.996 711.928 315.174C711.146 314.172 706.977 313.807 707.759 311.53C708.106 310.437 709.756 311.257 710.277 310.437C712.275 307.34 706.282 306.065 706.022 304.79C705.674 303.059 707.845 302.694 707.932 301.146C708.019 299.597 705.761 297.047 705.153 295.68C704.285 295.863 703.416 297.229 702.461 296.591C702.287 296.5 702.548 291.126 702.374 290.397C702.2 289.668 701.766 287.847 701.592 287.482C700.984 286.116 699.247 285.478 698.9 283.839C698.726 282.837 702.374 281.379 698.205 281.379C699.681 278.646 696.989 277.007 695.947 274.639C694.644 271.633 693.949 268.353 692.646 265.347C691.344 262.432 689.954 259.609 688.13 256.967C686.48 254.599 685.785 252.321 684.395 249.862C684.135 249.68 683.874 249.406 683.614 249.224C682.485 249.406 682.137 248.86 682.571 247.676C681.703 246.4 681.095 244.943 680.313 243.577C679.445 242.028 678.316 240.662 677.36 239.113C676.144 237.018 675.797 234.741 674.494 232.646C672.844 230.095 671.02 227.909 669.457 225.267C667.546 221.988 665.462 219.893 663.03 217.343C661.901 216.158 661.727 213.061 660.337 211.331C658.774 209.418 657.297 208.962 656.255 206.503C654.866 203.315 652.868 201.766 650.87 199.033C649.22 196.756 648.439 194.114 646.615 191.928C645.051 190.015 643.314 188.285 641.664 186.463C639.58 184.186 638.016 181.453 635.932 179.267C636.279 179.54 634.021 177.718 634.195 177.809C633.674 177.536 632.11 177.354 632.371 177.445C629.07 175.441 624.988 168.062 620.125 171.979C617.519 174.074 618.822 177.809 620.559 179.813C621.341 180.724 625.336 185.005 626.204 183.184C627.16 184.55 630.026 191.291 632.458 189.378C632.197 191.655 633.5 190.926 634.369 192.475C634.89 193.477 634.629 194.023 635.063 195.572C636.192 199.944 640.361 204.317 642.619 208.142C648.265 217.707 654.431 226.816 659.99 236.38C665.375 245.49 671.368 254.143 676.492 263.434C682.311 274.001 689.606 283.93 694.036 295.225C694.21 295.589 695.426 296.227 695.686 296.774C696.207 297.776 696.12 299.506 696.468 300.599C697.684 304.516 699.595 308.342 701.766 311.621C703.677 314.445 703.85 318.362 705.153 321.641C706.977 326.378 708.975 331.024 710.798 335.669C713.578 343.048 715.488 350.062 717.486 357.713C718.702 362.723 719.744 367.642 720.178 372.743C720.526 377.48 720.613 382.399 722.263 386.862C723.218 385.314 724.608 382.945 723.826 380.668Z" fill="#2A344D"/>
<path fill-rule="evenodd" clip-rule="evenodd" d="M81.8146 481.87C79.817 481.414 77.9063 480.868 77.472 478.408C77.2115 479.592 76.8641 480.685 76.6035 481.87C79.0354 482.416 81.5541 483.054 83.986 483.6C83.4648 482.507 83.0306 482.052 81.8146 481.87Z" fill="#2A344D"/>
<path fill-rule="evenodd" clip-rule="evenodd" d="M87.2858 83.2571C87.4595 82.5284 87.6332 81.8907 87.8938 81.2531C88.0675 81.8907 88.8491 83.2571 88.4149 83.8947C87.7201 84.6234 87.1121 84.2591 87.2858 83.2571ZM97.187 63.5815C97.8818 63.8548 99.2714 63.9459 100.14 64.2191C97.9686 66.132 97.6212 65.5855 94.8419 65.3122C94.6682 63.3993 95.4499 62.7617 97.187 63.5815ZM78.6874 111.768C78.948 111.768 79.2954 111.768 79.556 111.768C79.556 110.949 79.556 110.038 79.4691 109.218C82.3352 109.856 80.7719 104.572 79.8165 103.479C82.6826 103.57 84.0723 94.188 84.9408 92.3661C85.7225 90.7265 86.6778 90.0889 87.199 88.176C87.7201 86.4452 88.2412 84.8967 89.0228 83.2571C90.673 79.5224 92.9312 76.152 92.4969 71.7796C93.8866 75.0589 95.1894 71.7796 96.0579 70.2311C97.5344 67.6806 101.095 64.4924 101.443 61.4864C101.79 58.8448 99.8794 58.7537 101.008 56.2942C102.224 53.7437 103.093 54.017 105.091 53.1972C106.393 52.6506 106.654 53.2883 107.522 51.5575C108.13 50.4644 107.87 49.6446 108.651 48.7337C108.999 49.007 109.346 49.0981 109.694 49.0981C110.302 48.2783 110.736 47.2763 110.91 46.2743C111.431 44.8168 111.691 43.5416 112.386 42.1752C113.081 40.8999 114.384 37.4385 115.079 36.8919C115.773 36.2543 119.855 36.5276 119.855 36.6187C121.506 34.4325 118.466 32.1552 122.722 32.7018C121.853 31.0621 124.806 28.9671 125.674 28.0561C127.846 25.7789 128.019 24.6858 128.454 21.862C128.714 20.4045 127.151 20.5867 129.235 20.2224C130.104 20.0402 130.886 21.2243 131.494 21.0422C134.186 20.3134 131.407 20.4956 132.102 19.3114C132.362 18.9471 133.491 17.4896 133.491 17.4896C133.404 17.5807 133.752 16.2144 134.012 15.85C134.533 15.85 135.055 15.6678 135.489 15.5767C135.749 15.0302 135.923 14.4836 136.184 13.9371C138.094 12.2975 140.96 11.4777 142.263 9.65584C143.132 8.47166 142.871 7.28748 144 6.1033C145.043 5.01022 146.432 5.83003 146.693 3.1884C146.953 -0.0908585 143.653 -1.54831 142.263 1.73096C138.529 -3.00576 123.069 14.4836 121.332 16.7609C113.602 26.872 105.959 37.0741 99.532 48.005C93.3655 58.7537 88.2412 70.0489 84.3328 81.8907C82.4221 87.6294 81.2061 93.277 80.0771 99.1979C79.6428 101.202 76.7767 109.947 77.9926 111.951C78.1663 111.86 78.4269 111.768 78.6874 111.768Z" fill="#2A344D"/>
<path fill-rule="evenodd" clip-rule="evenodd" d="M689.52 355.618C690.822 354.707 690.822 354.707 691.082 352.976C689.259 353.341 689.259 353.341 689.52 355.618Z" fill="#2A344D"/>
<path fill-rule="evenodd" clip-rule="evenodd" d="M45.163 471.849C45.2508 471.849 45.2508 471.849 45.163 471.849C45.0753 471.759 45.2508 471.849 45.163 471.849Z" fill="#2A344D"/>
<path fill-rule="evenodd" clip-rule="evenodd" d="M44.295 472.761C44.7292 473.671 45.3372 473.945 46.2057 473.398C46.64 474.036 43.2527 470.21 44.295 472.761Z" fill="#2A344D"/>
<path fill-rule="evenodd" clip-rule="evenodd" d="M103.354 54.9279C101.271 59.1181 103.875 56.1121 103.701 57.4784C103.788 56.5675 104.135 55.2922 103.354 54.9279Z" fill="#2A344D"/>
<path fill-rule="evenodd" clip-rule="evenodd" d="M436.172 120.149C437.04 127.709 446.941 124.157 449.113 119.602C450.763 116.323 454.758 103.115 450.415 100.382C447.202 98.287 446.507 107.214 445.639 109.127C444.336 112.406 443.207 110.129 440.254 110.949C436.953 111.86 435.737 116.961 436.172 120.149Z" fill="#2A344D"/>
<path fill-rule="evenodd" clip-rule="evenodd" d="M425.401 106.303C428.962 107.123 432.35 106.667 434.868 103.752C436.258 102.113 438.082 98.9247 435.563 97.3761C433.305 95.9187 430.699 99.289 428.354 98.5603C425.141 97.6494 426.791 94.0058 425.662 91.5463C421.58 94.0969 419.322 104.937 425.401 106.303Z" fill="#2A344D"/>
<path fill-rule="evenodd" clip-rule="evenodd" d="M429.05 125.341C425.663 125.341 425.663 129.713 427.4 131.626C429.137 133.448 433.393 135.27 435.651 133.812C440.167 131.08 431.743 125.614 429.05 125.341Z" fill="#2A344D"/>
<path fill-rule="evenodd" clip-rule="evenodd" d="M231.634 299.415C232.329 299.78 234.5 301.692 235.369 300.782C234.066 299.415 232.85 298.14 231.547 296.773C230.852 297.593 230.418 298.778 231.634 299.415Z" fill="#2A344D"/>
<path fill-rule="evenodd" clip-rule="evenodd" d="M215.567 107.396C215.219 107.669 214.872 107.943 214.524 108.216C215.74 109.309 215.74 109.582 216.956 108.58C216.609 108.125 216.088 107.669 215.567 107.396Z" fill="#2A344D"/>
<path fill-rule="evenodd" clip-rule="evenodd" d="M445.552 357.804C444.857 356.529 443.554 358.897 442.686 359.262C441.296 359.899 440.08 356.529 440.514 360.537C437.301 358.988 435.39 362.541 433.306 364.363C430.353 367.004 426.792 368.371 424.881 372.014C434.087 374.292 444.075 366.002 450.937 360.537C452.066 359.626 457.624 355.163 453.889 354.707C452.326 354.616 446.681 359.99 445.552 357.804Z" fill="#2A344D"/>
<path fill-rule="evenodd" clip-rule="evenodd" d="M442.772 350.062C444.596 348.604 440.688 348.422 440.08 348.331C440.167 349.515 440.167 350.699 440.254 351.883C441.122 351.246 441.991 350.699 442.772 350.062Z" fill="#2A344D"/>
<path fill-rule="evenodd" clip-rule="evenodd" d="M436.084 354.98C436.606 354.616 438.082 353.523 437.127 352.703C436.171 353.341 435.563 354.343 435.39 355.436C435.563 355.345 435.824 355.163 436.084 354.98Z" fill="#2A344D"/>
<path fill-rule="evenodd" clip-rule="evenodd" d="M287.653 259.335C286.524 259.791 286.004 260.519 286.09 261.612C287.827 261.157 287.479 259.426 287.653 259.335Z" fill="#2A344D"/>
</g>
<defs>
<clipPath id="clip0_2648_2448">
<rect width="724" height="593" fill="white" transform="translate(0 0.000427246)"/>
</clipPath>
</defs>
</svg>
